<svg width="200" height="24" viewBox="0 0 200 24" fill="none" xmlns="http://www.w3.org/2000/svg">
<g clip-path="url(#clip0_670_1513)">
<path d="M102.782 18.6709C99.1111 15.7864 95.0444 13.5464 90.68 11.9909C95.0444 10.4398 99.1111 8.20867 102.782 5.33312C103.364 4.87534 103.738 4.16867 103.738 3.37312C103.733 2.00423 102.622 0.888672 101.249 0.888672C100.671 0.888672 100.142 1.08867 99.7155 1.41756C96.0667 4.27089 91.9867 6.41312 87.5822 7.78645C84.4311 8.76867 81.1689 9.32867 77.8755 9.46645V3.37756C77.8755 2.00423 76.76 0.888672 75.3867 0.888672C74.0133 0.888672 72.8978 2.00423 72.8978 3.37756V20.6264C72.8978 21.9998 74.0089 23.1153 75.3867 23.1153C76.7644 23.1153 77.8755 21.9998 77.8755 20.6264V14.5109C81.1689 14.6487 84.4311 15.2087 87.5822 16.1953C91.9867 17.5731 96.0711 19.7198 99.7155 22.582C100.138 22.9109 100.671 23.1109 101.249 23.1109C102.622 23.1109 103.738 21.9953 103.738 20.622C103.738 19.8265 103.364 19.1242 102.787 18.6665L102.782 18.6709Z" fill="#00C3B4"/>
<path d="M35.9511 0.888672H2.48889C1.11556 0.888672 0 2.00423 0 3.37756C0 4.75089 1.11556 5.86645 2.48889 5.86645H16.7333V20.6264C16.7333 21.9998 17.8444 23.1153 19.2222 23.1153C20.6 23.1153 21.7111 21.9998 21.7111 20.6264V5.86201H35.9556C37.3289 5.86201 38.4444 4.74645 38.4444 3.37312C38.4444 1.99978 37.3244 0.888672 35.9511 0.888672Z" fill="#00C3B4"/>
<path d="M200 3.37732C200 2.00399 198.884 0.888433 197.511 0.888433C196.138 0.888433 195.022 2.00399 195.022 3.37732V16.0884C195.022 16.2618 194.978 16.4351 194.889 16.5907C194.609 17.0707 193.996 17.2395 193.511 16.9595L166.716 1.49732C164.547 0.243989 161.769 0.986211 160.516 3.15954C160.102 3.8751 159.907 4.65732 159.907 5.42621V20.6262C159.907 21.9995 161.022 23.1151 162.396 23.1151C163.769 23.1151 164.884 22.004 164.884 20.6262V7.9151C164.884 7.74177 164.929 7.56843 165.018 7.41288C165.298 6.93288 165.911 6.76399 166.396 7.04399L193.196 22.5062C195.364 23.7595 198.142 23.0173 199.396 20.844C199.809 20.1284 200.004 19.3462 200.004 18.5773V3.37732H200Z" fill="#00C3B4"/>
<path d="M146.16 0.888672H127.013C121.231 0.888672 116.542 5.57756 116.542 11.3598V12.6398C116.542 18.422 121.231 23.1109 127.013 23.1109H146.16C151.942 23.1109 156.631 18.422 156.631 12.6398V11.3598C156.631 5.57756 151.947 0.888672 146.16 0.888672ZM151.729 12.6042C151.729 15.662 149.253 18.1376 146.196 18.1376H127.049C123.991 18.1376 121.516 15.662 121.516 12.6042V11.3953C121.516 8.33756 123.991 5.862 127.049 5.862H146.196C149.253 5.862 151.729 8.33756 151.729 11.3953V12.6042Z" fill="#00C3B4"/>
<path d="M51.9956 14.4887C50.6222 14.4887 49.5067 13.3776 49.5067 11.9998C49.5067 10.622 50.6178 9.51089 51.9956 9.51089H65.76C67.1333 9.51089 68.2489 10.622 68.2489 11.9998C68.2489 13.3776 67.1378 14.4887 65.76 14.4887H51.9956ZM67.4933 0.888672C68.8667 0.888672 69.9822 1.99978 69.9822 3.37756C69.9822 4.75534 68.8711 5.86645 67.4933 5.86645H50.8489C47.7911 5.86645 45.3156 8.34201 45.3156 11.3998V12.6087C45.3156 15.6665 47.7911 18.142 50.8489 18.142H67.4933C68.8667 18.142 69.9822 19.2531 69.9822 20.6309C69.9822 22.0087 68.8711 23.1198 67.4933 23.1198H50.8133C45.0311 23.1198 40.3422 18.4309 40.3422 12.6487V11.3687C40.3422 5.57756 45.0311 0.888672 50.8133 0.888672H67.4933Z" fill="#00C3B4"/>
<path d="M108.018 20.6264C108.018 21.9998 109.129 23.1153 110.507 23.1153C111.884 23.1153 112.996 22.0042 112.996 20.6264V3.37756C112.991 2.00423 111.88 0.888672 110.507 0.888672C109.133 0.888672 108.018 1.99978 108.018 3.37756V20.6264Z" fill="#00C3B4"/>
</g>
<defs>
<clipPath id="clip0_670_1513">
<rect width="200" height="22.2222" fill="white" transform="translate(0 0.888672)"/>
</clipPath>
</defs>
</svg>
