<svg width="578" height="698" viewBox="0 0 578 698" fill="none" xmlns="http://www.w3.org/2000/svg">
<g clip-path="url(#clip0_1422_2441)">
<rect width="590.202" height="698" fill="#00C3B4"/>
<path d="M65.6208 640.8H66.8688V652H65.6208V640.8ZM69.7421 643.808H70.8941V645.216C71.0861 644.715 71.4061 644.325 71.8541 644.048C72.3021 643.76 72.8461 643.616 73.4861 643.616C74.4354 643.616 75.1714 643.92 75.6941 644.528C76.2274 645.136 76.4941 645.957 76.4941 646.992V652H75.2781V647.168C75.2781 646.389 75.1074 645.787 74.7661 645.36C74.4354 644.923 73.9394 644.704 73.2781 644.704C72.8301 644.704 72.4301 644.805 72.0781 645.008C71.7261 645.211 71.4487 645.504 71.2461 645.888C71.0541 646.261 70.9581 646.704 70.9581 647.216V652H69.7421V643.808ZM85.5763 652.096C84.7763 652.096 84.1737 651.883 83.7683 651.456C83.3737 651.019 83.1763 650.379 83.1763 649.536V644.832H81.6083V643.808H83.1763V641.632H84.3923V643.808H86.8243V644.832H84.3923V649.6C84.3923 650.069 84.5043 650.427 84.7283 650.672C84.963 650.917 85.3097 651.04 85.7683 651.04C86.1203 651.04 86.4777 650.987 86.8403 650.88V651.92C86.7123 651.973 86.531 652.016 86.2963 652.048C86.0723 652.08 85.8323 652.096 85.5763 652.096ZM88.0865 647.904C88.0865 647.093 88.2518 646.363 88.5825 645.712C88.9131 645.061 89.3665 644.549 89.9425 644.176C90.5185 643.803 91.1691 643.616 91.8945 643.616C92.6838 643.616 93.3558 643.797 93.9105 644.16C94.4758 644.512 94.8971 644.992 95.1745 645.6C95.4625 646.208 95.6065 646.885 95.6065 647.632V648.192H89.2705C89.3025 648.757 89.4251 649.269 89.6385 649.728C89.8518 650.176 90.1558 650.533 90.5505 650.8C90.9558 651.067 91.4305 651.2 91.9745 651.2C92.5611 651.2 93.0411 651.067 93.4145 650.8C93.7878 650.523 94.0705 650.155 94.2625 649.696H95.4465C95.2971 650.197 95.0571 650.635 94.7265 651.008C94.4065 651.381 94.0065 651.675 93.5265 651.888C93.0571 652.091 92.5398 652.192 91.9745 652.192C91.1745 652.192 90.4811 652 89.8945 651.616C89.3078 651.232 88.8598 650.715 88.5505 650.064C88.2411 649.413 88.0865 648.693 88.0865 647.904ZM94.4705 647.216C94.4278 646.704 94.2998 646.251 94.0865 645.856C93.8731 645.461 93.5798 645.152 93.2065 644.928C92.8331 644.693 92.3905 644.576 91.8785 644.576C91.3985 644.576 90.9718 644.693 90.5985 644.928C90.2358 645.163 89.9425 645.477 89.7185 645.872C89.5051 646.267 89.3665 646.715 89.3025 647.216H94.4705ZM97.3588 649.616C97.3588 648.88 97.6148 648.288 98.1268 647.84C98.6495 647.392 99.3642 647.141 100.271 647.088L102.911 646.912V646.608C102.911 645.968 102.745 645.472 102.415 645.12C102.084 644.768 101.593 644.592 100.943 644.592C100.377 644.592 99.9188 644.736 99.5668 645.024C99.2148 645.301 98.9908 645.669 98.8948 646.128H97.6948C97.8122 645.371 98.1588 644.763 98.7348 644.304C99.3108 643.845 100.041 643.616 100.927 643.616C101.951 643.616 102.74 643.888 103.295 644.432C103.849 644.965 104.127 645.685 104.127 646.592V652H102.943V650.72C102.772 651.147 102.452 651.499 101.983 651.776C101.513 652.053 100.948 652.192 100.287 652.192C99.4015 652.192 98.6922 651.957 98.1588 651.488C97.6255 651.008 97.3588 650.384 97.3588 649.616ZM98.5428 649.584C98.5428 650.096 98.7082 650.507 99.0388 650.816C99.3695 651.125 99.8388 651.28 100.447 651.28C100.916 651.28 101.337 651.173 101.711 650.96C102.084 650.747 102.377 650.443 102.591 650.048C102.804 649.643 102.911 649.163 102.911 648.608V647.792L100.735 647.936C100.009 647.989 99.4602 648.149 99.0868 648.416C98.7242 648.683 98.5428 649.072 98.5428 649.584ZM106.853 640.32H108.069V652H106.853V640.32ZM113.743 647.648C113.743 646.901 113.897 646.224 114.207 645.616C114.527 644.997 114.964 644.512 115.519 644.16C116.073 643.797 116.708 643.616 117.423 643.616C117.86 643.616 118.265 643.691 118.639 643.84C119.023 643.989 119.343 644.192 119.599 644.448C119.865 644.704 120.063 644.992 120.191 645.312V643.808H121.375V651.648C121.375 652.363 121.225 652.981 120.927 653.504C120.628 654.037 120.201 654.443 119.647 654.72C119.092 654.997 118.436 655.136 117.679 655.136C116.74 655.136 115.94 654.885 115.279 654.384C114.617 653.893 114.175 653.243 113.951 652.432H115.199C115.38 652.955 115.689 653.371 116.127 653.68C116.564 653.989 117.097 654.144 117.727 654.144C118.58 654.144 119.199 653.909 119.583 653.44C119.967 652.971 120.159 652.277 120.159 651.36V649.952C120.041 650.272 119.855 650.565 119.599 650.832C119.343 651.088 119.028 651.296 118.655 651.456C118.281 651.605 117.871 651.68 117.423 651.68C116.708 651.68 116.073 651.504 115.519 651.152C114.964 650.789 114.527 650.304 114.207 649.696C113.897 649.077 113.743 648.395 113.743 647.648ZM114.959 647.648C114.959 648.213 115.071 648.725 115.295 649.184C115.519 649.643 115.828 650.005 116.223 650.272C116.628 650.539 117.092 650.672 117.615 650.672C118.116 650.672 118.559 650.549 118.943 650.304C119.327 650.048 119.625 649.691 119.839 649.232C120.052 648.773 120.159 648.245 120.159 647.648C120.159 647.061 120.047 646.539 119.823 646.08C119.599 645.621 119.295 645.264 118.911 645.008C118.527 644.752 118.095 644.624 117.615 644.624C117.081 644.624 116.612 644.757 116.207 645.024C115.812 645.291 115.503 645.653 115.279 646.112C115.065 646.571 114.959 647.083 114.959 647.648ZM124.101 643.808H125.253V645.776C125.413 645.125 125.707 644.619 126.133 644.256C126.571 643.893 127.152 643.712 127.877 643.712C128.187 643.712 128.411 643.733 128.549 643.776V644.816C128.432 644.795 128.251 644.784 128.005 644.784C127.493 644.784 127.029 644.917 126.613 645.184C126.208 645.44 125.888 645.813 125.653 646.304C125.429 646.795 125.317 647.376 125.317 648.048V652H124.101V643.808ZM129.43 647.904C129.43 647.093 129.596 646.363 129.926 645.712C130.257 645.061 130.71 644.549 131.286 644.176C131.862 643.803 132.513 643.616 133.238 643.616C134.028 643.616 134.7 643.797 135.254 644.16C135.82 644.512 136.241 644.992 136.518 645.6C136.806 646.208 136.95 646.885 136.95 647.632V648.192H130.614C130.646 648.757 130.769 649.269 130.982 649.728C131.196 650.176 131.5 650.533 131.894 650.8C132.3 651.067 132.774 651.2 133.318 651.2C133.905 651.2 134.385 651.067 134.758 650.8C135.132 650.523 135.414 650.155 135.606 649.696H136.79C136.641 650.197 136.401 650.635 136.07 651.008C135.75 651.381 135.35 651.675 134.87 651.888C134.401 652.091 133.884 652.192 133.318 652.192C132.518 652.192 131.825 652 131.238 651.616C130.652 651.232 130.204 650.715 129.894 650.064C129.585 649.413 129.43 648.693 129.43 647.904ZM135.814 647.216C135.772 646.704 135.644 646.251 135.43 645.856C135.217 645.461 134.924 645.152 134.55 644.928C134.177 644.693 133.734 644.576 133.222 644.576C132.742 644.576 132.316 644.693 131.942 644.928C131.58 645.163 131.286 645.477 131.062 645.872C130.849 646.267 130.71 646.715 130.646 647.216H135.814ZM138.446 647.904C138.446 647.093 138.611 646.363 138.942 645.712C139.272 645.061 139.726 644.549 140.302 644.176C140.878 643.803 141.528 643.616 142.254 643.616C143.043 643.616 143.715 643.797 144.27 644.16C144.835 644.512 145.256 644.992 145.534 645.6C145.822 646.208 145.966 646.885 145.966 647.632V648.192H139.63C139.662 648.757 139.784 649.269 139.998 649.728C140.211 650.176 140.515 650.533 140.91 650.8C141.315 651.067 141.79 651.2 142.334 651.2C142.92 651.2 143.4 651.067 143.774 650.8C144.147 650.523 144.43 650.155 144.622 649.696H145.806C145.656 650.197 145.416 650.635 145.086 651.008C144.766 651.381 144.366 651.675 143.886 651.888C143.416 652.091 142.899 652.192 142.334 652.192C141.534 652.192 140.84 652 140.254 651.616C139.667 651.232 139.219 650.715 138.91 650.064C138.6 649.413 138.446 648.693 138.446 647.904ZM144.83 647.216C144.787 646.704 144.659 646.251 144.446 645.856C144.232 645.461 143.939 645.152 143.566 644.928C143.192 644.693 142.75 644.576 142.238 644.576C141.758 644.576 141.331 644.693 140.958 644.928C140.595 645.163 140.302 645.477 140.078 645.872C139.864 646.267 139.726 646.715 139.662 647.216H144.83ZM148.07 643.808H149.222V645.216C149.414 644.715 149.734 644.325 150.182 644.048C150.63 643.76 151.174 643.616 151.814 643.616C152.764 643.616 153.5 643.92 154.022 644.528C154.556 645.136 154.822 645.957 154.822 646.992V652H153.606V647.168C153.606 646.389 153.436 645.787 153.094 645.36C152.764 644.923 152.268 644.704 151.606 644.704C151.158 644.704 150.758 644.805 150.406 645.008C150.054 645.211 149.777 645.504 149.574 645.888C149.382 646.261 149.286 646.704 149.286 647.216V652H148.07V643.808ZM161.056 640.32H162.272V652H161.056V640.32ZM168.366 652.192C167.63 652.192 166.958 652 166.35 651.616C165.753 651.221 165.284 650.699 164.942 650.048C164.601 649.387 164.43 648.672 164.43 647.904C164.43 647.136 164.601 646.427 164.942 645.776C165.284 645.115 165.753 644.592 166.35 644.208C166.958 643.813 167.63 643.616 168.366 643.616C169.102 643.616 169.769 643.813 170.366 644.208C170.974 644.592 171.449 645.115 171.79 645.776C172.132 646.427 172.302 647.136 172.302 647.904C172.302 648.672 172.132 649.387 171.79 650.048C171.449 650.699 170.974 651.221 170.366 651.616C169.769 652 169.102 652.192 168.366 652.192ZM168.366 651.136C168.9 651.136 169.374 650.987 169.79 650.688C170.206 650.379 170.526 649.979 170.75 649.488C170.974 648.987 171.086 648.459 171.086 647.904C171.086 647.349 170.974 646.827 170.75 646.336C170.526 645.835 170.206 645.435 169.79 645.136C169.374 644.827 168.9 644.672 168.366 644.672C167.833 644.672 167.358 644.827 166.942 645.136C166.526 645.435 166.206 645.835 165.982 646.336C165.758 646.827 165.646 647.349 165.646 647.904C165.646 648.459 165.758 648.987 165.982 649.488C166.206 649.979 166.526 650.379 166.942 650.688C167.358 650.987 167.833 651.136 168.366 651.136ZM173.743 647.648C173.743 646.901 173.897 646.224 174.207 645.616C174.527 644.997 174.964 644.512 175.519 644.16C176.073 643.797 176.708 643.616 177.423 643.616C177.86 643.616 178.265 643.691 178.639 643.84C179.023 643.989 179.343 644.192 179.599 644.448C179.865 644.704 180.063 644.992 180.191 645.312V643.808H181.375V651.648C181.375 652.363 181.225 652.981 180.927 653.504C180.628 654.037 180.201 654.443 179.647 654.72C179.092 654.997 178.436 655.136 177.679 655.136C176.74 655.136 175.94 654.885 175.279 654.384C174.617 653.893 174.175 653.243 173.951 652.432H175.199C175.38 652.955 175.689 653.371 176.127 653.68C176.564 653.989 177.097 654.144 177.727 654.144C178.58 654.144 179.199 653.909 179.583 653.44C179.967 652.971 180.159 652.277 180.159 651.36V649.952C180.041 650.272 179.855 650.565 179.599 650.832C179.343 651.088 179.028 651.296 178.655 651.456C178.281 651.605 177.871 651.68 177.423 651.68C176.708 651.68 176.073 651.504 175.519 651.152C174.964 650.789 174.527 650.304 174.207 649.696C173.897 649.077 173.743 648.395 173.743 647.648ZM174.959 647.648C174.959 648.213 175.071 648.725 175.295 649.184C175.519 649.643 175.828 650.005 176.223 650.272C176.628 650.539 177.092 650.672 177.615 650.672C178.116 650.672 178.559 650.549 178.943 650.304C179.327 650.048 179.625 649.691 179.839 649.232C180.052 648.773 180.159 648.245 180.159 647.648C180.159 647.061 180.047 646.539 179.823 646.08C179.599 645.621 179.295 645.264 178.911 645.008C178.527 644.752 178.095 644.624 177.615 644.624C177.081 644.624 176.612 644.757 176.207 645.024C175.812 645.291 175.503 645.653 175.279 646.112C175.065 646.571 174.959 647.083 174.959 647.648ZM187.397 652.192C186.661 652.192 185.989 652 185.381 651.616C184.784 651.221 184.315 650.699 183.973 650.048C183.632 649.387 183.461 648.672 183.461 647.904C183.461 647.136 183.632 646.427 183.973 645.776C184.315 645.115 184.784 644.592 185.381 644.208C185.989 643.813 186.661 643.616 187.397 643.616C188.133 643.616 188.8 643.813 189.397 644.208C190.005 644.592 190.48 645.115 190.821 645.776C191.163 646.427 191.333 647.136 191.333 647.904C191.333 648.672 191.163 649.387 190.821 650.048C190.48 650.699 190.005 651.221 189.397 651.616C188.8 652 188.133 652.192 187.397 652.192ZM187.397 651.136C187.931 651.136 188.405 650.987 188.821 650.688C189.237 650.379 189.557 649.979 189.781 649.488C190.005 648.987 190.117 648.459 190.117 647.904C190.117 647.349 190.005 646.827 189.781 646.336C189.557 645.835 189.237 645.435 188.821 645.136C188.405 644.827 187.931 644.672 187.397 644.672C186.864 644.672 186.389 644.827 185.973 645.136C185.557 645.435 185.237 645.835 185.013 646.336C184.789 646.827 184.677 647.349 184.677 647.904C184.677 648.459 184.789 648.987 185.013 649.488C185.237 649.979 185.557 650.379 185.973 650.688C186.389 650.987 186.864 651.136 187.397 651.136ZM199.826 652.192C198.844 652.192 198.044 651.947 197.426 651.456C196.807 650.955 196.418 650.272 196.258 649.408H197.426C197.554 649.973 197.815 650.421 198.21 650.752C198.615 651.072 199.154 651.232 199.826 651.232C200.455 651.232 200.956 651.088 201.33 650.8C201.703 650.501 201.89 650.112 201.89 649.632C201.89 649.269 201.756 648.981 201.49 648.768C201.234 648.544 200.828 648.384 200.274 648.288L198.69 648.016C197.964 647.899 197.41 647.675 197.026 647.344C196.652 647.003 196.466 646.549 196.466 645.984C196.466 645.504 196.599 645.088 196.866 644.736C197.132 644.373 197.5 644.096 197.97 643.904C198.439 643.712 198.972 643.616 199.57 643.616C200.498 643.616 201.239 643.84 201.794 644.288C202.359 644.736 202.679 645.349 202.754 646.128H201.586C201.5 645.669 201.287 645.296 200.946 645.008C200.604 644.72 200.14 644.576 199.554 644.576C198.967 644.576 198.492 644.693 198.13 644.928C197.778 645.163 197.602 645.477 197.602 645.872C197.602 646.192 197.703 646.437 197.906 646.608C198.108 646.768 198.466 646.891 198.978 646.976L200.626 647.264C201.426 647.403 202.023 647.659 202.418 648.032C202.823 648.405 203.026 648.917 203.026 649.568C203.026 650.091 202.882 650.549 202.594 650.944C202.316 651.339 201.932 651.648 201.442 651.872C200.962 652.085 200.423 652.192 199.826 652.192ZM205.07 640.32H206.286V645.216C206.468 644.704 206.782 644.309 207.23 644.032C207.678 643.755 208.206 643.616 208.814 643.616C209.753 643.616 210.489 643.915 211.022 644.512C211.556 645.109 211.822 645.92 211.822 646.944V652H210.606V647.12C210.606 646.363 210.436 645.771 210.094 645.344C209.764 644.917 209.268 644.704 208.606 644.704C208.158 644.704 207.758 644.805 207.406 645.008C207.054 645.2 206.777 645.488 206.574 645.872C206.382 646.245 206.286 646.693 206.286 647.216V652H205.07V640.32ZM217.757 652.192C217.021 652.192 216.349 652 215.741 651.616C215.143 651.221 214.674 650.699 214.333 650.048C213.991 649.387 213.821 648.672 213.821 647.904C213.821 647.136 213.991 646.427 214.333 645.776C214.674 645.115 215.143 644.592 215.741 644.208C216.349 643.813 217.021 643.616 217.757 643.616C218.493 643.616 219.159 643.813 219.757 644.208C220.365 644.592 220.839 645.115 221.181 645.776C221.522 646.427 221.693 647.136 221.693 647.904C221.693 648.672 221.522 649.387 221.181 650.048C220.839 650.699 220.365 651.221 219.757 651.616C219.159 652 218.493 652.192 217.757 652.192ZM217.757 651.136C218.29 651.136 218.765 650.987 219.181 650.688C219.597 650.379 219.917 649.979 220.141 649.488C220.365 648.987 220.477 648.459 220.477 647.904C220.477 647.349 220.365 646.827 220.141 646.336C219.917 645.835 219.597 645.435 219.181 645.136C218.765 644.827 218.29 644.672 217.757 644.672C217.223 644.672 216.749 644.827 216.333 645.136C215.917 645.435 215.597 645.835 215.373 646.336C215.149 646.827 215.037 647.349 215.037 647.904C215.037 648.459 215.149 648.987 215.373 649.488C215.597 649.979 215.917 650.379 216.333 650.688C216.749 650.987 217.223 651.136 217.757 651.136ZM223.693 643.808H224.909V648.672C224.909 649.451 225.075 650.059 225.405 650.496C225.736 650.923 226.232 651.136 226.893 651.136C227.341 651.136 227.736 651.035 228.077 650.832C228.419 650.629 228.685 650.341 228.877 649.968C229.069 649.584 229.165 649.136 229.165 648.624V643.808H230.381V652H229.229V650.624C229.048 651.093 228.733 651.472 228.285 651.76C227.848 652.048 227.315 652.192 226.685 652.192C225.747 652.192 225.011 651.888 224.477 651.28C223.955 650.672 223.693 649.851 223.693 648.816V643.808ZM233.181 640.32H234.397V652H233.181V640.32ZM243.195 652V650.368C242.993 650.891 242.625 651.328 242.091 651.68C241.558 652.021 240.961 652.192 240.299 652.192C239.595 652.192 238.955 652 238.379 651.616C237.814 651.232 237.366 650.715 237.035 650.064C236.715 649.403 236.555 648.683 236.555 647.904C236.555 647.125 236.715 646.411 237.035 645.76C237.366 645.099 237.814 644.576 238.379 644.192C238.955 643.808 239.595 643.616 240.299 643.616C240.95 643.616 241.537 643.792 242.059 644.144C242.593 644.485 242.961 644.917 243.163 645.44V640.32H244.379V652H243.195ZM243.163 647.904C243.163 647.328 243.041 646.795 242.795 646.304C242.561 645.803 242.23 645.408 241.803 645.12C241.387 644.821 240.923 644.672 240.411 644.672C239.899 644.672 239.441 644.821 239.035 645.12C238.641 645.408 238.331 645.803 238.107 646.304C237.883 646.795 237.771 647.328 237.771 647.904C237.771 648.48 237.883 649.019 238.107 649.52C238.331 650.011 238.641 650.405 239.035 650.704C239.441 650.992 239.899 651.136 240.411 651.136C240.923 651.136 241.387 650.992 241.803 650.704C242.23 650.405 242.561 650.011 242.795 649.52C243.041 649.019 243.163 648.48 243.163 647.904ZM250.617 640.32H251.833V645.44C252.036 644.917 252.398 644.485 252.921 644.144C253.454 643.792 254.046 643.616 254.697 643.616C255.401 643.616 256.036 643.808 256.601 644.192C257.177 644.576 257.625 645.099 257.945 645.76C258.276 646.411 258.441 647.125 258.441 647.904C258.441 648.683 258.276 649.403 257.945 650.064C257.625 650.715 257.177 651.232 256.601 651.616C256.036 652 255.401 652.192 254.697 652.192C254.036 652.192 253.438 652.021 252.905 651.68C252.372 651.328 252.004 650.891 251.801 650.368V652H250.617V640.32ZM251.833 647.904C251.833 648.48 251.95 649.019 252.185 649.52C252.43 650.011 252.761 650.405 253.177 650.704C253.604 650.992 254.073 651.136 254.585 651.136C255.097 651.136 255.55 650.992 255.945 650.704C256.35 650.405 256.665 650.011 256.889 649.52C257.113 649.019 257.225 648.48 257.225 647.904C257.225 647.328 257.113 646.795 256.889 646.304C256.665 645.803 256.35 645.408 255.945 645.12C255.55 644.821 255.097 644.672 254.585 644.672C254.073 644.672 253.604 644.821 253.177 645.12C252.761 645.408 252.43 645.803 252.185 646.304C251.95 646.795 251.833 647.328 251.833 647.904ZM259.883 647.904C259.883 647.093 260.049 646.363 260.379 645.712C260.71 645.061 261.163 644.549 261.739 644.176C262.315 643.803 262.966 643.616 263.691 643.616C264.481 643.616 265.153 643.797 265.707 644.16C266.273 644.512 266.694 644.992 266.971 645.6C267.259 646.208 267.403 646.885 267.403 647.632V648.192H261.067C261.099 648.757 261.222 649.269 261.435 649.728C261.649 650.176 261.953 650.533 262.347 650.8C262.753 651.067 263.227 651.2 263.771 651.2C264.358 651.2 264.838 651.067 265.211 650.8C265.585 650.523 265.867 650.155 266.059 649.696H267.243C267.094 650.197 266.854 650.635 266.523 651.008C266.203 651.381 265.803 651.675 265.323 651.888C264.854 652.091 264.337 652.192 263.771 652.192C262.971 652.192 262.278 652 261.691 651.616C261.105 651.232 260.657 650.715 260.347 650.064C260.038 649.413 259.883 648.693 259.883 647.904ZM266.267 647.216C266.225 646.704 266.097 646.251 265.883 645.856C265.67 645.461 265.377 645.152 265.003 644.928C264.63 644.693 264.187 644.576 263.675 644.576C263.195 644.576 262.769 644.693 262.395 644.928C262.033 645.163 261.739 645.477 261.515 645.872C261.302 646.267 261.163 646.715 261.099 647.216H266.267ZM273.103 643.808H274.319V652H273.103V643.808ZM273.071 640.624H274.351V642.272H273.071V640.624ZM277.117 643.808H278.269V645.216C278.461 644.715 278.781 644.325 279.229 644.048C279.677 643.76 280.221 643.616 280.861 643.616C281.81 643.616 282.546 643.92 283.069 644.528C283.602 645.136 283.869 645.957 283.869 646.992V652H282.653V647.168C282.653 646.389 282.482 645.787 282.141 645.36C281.81 644.923 281.314 644.704 280.653 644.704C280.205 644.704 279.805 644.805 279.453 645.008C279.101 645.211 278.824 645.504 278.621 645.888C278.429 646.261 278.333 646.704 278.333 647.216V652H277.117V643.808ZM290.231 643.808L291.927 650.496L294.135 643.808H295.351L297.543 650.496L299.255 643.808H300.423L298.103 652H297.031L294.743 644.912L292.455 652H291.383L289.063 643.808H290.231ZM302.18 640.32H303.396V645.216C303.577 644.704 303.892 644.309 304.34 644.032C304.788 643.755 305.316 643.616 305.924 643.616C306.862 643.616 307.598 643.915 308.132 644.512C308.665 645.109 308.932 645.92 308.932 646.944V652H307.716V647.12C307.716 646.363 307.545 645.771 307.204 645.344C306.873 644.917 306.377 644.704 305.716 644.704C305.268 644.704 304.868 644.805 304.516 645.008C304.164 645.2 303.886 645.488 303.684 645.872C303.492 646.245 303.396 646.693 303.396 647.216V652H302.18V640.32ZM311.65 643.808H312.866V652H311.65V643.808ZM311.618 640.624H312.898V642.272H311.618V640.624ZM318.592 652.096C317.792 652.096 317.189 651.883 316.784 651.456C316.389 651.019 316.192 650.379 316.192 649.536V644.832H314.624V643.808H316.192V641.632H317.408V643.808H319.84V644.832H317.408V649.6C317.408 650.069 317.52 650.427 317.744 650.672C317.979 650.917 318.325 651.04 318.784 651.04C319.136 651.04 319.493 650.987 319.856 650.88V651.92C319.728 651.973 319.547 652.016 319.312 652.048C319.088 652.08 318.848 652.096 318.592 652.096ZM321.102 647.904C321.102 647.093 321.267 646.363 321.598 645.712C321.929 645.061 322.382 644.549 322.958 644.176C323.534 643.803 324.185 643.616 324.91 643.616C325.699 643.616 326.371 643.797 326.926 644.16C327.491 644.512 327.913 644.992 328.19 645.6C328.478 646.208 328.622 646.885 328.622 647.632V648.192H322.286C322.318 648.757 322.441 649.269 322.654 649.728C322.867 650.176 323.171 650.533 323.566 650.8C323.971 651.067 324.446 651.2 324.99 651.2C325.577 651.2 326.057 651.067 326.43 650.8C326.803 650.523 327.086 650.155 327.278 649.696H328.462C328.313 650.197 328.073 650.635 327.742 651.008C327.422 651.381 327.022 651.675 326.542 651.888C326.073 652.091 325.555 652.192 324.99 652.192C324.19 652.192 323.497 652 322.91 651.616C322.323 651.232 321.875 650.715 321.566 650.064C321.257 649.413 321.102 648.693 321.102 647.904ZM327.486 647.216C327.443 646.704 327.315 646.251 327.102 645.856C326.889 645.461 326.595 645.152 326.222 644.928C325.849 644.693 325.406 644.576 324.894 644.576C324.414 644.576 323.987 644.693 323.614 644.928C323.251 645.163 322.958 645.477 322.734 645.872C322.521 646.267 322.382 646.715 322.318 647.216H327.486Z" fill="white" fill-opacity="0.9"/>
<path d="M64.6948 583.816H66.4588L66.7108 581.386H65.1448V579.478H66.9268L67.2508 576.4H69.3928L69.0688 579.478H71.2828L71.6068 576.4H73.7488L73.4248 579.478H74.9728V581.386H73.2088L72.9568 583.816H74.5228V585.724H72.7408L72.3988 589H70.2568L70.5988 585.724H68.4028L68.0428 589H65.9008L66.2608 585.724H64.6948V583.816ZM70.8148 583.816L71.0668 581.386H68.8528L68.6008 583.816H70.8148ZM81.7178 589.252C80.5538 589.252 79.5698 588.964 78.7658 588.388C77.9618 587.8 77.3618 587.014 76.9658 586.03C76.5698 585.034 76.3718 583.924 76.3718 582.7C76.3718 581.476 76.5698 580.372 76.9658 579.388C77.3618 578.392 77.9618 577.606 78.7658 577.03C79.5698 576.442 80.5538 576.148 81.7178 576.148C82.8818 576.148 83.8658 576.442 84.6698 577.03C85.4738 577.606 86.0738 578.392 86.4698 579.388C86.8658 580.372 87.0638 581.476 87.0638 582.7C87.0638 583.924 86.8658 585.034 86.4698 586.03C86.0738 587.014 85.4738 587.8 84.6698 588.388C83.8658 588.964 82.8818 589.252 81.7178 589.252ZM81.7178 586.624C82.2458 586.624 82.6778 586.45 83.0138 586.102C83.3618 585.754 83.6138 585.286 83.7698 584.698C83.9258 584.11 84.0038 583.444 84.0038 582.7C84.0038 581.956 83.9258 581.29 83.7698 580.702C83.6138 580.114 83.3618 579.646 83.0138 579.298C82.6778 578.95 82.2458 578.776 81.7178 578.776C81.1898 578.776 80.7518 578.95 80.4038 579.298C80.0678 579.646 79.8218 580.114 79.6658 580.702C79.5098 581.29 79.4318 581.956 79.4318 582.7C79.4318 583.444 79.5098 584.11 79.6658 584.698C79.8218 585.286 80.0678 585.754 80.4038 586.102C80.7518 586.45 81.1898 586.624 81.7178 586.624ZM94.0225 589.252C92.8585 589.252 91.8745 588.964 91.0705 588.388C90.2665 587.8 89.6665 587.014 89.2705 586.03C88.8745 585.034 88.6765 583.924 88.6765 582.7C88.6765 581.476 88.8745 580.372 89.2705 579.388C89.6665 578.392 90.2665 577.606 91.0705 577.03C91.8745 576.442 92.8585 576.148 94.0225 576.148C95.1865 576.148 96.1705 576.442 96.9745 577.03C97.7785 577.606 98.3785 578.392 98.7745 579.388C99.1705 580.372 99.3685 581.476 99.3685 582.7C99.3685 583.924 99.1705 585.034 98.7745 586.03C98.3785 587.014 97.7785 587.8 96.9745 588.388C96.1705 588.964 95.1865 589.252 94.0225 589.252ZM94.0225 586.624C94.5505 586.624 94.9825 586.45 95.3185 586.102C95.6665 585.754 95.9185 585.286 96.0745 584.698C96.2305 584.11 96.3085 583.444 96.3085 582.7C96.3085 581.956 96.2305 581.29 96.0745 580.702C95.9185 580.114 95.6665 579.646 95.3185 579.298C94.9825 578.95 94.5505 578.776 94.0225 578.776C93.4945 578.776 93.0565 578.95 92.7085 579.298C92.3725 579.646 92.1265 580.114 91.9705 580.702C91.8145 581.29 91.7365 581.956 91.7365 582.7C91.7365 583.444 91.8145 584.11 91.9705 584.698C92.1265 585.286 92.3725 585.754 92.7085 586.102C93.0565 586.45 93.4945 586.624 94.0225 586.624ZM100.675 584.284C100.675 583.372 100.879 582.544 101.287 581.8C101.695 581.044 102.271 580.45 103.015 580.018C103.771 579.574 104.641 579.352 105.625 579.352C106.501 579.352 107.281 579.526 107.965 579.874C108.649 580.21 109.189 580.684 109.585 581.296C109.993 581.908 110.233 582.604 110.305 583.384H107.425C107.317 582.94 107.107 582.58 106.795 582.304C106.495 582.028 106.111 581.89 105.643 581.89C105.223 581.89 104.863 582.004 104.563 582.232C104.275 582.448 104.059 582.736 103.915 583.096C103.771 583.456 103.699 583.852 103.699 584.284C103.699 584.716 103.771 585.112 103.915 585.472C104.059 585.832 104.275 586.126 104.563 586.354C104.863 586.57 105.223 586.678 105.643 586.678C106.111 586.678 106.495 586.54 106.795 586.264C107.107 585.988 107.317 585.628 107.425 585.184H110.305C110.233 585.964 109.993 586.66 109.585 587.272C109.189 587.884 108.649 588.364 107.965 588.712C107.281 589.048 106.501 589.216 105.625 589.216C104.641 589.216 103.771 589 103.015 588.568C102.271 588.124 101.695 587.53 101.287 586.786C100.879 586.03 100.675 585.196 100.675 584.284ZM116.422 589.252C115.486 589.252 114.664 589.078 113.956 588.73C113.248 588.382 112.69 587.896 112.282 587.272C111.874 586.648 111.64 585.922 111.58 585.094H114.514C114.574 585.574 114.772 585.964 115.108 586.264C115.444 586.552 115.876 586.696 116.404 586.696C116.752 586.696 117.052 586.636 117.304 586.516C117.556 586.396 117.748 586.234 117.88 586.03C118.012 585.814 118.078 585.574 118.078 585.31C118.078 585.034 118.012 584.8 117.88 584.608C117.748 584.404 117.556 584.248 117.304 584.14C117.052 584.032 116.758 583.978 116.422 583.978H114.496V581.314H115.972C116.344 581.314 116.662 581.266 116.926 581.17C117.202 581.074 117.412 580.93 117.556 580.738C117.7 580.534 117.772 580.288 117.772 580C117.772 579.748 117.712 579.526 117.592 579.334C117.472 579.142 117.292 578.992 117.052 578.884C116.824 578.764 116.56 578.704 116.26 578.704C115.768 578.704 115.384 578.836 115.108 579.1C114.832 579.364 114.682 579.712 114.658 580.144H111.778C111.814 579.352 112.018 578.656 112.39 578.056C112.774 577.444 113.296 576.976 113.956 576.652C114.616 576.316 115.384 576.148 116.26 576.148C117.148 576.148 117.934 576.304 118.618 576.616C119.302 576.916 119.836 577.348 120.22 577.912C120.604 578.464 120.796 579.112 120.796 579.856C120.796 580.48 120.634 581.026 120.31 581.494C119.998 581.95 119.548 582.292 118.96 582.52C119.668 582.724 120.202 583.078 120.562 583.582C120.922 584.074 121.102 584.68 121.102 585.4C121.102 586.18 120.898 586.864 120.49 587.452C120.082 588.028 119.524 588.472 118.816 588.784C118.108 589.096 117.31 589.252 116.422 589.252ZM122.905 575.86H125.929V580.846C126.169 580.378 126.511 580.012 126.955 579.748C127.399 579.484 127.951 579.352 128.611 579.352C129.439 579.352 130.177 579.568 130.825 580C131.485 580.432 131.995 581.026 132.355 581.782C132.727 582.538 132.913 583.372 132.913 584.284C132.913 585.196 132.727 586.03 132.355 586.786C131.995 587.542 131.485 588.136 130.825 588.568C130.165 589 129.421 589.216 128.593 589.216C127.921 589.216 127.357 589.084 126.901 588.82C126.445 588.556 126.091 588.19 125.839 587.722V589H122.905V575.86ZM125.929 584.284C125.929 584.764 126.007 585.19 126.163 585.562C126.319 585.922 126.547 586.204 126.847 586.408C127.147 586.612 127.495 586.714 127.891 586.714C128.299 586.714 128.653 586.6 128.953 586.372C129.253 586.144 129.481 585.844 129.637 585.472C129.805 585.1 129.889 584.704 129.889 584.284C129.889 583.864 129.805 583.468 129.637 583.096C129.481 582.724 129.253 582.424 128.953 582.196C128.653 581.968 128.299 581.854 127.891 581.854C127.495 581.854 127.147 581.956 126.847 582.16C126.547 582.364 126.319 582.652 126.163 583.024C126.007 583.384 125.929 583.804 125.929 584.284ZM134.041 584.05L139.315 576.4H142.753V583.96H144.355V586.444H142.753V589H139.855V586.444H134.041V584.05ZM139.855 583.96V579.568L136.975 583.96H139.855Z" fill="white" fill-opacity="0.9"/>
<path d="M64.1008 616H526.101" stroke="white" stroke-opacity="0.9" stroke-width="0.5"/>
<path d="M292.34 357.008C287.937 353.55 283.059 350.86 277.818 348.992C283.053 347.129 287.931 344.45 292.34 341.002C293.039 340.452 293.487 339.604 293.487 338.654C293.487 337.005 292.153 335.67 290.504 335.67C289.81 335.67 289.175 335.911 288.668 336.306C284.292 339.727 279.392 342.299 274.108 343.948C270.324 345.128 266.412 345.795 262.458 345.966V338.654C262.458 337.005 261.123 335.67 259.474 335.67C257.825 335.67 256.491 337.005 256.491 338.654V359.351C256.491 361 257.825 362.335 259.474 362.335C261.123 362.335 262.458 361 262.458 359.351V352.013C266.412 352.178 270.324 352.851 274.103 354.03C279.392 355.685 284.286 358.262 288.663 361.694C289.17 362.089 289.81 362.329 290.504 362.329C292.153 362.329 293.487 360.995 293.487 359.346C293.487 358.396 293.039 357.547 292.345 357.003L292.34 357.008Z" fill="white"/>
<path d="M212.145 335.67H171.983C170.334 335.67 169 337.005 169 338.654C169 340.303 170.334 341.637 171.983 341.637H189.078V359.351C189.078 361 190.412 362.335 192.061 362.335C193.711 362.335 195.045 361 195.045 359.351V341.637H212.14C213.789 341.637 215.123 340.303 215.123 338.654C215.123 337.005 213.789 335.67 212.14 335.67H212.145Z" fill="white"/>
<path d="M409 338.654C409 337.005 407.666 335.671 406.017 335.671C404.367 335.671 403.033 337.005 403.033 338.654V353.908C403.033 354.116 402.98 354.324 402.873 354.511C402.537 355.087 401.8 355.285 401.224 354.954L369.063 336.397C366.458 334.892 363.128 335.783 361.623 338.387C361.126 339.247 360.892 340.186 360.892 341.109V359.346C360.892 360.995 362.226 362.33 363.875 362.33C365.524 362.33 366.858 360.995 366.858 359.346V344.093C366.858 343.89 366.912 343.677 367.019 343.49C367.355 342.913 368.091 342.716 368.668 343.047L400.829 361.598C403.433 363.104 406.764 362.212 408.269 359.608C408.765 358.748 409 357.809 409 356.886V338.649V338.654Z" fill="white"/>
<path d="M344.391 335.67H321.415C314.476 335.67 308.851 341.296 308.851 348.234V349.771C308.851 356.709 314.476 362.335 321.415 362.335H344.391C351.329 362.335 356.954 356.709 356.954 349.771V348.234C356.954 341.296 351.329 335.67 344.391 335.67ZM351.073 349.728C351.073 353.395 348.1 356.368 344.433 356.368H321.457C317.791 356.368 314.818 353.395 314.818 349.728V348.277C314.818 344.61 317.791 341.637 321.457 341.637H344.433C348.1 341.637 351.073 344.61 351.073 348.277V349.728Z" fill="white"/>
<path d="M231.394 351.991C229.744 351.991 228.41 350.657 228.41 349.008C228.41 347.359 229.744 346.024 231.394 346.024H247.906C249.556 346.024 250.89 347.359 250.89 349.008C250.89 350.657 249.556 351.991 247.906 351.991H231.394ZM249.993 335.67C251.642 335.67 252.977 337.005 252.977 338.654C252.977 340.303 251.642 341.637 249.993 341.637H230.017C226.35 341.637 223.377 344.61 223.377 348.277V349.728C223.377 353.395 226.35 356.368 230.017 356.368H249.993C251.642 356.368 252.977 357.702 252.977 359.351C252.977 361 251.642 362.335 249.993 362.335H229.979C223.041 362.335 217.416 356.709 217.416 349.771V348.234C217.416 341.296 223.041 335.67 229.979 335.67H249.993Z" fill="white"/>
<path d="M298.619 359.351C298.619 361 299.953 362.335 301.603 362.335C303.252 362.335 304.586 361 304.586 359.351V338.654C304.586 337.005 303.252 335.67 301.603 335.67C299.953 335.67 298.619 337.005 298.619 338.654V359.351Z" fill="white"/>
</g>
<defs>
<clipPath id="clip0_1422_2441">
<rect width="578" height="698" fill="white"/>
</clipPath>
</defs>
</svg>
