<svg width="578" height="349" viewBox="0 0 578 349" fill="none" xmlns="http://www.w3.org/2000/svg">
<rect width="578" height="349" fill="white"/>
<rect x="0.1" y="0.1" width="577.8" height="348.8" stroke="black" stroke-opacity="0.6" stroke-width="0.2"/>
<path d="M285.783 152.174C282.114 149.292 278.049 147.05 273.681 145.494C278.044 143.942 282.109 141.709 285.783 138.836C286.366 138.378 286.739 137.671 286.739 136.879C286.739 135.505 285.628 134.393 284.253 134.393C283.675 134.393 283.146 134.593 282.723 134.922C279.076 137.773 274.993 139.917 270.59 141.291C267.437 142.274 264.177 142.83 260.881 142.972V136.879C260.881 135.505 259.769 134.393 258.395 134.393C257.021 134.393 255.909 135.505 255.909 136.879V154.126C255.909 155.5 257.021 156.612 258.395 156.612C259.769 156.612 260.881 155.5 260.881 154.126V148.011C264.177 148.149 267.437 148.709 270.586 149.692C274.993 151.071 279.072 153.219 282.719 156.079C283.141 156.408 283.675 156.608 284.253 156.608C285.628 156.608 286.739 155.496 286.739 154.122C286.739 153.33 286.366 152.623 285.788 152.169L285.783 152.174Z" fill="#00C3B4"/>
<path d="M218.954 134.393H185.486C184.112 134.393 183 135.505 183 136.879C183 138.253 184.112 139.365 185.486 139.365H199.731V154.126C199.731 155.5 200.843 156.612 202.218 156.612C203.592 156.612 204.704 155.5 204.704 154.126V139.365H218.949C220.324 139.365 221.436 138.253 221.436 136.879C221.436 135.505 220.324 134.393 218.949 134.393H218.954Z" fill="#00C3B4"/>
<path d="M383 136.879C383 135.504 381.888 134.393 380.514 134.393C379.139 134.393 378.027 135.504 378.027 136.879V149.589C378.027 149.763 377.983 149.936 377.894 150.092C377.614 150.572 377 150.737 376.52 150.461L349.719 134.997C347.548 133.743 344.773 134.486 343.519 136.656C343.105 137.372 342.909 138.155 342.909 138.924V154.121C342.909 155.495 344.021 156.607 345.396 156.607C346.77 156.607 347.882 155.495 347.882 154.121V141.411C347.882 141.242 347.926 141.064 348.015 140.908C348.295 140.428 348.909 140.263 349.39 140.539L376.19 155.998C378.361 157.252 381.136 156.509 382.39 154.339C382.804 153.623 383 152.84 383 152.071V136.874V136.879Z" fill="#00C3B4"/>
<path d="M329.159 134.393H310.012C304.23 134.393 299.542 139.081 299.542 144.862V146.143C299.542 151.925 304.23 156.612 310.012 156.612H329.159C334.941 156.612 339.628 151.925 339.628 146.143V144.862C339.628 139.081 334.941 134.393 329.159 134.393ZM334.727 146.108C334.727 149.163 332.25 151.64 329.194 151.64H310.048C306.992 151.64 304.515 149.163 304.515 146.108V144.898C304.515 141.842 306.992 139.365 310.048 139.365H329.194C332.25 139.365 334.727 141.842 334.727 144.898V146.108Z" fill="#00C3B4"/>
<path d="M234.995 147.993C233.62 147.993 232.508 146.881 232.508 145.507C232.508 144.133 233.62 143.021 234.995 143.021H248.755C250.13 143.021 251.242 144.133 251.242 145.507C251.242 146.881 250.13 147.993 248.755 147.993H234.995ZM250.494 134.393C251.869 134.393 252.981 135.505 252.981 136.879C252.981 138.253 251.869 139.365 250.494 139.365H233.847C230.792 139.365 228.314 141.842 228.314 144.898V146.108C228.314 149.163 230.792 151.64 233.847 151.64H250.494C251.869 151.64 252.981 152.752 252.981 154.126C252.981 155.5 251.869 156.612 250.494 156.612H233.816C228.034 156.612 223.346 151.925 223.346 146.143V144.862C223.346 139.081 228.034 134.393 233.816 134.393H250.494Z" fill="#00C3B4"/>
<path d="M291.016 154.126C291.016 155.5 292.128 156.612 293.502 156.612C294.876 156.612 295.988 155.5 295.988 154.126V136.879C295.988 135.505 294.876 134.393 293.502 134.393C292.128 134.393 291.016 135.505 291.016 136.879V154.126Z" fill="#00C3B4"/>
<path d="M53.52 291.8H54.768V303H53.52V291.8ZM57.6413 294.808H58.7933V296.216C58.9853 295.715 59.3053 295.325 59.7533 295.048C60.2013 294.76 60.7453 294.616 61.3853 294.616C62.3346 294.616 63.0706 294.92 63.5933 295.528C64.1266 296.136 64.3933 296.957 64.3933 297.992V303H63.1773V298.168C63.1773 297.389 63.0066 296.787 62.6653 296.36C62.3346 295.923 61.8386 295.704 61.1773 295.704C60.7293 295.704 60.3293 295.805 59.9773 296.008C59.6253 296.211 59.3479 296.504 59.1453 296.888C58.9533 297.261 58.8573 297.704 58.8573 298.216V303H57.6413V294.808ZM70.7555 294.808L72.4515 301.496L74.6595 294.808H75.8755L78.0675 301.496L79.7795 294.808H80.9475L78.6275 303H77.5555L75.2675 295.912L72.9795 303H71.9075L69.5875 294.808H70.7555ZM82.7038 291.32H83.9198V296.216C84.1011 295.704 84.4158 295.309 84.8638 295.032C85.3118 294.755 85.8398 294.616 86.4478 294.616C87.3864 294.616 88.1224 294.915 88.6558 295.512C89.1891 296.109 89.4558 296.92 89.4558 297.944V303H88.2398V298.12C88.2398 297.363 88.0691 296.771 87.7278 296.344C87.3971 295.917 86.9011 295.704 86.2398 295.704C85.7918 295.704 85.3918 295.805 85.0398 296.008C84.6878 296.2 84.4104 296.488 84.2078 296.872C84.0158 297.245 83.9198 297.693 83.9198 298.216V303H82.7038V291.32ZM92.1744 294.808H93.3904V303H92.1744V294.808ZM92.1424 291.624H93.4224V293.272H92.1424V291.624ZM99.1161 303.096C98.3161 303.096 97.7135 302.883 97.3081 302.456C96.9135 302.019 96.7161 301.379 96.7161 300.536V295.832H95.1481V294.808H96.7161V292.632H97.9321V294.808H100.364V295.832H97.9321V300.6C97.9321 301.069 98.0441 301.427 98.2681 301.672C98.5028 301.917 98.8495 302.04 99.3081 302.04C99.6601 302.04 100.017 301.987 100.38 301.88V302.92C100.252 302.973 100.071 303.016 99.8361 303.048C99.6121 303.08 99.3721 303.096 99.1161 303.096ZM101.626 298.904C101.626 298.093 101.792 297.363 102.122 296.712C102.453 296.061 102.906 295.549 103.482 295.176C104.058 294.803 104.709 294.616 105.434 294.616C106.224 294.616 106.896 294.797 107.45 295.16C108.016 295.512 108.437 295.992 108.714 296.6C109.002 297.208 109.146 297.885 109.146 298.632V299.192H102.81C102.842 299.757 102.965 300.269 103.178 300.728C103.392 301.176 103.696 301.533 104.09 301.8C104.496 302.067 104.97 302.2 105.514 302.2C106.101 302.2 106.581 302.067 106.954 301.8C107.328 301.523 107.61 301.155 107.802 300.696H108.986C108.837 301.197 108.597 301.635 108.266 302.008C107.946 302.381 107.546 302.675 107.066 302.888C106.597 303.091 106.08 303.192 105.514 303.192C104.714 303.192 104.021 303 103.434 302.616C102.848 302.232 102.4 301.715 102.09 301.064C101.781 300.413 101.626 299.693 101.626 298.904ZM108.01 298.216C107.968 297.704 107.84 297.251 107.626 296.856C107.413 296.461 107.12 296.152 106.746 295.928C106.373 295.693 105.93 295.576 105.418 295.576C104.938 295.576 104.512 295.693 104.138 295.928C103.776 296.163 103.482 296.477 103.258 296.872C103.045 297.267 102.906 297.715 102.842 298.216H108.01ZM114.846 291.32H116.062V303H114.846V291.32ZM122.156 303.192C121.42 303.192 120.748 303 120.14 302.616C119.543 302.221 119.073 301.699 118.732 301.048C118.391 300.387 118.22 299.672 118.22 298.904C118.22 298.136 118.391 297.427 118.732 296.776C119.073 296.115 119.543 295.592 120.14 295.208C120.748 294.813 121.42 294.616 122.156 294.616C122.892 294.616 123.559 294.813 124.156 295.208C124.764 295.592 125.239 296.115 125.58 296.776C125.921 297.427 126.092 298.136 126.092 298.904C126.092 299.672 125.921 300.387 125.58 301.048C125.239 301.699 124.764 302.221 124.156 302.616C123.559 303 122.892 303.192 122.156 303.192ZM122.156 302.136C122.689 302.136 123.164 301.987 123.58 301.688C123.996 301.379 124.316 300.979 124.54 300.488C124.764 299.987 124.876 299.459 124.876 298.904C124.876 298.349 124.764 297.827 124.54 297.336C124.316 296.835 123.996 296.435 123.58 296.136C123.164 295.827 122.689 295.672 122.156 295.672C121.623 295.672 121.148 295.827 120.732 296.136C120.316 296.435 119.996 296.835 119.772 297.336C119.548 297.827 119.436 298.349 119.436 298.904C119.436 299.459 119.548 299.987 119.772 300.488C119.996 300.979 120.316 301.379 120.732 301.688C121.148 301.987 121.623 302.136 122.156 302.136ZM127.533 298.648C127.533 297.901 127.687 297.224 127.997 296.616C128.317 295.997 128.754 295.512 129.309 295.16C129.863 294.797 130.498 294.616 131.213 294.616C131.65 294.616 132.055 294.691 132.429 294.84C132.813 294.989 133.133 295.192 133.389 295.448C133.655 295.704 133.853 295.992 133.981 296.312V294.808H135.165V302.648C135.165 303.363 135.015 303.981 134.717 304.504C134.418 305.037 133.991 305.443 133.437 305.72C132.882 305.997 132.226 306.136 131.469 306.136C130.53 306.136 129.73 305.885 129.069 305.384C128.407 304.893 127.965 304.243 127.741 303.432H128.989C129.17 303.955 129.479 304.371 129.917 304.68C130.354 304.989 130.887 305.144 131.516 305.144C132.37 305.144 132.989 304.909 133.373 304.44C133.757 303.971 133.949 303.277 133.949 302.36V300.952C133.831 301.272 133.645 301.565 133.389 301.832C133.133 302.088 132.818 302.296 132.445 302.456C132.071 302.605 131.661 302.68 131.213 302.68C130.498 302.68 129.863 302.504 129.309 302.152C128.754 301.789 128.317 301.304 127.997 300.696C127.687 300.077 127.533 299.395 127.533 298.648ZM128.749 298.648C128.749 299.213 128.861 299.725 129.085 300.184C129.309 300.643 129.618 301.005 130.013 301.272C130.418 301.539 130.882 301.672 131.405 301.672C131.906 301.672 132.349 301.549 132.733 301.304C133.117 301.048 133.415 300.691 133.629 300.232C133.842 299.773 133.949 299.245 133.949 298.648C133.949 298.061 133.837 297.539 133.613 297.08C133.389 296.621 133.085 296.264 132.701 296.008C132.317 295.752 131.885 295.624 131.405 295.624C130.871 295.624 130.402 295.757 129.997 296.024C129.602 296.291 129.293 296.653 129.069 297.112C128.855 297.571 128.749 298.083 128.749 298.648ZM141.187 303.192C140.451 303.192 139.779 303 139.171 302.616C138.574 302.221 138.105 301.699 137.763 301.048C137.422 300.387 137.251 299.672 137.251 298.904C137.251 298.136 137.422 297.427 137.763 296.776C138.105 296.115 138.574 295.592 139.171 295.208C139.779 294.813 140.451 294.616 141.187 294.616C141.923 294.616 142.59 294.813 143.187 295.208C143.795 295.592 144.27 296.115 144.611 296.776C144.953 297.427 145.123 298.136 145.123 298.904C145.123 299.672 144.953 300.387 144.611 301.048C144.27 301.699 143.795 302.221 143.187 302.616C142.59 303 141.923 303.192 141.187 303.192ZM141.187 302.136C141.721 302.136 142.195 301.987 142.611 301.688C143.027 301.379 143.347 300.979 143.571 300.488C143.795 299.987 143.907 299.459 143.907 298.904C143.907 298.349 143.795 297.827 143.571 297.336C143.347 296.835 143.027 296.435 142.611 296.136C142.195 295.827 141.721 295.672 141.187 295.672C140.654 295.672 140.179 295.827 139.763 296.136C139.347 296.435 139.027 296.835 138.803 297.336C138.579 297.827 138.467 298.349 138.467 298.904C138.467 299.459 138.579 299.987 138.803 300.488C139.027 300.979 139.347 301.379 139.763 301.688C140.179 301.987 140.654 302.136 141.187 302.136ZM153.615 303.192C152.634 303.192 151.834 302.947 151.215 302.456C150.597 301.955 150.207 301.272 150.047 300.408H151.215C151.343 300.973 151.605 301.421 151.999 301.752C152.405 302.072 152.943 302.232 153.615 302.232C154.245 302.232 154.746 302.088 155.119 301.8C155.493 301.501 155.679 301.112 155.679 300.632C155.679 300.269 155.546 299.981 155.279 299.768C155.023 299.544 154.618 299.384 154.063 299.288L152.479 299.016C151.754 298.899 151.199 298.675 150.815 298.344C150.442 298.003 150.255 297.549 150.255 296.984C150.255 296.504 150.389 296.088 150.655 295.736C150.922 295.373 151.29 295.096 151.759 294.904C152.229 294.712 152.762 294.616 153.359 294.616C154.287 294.616 155.029 294.84 155.583 295.288C156.149 295.736 156.469 296.349 156.543 297.128H155.375C155.29 296.669 155.077 296.296 154.735 296.008C154.394 295.72 153.93 295.576 153.343 295.576C152.757 295.576 152.282 295.693 151.919 295.928C151.567 296.163 151.391 296.477 151.391 296.872C151.391 297.192 151.493 297.437 151.695 297.608C151.898 297.768 152.255 297.891 152.767 297.976L154.415 298.264C155.215 298.403 155.813 298.659 156.207 299.032C156.613 299.405 156.815 299.917 156.815 300.568C156.815 301.091 156.671 301.549 156.383 301.944C156.106 302.339 155.722 302.648 155.231 302.872C154.751 303.085 154.213 303.192 153.615 303.192ZM158.86 291.32H160.076V296.216C160.257 295.704 160.572 295.309 161.02 295.032C161.468 294.755 161.996 294.616 162.604 294.616C163.543 294.616 164.279 294.915 164.812 295.512C165.345 296.109 165.612 296.92 165.612 297.944V303H164.396V298.12C164.396 297.363 164.225 296.771 163.884 296.344C163.553 295.917 163.057 295.704 162.396 295.704C161.948 295.704 161.548 295.805 161.196 296.008C160.844 296.2 160.567 296.488 160.364 296.872C160.172 297.245 160.076 297.693 160.076 298.216V303H158.86V291.32ZM171.547 303.192C170.811 303.192 170.139 303 169.531 302.616C168.933 302.221 168.464 301.699 168.123 301.048C167.781 300.387 167.611 299.672 167.611 298.904C167.611 298.136 167.781 297.427 168.123 296.776C168.464 296.115 168.933 295.592 169.531 295.208C170.139 294.813 170.811 294.616 171.547 294.616C172.283 294.616 172.949 294.813 173.547 295.208C174.155 295.592 174.629 296.115 174.971 296.776C175.312 297.427 175.483 298.136 175.483 298.904C175.483 299.672 175.312 300.387 174.971 301.048C174.629 301.699 174.155 302.221 173.547 302.616C172.949 303 172.283 303.192 171.547 303.192ZM171.547 302.136C172.08 302.136 172.555 301.987 172.971 301.688C173.387 301.379 173.707 300.979 173.931 300.488C174.155 299.987 174.267 299.459 174.267 298.904C174.267 298.349 174.155 297.827 173.931 297.336C173.707 296.835 173.387 296.435 172.971 296.136C172.555 295.827 172.08 295.672 171.547 295.672C171.013 295.672 170.539 295.827 170.123 296.136C169.707 296.435 169.387 296.835 169.163 297.336C168.939 297.827 168.827 298.349 168.827 298.904C168.827 299.459 168.939 299.987 169.163 300.488C169.387 300.979 169.707 301.379 170.123 301.688C170.539 301.987 171.013 302.136 171.547 302.136ZM177.483 294.808H178.699V299.672C178.699 300.451 178.864 301.059 179.195 301.496C179.526 301.923 180.022 302.136 180.683 302.136C181.131 302.136 181.526 302.035 181.867 301.832C182.208 301.629 182.475 301.341 182.667 300.968C182.859 300.584 182.955 300.136 182.955 299.624V294.808H184.171V303H183.019V301.624C182.838 302.093 182.523 302.472 182.075 302.76C181.638 303.048 181.104 303.192 180.475 303.192C179.536 303.192 178.8 302.888 178.267 302.28C177.744 301.672 177.483 300.851 177.483 299.816V294.808ZM186.971 291.32H188.187V303H186.971V291.32ZM196.985 303V301.368C196.782 301.891 196.414 302.328 195.881 302.68C195.348 303.021 194.75 303.192 194.089 303.192C193.385 303.192 192.745 303 192.169 302.616C191.604 302.232 191.156 301.715 190.825 301.064C190.505 300.403 190.345 299.683 190.345 298.904C190.345 298.125 190.505 297.411 190.825 296.76C191.156 296.099 191.604 295.576 192.169 295.192C192.745 294.808 193.385 294.616 194.089 294.616C194.74 294.616 195.326 294.792 195.849 295.144C196.382 295.485 196.75 295.917 196.953 296.44V291.32H198.169V303H196.985ZM196.953 298.904C196.953 298.328 196.83 297.795 196.585 297.304C196.35 296.803 196.02 296.408 195.593 296.12C195.177 295.821 194.713 295.672 194.201 295.672C193.689 295.672 193.23 295.821 192.825 296.12C192.43 296.408 192.121 296.803 191.897 297.304C191.673 297.795 191.561 298.328 191.561 298.904C191.561 299.48 191.673 300.019 191.897 300.52C192.121 301.011 192.43 301.405 192.825 301.704C193.23 301.992 193.689 302.136 194.201 302.136C194.713 302.136 195.177 301.992 195.593 301.704C196.02 301.405 196.35 301.011 196.585 300.52C196.83 300.019 196.953 299.48 196.953 298.904ZM204.407 291.32H205.623V296.44C205.826 295.917 206.188 295.485 206.711 295.144C207.244 294.792 207.836 294.616 208.487 294.616C209.191 294.616 209.826 294.808 210.391 295.192C210.967 295.576 211.415 296.099 211.735 296.76C212.066 297.411 212.231 298.125 212.231 298.904C212.231 299.683 212.066 300.403 211.735 301.064C211.415 301.715 210.967 302.232 210.391 302.616C209.826 303 209.191 303.192 208.487 303.192C207.826 303.192 207.228 303.021 206.695 302.68C206.162 302.328 205.794 301.891 205.591 301.368V303H204.407V291.32ZM205.623 298.904C205.623 299.48 205.74 300.019 205.975 300.52C206.22 301.011 206.551 301.405 206.967 301.704C207.394 301.992 207.863 302.136 208.375 302.136C208.887 302.136 209.34 301.992 209.735 301.704C210.14 301.405 210.455 301.011 210.679 300.52C210.903 300.019 211.015 299.48 211.015 298.904C211.015 298.328 210.903 297.795 210.679 297.304C210.455 296.803 210.14 296.408 209.735 296.12C209.34 295.821 208.887 295.672 208.375 295.672C207.863 295.672 207.394 295.821 206.967 296.12C206.551 296.408 206.22 296.803 205.975 297.304C205.74 297.795 205.623 298.328 205.623 298.904ZM213.673 298.904C213.673 298.093 213.838 297.363 214.169 296.712C214.5 296.061 214.953 295.549 215.529 295.176C216.105 294.803 216.756 294.616 217.481 294.616C218.27 294.616 218.942 294.797 219.497 295.16C220.062 295.512 220.484 295.992 220.761 296.6C221.049 297.208 221.193 297.885 221.193 298.632V299.192H214.857C214.889 299.757 215.012 300.269 215.225 300.728C215.438 301.176 215.742 301.533 216.137 301.8C216.542 302.067 217.017 302.2 217.561 302.2C218.148 302.2 218.628 302.067 219.001 301.8C219.374 301.523 219.657 301.155 219.849 300.696H221.033C220.884 301.197 220.644 301.635 220.313 302.008C219.993 302.381 219.593 302.675 219.113 302.888C218.644 303.091 218.126 303.192 217.561 303.192C216.761 303.192 216.068 303 215.481 302.616C214.894 302.232 214.446 301.715 214.137 301.064C213.828 300.413 213.673 299.693 213.673 298.904ZM220.057 298.216C220.014 297.704 219.886 297.251 219.673 296.856C219.46 296.461 219.166 296.152 218.793 295.928C218.42 295.693 217.977 295.576 217.465 295.576C216.985 295.576 216.558 295.693 216.185 295.928C215.822 296.163 215.529 296.477 215.305 296.872C215.092 297.267 214.953 297.715 214.889 298.216H220.057ZM226.893 294.808H228.109V303H226.893V294.808ZM226.861 291.624H228.141V293.272H226.861V291.624ZM230.907 294.808H232.059V296.216C232.251 295.715 232.571 295.325 233.019 295.048C233.467 294.76 234.011 294.616 234.651 294.616C235.6 294.616 236.336 294.92 236.859 295.528C237.392 296.136 237.659 296.957 237.659 297.992V303H236.443V298.168C236.443 297.389 236.272 296.787 235.931 296.36C235.6 295.923 235.104 295.704 234.443 295.704C233.995 295.704 233.595 295.805 233.243 296.008C232.891 296.211 232.614 296.504 232.411 296.888C232.219 297.261 232.123 297.704 232.123 298.216V303H230.907V294.808ZM246.741 303.096C245.941 303.096 245.338 302.883 244.933 302.456C244.538 302.019 244.341 301.379 244.341 300.536V295.832H242.773V294.808H244.341V292.632H245.557V294.808H247.989V295.832H245.557V300.6C245.557 301.069 245.669 301.427 245.893 301.672C246.128 301.917 246.474 302.04 246.933 302.04C247.285 302.04 247.642 301.987 248.005 301.88V302.92C247.877 302.973 247.696 303.016 247.461 303.048C247.237 303.08 246.997 303.096 246.741 303.096ZM249.251 298.904C249.251 298.093 249.417 297.363 249.747 296.712C250.078 296.061 250.531 295.549 251.107 295.176C251.683 294.803 252.334 294.616 253.059 294.616C253.849 294.616 254.521 294.797 255.075 295.16C255.641 295.512 256.062 295.992 256.339 296.6C256.627 297.208 256.771 297.885 256.771 298.632V299.192H250.435C250.467 299.757 250.59 300.269 250.803 300.728C251.017 301.176 251.321 301.533 251.715 301.8C252.121 302.067 252.595 302.2 253.139 302.2C253.726 302.2 254.206 302.067 254.579 301.8C254.953 301.523 255.235 301.155 255.427 300.696H256.611C256.462 301.197 256.222 301.635 255.891 302.008C255.571 302.381 255.171 302.675 254.691 302.888C254.222 303.091 253.705 303.192 253.139 303.192C252.339 303.192 251.646 303 251.059 302.616C250.473 302.232 250.025 301.715 249.715 301.064C249.406 300.413 249.251 299.693 249.251 298.904ZM255.635 298.216C255.593 297.704 255.465 297.251 255.251 296.856C255.038 296.461 254.745 296.152 254.371 295.928C253.998 295.693 253.555 295.576 253.043 295.576C252.563 295.576 252.137 295.693 251.763 295.928C251.401 296.163 251.107 296.477 250.883 296.872C250.67 297.267 250.531 297.715 250.467 298.216H255.635ZM258.524 300.616C258.524 299.88 258.78 299.288 259.292 298.84C259.814 298.392 260.529 298.141 261.436 298.088L264.076 297.912V297.608C264.076 296.968 263.91 296.472 263.58 296.12C263.249 295.768 262.758 295.592 262.108 295.592C261.542 295.592 261.084 295.736 260.732 296.024C260.38 296.301 260.156 296.669 260.06 297.128H258.86C258.977 296.371 259.324 295.763 259.9 295.304C260.476 294.845 261.206 294.616 262.092 294.616C263.116 294.616 263.905 294.888 264.46 295.432C265.014 295.965 265.292 296.685 265.292 297.592V303H264.108V301.72C263.937 302.147 263.617 302.499 263.148 302.776C262.678 303.053 262.113 303.192 261.452 303.192C260.566 303.192 259.857 302.957 259.324 302.488C258.79 302.008 258.524 301.384 258.524 300.616ZM259.708 300.584C259.708 301.096 259.873 301.507 260.204 301.816C260.534 302.125 261.004 302.28 261.612 302.28C262.081 302.28 262.502 302.173 262.876 301.96C263.249 301.747 263.542 301.443 263.756 301.048C263.969 300.643 264.076 300.163 264.076 299.608V298.792L261.9 298.936C261.174 298.989 260.625 299.149 260.252 299.416C259.889 299.683 259.708 300.072 259.708 300.584ZM268.018 291.32H269.234V303H268.018V291.32ZM274.908 298.648C274.908 297.901 275.062 297.224 275.372 296.616C275.692 295.997 276.129 295.512 276.684 295.16C277.238 294.797 277.873 294.616 278.588 294.616C279.025 294.616 279.43 294.691 279.804 294.84C280.188 294.989 280.508 295.192 280.764 295.448C281.03 295.704 281.228 295.992 281.356 296.312V294.808H282.54V302.648C282.54 303.363 282.39 303.981 282.092 304.504C281.793 305.037 281.366 305.443 280.812 305.72C280.257 305.997 279.601 306.136 278.844 306.136C277.905 306.136 277.105 305.885 276.444 305.384C275.782 304.893 275.34 304.243 275.116 303.432H276.364C276.545 303.955 276.854 304.371 277.292 304.68C277.729 304.989 278.262 305.144 278.891 305.144C279.745 305.144 280.364 304.909 280.748 304.44C281.132 303.971 281.324 303.277 281.324 302.36V300.952C281.206 301.272 281.02 301.565 280.764 301.832C280.508 302.088 280.193 302.296 279.82 302.456C279.446 302.605 279.036 302.68 278.588 302.68C277.873 302.68 277.238 302.504 276.684 302.152C276.129 301.789 275.692 301.304 275.372 300.696C275.062 300.077 274.908 299.395 274.908 298.648ZM276.124 298.648C276.124 299.213 276.236 299.725 276.46 300.184C276.684 300.643 276.993 301.005 277.388 301.272C277.793 301.539 278.257 301.672 278.78 301.672C279.281 301.672 279.724 301.549 280.108 301.304C280.492 301.048 280.79 300.691 281.004 300.232C281.217 299.773 281.324 299.245 281.324 298.648C281.324 298.061 281.212 297.539 280.988 297.08C280.764 296.621 280.46 296.264 280.076 296.008C279.692 295.752 279.26 295.624 278.78 295.624C278.246 295.624 277.777 295.757 277.372 296.024C276.977 296.291 276.668 296.653 276.444 297.112C276.23 297.571 276.124 298.083 276.124 298.648ZM285.266 294.808H286.418V296.776C286.578 296.125 286.872 295.619 287.298 295.256C287.736 294.893 288.317 294.712 289.042 294.712C289.352 294.712 289.576 294.733 289.714 294.776V295.816C289.597 295.795 289.416 295.784 289.17 295.784C288.658 295.784 288.194 295.917 287.778 296.184C287.373 296.44 287.053 296.813 286.818 297.304C286.594 297.795 286.482 298.376 286.482 299.048V303H285.266V294.808ZM290.595 298.904C290.595 298.093 290.76 297.363 291.091 296.712C291.422 296.061 291.875 295.549 292.451 295.176C293.027 294.803 293.678 294.616 294.403 294.616C295.192 294.616 295.864 294.797 296.419 295.16C296.984 295.512 297.406 295.992 297.683 296.6C297.971 297.208 298.115 297.885 298.115 298.632V299.192H291.779C291.811 299.757 291.934 300.269 292.147 300.728C292.36 301.176 292.664 301.533 293.059 301.8C293.464 302.067 293.939 302.2 294.483 302.2C295.07 302.2 295.55 302.067 295.923 301.8C296.296 301.523 296.579 301.155 296.771 300.696H297.955C297.806 301.197 297.566 301.635 297.235 302.008C296.915 302.381 296.515 302.675 296.035 302.888C295.566 303.091 295.048 303.192 294.483 303.192C293.683 303.192 292.99 303 292.403 302.616C291.816 302.232 291.368 301.715 291.059 301.064C290.75 300.413 290.595 299.693 290.595 298.904ZM296.979 298.216C296.936 297.704 296.808 297.251 296.595 296.856C296.382 296.461 296.088 296.152 295.715 295.928C295.342 295.693 294.899 295.576 294.387 295.576C293.907 295.576 293.48 295.693 293.107 295.928C292.744 296.163 292.451 296.477 292.227 296.872C292.014 297.267 291.875 297.715 291.811 298.216H296.979ZM299.611 298.904C299.611 298.093 299.776 297.363 300.107 296.712C300.437 296.061 300.891 295.549 301.467 295.176C302.043 294.803 302.693 294.616 303.419 294.616C304.208 294.616 304.88 294.797 305.435 295.16C306 295.512 306.421 295.992 306.699 296.6C306.987 297.208 307.131 297.885 307.131 298.632V299.192H300.795C300.827 299.757 300.949 300.269 301.163 300.728C301.376 301.176 301.68 301.533 302.075 301.8C302.48 302.067 302.955 302.2 303.499 302.2C304.085 302.2 304.565 302.067 304.939 301.8C305.312 301.523 305.595 301.155 305.787 300.696H306.971C306.821 301.197 306.581 301.635 306.251 302.008C305.931 302.381 305.531 302.675 305.051 302.888C304.581 303.091 304.064 303.192 303.499 303.192C302.699 303.192 302.005 303 301.419 302.616C300.832 302.232 300.384 301.715 300.075 301.064C299.765 300.413 299.611 299.693 299.611 298.904ZM305.995 298.216C305.952 297.704 305.824 297.251 305.611 296.856C305.397 296.461 305.104 296.152 304.731 295.928C304.357 295.693 303.915 295.576 303.403 295.576C302.923 295.576 302.496 295.693 302.123 295.928C301.76 296.163 301.467 296.477 301.243 296.872C301.029 297.267 300.891 297.715 300.827 298.216H305.995ZM309.235 294.808H310.387V296.216C310.579 295.715 310.899 295.325 311.347 295.048C311.795 294.76 312.339 294.616 312.979 294.616C313.928 294.616 314.664 294.92 315.187 295.528C315.72 296.136 315.987 296.957 315.987 297.992V303H314.771V298.168C314.771 297.389 314.6 296.787 314.259 296.36C313.928 295.923 313.432 295.704 312.771 295.704C312.323 295.704 311.923 295.805 311.571 296.008C311.219 296.211 310.942 296.504 310.739 296.888C310.547 297.261 310.451 297.704 310.451 298.216V303H309.235V294.808Z" fill="#0E131F"/>
<path d="M52.594 234.816H54.358L54.61 232.386H53.044V230.478H54.826L55.15 227.4H57.292L56.968 230.478H59.182L59.506 227.4H61.648L61.324 230.478H62.872V232.386H61.108L60.856 234.816H62.422V236.724H60.64L60.298 240H58.156L58.498 236.724H56.302L55.942 240H53.8L54.16 236.724H52.594V234.816ZM58.714 234.816L58.966 232.386H56.752L56.5 234.816H58.714ZM64.6309 227.4H73.9369V230.082H67.7269V232.476H73.7029V235.158H67.7269V240H64.6309V227.4ZM75.9161 227.4H85.2221V230.082H79.0121V232.476H84.9881V235.158H79.0121V240H75.9161V227.4ZM87.2013 227.4H96.5073V230.082H90.2973V232.476H96.2733V235.158H90.2973V240H87.2013V227.4ZM98.4864 227.4H107.792V230.082H101.582V232.476H107.558V235.158H101.582V240H98.4864V227.4ZM109.772 227.4H119.078V230.082H112.868V232.476H118.844V235.158H112.868V240H109.772V227.4ZM121.057 227.4H130.363V230.082H124.153V232.476H130.129V235.158H124.153V240H121.057V227.4Z" fill="#0E131F"/>
<path d="M52 267H514" stroke="black" stroke-width="0.5"/>
</svg>
