<svg width="567" height="320" viewBox="0 0 567 320" fill="none" xmlns="http://www.w3.org/2000/svg">
<rect width="566" height="320" transform="translate(0.753906)" fill="#F9F9FC"/>
<path d="M227.256 179.135V116.622H240.473V168.238H267.273V179.135H227.256ZM331.037 147.878C331.037 154.695 329.745 160.495 327.161 165.277C324.597 170.059 321.097 173.712 316.661 176.235C312.245 178.738 307.28 179.989 301.765 179.989C296.21 179.989 291.224 178.728 286.808 176.204C282.393 173.681 278.903 170.028 276.339 165.246C273.775 160.464 272.493 154.675 272.493 147.878C272.493 141.061 273.775 135.262 276.339 130.48C278.903 125.698 282.393 122.055 286.808 119.552C291.224 117.029 296.21 115.767 301.765 115.767C307.28 115.767 312.245 117.029 316.661 119.552C321.097 122.055 324.597 125.698 327.161 130.48C329.745 135.262 331.037 141.061 331.037 147.878ZM317.637 147.878C317.637 143.463 316.976 139.739 315.653 136.707C314.351 133.675 312.509 131.375 310.129 129.808C307.748 128.241 304.96 127.458 301.765 127.458C298.57 127.458 295.782 128.241 293.402 129.808C291.021 131.375 289.169 133.675 287.846 136.707C286.544 139.739 285.893 143.463 285.893 147.878C285.893 152.294 286.544 156.018 287.846 159.05C289.169 162.082 291.021 164.382 293.402 165.948C295.782 167.515 298.57 168.299 301.765 168.299C304.96 168.299 307.748 167.515 310.129 165.948C312.509 164.382 314.351 162.082 315.653 159.05C316.976 156.018 317.637 152.294 317.637 147.878ZM382.279 136.829C381.852 135.343 381.252 134.031 380.478 132.891C379.705 131.731 378.759 130.755 377.64 129.961C376.541 129.147 375.279 128.526 373.855 128.099C372.451 127.672 370.894 127.458 369.185 127.458C365.99 127.458 363.182 128.252 360.76 129.839C358.359 131.426 356.487 133.736 355.144 136.768C353.801 139.779 353.129 143.463 353.129 147.817C353.129 152.172 353.79 155.876 355.113 158.928C356.436 161.98 358.308 164.31 360.729 165.918C363.151 167.505 366.01 168.299 369.307 168.299C372.298 168.299 374.852 167.77 376.968 166.712C379.105 165.633 380.733 164.117 381.852 162.164C382.991 160.21 383.561 157.9 383.561 155.235L386.247 155.631H370.131V145.681H396.29V153.556C396.29 159.05 395.13 163.771 392.81 167.719C390.49 171.646 387.295 174.678 383.225 176.815C379.156 178.931 374.496 179.989 369.246 179.989C363.385 179.989 358.237 178.697 353.801 176.113C349.364 173.508 345.905 169.815 343.422 165.033C340.96 160.23 339.729 154.533 339.729 147.939C339.729 142.872 340.462 138.355 341.927 134.387C343.412 130.398 345.488 127.02 348.154 124.253C350.819 121.485 353.923 119.379 357.463 117.935C361.004 116.49 364.84 115.767 368.971 115.767C372.512 115.767 375.808 116.286 378.861 117.324C381.913 118.342 384.619 119.786 386.98 121.658C389.361 123.531 391.304 125.759 392.81 128.343C394.316 130.907 395.282 133.736 395.71 136.829H382.279ZM463.663 147.878C463.663 154.695 462.371 160.495 459.787 165.277C457.223 170.059 453.723 173.712 449.287 176.235C444.871 178.738 439.906 179.989 434.391 179.989C428.836 179.989 423.85 178.728 419.434 176.204C415.019 173.681 411.529 170.028 408.965 165.246C406.401 160.464 405.119 154.675 405.119 147.878C405.119 141.061 406.401 135.262 408.965 130.48C411.529 125.698 415.019 122.055 419.434 119.552C423.85 117.029 428.836 115.767 434.391 115.767C439.906 115.767 444.871 117.029 449.287 119.552C453.723 122.055 457.223 125.698 459.787 130.48C462.371 135.262 463.663 141.061 463.663 147.878ZM450.263 147.878C450.263 143.463 449.602 139.739 448.279 136.707C446.977 133.675 445.135 131.375 442.754 129.808C440.374 128.241 437.586 127.458 434.391 127.458C431.196 127.458 428.408 128.241 426.027 129.808C423.647 131.375 421.795 133.675 420.472 136.707C419.17 139.739 418.519 143.463 418.519 147.878C418.519 152.294 419.17 156.018 420.472 159.05C421.795 162.082 423.647 164.382 426.027 165.948C428.408 167.515 431.196 168.299 434.391 168.299C437.586 168.299 440.374 167.515 442.754 165.948C445.135 164.382 446.977 162.082 448.279 159.05C449.602 156.018 450.263 152.294 450.263 147.878Z" fill="#D2D2D2"/>
<path d="M98.8774 96.1348V257.784" stroke="#C8C8C8" stroke-width="0.810896" stroke-dasharray="1.62 1.62"/>
<path d="M463.781 77.8828V239.532" stroke="#C8C8C8" stroke-width="0.810896" stroke-dasharray="1.62 1.62"/>
<path d="M399.473 77.9648V239.614" stroke="#C8C8C8" stroke-width="0.810896" stroke-dasharray="1.62 1.62"/>
<path d="M227.473 77.9648V239.614" stroke="#C8C8C8" stroke-width="0.810896" stroke-dasharray="1.62 1.62"/>
<path d="M86.3022 106.379L473.942 106.379" stroke="#C8C8C8" stroke-width="0.810896" stroke-dasharray="1.62 1.62"/>
<path d="M76.3022 215.039L491.206 215.039" stroke="#C8C8C8" stroke-width="0.810896" stroke-dasharray="1.62 1.62"/>
<path d="M227.822 202.061V193.719H230.95C231.591 193.719 232.128 193.838 232.563 194.077C233 194.316 233.33 194.645 233.553 195.063C233.778 195.478 233.891 195.951 233.891 196.48C233.891 197.015 233.778 197.49 233.553 197.906C233.327 198.321 232.995 198.649 232.555 198.888C232.115 199.124 231.573 199.242 230.93 199.242H228.856V198H230.726C231.101 198 231.408 197.934 231.646 197.804C231.885 197.674 232.062 197.495 232.176 197.266C232.293 197.038 232.351 196.776 232.351 196.48C232.351 196.184 232.293 195.924 232.176 195.698C232.062 195.473 231.884 195.298 231.642 195.173C231.403 195.045 231.095 194.981 230.718 194.981H229.333V202.061H227.822ZM237.778 202.183C237.167 202.183 236.637 202.048 236.189 201.779C235.741 201.511 235.393 201.135 235.146 200.651C234.902 200.168 234.78 199.603 234.78 198.957C234.78 198.311 234.902 197.744 235.146 197.258C235.393 196.772 235.741 196.395 236.189 196.126C236.637 195.857 237.167 195.723 237.778 195.723C238.389 195.723 238.918 195.857 239.366 196.126C239.814 196.395 240.16 196.772 240.405 197.258C240.652 197.744 240.775 198.311 240.775 198.957C240.775 199.603 240.652 200.168 240.405 200.651C240.16 201.135 239.814 201.511 239.366 201.779C238.918 202.048 238.389 202.183 237.778 202.183ZM237.786 201.002C238.117 201.002 238.394 200.911 238.617 200.729C238.839 200.544 239.005 200.297 239.114 199.987C239.225 199.678 239.281 199.333 239.281 198.953C239.281 198.57 239.225 198.224 239.114 197.914C239.005 197.602 238.839 197.353 238.617 197.169C238.394 196.984 238.117 196.892 237.786 196.892C237.446 196.892 237.164 196.984 236.939 197.169C236.716 197.353 236.549 197.602 236.438 197.914C236.329 198.224 236.275 198.57 236.275 198.953C236.275 199.333 236.329 199.678 236.438 199.987C236.549 200.297 236.716 200.544 236.939 200.729C237.164 200.911 237.446 201.002 237.786 201.002ZM243.139 202.061L241.371 195.804H242.874L243.974 200.203H244.031L245.155 195.804H246.642L247.766 200.179H247.827L248.911 195.804H250.418L248.646 202.061H247.11L245.937 197.833H245.852L244.679 202.061H243.139ZM254.038 202.183C253.41 202.183 252.869 202.052 252.412 201.792C251.959 201.528 251.61 201.156 251.366 200.676C251.121 200.192 250.999 199.623 250.999 198.969C250.999 198.325 251.121 197.761 251.366 197.275C251.613 196.786 251.958 196.406 252.4 196.134C252.843 195.86 253.363 195.723 253.96 195.723C254.346 195.723 254.71 195.785 255.052 195.91C255.397 196.032 255.701 196.222 255.964 196.48C256.23 196.738 256.439 197.067 256.592 197.466C256.744 197.862 256.82 198.335 256.82 198.883V199.336H251.692V198.342H255.406C255.404 198.059 255.342 197.808 255.223 197.588C255.103 197.366 254.936 197.19 254.722 197.063C254.51 196.935 254.263 196.871 253.981 196.871C253.679 196.871 253.414 196.945 253.186 197.091C252.958 197.235 252.78 197.425 252.653 197.662C252.528 197.895 252.464 198.152 252.461 198.431V199.299C252.461 199.663 252.528 199.975 252.661 200.236C252.794 200.494 252.98 200.692 253.219 200.83C253.458 200.966 253.738 201.034 254.058 201.034C254.273 201.034 254.467 201.004 254.64 200.945C254.814 200.882 254.965 200.791 255.093 200.672C255.22 200.552 255.317 200.404 255.382 200.228L256.759 200.382C256.672 200.746 256.506 201.064 256.262 201.336C256.02 201.604 255.71 201.813 255.333 201.963C254.955 202.109 254.524 202.183 254.038 202.183ZM258.067 202.061V195.804H259.497V196.847H259.562C259.676 196.486 259.871 196.207 260.148 196.012C260.428 195.814 260.747 195.715 261.106 195.715C261.187 195.715 261.278 195.719 261.379 195.727C261.482 195.732 261.567 195.742 261.635 195.755V197.112C261.573 197.09 261.474 197.071 261.338 197.055C261.205 197.036 261.076 197.026 260.951 197.026C260.682 197.026 260.44 197.085 260.226 197.201C260.014 197.315 259.847 197.474 259.725 197.678C259.603 197.881 259.542 198.116 259.542 198.382V202.061H258.067ZM265.127 202.183C264.5 202.183 263.958 202.052 263.502 201.792C263.048 201.528 262.699 201.156 262.455 200.676C262.21 200.192 262.088 199.623 262.088 198.969C262.088 198.325 262.21 197.761 262.455 197.275C262.702 196.786 263.047 196.406 263.489 196.134C263.932 195.86 264.452 195.723 265.049 195.723C265.435 195.723 265.799 195.785 266.141 195.91C266.486 196.032 266.79 196.222 267.053 196.48C267.32 196.738 267.529 197.067 267.681 197.466C267.833 197.862 267.909 198.335 267.909 198.883V199.336H262.781V198.342H266.495C266.493 198.059 266.432 197.808 266.312 197.588C266.193 197.366 266.026 197.19 265.811 197.063C265.599 196.935 265.352 196.871 265.07 196.871C264.768 196.871 264.504 196.945 264.276 197.091C264.047 197.235 263.87 197.425 263.742 197.662C263.617 197.895 263.553 198.152 263.551 198.431V199.299C263.551 199.663 263.617 199.975 263.75 200.236C263.883 200.494 264.069 200.692 264.308 200.83C264.547 200.966 264.827 201.034 265.147 201.034C265.362 201.034 265.556 201.004 265.73 200.945C265.903 200.882 266.054 200.791 266.182 200.672C266.309 200.552 266.406 200.404 266.471 200.228L267.848 200.382C267.761 200.746 267.595 201.064 267.351 201.336C267.109 201.604 266.8 201.813 266.422 201.963C266.045 202.109 265.613 202.183 265.127 202.183ZM271.478 202.171C270.986 202.171 270.546 202.044 270.158 201.792C269.77 201.539 269.463 201.173 269.238 200.692C269.012 200.211 268.9 199.628 268.9 198.941C268.9 198.245 269.014 197.659 269.242 197.181C269.473 196.7 269.783 196.338 270.174 196.093C270.566 195.846 271.001 195.723 271.482 195.723C271.849 195.723 272.15 195.785 272.386 195.91C272.622 196.032 272.81 196.18 272.948 196.354C273.087 196.525 273.194 196.687 273.27 196.839H273.331V193.719H274.81V202.061H273.36V201.075H273.27C273.194 201.227 273.084 201.388 272.94 201.56C272.796 201.728 272.606 201.872 272.37 201.991C272.134 202.111 271.836 202.171 271.478 202.171ZM271.889 200.961C272.202 200.961 272.468 200.877 272.688 200.708C272.908 200.537 273.075 200.3 273.189 199.995C273.303 199.691 273.36 199.337 273.36 198.932C273.36 198.528 273.303 198.176 273.189 197.877C273.077 197.579 272.912 197.347 272.692 197.181C272.474 197.015 272.207 196.932 271.889 196.932C271.561 196.932 271.286 197.018 271.067 197.189C270.847 197.36 270.681 197.596 270.57 197.898C270.458 198.199 270.403 198.544 270.403 198.932C270.403 199.323 270.458 199.672 270.57 199.979C270.684 200.283 270.851 200.524 271.071 200.7C271.293 200.874 271.566 200.961 271.889 200.961ZM279.291 202.061V193.719H280.766V196.839H280.827C280.903 196.687 281.01 196.525 281.149 196.354C281.287 196.18 281.474 196.032 281.711 195.91C281.947 195.785 282.248 195.723 282.615 195.723C283.098 195.723 283.534 195.846 283.922 196.093C284.313 196.338 284.623 196.7 284.851 197.181C285.082 197.659 285.197 198.245 285.197 198.941C285.197 199.628 285.085 200.211 284.859 200.692C284.634 201.173 284.327 201.539 283.939 201.792C283.55 202.044 283.11 202.171 282.619 202.171C282.261 202.171 281.963 202.111 281.727 201.991C281.491 201.872 281.301 201.728 281.157 201.56C281.016 201.388 280.906 201.227 280.827 201.075H280.741V202.061H279.291ZM280.737 198.932C280.737 199.337 280.794 199.691 280.908 199.995C281.025 200.3 281.192 200.537 281.409 200.708C281.629 200.877 281.895 200.961 282.208 200.961C282.533 200.961 282.806 200.874 283.026 200.7C283.246 200.524 283.412 200.283 283.523 199.979C283.637 199.672 283.694 199.323 283.694 198.932C283.694 198.544 283.639 198.199 283.527 197.898C283.416 197.596 283.25 197.36 283.03 197.189C282.81 197.018 282.536 196.932 282.208 196.932C281.893 196.932 281.625 197.015 281.405 197.181C281.185 197.347 281.018 197.579 280.904 197.877C280.793 198.176 280.737 198.528 280.737 198.932ZM287.154 204.407C286.954 204.407 286.768 204.39 286.596 204.358C286.428 204.328 286.294 204.293 286.193 204.252L286.535 203.103C286.75 203.166 286.941 203.196 287.11 203.193C287.278 203.19 287.426 203.137 287.554 203.034C287.684 202.934 287.794 202.765 287.884 202.529L288.01 202.191L285.741 195.804H287.305L288.747 200.529H288.812L290.258 195.804H291.826L289.321 202.818C289.205 203.149 289.05 203.433 288.857 203.669C288.664 203.908 288.428 204.09 288.148 204.215C287.871 204.343 287.54 204.407 287.154 204.407Z" fill="black"/>
<path d="M351.519 200.876C349.709 199.455 347.704 198.349 345.55 197.581C347.702 196.816 349.707 195.714 351.519 194.297C351.806 194.071 351.991 193.722 351.991 193.332C351.991 192.654 351.442 192.105 350.764 192.105C350.479 192.105 350.218 192.204 350.01 192.367C348.211 193.773 346.197 194.83 344.025 195.508C342.469 195.993 340.861 196.267 339.236 196.337V193.332C339.236 192.654 338.687 192.105 338.009 192.105C337.331 192.105 336.783 192.654 336.783 193.332V201.84C336.783 202.517 337.331 203.066 338.009 203.066C338.687 203.066 339.236 202.517 339.236 201.84V198.823C340.861 198.891 342.469 199.167 344.023 199.652C346.197 200.332 348.208 201.392 350.007 202.803C350.216 202.965 350.479 203.064 350.764 203.064C351.442 203.064 351.991 202.515 351.991 201.837C351.991 201.447 351.806 201.098 351.521 200.874L351.519 200.876Z" fill="#00C3B4"/>
<path d="M318.554 192.105H302.046C301.368 192.105 300.819 192.654 300.819 193.332C300.819 194.01 301.368 194.558 302.046 194.558H309.073V201.84C309.073 202.517 309.621 203.066 310.299 203.066C310.977 203.066 311.525 202.517 311.525 201.84V194.558H318.552C319.23 194.558 319.778 194.01 319.778 193.332C319.778 192.654 319.23 192.105 318.552 192.105H318.554Z" fill="#00C3B4"/>
<path d="M399.473 193.332C399.473 192.654 398.924 192.106 398.246 192.106C397.568 192.106 397.02 192.654 397.02 193.332V199.602C397.02 199.688 396.998 199.773 396.954 199.85C396.816 200.087 396.513 200.168 396.276 200.032L383.056 192.404C381.986 191.786 380.617 192.152 379.998 193.223C379.794 193.576 379.698 193.962 379.698 194.341V201.838C379.698 202.516 380.246 203.064 380.924 203.064C381.602 203.064 382.15 202.516 382.15 201.838V195.568C382.15 195.484 382.172 195.397 382.216 195.32C382.354 195.083 382.657 195.002 382.894 195.138L396.114 202.764C397.185 203.382 398.553 203.016 399.172 201.945C399.376 201.592 399.473 201.206 399.473 200.826V193.33V193.332Z" fill="#00C3B4"/>
<path d="M372.914 192.105H363.47C360.618 192.105 358.306 194.418 358.306 197.27V197.902C358.306 200.754 360.618 203.066 363.47 203.066H372.914C375.766 203.066 378.079 200.754 378.079 197.902V197.27C378.079 194.418 375.766 192.105 372.914 192.105ZM375.661 197.884C375.661 199.391 374.439 200.613 372.932 200.613H363.487C361.98 200.613 360.758 199.391 360.758 197.884V197.287C360.758 195.78 361.98 194.558 363.487 194.558H372.932C374.439 194.558 375.661 195.78 375.661 197.287V197.884Z" fill="#00C3B4"/>
<path d="M326.467 198.814C325.789 198.814 325.24 198.266 325.24 197.588C325.24 196.91 325.789 196.362 326.467 196.362H333.254C333.932 196.362 334.481 196.91 334.481 197.588C334.481 198.266 333.932 198.814 333.254 198.814H326.467ZM334.112 192.105C334.79 192.105 335.338 192.654 335.338 193.332C335.338 194.01 334.79 194.558 334.112 194.558H325.901C324.393 194.558 323.171 195.78 323.171 197.287V197.884C323.171 199.391 324.393 200.613 325.901 200.613H334.112C334.79 200.613 335.338 201.162 335.338 201.84C335.338 202.517 334.79 203.066 334.112 203.066H325.885C323.033 203.066 320.721 200.754 320.721 197.902V197.27C320.721 194.418 323.033 192.105 325.885 192.105H334.112Z" fill="#00C3B4"/>
<path d="M354.1 201.84C354.1 202.517 354.648 203.066 355.326 203.066C356.004 203.066 356.553 202.517 356.553 201.84V193.332C356.553 192.654 356.004 192.105 355.326 192.105C354.648 192.105 354.1 192.654 354.1 193.332V201.84Z" fill="#00C3B4"/>
<rect x="99.2829" y="106.784" width="107.849" height="107.849" stroke="#D2D2D2" stroke-width="0.810896"/>
<path d="M121.182 166.572V154.188H129.237V156.068H123.425V159.431H128.82V161.311H123.425V164.692H129.285V166.572H121.182ZM131.429 166.572V157.284H133.521V158.862H133.63C133.824 158.33 134.144 157.915 134.592 157.616C135.039 157.314 135.573 157.163 136.194 157.163C136.823 157.163 137.353 157.316 137.784 157.622C138.22 157.925 138.526 158.338 138.704 158.862H138.8C139.006 158.346 139.353 157.935 139.841 157.629C140.332 157.318 140.915 157.163 141.588 157.163C142.443 157.163 143.14 157.433 143.68 157.973C144.221 158.513 144.491 159.302 144.491 160.338V166.572H142.296V160.676C142.296 160.1 142.142 159.678 141.836 159.412C141.53 159.142 141.155 159.007 140.711 159.007C140.183 159.007 139.77 159.173 139.472 159.503C139.177 159.83 139.03 160.255 139.03 160.779V166.572H136.883V160.586C136.883 160.106 136.738 159.723 136.448 159.437C136.162 159.15 135.787 159.007 135.323 159.007C135.009 159.007 134.723 159.088 134.465 159.249C134.207 159.406 134.001 159.63 133.848 159.92C133.695 160.207 133.618 160.541 133.618 160.924V166.572H131.429ZM146.808 166.572V154.188H148.997V158.82H149.088C149.201 158.594 149.36 158.354 149.566 158.1C149.771 157.842 150.05 157.622 150.4 157.441C150.751 157.256 151.199 157.163 151.743 157.163C152.46 157.163 153.107 157.346 153.684 157.713C154.265 158.076 154.724 158.614 155.063 159.328C155.405 160.037 155.577 160.908 155.577 161.94C155.577 162.96 155.409 163.827 155.075 164.54C154.74 165.254 154.285 165.798 153.708 166.173C153.132 166.548 152.479 166.736 151.749 166.736C151.217 166.736 150.775 166.647 150.425 166.469C150.074 166.292 149.792 166.078 149.578 165.828C149.368 165.574 149.205 165.335 149.088 165.109H148.961V166.572H146.808ZM148.955 161.928C148.955 162.529 149.04 163.055 149.209 163.506C149.382 163.958 149.63 164.311 149.953 164.565C150.279 164.815 150.675 164.94 151.138 164.94C151.622 164.94 152.027 164.811 152.354 164.553C152.68 164.29 152.926 163.934 153.091 163.482C153.261 163.027 153.345 162.509 153.345 161.928C153.345 161.352 153.263 160.84 153.097 160.392C152.932 159.945 152.686 159.594 152.36 159.34C152.033 159.086 151.626 158.959 151.138 158.959C150.67 158.959 150.273 159.082 149.947 159.328C149.62 159.574 149.372 159.918 149.203 160.362C149.038 160.805 148.955 161.327 148.955 161.928ZM159.627 154.188V166.572H157.438V154.188H159.627ZM165.99 166.754C165.059 166.754 164.254 166.56 163.577 166.173C162.904 165.782 162.386 165.23 162.023 164.516C161.66 163.799 161.479 162.954 161.479 161.982C161.479 161.027 161.66 160.188 162.023 159.467C162.39 158.741 162.902 158.177 163.559 157.774C164.216 157.366 164.988 157.163 165.875 157.163C166.448 157.163 166.988 157.256 167.496 157.441C168.008 157.622 168.459 157.905 168.85 158.288C169.245 158.671 169.556 159.158 169.782 159.751C170.007 160.34 170.12 161.041 170.12 161.855V162.527H162.507V161.051H168.022C168.018 160.632 167.927 160.259 167.75 159.932C167.572 159.602 167.324 159.342 167.006 159.152C166.691 158.963 166.325 158.868 165.905 158.868C165.458 158.868 165.065 158.977 164.726 159.195C164.387 159.408 164.123 159.691 163.934 160.041C163.748 160.388 163.654 160.769 163.65 161.184V162.472C163.65 163.012 163.748 163.476 163.946 163.863C164.144 164.246 164.42 164.54 164.774 164.746C165.129 164.948 165.545 165.048 166.02 165.048C166.339 165.048 166.627 165.004 166.885 164.915C167.143 164.823 167.367 164.688 167.556 164.51C167.746 164.333 167.889 164.113 167.986 163.851L170.029 164.081C169.9 164.621 169.655 165.093 169.292 165.496C168.933 165.895 168.473 166.205 167.913 166.427C167.353 166.645 166.712 166.754 165.99 166.754ZM171.972 166.572V157.284H174.064V158.862H174.173C174.367 158.33 174.687 157.915 175.135 157.616C175.582 157.314 176.116 157.163 176.737 157.163C177.366 157.163 177.896 157.316 178.328 157.622C178.763 157.925 179.069 158.338 179.247 158.862H179.344C179.549 158.346 179.896 157.935 180.384 157.629C180.876 157.318 181.458 157.163 182.131 157.163C182.986 157.163 183.683 157.433 184.224 157.973C184.764 158.513 185.034 159.302 185.034 160.338V166.572H182.839V160.676C182.839 160.1 182.686 159.678 182.379 159.412C182.073 159.142 181.698 159.007 181.255 159.007C180.726 159.007 180.313 159.173 180.015 159.503C179.721 159.83 179.573 160.255 179.573 160.779V166.572H177.427V160.586C177.427 160.106 177.282 159.723 176.991 159.437C176.705 159.15 176.33 159.007 175.867 159.007C175.552 159.007 175.266 159.088 175.008 159.249C174.75 159.406 174.544 159.63 174.391 159.92C174.238 160.207 174.161 160.541 174.161 160.924V166.572H171.972Z" fill="#D2D2D2"/>
<path d="M227.473 89.4922L236.223 94.544V84.4404L227.473 89.4922ZM396.947 89.4922L388.197 84.4404V94.544L396.947 89.4922ZM236.552 90.3672H242.605V88.6172H236.552V90.3672ZM248.657 90.3672H254.71V88.6172H248.657V90.3672ZM260.763 90.3672H266.815V88.6172H260.763V90.3672ZM272.868 90.3672H278.921V88.6172H272.868V90.3672ZM284.973 90.3672H291.026V88.6172H284.973V90.3672ZM297.078 90.3672H303.131V88.6172H297.078V90.3672ZM309.184 90.3672H315.236V88.6172H309.184V90.3672ZM321.289 90.3672H327.342V88.6172H321.289V90.3672ZM333.394 90.3672H339.447V88.6172H333.394V90.3672ZM345.5 90.3672H351.552V88.6172H345.5V90.3672ZM357.605 90.3672H363.657V88.6172H357.605V90.3672ZM369.71 90.3672H375.763V88.6172H369.71V90.3672ZM381.815 90.3672H387.868V88.6172H381.815V90.3672Z" fill="#E9717A"/>
<path d="M301.263 78.1608C300.6 78.1608 300.017 78.0302 299.513 77.7688C299.018 77.5075 298.626 77.1482 298.337 76.6908C298.048 76.2335 297.861 75.7155 297.777 75.1368H298.841C298.934 75.7808 299.186 76.2988 299.597 76.6908C300.017 77.0735 300.577 77.2648 301.277 77.2648C301.716 77.2648 302.103 77.1855 302.439 77.0268C302.775 76.8588 303.032 76.6255 303.209 76.3268C303.396 76.0282 303.489 75.6828 303.489 75.2908C303.489 74.9082 303.405 74.5675 303.237 74.2688C303.069 73.9702 302.826 73.7415 302.509 73.5828C302.192 73.4148 301.818 73.3308 301.389 73.3308H299.751V72.3788H301.305C301.725 72.3788 302.075 72.3088 302.355 72.1688C302.644 72.0195 302.859 71.8142 302.999 71.5528C303.139 71.2822 303.209 70.9695 303.209 70.6148C303.209 70.2788 303.12 69.9802 302.943 69.7188C302.766 69.4482 302.518 69.2382 302.201 69.0888C301.884 68.9395 301.515 68.8648 301.095 68.8648C300.451 68.8648 299.947 69.0375 299.583 69.3828C299.228 69.7282 299.028 70.2135 298.981 70.8388H297.917C297.945 70.2508 298.099 69.7422 298.379 69.3128C298.668 68.8742 299.046 68.5428 299.513 68.3188C299.989 68.0855 300.516 67.9688 301.095 67.9688C301.711 67.9688 302.262 68.0808 302.747 68.3048C303.232 68.5288 303.61 68.8462 303.881 69.2568C304.152 69.6582 304.287 70.1202 304.287 70.6428C304.287 71.1655 304.138 71.6275 303.839 72.0288C303.55 72.4302 303.195 72.7055 302.775 72.8548C303.316 72.9948 303.75 73.2842 304.077 73.7228C304.404 74.1615 304.567 74.6842 304.567 75.2908C304.567 75.8228 304.432 76.3082 304.161 76.7468C303.89 77.1762 303.503 77.5215 302.999 77.7828C302.495 78.0348 301.916 78.1608 301.263 78.1608ZM311.127 67.1848L306.843 80.2048H305.849L310.133 67.1848H311.127ZM311.624 74.5768L316.328 68.1648H317.504V74.5628H318.946V75.4448H317.504V77.9648H316.51V75.4448H311.624V74.5768ZM316.51 74.5628V69.3268L312.744 74.5628H316.51Z" fill="#0E131F"/>
</svg>
