<svg width="578" height="349" viewBox="0 0 578 349" fill="none" xmlns="http://www.w3.org/2000/svg">
<rect width="578" height="349" fill="#0E131F"/>
<path d="M53.52 291.8H54.768V303H53.52V291.8ZM57.6413 294.808H58.7933V296.216C58.9853 295.715 59.3053 295.325 59.7533 295.048C60.2013 294.76 60.7453 294.616 61.3853 294.616C62.3346 294.616 63.0706 294.92 63.5933 295.528C64.1266 296.136 64.3933 296.957 64.3933 297.992V303H63.1773V298.168C63.1773 297.389 63.0066 296.787 62.6653 296.36C62.3346 295.923 61.8386 295.704 61.1773 295.704C60.7293 295.704 60.3293 295.805 59.9773 296.008C59.6253 296.211 59.3479 296.504 59.1453 296.888C58.9533 297.261 58.8573 297.704 58.8573 298.216V303H57.6413V294.808ZM76.5475 303V301.368C76.3448 301.891 75.9768 302.328 75.4435 302.68C74.9102 303.021 74.3128 303.192 73.6515 303.192C72.9475 303.192 72.3075 303 71.7315 302.616C71.1662 302.232 70.7182 301.715 70.3875 301.064C70.0675 300.403 69.9075 299.683 69.9075 298.904C69.9075 298.125 70.0675 297.411 70.3875 296.76C70.7182 296.099 71.1662 295.576 71.7315 295.192C72.3075 294.808 72.9475 294.616 73.6515 294.616C74.3022 294.616 74.8888 294.792 75.4115 295.144C75.9448 295.485 76.3128 295.917 76.5155 296.44V291.32H77.7315V303H76.5475ZM76.5155 298.904C76.5155 298.328 76.3928 297.795 76.1475 297.304C75.9128 296.803 75.5822 296.408 75.1555 296.12C74.7395 295.821 74.2755 295.672 73.7635 295.672C73.2515 295.672 72.7928 295.821 72.3875 296.12C71.9928 296.408 71.6835 296.803 71.4595 297.304C71.2355 297.795 71.1235 298.328 71.1235 298.904C71.1235 299.48 71.2355 300.019 71.4595 300.52C71.6835 301.011 71.9928 301.405 72.3875 301.704C72.7928 301.992 73.2515 302.136 73.7635 302.136C74.2755 302.136 74.7395 301.992 75.1555 301.704C75.5822 301.405 75.9128 301.011 76.1475 300.52C76.3928 300.019 76.5155 299.48 76.5155 298.904ZM80.1018 300.616C80.1018 299.88 80.3578 299.288 80.8698 298.84C81.3924 298.392 82.1071 298.141 83.0138 298.088L85.6538 297.912V297.608C85.6538 296.968 85.4884 296.472 85.1578 296.12C84.8271 295.768 84.3364 295.592 83.6858 295.592C83.1204 295.592 82.6618 295.736 82.3098 296.024C81.9578 296.301 81.7338 296.669 81.6378 297.128H80.4378C80.5551 296.371 80.9018 295.763 81.4778 295.304C82.0538 294.845 82.7844 294.616 83.6698 294.616C84.6938 294.616 85.4831 294.888 86.0378 295.432C86.5924 295.965 86.8698 296.685 86.8698 297.592V303H85.6858V301.72C85.5151 302.147 85.1951 302.499 84.7258 302.776C84.2564 303.053 83.6911 303.192 83.0298 303.192C82.1444 303.192 81.4351 302.957 80.9018 302.488C80.3684 302.008 80.1018 301.384 80.1018 300.616ZM81.2858 300.584C81.2858 301.096 81.4511 301.507 81.7818 301.816C82.1124 302.125 82.5818 302.28 83.1898 302.28C83.6591 302.28 84.0804 302.173 84.4538 301.96C84.8271 301.747 85.1204 301.443 85.3338 301.048C85.5471 300.643 85.6538 300.163 85.6538 299.608V298.792L83.4778 298.936C82.7524 298.989 82.2031 299.149 81.8298 299.416C81.4671 299.683 81.2858 300.072 81.2858 300.584ZM89.5163 294.808H90.6683V296.776C90.8283 296.125 91.1216 295.619 91.5483 295.256C91.9856 294.893 92.5669 294.712 93.2923 294.712C93.6016 294.712 93.8256 294.733 93.9643 294.776V295.816C93.8469 295.795 93.6656 295.784 93.4203 295.784C92.9083 295.784 92.4443 295.917 92.0283 296.184C91.6229 296.44 91.3029 296.813 91.0683 297.304C90.8443 297.795 90.7323 298.376 90.7323 299.048V303H89.5163V294.808ZM95.7194 291.32H96.9354V299.24L101.191 294.808H102.583L99.4794 298.136L102.631 303H101.303L98.6634 298.92L96.9354 300.728V303H95.7194V291.32ZM108.065 291.32H109.281V303H108.065V291.32ZM115.375 303.192C114.639 303.192 113.967 303 113.359 302.616C112.761 302.221 112.292 301.699 111.951 301.048C111.609 300.387 111.439 299.672 111.439 298.904C111.439 298.136 111.609 297.427 111.951 296.776C112.292 296.115 112.761 295.592 113.359 295.208C113.967 294.813 114.639 294.616 115.375 294.616C116.111 294.616 116.777 294.813 117.375 295.208C117.983 295.592 118.457 296.115 118.799 296.776C119.14 297.427 119.311 298.136 119.311 298.904C119.311 299.672 119.14 300.387 118.799 301.048C118.457 301.699 117.983 302.221 117.375 302.616C116.777 303 116.111 303.192 115.375 303.192ZM115.375 302.136C115.908 302.136 116.383 301.987 116.799 301.688C117.215 301.379 117.535 300.979 117.759 300.488C117.983 299.987 118.095 299.459 118.095 298.904C118.095 298.349 117.983 297.827 117.759 297.336C117.535 296.835 117.215 296.435 116.799 296.136C116.383 295.827 115.908 295.672 115.375 295.672C114.841 295.672 114.367 295.827 113.951 296.136C113.535 296.435 113.215 296.835 112.991 297.336C112.767 297.827 112.655 298.349 112.655 298.904C112.655 299.459 112.767 299.987 112.991 300.488C113.215 300.979 113.535 301.379 113.951 301.688C114.367 301.987 114.841 302.136 115.375 302.136ZM120.751 298.648C120.751 297.901 120.906 297.224 121.215 296.616C121.535 295.997 121.973 295.512 122.527 295.16C123.082 294.797 123.717 294.616 124.431 294.616C124.869 294.616 125.274 294.691 125.647 294.84C126.031 294.989 126.351 295.192 126.607 295.448C126.874 295.704 127.071 295.992 127.199 296.312V294.808H128.383V302.648C128.383 303.363 128.234 303.981 127.935 304.504C127.637 305.037 127.21 305.443 126.655 305.72C126.101 305.997 125.445 306.136 124.687 306.136C123.749 306.136 122.949 305.885 122.287 305.384C121.626 304.893 121.183 304.243 120.959 303.432H122.207C122.389 303.955 122.698 304.371 123.135 304.68C123.573 304.989 124.106 305.144 124.735 305.144C125.589 305.144 126.207 304.909 126.591 304.44C126.975 303.971 127.167 303.277 127.167 302.36V300.952C127.05 301.272 126.863 301.565 126.607 301.832C126.351 302.088 126.037 302.296 125.663 302.456C125.29 302.605 124.879 302.68 124.431 302.68C123.717 302.68 123.082 302.504 122.527 302.152C121.973 301.789 121.535 301.304 121.215 300.696C120.906 300.077 120.751 299.395 120.751 298.648ZM121.967 298.648C121.967 299.213 122.079 299.725 122.303 300.184C122.527 300.643 122.837 301.005 123.231 301.272C123.637 301.539 124.101 301.672 124.623 301.672C125.125 301.672 125.567 301.549 125.951 301.304C126.335 301.048 126.634 300.691 126.847 300.232C127.061 299.773 127.167 299.245 127.167 298.648C127.167 298.061 127.055 297.539 126.831 297.08C126.607 296.621 126.303 296.264 125.919 296.008C125.535 295.752 125.103 295.624 124.623 295.624C124.09 295.624 123.621 295.757 123.215 296.024C122.821 296.291 122.511 296.653 122.287 297.112C122.074 297.571 121.967 298.083 121.967 298.648ZM134.406 303.192C133.67 303.192 132.998 303 132.39 302.616C131.793 302.221 131.323 301.699 130.982 301.048C130.641 300.387 130.47 299.672 130.47 298.904C130.47 298.136 130.641 297.427 130.982 296.776C131.323 296.115 131.793 295.592 132.39 295.208C132.998 294.813 133.67 294.616 134.406 294.616C135.142 294.616 135.809 294.813 136.406 295.208C137.014 295.592 137.489 296.115 137.83 296.776C138.171 297.427 138.342 298.136 138.342 298.904C138.342 299.672 138.171 300.387 137.83 301.048C137.489 301.699 137.014 302.221 136.406 302.616C135.809 303 135.142 303.192 134.406 303.192ZM134.406 302.136C134.939 302.136 135.414 301.987 135.83 301.688C136.246 301.379 136.566 300.979 136.79 300.488C137.014 299.987 137.126 299.459 137.126 298.904C137.126 298.349 137.014 297.827 136.79 297.336C136.566 296.835 136.246 296.435 135.83 296.136C135.414 295.827 134.939 295.672 134.406 295.672C133.873 295.672 133.398 295.827 132.982 296.136C132.566 296.435 132.246 296.835 132.022 297.336C131.798 297.827 131.686 298.349 131.686 298.904C131.686 299.459 131.798 299.987 132.022 300.488C132.246 300.979 132.566 301.379 132.982 301.688C133.398 301.987 133.873 302.136 134.406 302.136ZM146.834 303.192C145.853 303.192 145.053 302.947 144.434 302.456C143.815 301.955 143.426 301.272 143.266 300.408H144.434C144.562 300.973 144.823 301.421 145.218 301.752C145.623 302.072 146.162 302.232 146.834 302.232C147.463 302.232 147.965 302.088 148.338 301.8C148.711 301.501 148.898 301.112 148.898 300.632C148.898 300.269 148.765 299.981 148.498 299.768C148.242 299.544 147.837 299.384 147.282 299.288L145.698 299.016C144.973 298.899 144.418 298.675 144.034 298.344C143.661 298.003 143.474 297.549 143.474 296.984C143.474 296.504 143.607 296.088 143.874 295.736C144.141 295.373 144.509 295.096 144.978 294.904C145.447 294.712 145.981 294.616 146.578 294.616C147.506 294.616 148.247 294.84 148.802 295.288C149.367 295.736 149.687 296.349 149.762 297.128H148.594C148.509 296.669 148.295 296.296 147.954 296.008C147.613 295.72 147.149 295.576 146.562 295.576C145.975 295.576 145.501 295.693 145.138 295.928C144.786 296.163 144.61 296.477 144.61 296.872C144.61 297.192 144.711 297.437 144.914 297.608C145.117 297.768 145.474 297.891 145.986 297.976L147.634 298.264C148.434 298.403 149.031 298.659 149.426 299.032C149.831 299.405 150.034 299.917 150.034 300.568C150.034 301.091 149.89 301.549 149.602 301.944C149.325 302.339 148.941 302.648 148.45 302.872C147.97 303.085 147.431 303.192 146.834 303.192ZM152.079 291.32H153.295V296.216C153.476 295.704 153.791 295.309 154.239 295.032C154.687 294.755 155.215 294.616 155.823 294.616C156.761 294.616 157.497 294.915 158.031 295.512C158.564 296.109 158.831 296.92 158.831 297.944V303H157.615V298.12C157.615 297.363 157.444 296.771 157.103 296.344C156.772 295.917 156.276 295.704 155.615 295.704C155.167 295.704 154.767 295.805 154.415 296.008C154.063 296.2 153.785 296.488 153.583 296.872C153.391 297.245 153.295 297.693 153.295 298.216V303H152.079V291.32ZM164.765 303.192C164.029 303.192 163.357 303 162.749 302.616C162.152 302.221 161.683 301.699 161.341 301.048C161 300.387 160.829 299.672 160.829 298.904C160.829 298.136 161 297.427 161.341 296.776C161.683 296.115 162.152 295.592 162.749 295.208C163.357 294.813 164.029 294.616 164.765 294.616C165.501 294.616 166.168 294.813 166.765 295.208C167.373 295.592 167.848 296.115 168.189 296.776C168.531 297.427 168.701 298.136 168.701 298.904C168.701 299.672 168.531 300.387 168.189 301.048C167.848 301.699 167.373 302.221 166.765 302.616C166.168 303 165.501 303.192 164.765 303.192ZM164.765 302.136C165.299 302.136 165.773 301.987 166.189 301.688C166.605 301.379 166.925 300.979 167.149 300.488C167.373 299.987 167.485 299.459 167.485 298.904C167.485 298.349 167.373 297.827 167.149 297.336C166.925 296.835 166.605 296.435 166.189 296.136C165.773 295.827 165.299 295.672 164.765 295.672C164.232 295.672 163.757 295.827 163.341 296.136C162.925 296.435 162.605 296.835 162.381 297.336C162.157 297.827 162.045 298.349 162.045 298.904C162.045 299.459 162.157 299.987 162.381 300.488C162.605 300.979 162.925 301.379 163.341 301.688C163.757 301.987 164.232 302.136 164.765 302.136ZM170.702 294.808H171.918V299.672C171.918 300.451 172.083 301.059 172.414 301.496C172.745 301.923 173.241 302.136 173.902 302.136C174.35 302.136 174.745 302.035 175.086 301.832C175.427 301.629 175.694 301.341 175.886 300.968C176.078 300.584 176.174 300.136 176.174 299.624V294.808H177.39V303H176.238V301.624C176.057 302.093 175.742 302.472 175.294 302.76C174.857 303.048 174.323 303.192 173.694 303.192C172.755 303.192 172.019 302.888 171.486 302.28C170.963 301.672 170.702 300.851 170.702 299.816V294.808ZM180.19 291.32H181.406V303H180.19V291.32ZM190.204 303V301.368C190.001 301.891 189.633 302.328 189.1 302.68C188.566 303.021 187.969 303.192 187.308 303.192C186.604 303.192 185.964 303 185.388 302.616C184.822 302.232 184.374 301.715 184.044 301.064C183.724 300.403 183.564 299.683 183.564 298.904C183.564 298.125 183.724 297.411 184.044 296.76C184.374 296.099 184.822 295.576 185.388 295.192C185.964 294.808 186.604 294.616 187.308 294.616C187.958 294.616 188.545 294.792 189.068 295.144C189.601 295.485 189.969 295.917 190.172 296.44V291.32H191.388V303H190.204ZM190.172 298.904C190.172 298.328 190.049 297.795 189.804 297.304C189.569 296.803 189.238 296.408 188.812 296.12C188.396 295.821 187.932 295.672 187.42 295.672C186.908 295.672 186.449 295.821 186.044 296.12C185.649 296.408 185.34 296.803 185.116 297.304C184.892 297.795 184.78 298.328 184.78 298.904C184.78 299.48 184.892 300.019 185.116 300.52C185.34 301.011 185.649 301.405 186.044 301.704C186.449 301.992 186.908 302.136 187.42 302.136C187.932 302.136 188.396 301.992 188.812 301.704C189.238 301.405 189.569 301.011 189.804 300.52C190.049 300.019 190.172 299.48 190.172 298.904ZM197.626 291.32H198.842V296.44C199.044 295.917 199.407 295.485 199.93 295.144C200.463 294.792 201.055 294.616 201.706 294.616C202.41 294.616 203.044 294.808 203.61 295.192C204.186 295.576 204.634 296.099 204.954 296.76C205.284 297.411 205.45 298.125 205.45 298.904C205.45 299.683 205.284 300.403 204.954 301.064C204.634 301.715 204.186 302.232 203.61 302.616C203.044 303 202.41 303.192 201.706 303.192C201.044 303.192 200.447 303.021 199.914 302.68C199.38 302.328 199.012 301.891 198.81 301.368V303H197.626V291.32ZM198.842 298.904C198.842 299.48 198.959 300.019 199.194 300.52C199.439 301.011 199.77 301.405 200.186 301.704C200.612 301.992 201.082 302.136 201.594 302.136C202.106 302.136 202.559 301.992 202.954 301.704C203.359 301.405 203.674 301.011 203.898 300.52C204.122 300.019 204.234 299.48 204.234 298.904C204.234 298.328 204.122 297.795 203.898 297.304C203.674 296.803 203.359 296.408 202.954 296.12C202.559 295.821 202.106 295.672 201.594 295.672C201.082 295.672 200.612 295.821 200.186 296.12C199.77 296.408 199.439 296.803 199.194 297.304C198.959 297.795 198.842 298.328 198.842 298.904ZM206.892 298.904C206.892 298.093 207.057 297.363 207.388 296.712C207.719 296.061 208.172 295.549 208.748 295.176C209.324 294.803 209.975 294.616 210.7 294.616C211.489 294.616 212.161 294.797 212.716 295.16C213.281 295.512 213.703 295.992 213.98 296.6C214.268 297.208 214.412 297.885 214.412 298.632V299.192H208.076C208.108 299.757 208.231 300.269 208.444 300.728C208.657 301.176 208.961 301.533 209.356 301.8C209.761 302.067 210.236 302.2 210.78 302.2C211.367 302.2 211.847 302.067 212.22 301.8C212.593 301.523 212.876 301.155 213.068 300.696H214.252C214.103 301.197 213.863 301.635 213.532 302.008C213.212 302.381 212.812 302.675 212.332 302.888C211.863 303.091 211.345 303.192 210.78 303.192C209.98 303.192 209.287 303 208.7 302.616C208.113 302.232 207.665 301.715 207.356 301.064C207.047 300.413 206.892 299.693 206.892 298.904ZM213.276 298.216C213.233 297.704 213.105 297.251 212.892 296.856C212.679 296.461 212.385 296.152 212.012 295.928C211.639 295.693 211.196 295.576 210.684 295.576C210.204 295.576 209.777 295.693 209.404 295.928C209.041 296.163 208.748 296.477 208.524 296.872C208.311 297.267 208.172 297.715 208.108 298.216H213.276ZM220.112 294.808H221.328V303H220.112V294.808ZM220.08 291.624H221.36V293.272H220.08V291.624ZM224.126 294.808H225.278V296.216C225.47 295.715 225.79 295.325 226.238 295.048C226.686 294.76 227.23 294.616 227.87 294.616C228.819 294.616 229.555 294.92 230.078 295.528C230.611 296.136 230.878 296.957 230.878 297.992V303H229.662V298.168C229.662 297.389 229.491 296.787 229.15 296.36C228.819 295.923 228.323 295.704 227.662 295.704C227.214 295.704 226.814 295.805 226.462 296.008C226.11 296.211 225.832 296.504 225.63 296.888C225.438 297.261 225.342 297.704 225.342 298.216V303H224.126V294.808ZM239.96 303.096C239.16 303.096 238.557 302.883 238.152 302.456C237.757 302.019 237.56 301.379 237.56 300.536V295.832H235.992V294.808H237.56V292.632H238.776V294.808H241.208V295.832H238.776V300.6C238.776 301.069 238.888 301.427 239.112 301.672C239.347 301.917 239.693 302.04 240.152 302.04C240.504 302.04 240.861 301.987 241.224 301.88V302.92C241.096 302.973 240.915 303.016 240.68 303.048C240.456 303.08 240.216 303.096 239.96 303.096ZM242.47 298.904C242.47 298.093 242.635 297.363 242.966 296.712C243.297 296.061 243.75 295.549 244.326 295.176C244.902 294.803 245.553 294.616 246.278 294.616C247.067 294.616 247.739 294.797 248.294 295.16C248.859 295.512 249.281 295.992 249.558 296.6C249.846 297.208 249.99 297.885 249.99 298.632V299.192H243.654C243.686 299.757 243.809 300.269 244.022 300.728C244.235 301.176 244.539 301.533 244.934 301.8C245.339 302.067 245.814 302.2 246.358 302.2C246.945 302.2 247.425 302.067 247.798 301.8C248.171 301.523 248.454 301.155 248.646 300.696H249.83C249.681 301.197 249.441 301.635 249.11 302.008C248.79 302.381 248.39 302.675 247.91 302.888C247.441 303.091 246.923 303.192 246.358 303.192C245.558 303.192 244.865 303 244.278 302.616C243.691 302.232 243.243 301.715 242.934 301.064C242.625 300.413 242.47 299.693 242.47 298.904ZM248.854 298.216C248.811 297.704 248.683 297.251 248.47 296.856C248.257 296.461 247.963 296.152 247.59 295.928C247.217 295.693 246.774 295.576 246.262 295.576C245.782 295.576 245.355 295.693 244.982 295.928C244.619 296.163 244.326 296.477 244.102 296.872C243.889 297.267 243.75 297.715 243.686 298.216H248.854ZM251.742 300.616C251.742 299.88 251.998 299.288 252.51 298.84C253.033 298.392 253.748 298.141 254.654 298.088L257.294 297.912V297.608C257.294 296.968 257.129 296.472 256.798 296.12C256.468 295.768 255.977 295.592 255.326 295.592C254.761 295.592 254.302 295.736 253.95 296.024C253.598 296.301 253.374 296.669 253.278 297.128H252.078C252.196 296.371 252.542 295.763 253.118 295.304C253.694 294.845 254.425 294.616 255.31 294.616C256.334 294.616 257.124 294.888 257.678 295.432C258.233 295.965 258.51 296.685 258.51 297.592V303H257.326V301.72C257.156 302.147 256.836 302.499 256.366 302.776C255.897 303.053 255.332 303.192 254.67 303.192C253.785 303.192 253.076 302.957 252.542 302.488C252.009 302.008 251.742 301.384 251.742 300.616ZM252.926 300.584C252.926 301.096 253.092 301.507 253.422 301.816C253.753 302.125 254.222 302.28 254.83 302.28C255.3 302.28 255.721 302.173 256.094 301.96C256.468 301.747 256.761 301.443 256.974 301.048C257.188 300.643 257.294 300.163 257.294 299.608V298.792L255.118 298.936C254.393 298.989 253.844 299.149 253.47 299.416C253.108 299.683 252.926 300.072 252.926 300.584ZM261.237 291.32H262.453V303H261.237V291.32ZM268.126 298.648C268.126 297.901 268.281 297.224 268.59 296.616C268.91 295.997 269.348 295.512 269.902 295.16C270.457 294.797 271.092 294.616 271.806 294.616C272.244 294.616 272.649 294.691 273.022 294.84C273.406 294.989 273.726 295.192 273.982 295.448C274.249 295.704 274.446 295.992 274.574 296.312V294.808H275.758V302.648C275.758 303.363 275.609 303.981 275.31 304.504C275.012 305.037 274.585 305.443 274.03 305.72C273.476 305.997 272.82 306.136 272.062 306.136C271.124 306.136 270.324 305.885 269.662 305.384C269.001 304.893 268.558 304.243 268.334 303.432H269.582C269.764 303.955 270.073 304.371 270.51 304.68C270.948 304.989 271.481 305.144 272.11 305.144C272.964 305.144 273.582 304.909 273.966 304.44C274.35 303.971 274.542 303.277 274.542 302.36V300.952C274.425 301.272 274.238 301.565 273.982 301.832C273.726 302.088 273.412 302.296 273.038 302.456C272.665 302.605 272.254 302.68 271.806 302.68C271.092 302.68 270.457 302.504 269.902 302.152C269.348 301.789 268.91 301.304 268.59 300.696C268.281 300.077 268.126 299.395 268.126 298.648ZM269.342 298.648C269.342 299.213 269.454 299.725 269.678 300.184C269.902 300.643 270.212 301.005 270.606 301.272C271.012 301.539 271.476 301.672 271.998 301.672C272.5 301.672 272.942 301.549 273.326 301.304C273.71 301.048 274.009 300.691 274.222 300.232C274.436 299.773 274.542 299.245 274.542 298.648C274.542 298.061 274.43 297.539 274.206 297.08C273.982 296.621 273.678 296.264 273.294 296.008C272.91 295.752 272.478 295.624 271.998 295.624C271.465 295.624 270.996 295.757 270.59 296.024C270.196 296.291 269.886 296.653 269.662 297.112C269.449 297.571 269.342 298.083 269.342 298.648ZM278.485 294.808H279.637V296.776C279.797 296.125 280.09 295.619 280.517 295.256C280.954 294.893 281.536 294.712 282.261 294.712C282.57 294.712 282.794 294.733 282.933 294.776V295.816C282.816 295.795 282.634 295.784 282.389 295.784C281.877 295.784 281.413 295.917 280.997 296.184C280.592 296.44 280.272 296.813 280.037 297.304C279.813 297.795 279.701 298.376 279.701 299.048V303H278.485V294.808ZM283.814 298.904C283.814 298.093 283.979 297.363 284.31 296.712C284.64 296.061 285.094 295.549 285.67 295.176C286.246 294.803 286.896 294.616 287.622 294.616C288.411 294.616 289.083 294.797 289.638 295.16C290.203 295.512 290.624 295.992 290.902 296.6C291.19 297.208 291.334 297.885 291.334 298.632V299.192H284.998C285.03 299.757 285.152 300.269 285.366 300.728C285.579 301.176 285.883 301.533 286.278 301.8C286.683 302.067 287.158 302.2 287.702 302.2C288.288 302.2 288.768 302.067 289.142 301.8C289.515 301.523 289.798 301.155 289.99 300.696H291.174C291.024 301.197 290.784 301.635 290.454 302.008C290.134 302.381 289.734 302.675 289.254 302.888C288.784 303.091 288.267 303.192 287.702 303.192C286.902 303.192 286.208 303 285.622 302.616C285.035 302.232 284.587 301.715 284.278 301.064C283.968 300.413 283.814 299.693 283.814 298.904ZM290.198 298.216C290.155 297.704 290.027 297.251 289.814 296.856C289.6 296.461 289.307 296.152 288.934 295.928C288.56 295.693 288.118 295.576 287.606 295.576C287.126 295.576 286.699 295.693 286.326 295.928C285.963 296.163 285.67 296.477 285.446 296.872C285.232 297.267 285.094 297.715 285.03 298.216H290.198ZM292.829 298.904C292.829 298.093 292.995 297.363 293.325 296.712C293.656 296.061 294.109 295.549 294.685 295.176C295.261 294.803 295.912 294.616 296.637 294.616C297.427 294.616 298.099 294.797 298.653 295.16C299.219 295.512 299.64 295.992 299.917 296.6C300.205 297.208 300.349 297.885 300.349 298.632V299.192H294.013C294.045 299.757 294.168 300.269 294.381 300.728C294.595 301.176 294.899 301.533 295.293 301.8C295.699 302.067 296.173 302.2 296.717 302.2C297.304 302.2 297.784 302.067 298.157 301.8C298.531 301.523 298.813 301.155 299.005 300.696H300.189C300.04 301.197 299.8 301.635 299.469 302.008C299.149 302.381 298.749 302.675 298.269 302.888C297.8 303.091 297.283 303.192 296.717 303.192C295.917 303.192 295.224 303 294.637 302.616C294.051 302.232 293.603 301.715 293.293 301.064C292.984 300.413 292.829 299.693 292.829 298.904ZM299.213 298.216C299.171 297.704 299.043 297.251 298.829 296.856C298.616 296.461 298.323 296.152 297.949 295.928C297.576 295.693 297.133 295.576 296.621 295.576C296.141 295.576 295.715 295.693 295.341 295.928C294.979 296.163 294.685 296.477 294.461 296.872C294.248 297.267 294.109 297.715 294.045 298.216H299.213ZM302.454 294.808H303.606V296.216C303.798 295.715 304.118 295.325 304.566 295.048C305.014 294.76 305.558 294.616 306.198 294.616C307.147 294.616 307.883 294.92 308.406 295.528C308.939 296.136 309.206 296.957 309.206 297.992V303H307.99V298.168C307.99 297.389 307.819 296.787 307.478 296.36C307.147 295.923 306.651 295.704 305.99 295.704C305.542 295.704 305.142 295.805 304.79 296.008C304.438 296.211 304.16 296.504 303.958 296.888C303.766 297.261 303.67 297.704 303.67 298.216V303H302.454V294.808Z" fill="white" fill-opacity="0.9"/>
<path d="M52.594 234.816H54.358L54.61 232.386H53.044V230.478H54.826L55.15 227.4H57.292L56.968 230.478H59.182L59.506 227.4H61.648L61.324 230.478H62.872V232.386H61.108L60.856 234.816H62.422V236.724H60.64L60.298 240H58.156L58.498 236.724H56.302L55.942 240H53.8L54.16 236.724H52.594V234.816ZM58.714 234.816L58.966 232.386H56.752L56.5 234.816H58.714ZM69.6169 240.252C68.4529 240.252 67.4689 239.964 66.6649 239.388C65.8609 238.8 65.2609 238.014 64.8649 237.03C64.4689 236.034 64.2709 234.924 64.2709 233.7C64.2709 232.476 64.4689 231.372 64.8649 230.388C65.2609 229.392 65.8609 228.606 66.6649 228.03C67.4689 227.442 68.4529 227.148 69.6169 227.148C70.7809 227.148 71.7649 227.442 72.5689 228.03C73.3729 228.606 73.9729 229.392 74.3689 230.388C74.7649 231.372 74.9629 232.476 74.9629 233.7C74.9629 234.924 74.7649 236.034 74.3689 237.03C73.9729 238.014 73.3729 238.8 72.5689 239.388C71.7649 239.964 70.7809 240.252 69.6169 240.252ZM69.6169 237.624C70.1449 237.624 70.5769 237.45 70.9129 237.102C71.2609 236.754 71.5129 236.286 71.6689 235.698C71.8249 235.11 71.9029 234.444 71.9029 233.7C71.9029 232.956 71.8249 232.29 71.6689 231.702C71.5129 231.114 71.2609 230.646 70.9129 230.298C70.5769 229.95 70.1449 229.776 69.6169 229.776C69.0889 229.776 68.6509 229.95 68.3029 230.298C67.9669 230.646 67.7209 231.114 67.5649 231.702C67.4089 232.29 67.3309 232.956 67.3309 233.7C67.3309 234.444 67.4089 235.11 67.5649 235.698C67.7209 236.286 67.9669 236.754 68.3029 237.102C68.6509 237.45 69.0889 237.624 69.6169 237.624ZM76.9356 227.4H86.5296V230.082H80.0316V232.26H86.2956V234.942H80.0316V237.318H86.6736V240H76.9356V227.4ZM90.8361 230.802L88.0281 232.26V229.254L91.3581 227.4H93.8961V240H90.8361V230.802ZM100.77 240.252C99.8343 240.252 99.0123 240.078 98.3043 239.73C97.5963 239.382 97.0383 238.896 96.6303 238.272C96.2223 237.648 95.9883 236.922 95.9283 236.094H98.8623C98.9223 236.574 99.1203 236.964 99.4563 237.264C99.7923 237.552 100.224 237.696 100.752 237.696C101.1 237.696 101.4 237.636 101.652 237.516C101.904 237.396 102.096 237.234 102.228 237.03C102.36 236.814 102.426 236.574 102.426 236.31C102.426 236.034 102.36 235.8 102.228 235.608C102.096 235.404 101.904 235.248 101.652 235.14C101.4 235.032 101.106 234.978 100.77 234.978H98.8443V232.314H100.32C100.692 232.314 101.01 232.266 101.274 232.17C101.55 232.074 101.76 231.93 101.904 231.738C102.048 231.534 102.12 231.288 102.12 231C102.12 230.748 102.06 230.526 101.94 230.334C101.82 230.142 101.64 229.992 101.4 229.884C101.172 229.764 100.908 229.704 100.608 229.704C100.116 229.704 99.7323 229.836 99.4563 230.1C99.1803 230.364 99.0303 230.712 99.0063 231.144H96.1263C96.1623 230.352 96.3663 229.656 96.7383 229.056C97.1223 228.444 97.6443 227.976 98.3043 227.652C98.9643 227.316 99.7323 227.148 100.608 227.148C101.496 227.148 102.282 227.304 102.966 227.616C103.65 227.916 104.184 228.348 104.568 228.912C104.952 229.464 105.144 230.112 105.144 230.856C105.144 231.48 104.982 232.026 104.658 232.494C104.346 232.95 103.896 233.292 103.308 233.52C104.016 233.724 104.55 234.078 104.91 234.582C105.27 235.074 105.45 235.68 105.45 236.4C105.45 237.18 105.246 237.864 104.838 238.452C104.43 239.028 103.872 239.472 103.164 239.784C102.456 240.096 101.658 240.252 100.77 240.252ZM109.522 230.802L106.714 232.26V229.254L110.044 227.4H112.582V240H109.522V230.802ZM115.01 227.4H124.316V230.082H118.106V232.476H124.082V235.158H118.106V240H115.01V227.4Z" fill="white" fill-opacity="0.9"/>
<path d="M52 267H514" stroke="white" stroke-opacity="0.9" stroke-width="0.5"/>
<path d="M291.783 152.174C288.114 149.292 284.049 147.05 279.682 145.494C284.045 143.942 288.11 141.709 291.783 138.836C292.366 138.378 292.74 137.671 292.74 136.879C292.74 135.505 291.628 134.393 290.253 134.393C289.675 134.393 289.146 134.593 288.723 134.922C285.077 137.773 280.994 139.917 276.591 141.291C273.437 142.274 270.177 142.83 266.882 142.972V136.879C266.882 135.505 265.77 134.393 264.395 134.393C263.021 134.393 261.909 135.505 261.909 136.879V154.126C261.909 155.5 263.021 156.612 264.395 156.612C265.77 156.612 266.882 155.5 266.882 154.126V148.011C270.177 148.149 273.437 148.709 276.586 149.692C280.994 151.071 285.072 153.219 288.719 156.079C289.142 156.408 289.675 156.608 290.253 156.608C291.628 156.608 292.74 155.496 292.74 154.122C292.74 153.33 292.366 152.623 291.788 152.169L291.783 152.174Z" fill="#00C3B4"/>
<path d="M224.954 134.393H191.486C190.112 134.393 189 135.505 189 136.879C189 138.253 190.112 139.365 191.486 139.365H205.732V154.126C205.732 155.5 206.844 156.612 208.218 156.612C209.592 156.612 210.704 155.5 210.704 154.126V139.365H224.95C226.324 139.365 227.436 138.253 227.436 136.879C227.436 135.505 226.324 134.393 224.95 134.393H224.954Z" fill="#00C3B4"/>
<path d="M389 136.879C389 135.504 387.888 134.393 386.514 134.393C385.139 134.393 384.028 135.504 384.028 136.879V149.589C384.028 149.763 383.983 149.936 383.894 150.092C383.614 150.572 383 150.737 382.52 150.461L355.719 134.997C353.548 133.743 350.773 134.486 349.519 136.656C349.105 137.372 348.91 138.155 348.91 138.924V154.121C348.91 155.495 350.022 156.607 351.396 156.607C352.77 156.607 353.882 155.495 353.882 154.121V141.411C353.882 141.242 353.927 141.064 354.015 140.908C354.296 140.428 354.909 140.263 355.39 140.539L382.191 155.998C384.361 157.252 387.136 156.509 388.391 154.339C388.804 153.623 389 152.84 389 152.071V136.874V136.879Z" fill="#00C3B4"/>
<path d="M335.159 134.393H316.012C310.23 134.393 305.543 139.081 305.543 144.862V146.143C305.543 151.925 310.23 156.612 316.012 156.612H335.159C340.941 156.612 345.629 151.925 345.629 146.143V144.862C345.629 139.081 340.941 134.393 335.159 134.393ZM340.727 146.108C340.727 149.163 338.25 151.64 335.195 151.64H316.048C312.992 151.64 310.515 149.163 310.515 146.108V144.898C310.515 141.842 312.992 139.365 316.048 139.365H335.195C338.25 139.365 340.727 141.842 340.727 144.898V146.108Z" fill="#00C3B4"/>
<path d="M240.995 147.993C239.621 147.993 238.509 146.881 238.509 145.507C238.509 144.133 239.621 143.021 240.995 143.021H254.756C256.13 143.021 257.242 144.133 257.242 145.507C257.242 146.881 256.13 147.993 254.756 147.993H240.995ZM256.495 134.393C257.869 134.393 258.981 135.505 258.981 136.879C258.981 138.253 257.869 139.365 256.495 139.365H239.847C236.792 139.365 234.315 141.842 234.315 144.898V146.108C234.315 149.163 236.792 151.64 239.847 151.64H256.495C257.869 151.64 258.981 152.752 258.981 154.126C258.981 155.5 257.869 156.612 256.495 156.612H239.816C234.034 156.612 229.347 151.925 229.347 146.143V144.862C229.347 139.081 234.034 134.393 239.816 134.393H256.495Z" fill="#00C3B4"/>
<path d="M297.016 154.126C297.016 155.5 298.128 156.612 299.502 156.612C300.877 156.612 301.988 155.5 301.988 154.126V136.879C301.988 135.505 300.877 134.393 299.502 134.393C298.128 134.393 297.016 135.505 297.016 136.879V154.126Z" fill="#00C3B4"/>
</svg>
