<svg width="566" height="320" viewBox="0 0 566 320" fill="none" xmlns="http://www.w3.org/2000/svg">
<rect width="566" height="320" fill="#F9F9FC"/>
<path d="M289.402 132.884C285.449 129.779 281.069 127.364 276.364 125.687C281.064 124.015 285.444 121.609 289.402 118.514C290.03 118.02 290.432 117.258 290.432 116.405C290.432 114.925 289.234 113.727 287.754 113.727C287.131 113.727 286.56 113.942 286.105 114.297C282.176 117.368 277.777 119.678 273.033 121.159C269.636 122.218 266.123 122.817 262.573 122.97V116.405C262.573 114.925 261.375 113.727 259.894 113.727C258.414 113.727 257.216 114.925 257.216 116.405V134.988C257.216 136.468 258.414 137.666 259.894 137.666C261.375 137.666 262.573 136.468 262.573 134.988V128.399C266.123 128.548 269.636 129.151 273.028 130.21C277.777 131.696 282.171 134.01 286.1 137.091C286.556 137.446 287.131 137.661 287.754 137.661C289.234 137.661 290.432 136.464 290.432 134.983C290.432 134.13 290.03 133.368 289.407 132.879L289.402 132.884Z" fill="#00C3B4"/>
<path d="M217.401 113.727H181.343C179.862 113.727 178.664 114.925 178.664 116.405C178.664 117.886 179.862 119.084 181.343 119.084H196.691V134.988C196.691 136.468 197.889 137.666 199.369 137.666C200.85 137.666 202.048 136.468 202.048 134.988V119.084H217.396C218.877 119.084 220.075 117.886 220.075 116.405C220.075 114.925 218.877 113.727 217.396 113.727H217.401Z" fill="#00C3B4"/>
<path d="M394.143 116.405C394.143 114.924 392.945 113.726 391.464 113.726C389.983 113.726 388.786 114.924 388.786 116.405V130.099C388.786 130.286 388.738 130.473 388.642 130.641C388.34 131.158 387.679 131.336 387.161 131.039L358.286 114.378C355.948 113.026 352.957 113.827 351.606 116.165C351.161 116.936 350.95 117.78 350.95 118.609V134.982C350.95 136.463 352.148 137.661 353.628 137.661C355.109 137.661 356.307 136.463 356.307 134.982V121.287C356.307 121.105 356.355 120.914 356.451 120.746C356.753 120.228 357.414 120.051 357.931 120.348L386.807 137.004C389.145 138.356 392.135 137.555 393.486 135.217C393.932 134.446 394.143 133.602 394.143 132.773V116.4V116.405Z" fill="#00C3B4"/>
<path d="M336.135 113.727H315.506C309.277 113.727 304.226 118.777 304.226 125.006V126.386C304.226 132.616 309.277 137.666 315.506 137.666H336.135C342.364 137.666 347.415 132.616 347.415 126.386V125.006C347.415 118.777 342.364 113.727 336.135 113.727ZM342.134 126.348C342.134 129.64 339.465 132.309 336.173 132.309H315.544C312.253 132.309 309.584 129.64 309.584 126.348V125.045C309.584 121.753 312.253 119.084 315.544 119.084H336.173C339.465 119.084 342.134 121.753 342.134 125.045V126.348Z" fill="#00C3B4"/>
<path d="M234.683 128.38C233.202 128.38 232.004 127.182 232.004 125.701C232.004 124.221 233.202 123.023 234.683 123.023H249.508C250.989 123.023 252.187 124.221 252.187 125.701C252.187 127.182 250.989 128.38 249.508 128.38H234.683ZM251.382 113.727C252.863 113.727 254.061 114.925 254.061 116.405C254.061 117.886 252.863 119.084 251.382 119.084H233.446C230.154 119.084 227.485 121.753 227.485 125.045V126.348C227.485 129.64 230.154 132.309 233.446 132.309H251.382C252.863 132.309 254.061 133.507 254.061 134.988C254.061 136.468 252.863 137.666 251.382 137.666H233.413C227.184 137.666 222.133 132.616 222.133 126.386V125.006C222.133 118.777 227.184 113.727 233.413 113.727H251.382Z" fill="#00C3B4"/>
<path d="M295.04 134.988C295.04 136.468 296.238 137.666 297.719 137.666C299.199 137.666 300.397 136.468 300.397 134.988V116.405C300.397 114.925 299.199 113.727 297.719 113.727C296.238 113.727 295.04 114.925 295.04 116.405V134.988Z" fill="#00C3B4"/>
<path d="M138.182 139.055L437.085 139.055" stroke="#C8C8C8" stroke-width="1.27463" stroke-dasharray="2.55 2.55"/>
<path d="M138.182 112.334L437.085 112.334" stroke="#C8C8C8" stroke-width="1.27463" stroke-dasharray="2.55 2.55"/>
<path d="M179.829 153.393H188.993C190.52 153.393 191.844 153.664 192.966 154.205C194.087 154.747 194.947 155.501 195.547 156.467C196.146 157.415 196.446 158.497 196.446 159.715C196.446 160.933 196.136 162.035 195.518 163.021C194.899 163.988 194.029 164.742 192.908 165.283C191.786 165.825 190.481 166.095 188.993 166.095H183.889V173.693H179.829V153.393ZM188.587 162.702C189.379 162.702 190.056 162.577 190.617 162.325C191.197 162.074 191.632 161.726 191.922 161.281C192.231 160.817 192.386 160.286 192.386 159.686C192.386 159.106 192.231 158.604 191.922 158.178C191.632 157.734 191.197 157.386 190.617 157.134C190.056 156.883 189.379 156.757 188.587 156.757H183.889V162.702H188.587ZM199.279 158.613H203.078V162.006C203.31 160.904 203.774 160.034 204.47 159.396C205.166 158.758 206.094 158.439 207.254 158.439C207.776 158.439 208.162 158.478 208.414 158.555V162.325C208.22 162.306 207.901 162.296 207.457 162.296C206.567 162.296 205.804 162.48 205.166 162.847C204.547 163.215 204.073 163.746 203.745 164.442C203.416 165.138 203.252 165.989 203.252 166.994V173.693H199.279V158.613ZM217.479 174.041C215.99 174.041 214.656 173.693 213.477 172.997C212.298 172.301 211.379 171.354 210.722 170.155C210.065 168.937 209.736 167.603 209.736 166.153C209.736 164.703 210.065 163.379 210.722 162.18C211.379 160.962 212.298 160.005 213.477 159.309C214.656 158.613 215.99 158.265 217.479 158.265C218.968 158.265 220.302 158.613 221.481 159.309C222.66 160.005 223.579 160.962 224.236 162.18C224.893 163.379 225.222 164.703 225.222 166.153C225.222 167.603 224.893 168.937 224.236 170.155C223.579 171.354 222.66 172.301 221.481 172.997C220.302 173.693 218.968 174.041 217.479 174.041ZM217.479 170.764C218.252 170.764 218.929 170.542 219.509 170.097C220.089 169.653 220.534 169.082 220.843 168.386C221.152 167.69 221.307 166.946 221.307 166.153C221.307 165.361 221.152 164.616 220.843 163.92C220.534 163.224 220.089 162.664 219.509 162.238C218.929 161.794 218.252 161.571 217.479 161.571C216.706 161.571 216.029 161.794 215.449 162.238C214.869 162.664 214.424 163.224 214.115 163.92C213.806 164.616 213.651 165.361 213.651 166.153C213.651 166.946 213.806 167.69 214.115 168.386C214.424 169.082 214.869 169.653 215.449 170.097C216.029 170.542 216.706 170.764 217.479 170.764ZM227.181 165.66C227.181 164.23 227.462 162.954 228.022 161.832C228.602 160.711 229.395 159.841 230.4 159.222C231.425 158.584 232.585 158.265 233.88 158.265C234.615 158.265 235.282 158.381 235.881 158.613C236.5 158.826 237.022 159.135 237.447 159.541C237.873 159.947 238.192 160.411 238.404 160.933V158.613H242.29V172.852C242.29 174.244 241.991 175.424 241.391 176.39C240.792 177.376 239.941 178.121 238.839 178.623C237.737 179.126 236.452 179.377 234.982 179.377C232.952 179.377 231.27 178.913 229.936 177.985C228.622 177.077 227.81 175.82 227.5 174.215H231.531C231.705 174.873 232.082 175.395 232.662 175.781C233.242 176.187 233.977 176.39 234.866 176.39C236.084 176.39 236.964 176.062 237.505 175.404C238.047 174.747 238.317 173.732 238.317 172.359V170.3C238.143 170.803 237.844 171.267 237.418 171.692C237.012 172.098 236.5 172.427 235.881 172.678C235.263 172.91 234.596 173.026 233.88 173.026C232.585 173.026 231.425 172.717 230.4 172.098C229.395 171.46 228.602 170.581 228.022 169.459C227.462 168.338 227.181 167.072 227.181 165.66ZM231.067 165.66C231.067 166.472 231.212 167.207 231.502 167.864C231.812 168.502 232.237 169.015 232.778 169.401C233.339 169.769 233.996 169.952 234.75 169.952C235.446 169.952 236.065 169.778 236.606 169.43C237.148 169.063 237.563 168.56 237.853 167.922C238.163 167.265 238.317 166.511 238.317 165.66C238.317 164.81 238.163 164.065 237.853 163.427C237.544 162.77 237.119 162.267 236.577 161.919C236.036 161.552 235.427 161.368 234.75 161.368C233.996 161.368 233.339 161.552 232.778 161.919C232.237 162.287 231.812 162.799 231.502 163.456C231.212 164.094 231.067 164.829 231.067 165.66ZM246.064 158.613H249.863V162.006C250.095 160.904 250.559 160.034 251.255 159.396C251.951 158.758 252.879 158.439 254.039 158.439C254.561 158.439 254.947 158.478 255.199 158.555V162.325C255.005 162.306 254.686 162.296 254.242 162.296C253.352 162.296 252.589 162.48 251.951 162.847C251.332 163.215 250.858 163.746 250.53 164.442C250.201 165.138 250.037 165.989 250.037 166.994V173.693H246.064V158.613ZM256.788 169.314C256.788 167.845 257.29 166.724 258.296 165.95C259.301 165.158 260.79 164.684 262.762 164.529L266.416 164.239V163.688C266.416 162.915 266.193 162.316 265.749 161.89C265.323 161.446 264.685 161.223 263.835 161.223C263.061 161.223 262.433 161.417 261.95 161.803C261.466 162.19 261.176 162.683 261.08 163.282H257.31C257.542 161.774 258.247 160.566 259.427 159.657C260.606 158.729 262.075 158.265 263.835 158.265C265.923 158.265 267.527 158.778 268.649 159.802C269.789 160.827 270.36 162.209 270.36 163.949V173.693H266.532V171.634C266.222 172.33 265.662 172.91 264.85 173.374C264.057 173.819 263.119 174.041 262.037 174.041C260.451 174.041 259.175 173.616 258.209 172.765C257.261 171.895 256.788 170.745 256.788 169.314ZM260.616 169.198C260.616 169.856 260.828 170.378 261.254 170.764C261.698 171.151 262.317 171.344 263.11 171.344C263.786 171.344 264.366 171.209 264.85 170.938C265.352 170.668 265.739 170.271 266.01 169.749C266.28 169.227 266.416 168.609 266.416 167.893V166.878L263.545 167.11C262.578 167.188 261.843 167.391 261.341 167.719C260.857 168.029 260.616 168.522 260.616 169.198ZM273.988 158.613H277.816V160.991C278.183 160.121 278.715 159.454 279.411 158.99C280.107 158.507 281.006 158.265 282.108 158.265C283.229 158.265 284.157 158.497 284.892 158.961C285.646 159.406 286.226 160.054 286.632 160.904C287.115 160.054 287.734 159.406 288.488 158.961C289.261 158.497 290.228 158.265 291.388 158.265C293.108 158.265 294.423 158.797 295.332 159.86C296.24 160.924 296.695 162.393 296.695 164.268V173.693H292.722V164.877C292.722 163.891 292.499 163.128 292.055 162.586C291.61 162.026 290.953 161.745 290.083 161.745C289.483 161.745 288.971 161.871 288.546 162.122C288.14 162.374 287.83 162.741 287.618 163.224C287.424 163.708 287.328 164.288 287.328 164.964V173.693H283.355V164.877C283.355 163.891 283.132 163.128 282.688 162.586C282.262 162.026 281.605 161.745 280.716 161.745C279.826 161.745 279.14 162.026 278.657 162.586C278.193 163.128 277.961 163.92 277.961 164.964V173.693H273.988V158.613ZM306.499 158.613H310.327V160.933C310.675 160.083 311.207 159.425 311.922 158.961C312.657 158.497 313.575 158.265 314.677 158.265C316.417 158.265 317.751 158.826 318.679 159.947C319.607 161.049 320.071 162.557 320.071 164.471V173.693H316.098V164.993C316.098 163.988 315.876 163.186 315.431 162.586C314.987 161.987 314.31 161.687 313.401 161.687C312.802 161.687 312.28 161.823 311.835 162.093C311.391 162.364 311.052 162.751 310.82 163.253C310.588 163.737 310.472 164.317 310.472 164.993V173.693H306.499V158.613ZM323.312 169.314C323.312 167.845 323.815 166.724 324.82 165.95C325.825 165.158 327.314 164.684 329.286 164.529L332.94 164.239V163.688C332.94 162.915 332.718 162.316 332.273 161.89C331.848 161.446 331.21 161.223 330.359 161.223C329.586 161.223 328.957 161.417 328.474 161.803C327.991 162.19 327.701 162.683 327.604 163.282H323.834C324.066 161.774 324.772 160.566 325.951 159.657C327.13 158.729 328.6 158.265 330.359 158.265C332.447 158.265 334.052 158.778 335.173 159.802C336.314 160.827 336.884 162.209 336.884 163.949V173.693H333.056V171.634C332.747 172.33 332.186 172.91 331.374 173.374C330.581 173.819 329.644 174.041 328.561 174.041C326.976 174.041 325.7 173.616 324.733 172.765C323.786 171.895 323.312 170.745 323.312 169.314ZM327.14 169.198C327.14 169.856 327.353 170.378 327.778 170.764C328.223 171.151 328.841 171.344 329.634 171.344C330.311 171.344 330.891 171.209 331.374 170.938C331.877 170.668 332.263 170.271 332.534 169.749C332.805 169.227 332.94 168.609 332.94 167.893V166.878L330.069 167.11C329.102 167.188 328.368 167.391 327.865 167.719C327.382 168.029 327.14 168.522 327.14 169.198ZM340.512 158.613H344.34V160.991C344.707 160.121 345.239 159.454 345.935 158.99C346.631 158.507 347.53 158.265 348.632 158.265C349.753 158.265 350.681 158.497 351.416 158.961C352.17 159.406 352.75 160.054 353.156 160.904C353.639 160.054 354.258 159.406 355.012 158.961C355.785 158.497 356.752 158.265 357.912 158.265C359.633 158.265 360.947 158.797 361.856 159.86C362.765 160.924 363.219 162.393 363.219 164.268V173.693H359.246V164.877C359.246 163.891 359.024 163.128 358.579 162.586C358.134 162.026 357.477 161.745 356.607 161.745C356.008 161.745 355.495 161.871 355.07 162.122C354.664 162.374 354.355 162.741 354.142 163.224C353.949 163.708 353.852 164.288 353.852 164.964V173.693H349.879V164.877C349.879 163.891 349.657 163.128 349.212 162.586C348.787 162.026 348.129 161.745 347.24 161.745C346.351 161.745 345.664 162.026 345.181 162.586C344.717 163.128 344.485 163.92 344.485 164.964V173.693H340.512V158.613ZM365.951 166.153C365.951 164.684 366.27 163.35 366.908 162.151C367.546 160.953 368.435 160.005 369.576 159.309C370.717 158.613 372.002 158.265 373.433 158.265C374.98 158.265 376.294 158.604 377.377 159.28C378.479 159.957 379.31 160.885 379.871 162.064C380.432 163.244 380.712 164.578 380.712 166.066V167.023H369.75C369.808 167.777 369.992 168.464 370.301 169.082C370.61 169.682 371.045 170.155 371.606 170.503C372.167 170.832 372.824 170.996 373.578 170.996C374.448 170.996 375.154 170.822 375.695 170.474C376.236 170.107 376.642 169.614 376.913 168.995H380.509C380.277 169.981 379.832 170.861 379.175 171.634C378.537 172.388 377.735 172.978 376.768 173.403C375.821 173.829 374.767 174.041 373.607 174.041C372.041 174.041 370.678 173.703 369.518 173.026C368.358 172.33 367.469 171.383 366.85 170.184C366.251 168.986 365.951 167.642 365.951 166.153ZM376.913 164.268C376.816 163.63 376.613 163.079 376.304 162.615C376.014 162.132 375.618 161.755 375.115 161.484C374.632 161.214 374.071 161.078 373.433 161.078C372.795 161.078 372.225 161.214 371.722 161.484C371.239 161.755 370.833 162.132 370.504 162.615C370.195 163.099 369.982 163.65 369.866 164.268H376.913ZM185.049 191.931H178.611V188.393H195.518V191.931H189.109V208.693H185.049V191.931ZM200.076 193.613L202.309 203.647L205.586 193.613H209.298L212.575 203.647L214.808 193.613H218.781L214.46 208.693H210.922L207.442 197.905L203.962 208.693H200.424L196.103 193.613H200.076ZM227.844 209.041C226.356 209.041 225.022 208.693 223.842 207.997C222.663 207.301 221.745 206.354 221.087 205.155C220.43 203.937 220.101 202.603 220.101 201.153C220.101 199.703 220.43 198.379 221.087 197.18C221.745 195.962 222.663 195.005 223.842 194.309C225.022 193.613 226.356 193.265 227.844 193.265C229.333 193.265 230.667 193.613 231.846 194.309C233.026 195.005 233.944 195.962 234.601 197.18C235.259 198.379 235.587 199.703 235.587 201.153C235.587 202.603 235.259 203.937 234.601 205.155C233.944 206.354 233.026 207.301 231.846 207.997C230.667 208.693 229.333 209.041 227.844 209.041ZM227.844 205.764C228.618 205.764 229.294 205.542 229.874 205.097C230.454 204.653 230.899 204.082 231.208 203.386C231.518 202.69 231.672 201.946 231.672 201.153C231.672 200.361 231.518 199.616 231.208 198.92C230.899 198.224 230.454 197.664 229.874 197.238C229.294 196.794 228.618 196.571 227.844 196.571C227.071 196.571 226.394 196.794 225.814 197.238C225.234 197.664 224.79 198.224 224.48 198.92C224.171 199.616 224.016 200.361 224.016 201.153C224.016 201.946 224.171 202.69 224.48 203.386C224.79 204.082 225.234 204.653 225.814 205.097C226.394 205.542 227.071 205.764 227.844 205.764ZM244.764 187.523H248.737V208.693H244.764V187.523ZM252.807 193.613H256.78V208.693H252.807V193.613ZM252.778 187.697H256.809V191.525H252.778V187.697ZM260.705 193.613H264.533V195.933C264.881 195.083 265.413 194.425 266.128 193.961C266.863 193.497 267.781 193.265 268.883 193.265C270.623 193.265 271.957 193.826 272.885 194.947C273.813 196.049 274.277 197.557 274.277 199.471V208.693H270.304V199.993C270.304 198.988 270.082 198.186 269.637 197.586C269.193 196.987 268.516 196.687 267.607 196.687C267.008 196.687 266.486 196.823 266.041 197.093C265.597 197.364 265.258 197.751 265.026 198.253C264.794 198.737 264.678 199.317 264.678 199.993V208.693H260.705V193.613ZM276.997 201.153C276.997 199.684 277.316 198.35 277.954 197.151C278.592 195.953 279.481 195.005 280.622 194.309C281.762 193.613 283.048 193.265 284.479 193.265C286.025 193.265 287.34 193.604 288.423 194.28C289.525 194.957 290.356 195.885 290.917 197.064C291.477 198.244 291.758 199.578 291.758 201.066V202.023H280.796C280.854 202.777 281.037 203.464 281.347 204.082C281.656 204.682 282.091 205.155 282.652 205.503C283.212 205.832 283.87 205.996 284.624 205.996C285.494 205.996 286.199 205.822 286.741 205.474C287.282 205.107 287.688 204.614 287.959 203.995H291.555C291.323 204.981 290.878 205.861 290.221 206.634C289.583 207.388 288.78 207.978 287.814 208.403C286.866 208.829 285.813 209.041 284.653 209.041C283.087 209.041 281.724 208.703 280.564 208.026C279.404 207.33 278.514 206.383 277.896 205.184C277.296 203.986 276.997 202.642 276.997 201.153ZM287.959 199.268C287.862 198.63 287.659 198.079 287.35 197.615C287.06 197.132 286.663 196.755 286.161 196.484C285.677 196.214 285.117 196.078 284.479 196.078C283.841 196.078 283.27 196.214 282.768 196.484C282.284 196.755 281.878 197.132 281.55 197.615C281.24 198.099 281.028 198.65 280.912 199.268H287.959ZM300.606 209.041C298.672 209.041 297.097 208.587 295.879 207.678C294.661 206.75 293.936 205.465 293.704 203.821H297.329C297.483 204.575 297.831 205.175 298.373 205.619C298.933 206.064 299.678 206.286 300.606 206.286C301.476 206.286 302.162 206.112 302.665 205.764C303.167 205.397 303.419 204.923 303.419 204.343C303.419 203.899 303.264 203.541 302.955 203.27C302.645 203 302.133 202.806 301.418 202.69L298.17 202.139C296.758 201.907 295.705 201.463 295.009 200.805C294.313 200.129 293.965 199.191 293.965 197.992C293.965 197.064 294.226 196.252 294.748 195.556C295.27 194.841 296.004 194.28 296.952 193.874C297.899 193.468 298.982 193.265 300.2 193.265C302.056 193.265 303.544 193.7 304.666 194.57C305.787 195.421 306.415 196.6 306.551 198.108H302.926C302.829 197.47 302.549 196.968 302.085 196.6C301.64 196.233 301.012 196.049 300.2 196.049C299.388 196.049 298.74 196.194 298.257 196.484C297.793 196.755 297.561 197.151 297.561 197.673C297.561 198.079 297.696 198.379 297.967 198.572C298.237 198.746 298.682 198.891 299.301 199.007L302.578 199.529C304.086 199.761 305.207 200.245 305.942 200.979C306.676 201.695 307.044 202.681 307.044 203.937C307.044 204.962 306.763 205.861 306.203 206.634C305.642 207.408 304.869 208.007 303.883 208.432C302.916 208.838 301.824 209.041 300.606 209.041Z" fill="#0E131F"/>
<rect x="179.057" y="139.055" width="16" height="12.5" fill="#DD4545"/>
<path d="M172.87 151.555L175.756 146.555L169.983 146.555L172.87 151.555ZM172.87 139.055L169.983 144.055L175.756 144.055L172.87 139.055Z" fill="#E9717A"/>
<path d="M134.374 145.827L130.726 140.355H133.27L135.702 144.067L138.118 140.355H140.678L137.03 145.827L140.854 151.555H138.262L135.702 147.603L133.126 151.555H130.55L134.374 145.827ZM148.589 139.235L143.693 154.115H141.565L146.445 139.235H148.589ZM149.796 149.795L154.26 145.427C154.59 145.096 154.836 144.792 154.996 144.515C155.156 144.237 155.236 143.917 155.236 143.555C155.236 143.267 155.166 143.011 155.028 142.787C154.9 142.552 154.713 142.371 154.468 142.243C154.233 142.115 153.956 142.051 153.636 142.051C153.081 142.051 152.66 142.216 152.372 142.547C152.084 142.867 151.924 143.309 151.892 143.875H149.732C149.774 143.117 149.966 142.456 150.308 141.891C150.649 141.325 151.108 140.893 151.684 140.595C152.26 140.285 152.916 140.131 153.652 140.131C154.409 140.131 155.07 140.275 155.636 140.563C156.212 140.84 156.654 141.235 156.964 141.747C157.284 142.259 157.444 142.851 157.444 143.523C157.444 144.653 156.926 145.688 155.892 146.627L152.66 149.635H157.444V151.555H149.796V149.795Z" fill="#E9717A"/>
<path d="M178.664 101.141V200.569" stroke="#C8C8C8" stroke-width="0.810896" stroke-dasharray="1.62 1.62"/>
</svg>
