<svg width="567" height="321" viewBox="0 0 567 321" fill="none" xmlns="http://www.w3.org/2000/svg">
<rect width="566" height="320" transform="translate(0.753906 0.970703)" fill="#F9F9FC"/>
<path d="M197.532 182.002V139.018H206.62V174.509H225.048V182.002H197.532ZM268.892 160.51C268.892 165.197 268.004 169.185 266.227 172.473C264.464 175.761 262.057 178.273 259.007 180.008C255.97 181.729 252.556 182.59 248.764 182.59C244.945 182.59 241.517 181.722 238.48 179.987C235.444 178.252 233.044 175.74 231.281 172.452C229.518 169.164 228.637 165.183 228.637 160.51C228.637 155.823 229.518 151.835 231.281 148.547C233.044 145.259 235.444 142.754 238.48 141.033C241.517 139.298 244.945 138.43 248.764 138.43C252.556 138.43 255.97 139.298 259.007 141.033C262.057 142.754 264.464 145.259 266.227 148.547C268.004 151.835 268.892 155.823 268.892 160.51ZM259.678 160.51C259.678 157.474 259.224 154.913 258.314 152.828C257.419 150.744 256.152 149.162 254.515 148.085C252.878 147.008 250.961 146.469 248.764 146.469C246.568 146.469 244.651 147.008 243.014 148.085C241.377 149.162 240.103 150.744 239.194 152.828C238.298 154.913 237.851 157.474 237.851 160.51C237.851 163.546 238.298 166.107 239.194 168.192C240.103 170.277 241.377 171.858 243.014 172.935C244.651 174.012 246.568 174.551 248.764 174.551C250.961 174.551 252.878 174.012 254.515 172.935C256.152 171.858 257.419 170.277 258.314 168.192C259.224 166.107 259.678 163.546 259.678 160.51ZM304.126 152.912C303.832 151.891 303.42 150.988 302.888 150.205C302.356 149.407 301.705 148.736 300.936 148.19C300.18 147.63 299.313 147.204 298.333 146.91C297.368 146.616 296.298 146.469 295.122 146.469C292.925 146.469 290.994 147.015 289.329 148.106C287.678 149.197 286.391 150.785 285.468 152.87C284.544 154.941 284.082 157.474 284.082 160.468C284.082 163.462 284.537 166.009 285.447 168.108C286.356 170.207 287.643 171.809 289.308 172.914C290.974 174.005 292.939 174.551 295.206 174.551C297.263 174.551 299.019 174.187 300.474 173.46C301.943 172.718 303.063 171.676 303.832 170.333C304.616 168.989 305.008 167.401 305.008 165.568L306.855 165.841H295.773V158.999H313.76V164.414C313.76 168.192 312.962 171.438 311.367 174.152C309.772 176.853 307.575 178.938 304.777 180.407C301.978 181.862 298.774 182.59 295.164 182.59C291.134 182.59 287.594 181.701 284.544 179.924C281.494 178.133 279.115 175.594 277.408 172.305C275.715 169.003 274.869 165.085 274.869 160.552C274.869 157.068 275.372 153.962 276.38 151.233C277.401 148.491 278.828 146.168 280.661 144.265C282.494 142.362 284.628 140.914 287.063 139.921C289.497 138.927 292.135 138.43 294.975 138.43C297.41 138.43 299.677 138.787 301.775 139.501C303.874 140.2 305.735 141.194 307.358 142.481C308.995 143.768 310.332 145.301 311.367 147.078C312.402 148.841 313.067 150.785 313.361 152.912H304.126ZM360.086 160.51C360.086 165.197 359.197 169.185 357.42 172.473C355.657 175.761 353.251 178.273 350.2 180.008C347.164 181.729 343.75 182.59 339.958 182.59C336.138 182.59 332.71 181.722 329.674 179.987C326.638 178.252 324.238 175.74 322.475 172.452C320.712 169.164 319.831 165.183 319.831 160.51C319.831 155.823 320.712 151.835 322.475 148.547C324.238 145.259 326.638 142.754 329.674 141.033C332.71 139.298 336.138 138.43 339.958 138.43C343.75 138.43 347.164 139.298 350.2 141.033C353.251 142.754 355.657 145.259 357.42 148.547C359.197 151.835 360.086 155.823 360.086 160.51ZM350.872 160.51C350.872 157.474 350.417 154.913 349.508 152.828C348.612 150.744 347.346 149.162 345.709 148.085C344.072 147.008 342.155 146.469 339.958 146.469C337.761 146.469 335.845 147.008 334.207 148.085C332.57 149.162 331.297 150.744 330.388 152.828C329.492 154.913 329.044 157.474 329.044 160.51C329.044 163.546 329.492 166.107 330.388 168.192C331.297 170.277 332.57 171.858 334.207 172.935C335.845 174.012 337.761 174.551 339.958 174.551C342.155 174.551 344.072 174.012 345.709 172.935C347.346 171.858 348.612 170.277 349.508 168.192C350.417 166.107 350.872 163.546 350.872 160.51Z" fill="#D2D2D2"/>
<path d="M196.908 82.875V237.9" stroke="#C8C8C8" stroke-width="0.810896" stroke-dasharray="1.62 1.62"/>
<path d="M359.439 82.875V237.9" stroke="#C8C8C8" stroke-width="0.810896" stroke-dasharray="1.62 1.62"/>
<path d="M188.835 182.9H378.672" stroke="#C8C8C8" stroke-width="0.810896" stroke-dasharray="1.62 1.62"/>
<path d="M188.835 136.799L368.288 136.799" stroke="#C8C8C8" stroke-width="0.810896" stroke-dasharray="1.62 1.62"/>
<path d="M198.079 208.092V196.215H202.626C203.484 196.215 204.198 196.35 204.766 196.621C205.338 196.887 205.765 197.253 206.048 197.717C206.334 198.181 206.477 198.706 206.477 199.294C206.477 199.777 206.384 200.191 206.198 200.535C206.013 200.875 205.763 201.152 205.45 201.365C205.137 201.577 204.787 201.73 204.401 201.823V201.939C204.822 201.962 205.226 202.091 205.613 202.327C206.003 202.559 206.322 202.888 206.569 203.313C206.817 203.738 206.941 204.253 206.941 204.856C206.941 205.47 206.792 206.023 206.494 206.514C206.196 207.002 205.748 207.386 205.149 207.668C204.549 207.951 203.795 208.092 202.887 208.092H198.079ZM200.231 206.294H202.545C203.326 206.294 203.888 206.145 204.232 205.847C204.58 205.546 204.754 205.159 204.754 204.688C204.754 204.336 204.667 204.019 204.493 203.736C204.319 203.45 204.072 203.226 203.751 203.064C203.43 202.897 203.047 202.814 202.603 202.814H200.231V206.294ZM200.231 201.266H202.359C202.73 201.266 203.065 201.198 203.362 201.063C203.66 200.924 203.894 200.729 204.064 200.477C204.238 200.222 204.325 199.92 204.325 199.573C204.325 199.112 204.163 198.734 203.838 198.436C203.517 198.138 203.04 197.989 202.406 197.989H200.231V201.266ZM210.024 211.432C209.738 211.432 209.474 211.409 209.23 211.363C208.99 211.32 208.799 211.27 208.656 211.212L209.143 209.576C209.448 209.665 209.721 209.708 209.961 209.704C210.2 209.7 210.411 209.625 210.593 209.478C210.778 209.335 210.935 209.095 211.063 208.759L211.242 208.277L208.012 199.184H210.239L212.292 205.911H212.385L214.444 199.184H216.676L213.11 209.17C212.943 209.642 212.723 210.046 212.449 210.383C212.174 210.723 211.838 210.982 211.439 211.16C211.045 211.341 210.573 211.432 210.024 211.432Z" fill="black"/>
<path d="M291.184 206.349C288.862 204.525 286.289 203.107 283.525 202.121C286.286 201.139 288.859 199.726 291.184 197.908C291.553 197.618 291.789 197.17 291.789 196.669C291.789 195.799 291.086 195.096 290.216 195.096C289.85 195.096 289.515 195.222 289.247 195.431C286.939 197.235 284.355 198.592 281.569 199.461C279.573 200.084 277.51 200.435 275.424 200.525V196.669C275.424 195.799 274.72 195.096 273.851 195.096C272.981 195.096 272.277 195.799 272.277 196.669V207.585C272.277 208.455 272.981 209.158 273.851 209.158C274.72 209.158 275.424 208.455 275.424 207.585V203.715C277.51 203.802 279.573 204.157 281.566 204.779C284.355 205.651 286.937 207.011 289.245 208.821C289.512 209.029 289.85 209.156 290.216 209.156C291.086 209.156 291.789 208.452 291.789 207.582C291.789 207.081 291.553 206.634 291.187 206.346L291.184 206.349Z" fill="#00C3B4"/>
<path d="M248.889 195.096H227.708C226.838 195.096 226.134 195.799 226.134 196.669C226.134 197.539 226.838 198.243 227.708 198.243H236.724V207.585C236.724 208.455 237.427 209.158 238.297 209.158C239.167 209.158 239.87 208.455 239.87 207.585V198.243H248.886C249.756 198.243 250.46 197.539 250.46 196.669C250.46 195.799 249.756 195.096 248.886 195.096H248.889Z" fill="#00C3B4"/>
<path d="M352.711 196.668C352.711 195.799 352.007 195.095 351.138 195.095C350.268 195.095 349.564 195.799 349.564 196.668V204.713C349.564 204.823 349.536 204.933 349.48 205.031C349.302 205.335 348.914 205.439 348.61 205.265L331.648 195.478C330.274 194.684 328.518 195.154 327.724 196.528C327.462 196.981 327.339 197.476 327.339 197.963V207.581C327.339 208.451 328.042 209.155 328.912 209.155C329.782 209.155 330.486 208.451 330.486 207.581V199.537C330.486 199.43 330.514 199.317 330.57 199.219C330.747 198.915 331.136 198.81 331.44 198.985L348.402 208.769C349.775 209.563 351.532 209.093 352.326 207.719C352.587 207.266 352.711 206.771 352.711 206.284V196.666V196.668Z" fill="#00C3B4"/>
<path d="M318.636 195.096H306.518C302.859 195.096 299.892 198.062 299.892 201.722V202.532C299.892 206.192 302.859 209.158 306.518 209.158H318.636C322.295 209.158 325.262 206.192 325.262 202.532V201.722C325.262 198.062 322.295 195.096 318.636 195.096ZM322.16 202.51C322.16 204.444 320.592 206.011 318.659 206.011H306.541C304.607 206.011 303.039 204.444 303.039 202.51V201.744C303.039 199.81 304.607 198.243 306.541 198.243H318.659C320.592 198.243 322.16 199.81 322.16 201.744V202.51Z" fill="#00C3B4"/>
<path d="M259.041 203.703C258.171 203.703 257.467 203 257.467 202.13C257.467 201.26 258.171 200.556 259.041 200.556H267.75C268.62 200.556 269.323 201.26 269.323 202.13C269.323 203 268.62 203.703 267.75 203.703H259.041ZM268.85 195.096C269.72 195.096 270.424 195.799 270.424 196.669C270.424 197.539 269.72 198.243 268.85 198.243H258.315C256.381 198.243 254.813 199.81 254.813 201.744V202.51C254.813 204.444 256.381 206.011 258.315 206.011H268.85C269.72 206.011 270.424 206.715 270.424 207.585C270.424 208.455 269.72 209.158 268.85 209.158H258.295C254.636 209.158 251.669 206.192 251.669 202.532V201.722C251.669 198.062 254.636 195.096 258.295 195.096H268.85Z" fill="#00C3B4"/>
<path d="M294.496 207.585C294.496 208.455 295.2 209.158 296.069 209.158C296.939 209.158 297.643 208.455 297.643 207.585V196.669C297.643 195.799 296.939 195.096 296.069 195.096C295.2 195.096 294.496 195.799 294.496 196.669V207.585Z" fill="#00C3B4"/>
<path d="M197.844 116.885L206.594 121.937V111.833L197.844 116.885ZM356.876 116.885L348.126 111.833V121.937L356.876 116.885ZM207.019 117.76H213.136V116.01H207.019V117.76ZM219.252 117.76H225.369V116.01H219.252V117.76ZM231.486 117.76H237.602V116.01H231.486V117.76ZM243.719 117.76H249.835V116.01H243.719V117.76ZM255.952 117.76H262.069V116.01H255.952V117.76ZM268.185 117.76H274.302V116.01H268.185V117.76ZM280.418 117.76H286.535V116.01H280.418V117.76ZM292.652 117.76H298.768V116.01H292.652V117.76ZM304.885 117.76H311.001V116.01H304.885V117.76ZM317.118 117.76H323.235V116.01H317.118V117.76ZM329.351 117.76H335.468V116.01H329.351V117.76ZM341.584 117.76H347.701V116.01H341.584V117.76Z" fill="#E9717A"/>
</svg>
