<svg width="566" height="320" viewBox="0 0 566 320" fill="none" xmlns="http://www.w3.org/2000/svg">
<rect width="566" height="320" fill="#F9F9FC"/>
<path d="M148.457 139.549L151.344 134.549L145.571 134.549L148.457 139.549ZM148.457 114.549L145.571 119.549L151.344 119.549L148.457 114.549ZM148.957 130.174L148.957 123.924L147.957 123.924L147.957 130.174L148.957 130.174Z" fill="#E9717A"/>
<path d="M333.796 152.045L336.683 147.045L330.909 147.045L333.796 152.045ZM333.796 139.545L330.909 144.545L336.683 144.545L333.796 139.545Z" fill="#E9717A"/>
<path d="M130.446 125.823L126.798 120.351H129.342L131.774 124.063L134.19 120.351H136.75L133.102 125.823L136.926 131.551H134.334L131.774 127.599L129.198 131.551H126.622L130.446 125.823Z" fill="#E9717A"/>
<path d="M270.206 134.389C266.17 131.218 261.698 128.753 256.894 127.04C261.693 125.333 266.165 122.876 270.206 119.716C270.847 119.212 271.258 118.434 271.258 117.563C271.258 116.051 270.035 114.828 268.523 114.828C267.887 114.828 267.305 115.048 266.84 115.41C262.828 118.547 258.337 120.905 253.494 122.417C250.025 123.498 246.439 124.109 242.814 124.266V117.563C242.814 116.051 241.591 114.828 240.079 114.828C238.567 114.828 237.344 116.051 237.344 117.563V136.537C237.344 138.049 238.567 139.272 240.079 139.272C241.591 139.272 242.814 138.049 242.814 136.537V129.809C246.439 129.961 250.025 130.577 253.489 131.659C258.337 133.175 262.823 135.539 266.835 138.685C267.3 139.047 267.887 139.267 268.523 139.267C270.035 139.267 271.258 138.044 271.258 136.532C271.258 135.661 270.847 134.883 270.211 134.384L270.206 134.389Z" fill="#00C3B4"/>
<path d="M196.694 114.83H159.88C158.368 114.83 157.145 116.053 157.145 117.565C157.145 119.077 158.368 120.3 159.88 120.3H175.55V136.539C175.55 138.05 176.773 139.274 178.284 139.274C179.796 139.274 181.019 138.05 181.019 136.539V120.3H196.689C198.201 120.3 199.424 119.077 199.424 117.565C199.424 116.053 198.201 114.83 196.689 114.83H196.694Z" fill="#00C3B4"/>
<path d="M377.145 117.566C377.145 116.055 375.922 114.832 374.41 114.832C372.898 114.832 371.675 116.055 371.675 117.566V131.55C371.675 131.74 371.626 131.931 371.528 132.102C371.22 132.631 370.545 132.812 370.017 132.509L340.536 115.497C338.148 114.117 335.095 114.934 333.716 117.322C333.261 118.11 333.045 118.971 333.045 119.817V136.535C333.045 138.047 334.268 139.27 335.78 139.27C337.292 139.27 338.515 138.047 338.515 136.535V122.552C338.515 122.366 338.564 122.17 338.662 121.999C338.97 121.471 339.645 121.29 340.174 121.593L369.655 138.6C372.042 139.98 375.095 139.163 376.475 136.775C376.93 135.987 377.145 135.126 377.145 134.28V117.562V117.566Z" fill="#00C3B4"/>
<path d="M317.92 114.828H296.858C290.498 114.828 285.342 119.985 285.342 126.345V127.754C285.342 134.115 290.498 139.272 296.858 139.272H317.92C324.28 139.272 329.436 134.115 329.436 127.754V126.345C329.436 119.985 324.28 114.828 317.92 114.828ZM324.045 127.715C324.045 131.077 321.32 133.802 317.959 133.802H296.897C293.536 133.802 290.811 131.077 290.811 127.715V126.385C290.811 123.023 293.536 120.298 296.897 120.298H317.959C321.32 120.298 324.045 123.023 324.045 126.385V127.715Z" fill="#00C3B4"/>
<path d="M214.339 129.79C212.827 129.79 211.604 128.567 211.604 127.055C211.604 125.543 212.827 124.32 214.339 124.32H229.476C230.987 124.32 232.211 125.543 232.211 127.055C232.211 128.567 230.987 129.79 229.476 129.79H214.339ZM231.389 114.828C232.9 114.828 234.123 116.051 234.123 117.563C234.123 119.075 232.9 120.298 231.389 120.298H213.077C209.716 120.298 206.991 123.023 206.991 126.385V127.715C206.991 131.077 209.716 133.802 213.077 133.802H231.389C232.9 133.802 234.123 135.025 234.123 136.537C234.123 138.049 232.9 139.272 231.389 139.272H213.042C206.682 139.272 201.526 134.115 201.526 127.754V126.345C201.526 119.985 206.682 114.828 213.042 114.828H231.389Z" fill="#00C3B4"/>
<path d="M275.962 136.537C275.962 138.049 277.185 139.272 278.697 139.272C280.209 139.272 281.432 138.049 281.432 136.537V117.563C281.432 116.051 280.209 114.828 278.697 114.828C277.185 114.828 275.962 116.051 275.962 117.563V136.537Z" fill="#00C3B4"/>
<path d="M142.728 139.549L387.539 139.549" stroke="#C8C8C8" stroke-width="0.810896" stroke-dasharray="1.62 1.62"/>
<path d="M142.728 114.549L387.539 114.549" stroke="#C8C8C8" stroke-width="0.810896" stroke-dasharray="1.62 1.62"/>
<path d="M167.253 151.686H176.417C177.944 151.686 179.268 151.957 180.39 152.498C181.511 153.04 182.371 153.794 182.971 154.76C183.57 155.708 183.87 156.79 183.87 158.008C183.87 159.226 183.56 160.328 182.942 161.314C182.323 162.281 181.453 163.035 180.332 163.576C179.21 164.118 177.905 164.388 176.417 164.388H171.313V171.986H167.253V151.686ZM176.011 160.995C176.803 160.995 177.48 160.87 178.041 160.618C178.621 160.367 179.056 160.019 179.346 159.574C179.655 159.11 179.81 158.579 179.81 157.979C179.81 157.399 179.655 156.897 179.346 156.471C179.056 156.027 178.621 155.679 178.041 155.427C177.48 155.176 176.803 155.05 176.011 155.05H171.313V160.995H176.011ZM186.703 156.906H190.502V160.299C190.734 159.197 191.198 158.327 191.894 157.689C192.59 157.051 193.518 156.732 194.678 156.732C195.2 156.732 195.586 156.771 195.838 156.848V160.618C195.644 160.599 195.325 160.589 194.881 160.589C193.991 160.589 193.228 160.773 192.59 161.14C191.971 161.508 191.497 162.039 191.169 162.735C190.84 163.431 190.676 164.282 190.676 165.287V171.986H186.703V156.906ZM204.903 172.334C203.414 172.334 202.08 171.986 200.901 171.29C199.722 170.594 198.803 169.647 198.146 168.448C197.489 167.23 197.16 165.896 197.16 164.446C197.16 162.996 197.489 161.672 198.146 160.473C198.803 159.255 199.722 158.298 200.901 157.602C202.08 156.906 203.414 156.558 204.903 156.558C206.392 156.558 207.726 156.906 208.905 157.602C210.084 158.298 211.003 159.255 211.66 160.473C212.317 161.672 212.646 162.996 212.646 164.446C212.646 165.896 212.317 167.23 211.66 168.448C211.003 169.647 210.084 170.594 208.905 171.29C207.726 171.986 206.392 172.334 204.903 172.334ZM204.903 169.057C205.676 169.057 206.353 168.835 206.933 168.39C207.513 167.946 207.958 167.375 208.267 166.679C208.576 165.983 208.731 165.239 208.731 164.446C208.731 163.654 208.576 162.909 208.267 162.213C207.958 161.517 207.513 160.957 206.933 160.531C206.353 160.087 205.676 159.864 204.903 159.864C204.13 159.864 203.453 160.087 202.873 160.531C202.293 160.957 201.848 161.517 201.539 162.213C201.23 162.909 201.075 163.654 201.075 164.446C201.075 165.239 201.23 165.983 201.539 166.679C201.848 167.375 202.293 167.946 202.873 168.39C203.453 168.835 204.13 169.057 204.903 169.057ZM214.605 163.953C214.605 162.523 214.886 161.247 215.446 160.125C216.026 159.004 216.819 158.134 217.824 157.515C218.849 156.877 220.009 156.558 221.304 156.558C222.039 156.558 222.706 156.674 223.305 156.906C223.924 157.119 224.446 157.428 224.871 157.834C225.297 158.24 225.616 158.704 225.828 159.226V156.906H229.714V171.145C229.714 172.537 229.415 173.717 228.815 174.683C228.216 175.669 227.365 176.414 226.263 176.916C225.161 177.419 223.876 177.67 222.406 177.67C220.376 177.67 218.694 177.206 217.36 176.278C216.046 175.37 215.234 174.113 214.924 172.508H218.955C219.129 173.166 219.506 173.688 220.086 174.074C220.666 174.48 221.401 174.683 222.29 174.683C223.508 174.683 224.388 174.355 224.929 173.697C225.471 173.04 225.741 172.025 225.741 170.652V168.593C225.567 169.096 225.268 169.56 224.842 169.985C224.436 170.391 223.924 170.72 223.305 170.971C222.687 171.203 222.02 171.319 221.304 171.319C220.009 171.319 218.849 171.01 217.824 170.391C216.819 169.753 216.026 168.874 215.446 167.752C214.886 166.631 214.605 165.365 214.605 163.953ZM218.491 163.953C218.491 164.765 218.636 165.5 218.926 166.157C219.236 166.795 219.661 167.308 220.202 167.694C220.763 168.062 221.42 168.245 222.174 168.245C222.87 168.245 223.489 168.071 224.03 167.723C224.572 167.356 224.987 166.853 225.277 166.215C225.587 165.558 225.741 164.804 225.741 163.953C225.741 163.103 225.587 162.358 225.277 161.72C224.968 161.063 224.543 160.56 224.001 160.212C223.46 159.845 222.851 159.661 222.174 159.661C221.42 159.661 220.763 159.845 220.202 160.212C219.661 160.58 219.236 161.092 218.926 161.749C218.636 162.387 218.491 163.122 218.491 163.953ZM233.488 156.906H237.287V160.299C237.519 159.197 237.983 158.327 238.679 157.689C239.375 157.051 240.303 156.732 241.463 156.732C241.985 156.732 242.371 156.771 242.623 156.848V160.618C242.429 160.599 242.11 160.589 241.666 160.589C240.776 160.589 240.013 160.773 239.375 161.14C238.756 161.508 238.282 162.039 237.954 162.735C237.625 163.431 237.461 164.282 237.461 165.287V171.986H233.488V156.906ZM244.212 167.607C244.212 166.138 244.714 165.017 245.72 164.243C246.725 163.451 248.214 162.977 250.186 162.822L253.84 162.532V161.981C253.84 161.208 253.617 160.609 253.173 160.183C252.747 159.739 252.109 159.516 251.259 159.516C250.485 159.516 249.857 159.71 249.374 160.096C248.89 160.483 248.6 160.976 248.504 161.575H244.734C244.966 160.067 245.671 158.859 246.851 157.95C248.03 157.022 249.499 156.558 251.259 156.558C253.347 156.558 254.951 157.071 256.073 158.095C257.213 159.12 257.784 160.502 257.784 162.242V171.986H253.956V169.927C253.646 170.623 253.086 171.203 252.274 171.667C251.481 172.112 250.543 172.334 249.461 172.334C247.875 172.334 246.599 171.909 245.633 171.058C244.685 170.188 244.212 169.038 244.212 167.607ZM248.04 167.491C248.04 168.149 248.252 168.671 248.678 169.057C249.122 169.444 249.741 169.637 250.534 169.637C251.21 169.637 251.79 169.502 252.274 169.231C252.776 168.961 253.163 168.564 253.434 168.042C253.704 167.52 253.84 166.902 253.84 166.186V165.171L250.969 165.403C250.002 165.481 249.267 165.684 248.765 166.012C248.281 166.322 248.04 166.815 248.04 167.491ZM261.412 156.906H265.24V159.284C265.607 158.414 266.139 157.747 266.835 157.283C267.531 156.8 268.43 156.558 269.532 156.558C270.653 156.558 271.581 156.79 272.316 157.254C273.07 157.699 273.65 158.347 274.056 159.197C274.539 158.347 275.158 157.699 275.912 157.254C276.685 156.79 277.652 156.558 278.812 156.558C280.532 156.558 281.847 157.09 282.756 158.153C283.664 159.217 284.119 160.686 284.119 162.561V171.986H280.146V163.17C280.146 162.184 279.923 161.421 279.479 160.879C279.034 160.319 278.377 160.038 277.507 160.038C276.907 160.038 276.395 160.164 275.97 160.415C275.564 160.667 275.254 161.034 275.042 161.517C274.848 162.001 274.752 162.581 274.752 163.257V171.986H270.779V163.17C270.779 162.184 270.556 161.421 270.112 160.879C269.686 160.319 269.029 160.038 268.14 160.038C267.25 160.038 266.564 160.319 266.081 160.879C265.617 161.421 265.385 162.213 265.385 163.257V171.986H261.412V156.906ZM293.923 156.906H297.751V159.226C298.099 158.376 298.631 157.718 299.346 157.254C300.081 156.79 300.999 156.558 302.101 156.558C303.841 156.558 305.175 157.119 306.103 158.24C307.031 159.342 307.495 160.85 307.495 162.764V171.986H303.522V163.286C303.522 162.281 303.3 161.479 302.855 160.879C302.411 160.28 301.734 159.98 300.825 159.98C300.226 159.98 299.704 160.116 299.259 160.386C298.815 160.657 298.476 161.044 298.244 161.546C298.012 162.03 297.896 162.61 297.896 163.286V171.986H293.923V156.906ZM310.736 167.607C310.736 166.138 311.239 165.017 312.244 164.243C313.249 163.451 314.738 162.977 316.71 162.822L320.364 162.532V161.981C320.364 161.208 320.142 160.609 319.697 160.183C319.272 159.739 318.634 159.516 317.783 159.516C317.01 159.516 316.381 159.71 315.898 160.096C315.415 160.483 315.125 160.976 315.028 161.575H311.258C311.49 160.067 312.196 158.859 313.375 157.95C314.554 157.022 316.024 156.558 317.783 156.558C319.871 156.558 321.476 157.071 322.597 158.095C323.738 159.12 324.308 160.502 324.308 162.242V171.986H320.48V169.927C320.171 170.623 319.61 171.203 318.798 171.667C318.005 172.112 317.068 172.334 315.985 172.334C314.4 172.334 313.124 171.909 312.157 171.058C311.21 170.188 310.736 169.038 310.736 167.607ZM314.564 167.491C314.564 168.149 314.777 168.671 315.202 169.057C315.647 169.444 316.265 169.637 317.058 169.637C317.735 169.637 318.315 169.502 318.798 169.231C319.301 168.961 319.687 168.564 319.958 168.042C320.229 167.52 320.364 166.902 320.364 166.186V165.171L317.493 165.403C316.526 165.481 315.792 165.684 315.289 166.012C314.806 166.322 314.564 166.815 314.564 167.491ZM327.936 156.906H331.764V159.284C332.131 158.414 332.663 157.747 333.359 157.283C334.055 156.8 334.954 156.558 336.056 156.558C337.177 156.558 338.105 156.79 338.84 157.254C339.594 157.699 340.174 158.347 340.58 159.197C341.063 158.347 341.682 157.699 342.436 157.254C343.209 156.79 344.176 156.558 345.336 156.558C347.057 156.558 348.371 157.09 349.28 158.153C350.189 159.217 350.643 160.686 350.643 162.561V171.986H346.67V163.17C346.67 162.184 346.448 161.421 346.003 160.879C345.558 160.319 344.901 160.038 344.031 160.038C343.432 160.038 342.919 160.164 342.494 160.415C342.088 160.667 341.779 161.034 341.566 161.517C341.373 162.001 341.276 162.581 341.276 163.257V171.986H337.303V163.17C337.303 162.184 337.081 161.421 336.636 160.879C336.211 160.319 335.553 160.038 334.664 160.038C333.775 160.038 333.088 160.319 332.605 160.879C332.141 161.421 331.909 162.213 331.909 163.257V171.986H327.936V156.906ZM353.375 164.446C353.375 162.977 353.694 161.643 354.332 160.444C354.97 159.246 355.859 158.298 357 157.602C358.141 156.906 359.426 156.558 360.857 156.558C362.404 156.558 363.718 156.897 364.801 157.573C365.903 158.25 366.734 159.178 367.295 160.357C367.856 161.537 368.136 162.871 368.136 164.359V165.316H357.174C357.232 166.07 357.416 166.757 357.725 167.375C358.034 167.975 358.469 168.448 359.03 168.796C359.591 169.125 360.248 169.289 361.002 169.289C361.872 169.289 362.578 169.115 363.119 168.767C363.66 168.4 364.066 167.907 364.337 167.288H367.933C367.701 168.274 367.256 169.154 366.599 169.927C365.961 170.681 365.159 171.271 364.192 171.696C363.245 172.122 362.191 172.334 361.031 172.334C359.465 172.334 358.102 171.996 356.942 171.319C355.782 170.623 354.893 169.676 354.274 168.477C353.675 167.279 353.375 165.935 353.375 164.446ZM364.337 162.561C364.24 161.923 364.037 161.372 363.728 160.908C363.438 160.425 363.042 160.048 362.539 159.777C362.056 159.507 361.495 159.371 360.857 159.371C360.219 159.371 359.649 159.507 359.146 159.777C358.663 160.048 358.257 160.425 357.928 160.908C357.619 161.392 357.406 161.943 357.29 162.561H364.337ZM209.388 190.224H202.95V186.686H219.857V190.224H213.448V206.986H209.388V190.224ZM224.416 191.906L226.649 201.94L229.926 191.906H233.638L236.915 201.94L239.148 191.906H243.121L238.8 206.986H235.262L231.782 196.198L228.302 206.986H224.764L220.443 191.906H224.416ZM252.184 207.334C250.695 207.334 249.361 206.986 248.182 206.29C247.003 205.594 246.084 204.647 245.427 203.448C244.77 202.23 244.441 200.896 244.441 199.446C244.441 197.996 244.77 196.672 245.427 195.473C246.084 194.255 247.003 193.298 248.182 192.602C249.361 191.906 250.695 191.558 252.184 191.558C253.673 191.558 255.007 191.906 256.186 192.602C257.365 193.298 258.284 194.255 258.941 195.473C259.598 196.672 259.927 197.996 259.927 199.446C259.927 200.896 259.598 202.23 258.941 203.448C258.284 204.647 257.365 205.594 256.186 206.29C255.007 206.986 253.673 207.334 252.184 207.334ZM252.184 204.057C252.957 204.057 253.634 203.835 254.214 203.39C254.794 202.946 255.239 202.375 255.548 201.679C255.857 200.983 256.012 200.239 256.012 199.446C256.012 198.654 255.857 197.909 255.548 197.213C255.239 196.517 254.794 195.957 254.214 195.531C253.634 195.087 252.957 194.864 252.184 194.864C251.411 194.864 250.734 195.087 250.154 195.531C249.574 195.957 249.129 196.517 248.82 197.213C248.511 197.909 248.356 198.654 248.356 199.446C248.356 200.239 248.511 200.983 248.82 201.679C249.129 202.375 249.574 202.946 250.154 203.39C250.734 203.835 251.411 204.057 252.184 204.057ZM269.104 185.816H273.077V206.986H269.104V185.816ZM277.147 191.906H281.12V206.986H277.147V191.906ZM277.118 185.99H281.149V189.818H277.118V185.99ZM285.045 191.906H288.873V194.226C289.221 193.376 289.753 192.718 290.468 192.254C291.203 191.79 292.121 191.558 293.223 191.558C294.963 191.558 296.297 192.119 297.225 193.24C298.153 194.342 298.617 195.85 298.617 197.764V206.986H294.644V198.286C294.644 197.281 294.422 196.479 293.977 195.879C293.532 195.28 292.856 194.98 291.947 194.98C291.348 194.98 290.826 195.116 290.381 195.386C289.936 195.657 289.598 196.044 289.366 196.546C289.134 197.03 289.018 197.61 289.018 198.286V206.986H285.045V191.906ZM301.336 199.446C301.336 197.977 301.655 196.643 302.293 195.444C302.931 194.246 303.821 193.298 304.961 192.602C306.102 191.906 307.388 191.558 308.818 191.558C310.365 191.558 311.68 191.897 312.762 192.573C313.864 193.25 314.696 194.178 315.256 195.357C315.817 196.537 316.097 197.871 316.097 199.359V200.316H305.135C305.193 201.07 305.377 201.757 305.686 202.375C305.996 202.975 306.431 203.448 306.991 203.796C307.552 204.125 308.209 204.289 308.963 204.289C309.833 204.289 310.539 204.115 311.08 203.767C311.622 203.4 312.028 202.907 312.298 202.288H315.894C315.662 203.274 315.218 204.154 314.56 204.927C313.922 205.681 313.12 206.271 312.153 206.696C311.206 207.122 310.152 207.334 308.992 207.334C307.426 207.334 306.063 206.996 304.903 206.319C303.743 205.623 302.854 204.676 302.235 203.477C301.636 202.279 301.336 200.935 301.336 199.446ZM312.298 197.561C312.202 196.923 311.999 196.372 311.689 195.908C311.399 195.425 311.003 195.048 310.5 194.777C310.017 194.507 309.456 194.371 308.818 194.371C308.18 194.371 307.61 194.507 307.107 194.777C306.624 195.048 306.218 195.425 305.889 195.908C305.58 196.392 305.367 196.943 305.251 197.561H312.298ZM324.945 207.334C323.012 207.334 321.436 206.88 320.218 205.971C319 205.043 318.275 203.758 318.043 202.114H321.668C321.823 202.868 322.171 203.468 322.712 203.912C323.273 204.357 324.017 204.579 324.945 204.579C325.815 204.579 326.502 204.405 327.004 204.057C327.507 203.69 327.758 203.216 327.758 202.636C327.758 202.192 327.604 201.834 327.294 201.563C326.985 201.293 326.473 201.099 325.757 200.983L322.509 200.432C321.098 200.2 320.044 199.756 319.348 199.098C318.652 198.422 318.304 197.484 318.304 196.285C318.304 195.357 318.565 194.545 319.087 193.849C319.609 193.134 320.344 192.573 321.291 192.167C322.239 191.761 323.321 191.558 324.539 191.558C326.395 191.558 327.884 191.993 329.005 192.863C330.127 193.714 330.755 194.893 330.89 196.401H327.265C327.169 195.763 326.888 195.261 326.424 194.893C325.98 194.526 325.351 194.342 324.539 194.342C323.727 194.342 323.08 194.487 322.596 194.777C322.132 195.048 321.9 195.444 321.9 195.966C321.9 196.372 322.036 196.672 322.306 196.865C322.577 197.039 323.022 197.184 323.64 197.3L326.917 197.822C328.425 198.054 329.547 198.538 330.281 199.272C331.016 199.988 331.383 200.974 331.383 202.23C331.383 203.255 331.103 204.154 330.542 204.927C329.982 205.701 329.208 206.3 328.222 206.725C327.256 207.131 326.163 207.334 324.945 207.334Z" fill="#0E131F"/>
<path d="M264.834 139.545H280.834V152.045H264.834V139.545Z" fill="#DD4545"/>
<path d="M157.145 81.2832V180.712" stroke="#C8C8C8" stroke-width="0.810896" stroke-dasharray="1.62 1.62"/>
<path d="M415.876 144.823L412.228 139.351H414.772L417.204 143.063L419.62 139.351H422.18L418.532 144.823L422.356 150.551H419.764L417.204 146.599L414.628 150.551H412.052L415.876 144.823ZM430.091 138.231L425.195 153.111H423.067L427.947 138.231H430.091ZM431.298 148.791L435.762 144.423C436.093 144.092 436.338 143.788 436.498 143.511C436.658 143.233 436.738 142.913 436.738 142.551C436.738 142.263 436.669 142.007 436.53 141.783C436.402 141.548 436.215 141.367 435.97 141.239C435.735 141.111 435.458 141.047 435.138 141.047C434.583 141.047 434.162 141.212 433.874 141.543C433.586 141.863 433.426 142.305 433.394 142.871H431.234C431.277 142.113 431.469 141.452 431.81 140.887C432.151 140.321 432.61 139.889 433.186 139.591C433.762 139.281 434.418 139.127 435.154 139.127C435.911 139.127 436.573 139.271 437.138 139.559C437.714 139.836 438.157 140.231 438.466 140.743C438.786 141.255 438.946 141.847 438.946 142.519C438.946 143.649 438.429 144.684 437.394 145.623L434.162 148.631H438.946V150.551H431.298V148.791Z" fill="#E9717A"/>
</svg>
