<svg width="566" height="320" viewBox="0 0 566 320" fill="none" xmlns="http://www.w3.org/2000/svg">
<rect width="566" height="320" fill="#F9F9FC"/>
<path d="M203.407 166.02C199.392 162.867 194.944 160.414 190.164 158.71C194.939 157.012 199.387 154.569 203.407 151.425C204.045 150.923 204.454 150.149 204.454 149.283C204.454 147.779 203.237 146.562 201.733 146.562C201.1 146.562 200.521 146.782 200.059 147.142C196.068 150.261 191.6 152.607 186.782 154.111C183.331 155.187 179.764 155.795 176.158 155.951V149.283C176.158 147.779 174.941 146.562 173.437 146.562C171.933 146.562 170.716 147.779 170.716 149.283V168.157C170.716 169.661 171.933 170.878 173.437 170.878C174.941 170.878 176.158 169.661 176.158 168.157V161.465C179.764 161.616 183.331 162.229 186.777 163.305C191.6 164.813 196.063 167.164 200.054 170.294C200.516 170.654 201.1 170.873 201.733 170.873C203.237 170.873 204.454 169.656 204.454 168.152C204.454 167.286 204.045 166.512 203.412 166.016L203.407 166.02Z" fill="#00C3B4"/>
<path d="M130.277 146.562H93.6539C92.1501 146.562 90.9333 147.779 90.9333 149.283C90.9333 150.787 92.1501 152.004 93.6539 152.004H109.243V168.157C109.243 169.661 110.459 170.878 111.963 170.878C113.467 170.878 114.684 169.661 114.684 168.157V152.004H130.273C131.776 152.004 132.993 150.787 132.993 149.283C132.993 147.779 131.776 146.562 130.273 146.562H130.277Z" fill="#00C3B4"/>
<path d="M309.791 149.283C309.791 147.779 308.574 146.562 307.07 146.562C305.566 146.562 304.349 147.779 304.349 149.283V163.192C304.349 163.382 304.301 163.572 304.203 163.742C303.897 164.268 303.225 164.448 302.7 164.146L273.372 147.224C270.997 145.851 267.96 146.664 266.587 149.039C266.135 149.823 265.92 150.679 265.92 151.521V168.152C265.92 169.655 267.137 170.872 268.641 170.872C270.145 170.872 271.362 169.655 271.362 168.152V154.242C271.362 154.057 271.41 153.862 271.508 153.692C271.814 153.166 272.486 152.986 273.011 153.288L302.339 170.205C304.714 171.578 307.751 170.765 309.124 168.39C309.577 167.606 309.791 166.75 309.791 165.908V149.278V149.283Z" fill="#00C3B4"/>
<path d="M250.873 146.562H229.921C223.594 146.562 218.464 151.692 218.464 158.019V159.421C218.464 165.748 223.594 170.878 229.921 170.878H250.873C257.2 170.878 262.33 165.748 262.33 159.421V158.019C262.33 151.692 257.2 146.562 250.873 146.562ZM256.966 159.382C256.966 162.726 254.256 165.436 250.912 165.436H229.96C226.616 165.436 223.906 162.726 223.906 159.382V158.058C223.906 154.715 226.616 152.004 229.96 152.004H250.912C254.256 152.004 256.966 154.715 256.966 158.058V159.382Z" fill="#00C3B4"/>
<path d="M147.83 161.446C146.327 161.446 145.11 160.229 145.11 158.725C145.11 157.221 146.327 156.004 147.83 156.004H162.889C164.392 156.004 165.609 157.221 165.609 158.725C165.609 160.229 164.392 161.446 162.889 161.446H147.83ZM164.792 146.562C166.295 146.562 167.512 147.779 167.512 149.283C167.512 150.787 166.295 152.004 164.792 152.004H146.575C143.231 152.004 140.52 154.715 140.52 158.058V159.382C140.52 162.726 143.231 165.436 146.575 165.436H164.792C166.295 165.436 167.512 166.653 167.512 168.157C167.512 169.661 166.295 170.878 164.792 170.878H146.541C140.214 170.878 135.084 165.748 135.084 159.421V158.019C135.084 151.692 140.214 146.562 146.541 146.562H164.792Z" fill="#00C3B4"/>
<path d="M209.134 168.157C209.134 169.661 210.351 170.878 211.854 170.878C213.358 170.878 214.575 169.661 214.575 168.157V149.283C214.575 147.779 213.358 146.562 211.854 146.562C210.351 146.562 209.134 147.779 209.134 149.283V168.157Z" fill="#00C3B4"/>
<path d="M59.7239 171.547L539.592 171.547" stroke="#C8C8C8" stroke-width="1.06637" stroke-dasharray="2.13 2.13"/>
<path d="M59.7239 146.561L539.592 146.561" stroke="#C8C8C8" stroke-width="1.06637" stroke-dasharray="2.13 2.13"/>
<path d="M330.414 149.852H339.578C341.105 149.852 342.43 150.123 343.551 150.664C344.672 151.206 345.533 151.96 346.132 152.926C346.731 153.874 347.031 154.956 347.031 156.174C347.031 157.392 346.722 158.494 346.103 159.48C345.484 160.447 344.614 161.201 343.493 161.742C342.372 162.284 341.067 162.554 339.578 162.554H334.474V170.152H330.414V149.852ZM339.172 159.161C339.965 159.161 340.641 159.036 341.202 158.784C341.782 158.533 342.217 158.185 342.507 157.74C342.816 157.276 342.971 156.745 342.971 156.145C342.971 155.565 342.816 155.063 342.507 154.637C342.217 154.193 341.782 153.845 341.202 153.593C340.641 153.342 339.965 153.216 339.172 153.216H334.474V159.161H339.172ZM349.864 155.072H353.663V158.465C353.895 157.363 354.359 156.493 355.055 155.855C355.751 155.217 356.679 154.898 357.839 154.898C358.361 154.898 358.748 154.937 358.999 155.014V158.784C358.806 158.765 358.487 158.755 358.042 158.755C357.153 158.755 356.389 158.939 355.751 159.306C355.132 159.674 354.659 160.205 354.33 160.901C354.001 161.597 353.837 162.448 353.837 163.453V170.152H349.864V155.072ZM368.064 170.5C366.576 170.5 365.242 170.152 364.062 169.456C362.883 168.76 361.965 167.813 361.307 166.614C360.65 165.396 360.321 164.062 360.321 162.612C360.321 161.162 360.65 159.838 361.307 158.639C361.965 157.421 362.883 156.464 364.062 155.768C365.242 155.072 366.576 154.724 368.064 154.724C369.553 154.724 370.887 155.072 372.066 155.768C373.246 156.464 374.164 157.421 374.821 158.639C375.479 159.838 375.807 161.162 375.807 162.612C375.807 164.062 375.479 165.396 374.821 166.614C374.164 167.813 373.246 168.76 372.066 169.456C370.887 170.152 369.553 170.5 368.064 170.5ZM368.064 167.223C368.838 167.223 369.514 167.001 370.094 166.556C370.674 166.112 371.119 165.541 371.428 164.845C371.738 164.149 371.892 163.405 371.892 162.612C371.892 161.82 371.738 161.075 371.428 160.379C371.119 159.683 370.674 159.123 370.094 158.697C369.514 158.253 368.838 158.03 368.064 158.03C367.291 158.03 366.614 158.253 366.034 158.697C365.454 159.123 365.01 159.683 364.7 160.379C364.391 161.075 364.236 161.82 364.236 162.612C364.236 163.405 364.391 164.149 364.7 164.845C365.01 165.541 365.454 166.112 366.034 166.556C366.614 167.001 367.291 167.223 368.064 167.223ZM377.767 162.119C377.767 160.689 378.047 159.413 378.608 158.291C379.188 157.17 379.98 156.3 380.986 155.681C382.01 155.043 383.17 154.724 384.466 154.724C385.2 154.724 385.867 154.84 386.467 155.072C387.085 155.285 387.607 155.594 388.033 156C388.458 156.406 388.777 156.87 388.99 157.392V155.072H392.876V169.311C392.876 170.703 392.576 171.883 391.977 172.849C391.377 173.835 390.527 174.58 389.425 175.082C388.323 175.585 387.037 175.836 385.568 175.836C383.538 175.836 381.856 175.372 380.522 174.444C379.207 173.536 378.395 172.279 378.086 170.674H382.117C382.291 171.332 382.668 171.854 383.248 172.24C383.828 172.646 384.562 172.849 385.452 172.849C386.67 172.849 387.549 172.521 388.091 171.863C388.632 171.206 388.903 170.191 388.903 168.818V166.759C388.729 167.262 388.429 167.726 388.004 168.151C387.598 168.557 387.085 168.886 386.467 169.137C385.848 169.369 385.181 169.485 384.466 169.485C383.17 169.485 382.01 169.176 380.986 168.557C379.98 167.919 379.188 167.04 378.608 165.918C378.047 164.797 377.767 163.531 377.767 162.119ZM381.653 162.119C381.653 162.931 381.798 163.666 382.088 164.323C382.397 164.961 382.822 165.474 383.364 165.86C383.924 166.228 384.582 166.411 385.336 166.411C386.032 166.411 386.65 166.237 387.192 165.889C387.733 165.522 388.149 165.019 388.439 164.381C388.748 163.724 388.903 162.97 388.903 162.119C388.903 161.269 388.748 160.524 388.439 159.886C388.129 159.229 387.704 158.726 387.163 158.378C386.621 158.011 386.012 157.827 385.336 157.827C384.582 157.827 383.924 158.011 383.364 158.378C382.822 158.746 382.397 159.258 382.088 159.915C381.798 160.553 381.653 161.288 381.653 162.119ZM396.649 155.072H400.448V158.465C400.68 157.363 401.144 156.493 401.84 155.855C402.536 155.217 403.464 154.898 404.624 154.898C405.146 154.898 405.533 154.937 405.784 155.014V158.784C405.591 158.765 405.272 158.755 404.827 158.755C403.938 158.755 403.174 158.939 402.536 159.306C401.917 159.674 401.444 160.205 401.115 160.901C400.786 161.597 400.622 162.448 400.622 163.453V170.152H396.649V155.072ZM407.373 165.773C407.373 164.304 407.876 163.183 408.881 162.409C409.886 161.617 411.375 161.143 413.347 160.988L417.001 160.698V160.147C417.001 159.374 416.779 158.775 416.334 158.349C415.909 157.905 415.271 157.682 414.42 157.682C413.647 157.682 413.018 157.876 412.535 158.262C412.052 158.649 411.762 159.142 411.665 159.741H407.895C408.127 158.233 408.833 157.025 410.012 156.116C411.191 155.188 412.661 154.724 414.42 154.724C416.508 154.724 418.113 155.237 419.234 156.261C420.375 157.286 420.945 158.668 420.945 160.408V170.152H417.117V168.093C416.808 168.789 416.247 169.369 415.435 169.833C414.642 170.278 413.705 170.5 412.622 170.5C411.037 170.5 409.761 170.075 408.794 169.224C407.847 168.354 407.373 167.204 407.373 165.773ZM411.201 165.657C411.201 166.315 411.414 166.837 411.839 167.223C412.284 167.61 412.902 167.803 413.695 167.803C414.372 167.803 414.952 167.668 415.435 167.397C415.938 167.127 416.324 166.73 416.595 166.208C416.866 165.686 417.001 165.068 417.001 164.352V163.337L414.13 163.569C413.163 163.647 412.429 163.85 411.926 164.178C411.443 164.488 411.201 164.981 411.201 165.657ZM424.573 155.072H428.401V157.45C428.768 156.58 429.3 155.913 429.996 155.449C430.692 154.966 431.591 154.724 432.693 154.724C433.814 154.724 434.742 154.956 435.477 155.42C436.231 155.865 436.811 156.513 437.217 157.363C437.7 156.513 438.319 155.865 439.073 155.42C439.846 154.956 440.813 154.724 441.973 154.724C443.694 154.724 445.008 155.256 445.917 156.319C446.826 157.383 447.28 158.852 447.28 160.727V170.152H443.307V161.336C443.307 160.35 443.085 159.587 442.64 159.045C442.195 158.485 441.538 158.204 440.668 158.204C440.069 158.204 439.556 158.33 439.131 158.581C438.725 158.833 438.416 159.2 438.203 159.683C438.01 160.167 437.913 160.747 437.913 161.423V170.152H433.94V161.336C433.94 160.35 433.718 159.587 433.273 159.045C432.848 158.485 432.19 158.204 431.301 158.204C430.412 158.204 429.725 158.485 429.242 159.045C428.778 159.587 428.546 160.379 428.546 161.423V170.152H424.573V155.072ZM457.085 155.072H460.913V157.392C461.261 156.542 461.792 155.884 462.508 155.42C463.242 154.956 464.161 154.724 465.263 154.724C467.003 154.724 468.337 155.285 469.265 156.406C470.193 157.508 470.657 159.016 470.657 160.93V170.152H466.684V161.452C466.684 160.447 466.461 159.645 466.017 159.045C465.572 158.446 464.895 158.146 463.987 158.146C463.387 158.146 462.865 158.282 462.421 158.552C461.976 158.823 461.638 159.21 461.406 159.712C461.174 160.196 461.058 160.776 461.058 161.452V170.152H457.085V155.072ZM473.897 165.773C473.897 164.304 474.4 163.183 475.405 162.409C476.411 161.617 477.899 161.143 479.871 160.988L483.525 160.698V160.147C483.525 159.374 483.303 158.775 482.858 158.349C482.433 157.905 481.795 157.682 480.944 157.682C480.171 157.682 479.543 157.876 479.059 158.262C478.576 158.649 478.286 159.142 478.189 159.741H474.419C474.651 158.233 475.357 157.025 476.536 156.116C477.716 155.188 479.185 154.724 480.944 154.724C483.032 154.724 484.637 155.237 485.758 156.261C486.899 157.286 487.469 158.668 487.469 160.408V170.152H483.641V168.093C483.332 168.789 482.771 169.369 481.959 169.833C481.167 170.278 480.229 170.5 479.146 170.5C477.561 170.5 476.285 170.075 475.318 169.224C474.371 168.354 473.897 167.204 473.897 165.773ZM477.725 165.657C477.725 166.315 477.938 166.837 478.363 167.223C478.808 167.61 479.427 167.803 480.219 167.803C480.896 167.803 481.476 167.668 481.959 167.397C482.462 167.127 482.849 166.73 483.119 166.208C483.39 165.686 483.525 165.068 483.525 164.352V163.337L480.654 163.569C479.688 163.647 478.953 163.85 478.45 164.178C477.967 164.488 477.725 164.981 477.725 165.657ZM491.097 155.072H494.925V157.45C495.293 156.58 495.824 155.913 496.52 155.449C497.216 154.966 498.115 154.724 499.217 154.724C500.339 154.724 501.267 154.956 502.001 155.42C502.755 155.865 503.335 156.513 503.741 157.363C504.225 156.513 504.843 155.865 505.597 155.42C506.371 154.956 507.337 154.724 508.497 154.724C510.218 154.724 511.533 155.256 512.441 156.319C513.35 157.383 513.804 158.852 513.804 160.727V170.152H509.831V161.336C509.831 160.35 509.609 159.587 509.164 159.045C508.72 158.485 508.062 158.204 507.192 158.204C506.593 158.204 506.081 158.33 505.655 158.581C505.249 158.833 504.94 159.2 504.727 159.683C504.534 160.167 504.437 160.747 504.437 161.423V170.152H500.464V161.336C500.464 160.35 500.242 159.587 499.797 159.045C499.372 158.485 498.715 158.204 497.825 158.204C496.936 158.204 496.25 158.485 495.766 159.045C495.302 159.587 495.07 160.379 495.07 161.423V170.152H491.097V155.072ZM516.536 162.612C516.536 161.143 516.855 159.809 517.493 158.61C518.131 157.412 519.021 156.464 520.161 155.768C521.302 155.072 522.588 154.724 524.018 154.724C525.565 154.724 526.88 155.063 527.962 155.739C529.064 156.416 529.896 157.344 530.456 158.523C531.017 159.703 531.297 161.037 531.297 162.525V163.482H520.335C520.393 164.236 520.577 164.923 520.886 165.541C521.196 166.141 521.631 166.614 522.191 166.962C522.752 167.291 523.409 167.455 524.163 167.455C525.033 167.455 525.739 167.281 526.28 166.933C526.822 166.566 527.228 166.073 527.498 165.454H531.094C530.862 166.44 530.418 167.32 529.76 168.093C529.122 168.847 528.32 169.437 527.353 169.862C526.406 170.288 525.352 170.5 524.192 170.5C522.626 170.5 521.263 170.162 520.103 169.485C518.943 168.789 518.054 167.842 517.435 166.643C516.836 165.445 516.536 164.101 516.536 162.612ZM527.498 160.727C527.402 160.089 527.199 159.538 526.889 159.074C526.599 158.591 526.203 158.214 525.7 157.943C525.217 157.673 524.656 157.537 524.018 157.537C523.38 157.537 522.81 157.673 522.307 157.943C521.824 158.214 521.418 158.591 521.089 159.074C520.78 159.558 520.567 160.109 520.451 160.727H527.498Z" fill="#0E131F"/>
<rect x="309.406" y="146.551" width="21.03" height="24.32" fill="#DD4545"/>
<path d="M90.9333 119.645V219.073" stroke="#C8C8C8" stroke-width="0.810896" stroke-dasharray="1.62 1.62"/>
<path d="M132.993 129.918L127.993 127.031V132.805L132.993 129.918ZM90.9337 129.918L95.9337 132.805V127.031L90.9337 129.918ZM125.107 129.418H119.85V130.418H125.107V129.418ZM114.592 129.418H109.335V130.418H114.592V129.418ZM104.077 129.418H98.8199V130.418H104.077V129.418Z" fill="#E9717A"/>
<path d="M330.436 129.918L325.436 127.031V132.805L330.436 129.918ZM309.504 129.918L314.504 132.805V127.031L309.504 129.918ZM322.586 129.418H317.353V130.418H322.586V129.418Z" fill="#E9717A"/>
<path d="M110.14 109.198L106.492 103.726H109.036L111.468 107.438L113.884 103.726H116.444L112.796 109.198L116.62 114.926H114.028L111.468 110.974L108.892 114.926H106.316L110.14 109.198Z" fill="#E9717A"/>
<path d="M310.115 109.313L306.467 103.841H309.011L311.443 107.553L313.859 103.841H316.419L312.771 109.313L316.595 115.041H314.003L311.443 111.089L308.867 115.041H306.291L310.115 109.313ZM324.33 102.721L319.434 117.601H317.306L322.186 102.721H324.33ZM325.537 113.281L330.001 108.913C330.332 108.582 330.577 108.278 330.737 108.001C330.897 107.724 330.977 107.404 330.977 107.041C330.977 106.753 330.908 106.497 330.769 106.273C330.641 106.038 330.454 105.857 330.209 105.729C329.974 105.601 329.697 105.537 329.377 105.537C328.822 105.537 328.401 105.702 328.113 106.033C327.825 106.353 327.665 106.796 327.633 107.361H325.473C325.516 106.604 325.708 105.942 326.049 105.377C326.39 104.812 326.849 104.38 327.425 104.081C328.001 103.772 328.657 103.617 329.393 103.617C330.15 103.617 330.812 103.761 331.377 104.049C331.953 104.326 332.396 104.721 332.705 105.233C333.025 105.745 333.185 106.337 333.185 107.009C333.185 108.14 332.668 109.174 331.633 110.113L328.401 113.121H333.185V115.041H325.537V113.281Z" fill="#E9717A"/>
</svg>
