<svg width="566" height="320" viewBox="0 0 566 320" fill="none" xmlns="http://www.w3.org/2000/svg">
<rect width="566" height="320" fill="#F9F9FC"/>
<path d="M143.697 189.967L388.508 189.967" stroke="#C8C8C8" stroke-width="0.810896" stroke-dasharray="1.62 1.62"/>
<path d="M143.568 128.543L388.379 128.543" stroke="#C8C8C8" stroke-width="0.810896" stroke-dasharray="1.62 1.62"/>
<path d="M224.048 137.954H233.212C234.739 137.954 236.064 138.225 237.185 138.766C238.306 139.307 239.167 140.061 239.766 141.028C240.365 141.975 240.665 143.058 240.665 144.276C240.665 145.494 240.356 146.596 239.737 147.582C239.118 148.549 238.248 149.303 237.127 149.844C236.006 150.385 234.701 150.656 233.212 150.656H228.108V158.254H224.048V137.954ZM232.806 147.263C233.599 147.263 234.275 147.137 234.836 146.886C235.416 146.635 235.851 146.287 236.141 145.842C236.45 145.378 236.605 144.846 236.605 144.247C236.605 143.667 236.45 143.164 236.141 142.739C235.851 142.294 235.416 141.946 234.836 141.695C234.275 141.444 233.599 141.318 232.806 141.318H228.108V147.263H232.806ZM243.498 143.174H247.297V146.567C247.529 145.465 247.993 144.595 248.689 143.957C249.385 143.319 250.313 143 251.473 143C251.995 143 252.382 143.039 252.633 143.116V146.886C252.44 146.867 252.121 146.857 251.676 146.857C250.787 146.857 250.023 147.041 249.385 147.408C248.766 147.775 248.293 148.307 247.964 149.003C247.635 149.699 247.471 150.55 247.471 151.555V158.254H243.498V143.174ZM261.698 158.602C260.21 158.602 258.876 158.254 257.696 157.558C256.517 156.862 255.599 155.915 254.941 154.716C254.284 153.498 253.955 152.164 253.955 150.714C253.955 149.264 254.284 147.94 254.941 146.741C255.599 145.523 256.517 144.566 257.696 143.87C258.876 143.174 260.21 142.826 261.698 142.826C263.187 142.826 264.521 143.174 265.7 143.87C266.88 144.566 267.798 145.523 268.455 146.741C269.113 147.94 269.441 149.264 269.441 150.714C269.441 152.164 269.113 153.498 268.455 154.716C267.798 155.915 266.88 156.862 265.7 157.558C264.521 158.254 263.187 158.602 261.698 158.602ZM261.698 155.325C262.472 155.325 263.148 155.103 263.728 154.658C264.308 154.213 264.753 153.643 265.062 152.947C265.372 152.251 265.526 151.507 265.526 150.714C265.526 149.921 265.372 149.177 265.062 148.481C264.753 147.785 264.308 147.224 263.728 146.799C263.148 146.354 262.472 146.132 261.698 146.132C260.925 146.132 260.248 146.354 259.668 146.799C259.088 147.224 258.644 147.785 258.334 148.481C258.025 149.177 257.87 149.921 257.87 150.714C257.87 151.507 258.025 152.251 258.334 152.947C258.644 153.643 259.088 154.213 259.668 154.658C260.248 155.103 260.925 155.325 261.698 155.325ZM271.401 150.221C271.401 148.79 271.681 147.514 272.242 146.393C272.822 145.272 273.614 144.402 274.62 143.783C275.644 143.145 276.804 142.826 278.1 142.826C278.834 142.826 279.501 142.942 280.101 143.174C280.719 143.387 281.241 143.696 281.667 144.102C282.092 144.508 282.411 144.972 282.624 145.494V143.174H286.51V157.413C286.51 158.805 286.21 159.984 285.611 160.951C285.011 161.937 284.161 162.681 283.059 163.184C281.957 163.687 280.671 163.938 279.202 163.938C277.172 163.938 275.49 163.474 274.156 162.546C272.841 161.637 272.029 160.381 271.72 158.776H275.751C275.925 159.433 276.302 159.955 276.882 160.342C277.462 160.748 278.196 160.951 279.086 160.951C280.304 160.951 281.183 160.622 281.725 159.965C282.266 159.308 282.537 158.293 282.537 156.92V154.861C282.363 155.364 282.063 155.828 281.638 156.253C281.232 156.659 280.719 156.988 280.101 157.239C279.482 157.471 278.815 157.587 278.1 157.587C276.804 157.587 275.644 157.278 274.62 156.659C273.614 156.021 272.822 155.141 272.242 154.02C271.681 152.899 271.401 151.632 271.401 150.221ZM275.287 150.221C275.287 151.033 275.432 151.768 275.722 152.425C276.031 153.063 276.456 153.575 276.998 153.962C277.558 154.329 278.216 154.513 278.97 154.513C279.666 154.513 280.284 154.339 280.826 153.991C281.367 153.624 281.783 153.121 282.073 152.483C282.382 151.826 282.537 151.072 282.537 150.221C282.537 149.37 282.382 148.626 282.073 147.988C281.763 147.331 281.338 146.828 280.797 146.48C280.255 146.113 279.646 145.929 278.97 145.929C278.216 145.929 277.558 146.113 276.998 146.48C276.456 146.847 276.031 147.36 275.722 148.017C275.432 148.655 275.287 149.39 275.287 150.221ZM290.283 143.174H294.082V146.567C294.314 145.465 294.778 144.595 295.474 143.957C296.17 143.319 297.098 143 298.258 143C298.78 143 299.167 143.039 299.418 143.116V146.886C299.225 146.867 298.906 146.857 298.461 146.857C297.572 146.857 296.808 147.041 296.17 147.408C295.552 147.775 295.078 148.307 294.749 149.003C294.421 149.699 294.256 150.55 294.256 151.555V158.254H290.283V143.174ZM301.007 153.875C301.007 152.406 301.51 151.284 302.515 150.511C303.52 149.718 305.009 149.245 306.981 149.09L310.635 148.8V148.249C310.635 147.476 310.413 146.876 309.968 146.451C309.543 146.006 308.905 145.784 308.054 145.784C307.281 145.784 306.652 145.977 306.169 146.364C305.686 146.751 305.396 147.244 305.299 147.843H301.529C301.761 146.335 302.467 145.127 303.646 144.218C304.825 143.29 306.295 142.826 308.054 142.826C310.142 142.826 311.747 143.338 312.868 144.363C314.009 145.388 314.579 146.77 314.579 148.51V158.254H310.751V156.195C310.442 156.891 309.881 157.471 309.069 157.935C308.276 158.38 307.339 158.602 306.256 158.602C304.671 158.602 303.395 158.177 302.428 157.326C301.481 156.456 301.007 155.306 301.007 153.875ZM304.835 153.759C304.835 154.416 305.048 154.938 305.473 155.325C305.918 155.712 306.536 155.905 307.329 155.905C308.006 155.905 308.586 155.77 309.069 155.499C309.572 155.228 309.958 154.832 310.229 154.31C310.5 153.788 310.635 153.169 310.635 152.454V151.439L307.764 151.671C306.797 151.748 306.063 151.951 305.56 152.28C305.077 152.589 304.835 153.082 304.835 153.759ZM318.207 143.174H322.035V145.552C322.402 144.682 322.934 144.015 323.63 143.551C324.326 143.068 325.225 142.826 326.327 142.826C327.448 142.826 328.376 143.058 329.111 143.522C329.865 143.967 330.445 144.614 330.851 145.465C331.334 144.614 331.953 143.967 332.707 143.522C333.48 143.058 334.447 142.826 335.607 142.826C337.328 142.826 338.642 143.358 339.551 144.421C340.46 145.484 340.914 146.954 340.914 148.829V158.254H336.941V149.438C336.941 148.452 336.719 147.688 336.274 147.147C335.829 146.586 335.172 146.306 334.302 146.306C333.703 146.306 333.19 146.432 332.765 146.683C332.359 146.934 332.05 147.302 331.837 147.785C331.644 148.268 331.547 148.848 331.547 149.525V158.254H327.574V149.438C327.574 148.452 327.352 147.688 326.907 147.147C326.482 146.586 325.824 146.306 324.935 146.306C324.046 146.306 323.359 146.586 322.876 147.147C322.412 147.688 322.18 148.481 322.18 149.525V158.254H318.207V143.174ZM350.719 143.174H354.547V145.494C354.895 144.643 355.426 143.986 356.142 143.522C356.876 143.058 357.795 142.826 358.897 142.826C360.637 142.826 361.971 143.387 362.899 144.508C363.827 145.61 364.291 147.118 364.291 149.032V158.254H360.318V149.554C360.318 148.549 360.095 147.746 359.651 147.147C359.206 146.548 358.529 146.248 357.621 146.248C357.021 146.248 356.499 146.383 356.055 146.654C355.61 146.925 355.272 147.311 355.04 147.814C354.808 148.297 354.692 148.877 354.692 149.554V158.254H350.719V143.174ZM367.531 153.875C367.531 152.406 368.034 151.284 369.039 150.511C370.045 149.718 371.533 149.245 373.505 149.09L377.159 148.8V148.249C377.159 147.476 376.937 146.876 376.492 146.451C376.067 146.006 375.429 145.784 374.578 145.784C373.805 145.784 373.177 145.977 372.693 146.364C372.21 146.751 371.92 147.244 371.823 147.843H368.053C368.285 146.335 368.991 145.127 370.17 144.218C371.35 143.29 372.819 142.826 374.578 142.826C376.666 142.826 378.271 143.338 379.392 144.363C380.533 145.388 381.103 146.77 381.103 148.51V158.254H377.275V156.195C376.966 156.891 376.405 157.471 375.593 157.935C374.801 158.38 373.863 158.602 372.78 158.602C371.195 158.602 369.919 158.177 368.952 157.326C368.005 156.456 367.531 155.306 367.531 153.875ZM371.359 153.759C371.359 154.416 371.572 154.938 371.997 155.325C372.442 155.712 373.061 155.905 373.853 155.905C374.53 155.905 375.11 155.77 375.593 155.499C376.096 155.228 376.483 154.832 376.753 154.31C377.024 153.788 377.159 153.169 377.159 152.454V151.439L374.288 151.671C373.322 151.748 372.587 151.951 372.084 152.28C371.601 152.589 371.359 153.082 371.359 153.759ZM384.731 143.174H388.559V145.552C388.927 144.682 389.458 144.015 390.154 143.551C390.85 143.068 391.749 142.826 392.851 142.826C393.973 142.826 394.901 143.058 395.635 143.522C396.389 143.967 396.969 144.614 397.375 145.465C397.859 144.614 398.477 143.967 399.231 143.522C400.005 143.058 400.971 142.826 402.131 142.826C403.852 142.826 405.167 143.358 406.075 144.421C406.984 145.484 407.438 146.954 407.438 148.829V158.254H403.465V149.438C403.465 148.452 403.243 147.688 402.798 147.147C402.354 146.586 401.696 146.306 400.826 146.306C400.227 146.306 399.715 146.432 399.289 146.683C398.883 146.934 398.574 147.302 398.361 147.785C398.168 148.268 398.071 148.848 398.071 149.525V158.254H394.098V149.438C394.098 148.452 393.876 147.688 393.431 147.147C393.006 146.586 392.349 146.306 391.459 146.306C390.57 146.306 389.884 146.586 389.4 147.147C388.936 147.688 388.704 148.481 388.704 149.525V158.254H384.731V143.174ZM410.17 150.714C410.17 149.245 410.489 147.911 411.127 146.712C411.765 145.513 412.655 144.566 413.795 143.87C414.936 143.174 416.222 142.826 417.652 142.826C419.199 142.826 420.514 143.164 421.596 143.841C422.698 144.518 423.53 145.446 424.09 146.625C424.651 147.804 424.931 149.138 424.931 150.627V151.584H413.969C414.027 152.338 414.211 153.024 414.52 153.643C414.83 154.242 415.265 154.716 415.825 155.064C416.386 155.393 417.043 155.557 417.797 155.557C418.667 155.557 419.373 155.383 419.914 155.035C420.456 154.668 420.862 154.175 421.132 153.556H424.728C424.496 154.542 424.052 155.422 423.394 156.195C422.756 156.949 421.954 157.539 420.987 157.964C420.04 158.389 418.986 158.602 417.826 158.602C416.26 158.602 414.897 158.264 413.737 157.587C412.577 156.891 411.688 155.944 411.069 154.745C410.47 153.546 410.17 152.203 410.17 150.714ZM421.132 148.829C421.036 148.191 420.833 147.64 420.523 147.176C420.233 146.693 419.837 146.316 419.334 146.045C418.851 145.774 418.29 145.639 417.652 145.639C417.014 145.639 416.444 145.774 415.941 146.045C415.458 146.316 415.052 146.693 414.723 147.176C414.414 147.659 414.201 148.21 414.085 148.829H421.132Z" fill="#0E131F"/>
<path d="M226.62 182.45C225.855 182.45 225.178 182.319 224.59 182.058C224.002 181.787 223.531 181.409 223.176 180.924C222.821 180.429 222.602 179.855 222.518 179.202H224.422C224.534 179.725 224.777 180.14 225.15 180.448C225.523 180.747 226.023 180.896 226.648 180.896C227.04 180.896 227.381 180.835 227.67 180.714C227.959 180.593 228.179 180.425 228.328 180.21C228.487 179.986 228.566 179.729 228.566 179.44C228.566 179.113 228.459 178.847 228.244 178.642C228.029 178.427 227.703 178.278 227.264 178.194L225.178 177.774C224.375 177.615 223.769 177.326 223.358 176.906C222.957 176.486 222.756 175.907 222.756 175.17C222.756 174.61 222.91 174.111 223.218 173.672C223.535 173.224 223.974 172.879 224.534 172.636C225.103 172.384 225.747 172.258 226.466 172.258C227.558 172.258 228.435 172.529 229.098 173.07C229.761 173.611 230.129 174.353 230.204 175.296H228.314C228.23 174.839 228.029 174.479 227.712 174.218C227.395 173.947 226.975 173.812 226.452 173.812C226.088 173.812 225.771 173.859 225.5 173.952C225.239 174.045 225.033 174.185 224.884 174.372C224.735 174.549 224.66 174.773 224.66 175.044C224.66 175.333 224.744 175.557 224.912 175.716C225.08 175.875 225.355 175.991 225.738 176.066L227.936 176.486C228.757 176.645 229.383 176.957 229.812 177.424C230.251 177.881 230.47 178.479 230.47 179.216C230.47 179.841 230.302 180.401 229.966 180.896C229.639 181.391 229.182 181.773 228.594 182.044C228.015 182.315 227.357 182.45 226.62 182.45ZM231.566 178.614C231.566 177.905 231.72 177.261 232.028 176.682C232.336 176.103 232.765 175.646 233.316 175.31C233.866 174.974 234.487 174.806 235.178 174.806C235.924 174.806 236.559 174.969 237.082 175.296C237.614 175.623 238.015 176.071 238.286 176.64C238.556 177.209 238.692 177.853 238.692 178.572V179.034H233.4C233.428 179.398 233.516 179.729 233.666 180.028C233.815 180.317 234.025 180.546 234.296 180.714C234.566 180.873 234.884 180.952 235.248 180.952C235.668 180.952 236.008 180.868 236.27 180.7C236.531 180.523 236.727 180.285 236.858 179.986H238.594C238.482 180.462 238.267 180.887 237.95 181.26C237.642 181.624 237.254 181.909 236.788 182.114C236.33 182.319 235.822 182.422 235.262 182.422C234.506 182.422 233.848 182.259 233.288 181.932C232.728 181.596 232.298 181.139 232 180.56C231.71 179.981 231.566 179.333 231.566 178.614ZM236.858 177.704C236.811 177.396 236.713 177.13 236.564 176.906C236.424 176.673 236.232 176.491 235.99 176.36C235.756 176.229 235.486 176.164 235.178 176.164C234.87 176.164 234.594 176.229 234.352 176.36C234.118 176.491 233.922 176.673 233.764 176.906C233.614 177.139 233.512 177.405 233.456 177.704H236.858ZM239.714 178.614C239.714 177.923 239.868 177.289 240.176 176.71C240.484 176.122 240.918 175.66 241.478 175.324C242.038 174.979 242.687 174.806 243.424 174.806C244.059 174.806 244.623 174.932 245.118 175.184C245.622 175.427 246.023 175.767 246.322 176.206C246.621 176.635 246.807 177.13 246.882 177.69H245.048C244.936 177.307 244.745 177.004 244.474 176.78C244.203 176.547 243.858 176.43 243.438 176.43C243.055 176.43 242.729 176.533 242.458 176.738C242.187 176.934 241.977 177.2 241.828 177.536C241.688 177.863 241.618 178.222 241.618 178.614C241.618 179.006 241.688 179.37 241.828 179.706C241.977 180.033 242.187 180.299 242.458 180.504C242.729 180.709 243.055 180.812 243.438 180.812C243.858 180.812 244.203 180.695 244.474 180.462C244.745 180.229 244.936 179.921 245.048 179.538H246.882C246.807 180.098 246.621 180.597 246.322 181.036C246.023 181.465 245.622 181.806 245.118 182.058C244.623 182.301 244.059 182.422 243.424 182.422C242.687 182.422 242.038 182.254 241.478 181.918C240.918 181.573 240.484 181.111 240.176 180.532C239.868 179.944 239.714 179.305 239.714 178.614ZM251.655 182.422C250.936 182.422 250.292 182.254 249.723 181.918C249.154 181.582 248.71 181.125 248.393 180.546C248.076 179.958 247.917 179.314 247.917 178.614C247.917 177.914 248.076 177.275 248.393 176.696C248.71 176.108 249.154 175.646 249.723 175.31C250.292 174.974 250.936 174.806 251.655 174.806C252.374 174.806 253.018 174.974 253.587 175.31C254.156 175.646 254.6 176.108 254.917 176.696C255.234 177.275 255.393 177.914 255.393 178.614C255.393 179.314 255.234 179.958 254.917 180.546C254.6 181.125 254.156 181.582 253.587 181.918C253.018 182.254 252.374 182.422 251.655 182.422ZM251.655 180.84C252.028 180.84 252.355 180.733 252.635 180.518C252.915 180.303 253.13 180.028 253.279 179.692C253.428 179.356 253.503 178.997 253.503 178.614C253.503 178.231 253.428 177.872 253.279 177.536C253.13 177.2 252.915 176.929 252.635 176.724C252.355 176.509 252.028 176.402 251.655 176.402C251.282 176.402 250.955 176.509 250.675 176.724C250.395 176.929 250.18 177.2 250.031 177.536C249.882 177.872 249.807 178.231 249.807 178.614C249.807 178.997 249.882 179.356 250.031 179.692C250.18 180.028 250.395 180.303 250.675 180.518C250.955 180.733 251.282 180.84 251.655 180.84ZM256.773 174.974H258.621V176.094C258.789 175.683 259.046 175.366 259.391 175.142C259.746 174.918 260.189 174.806 260.721 174.806C261.561 174.806 262.205 175.077 262.653 175.618C263.101 176.15 263.325 176.878 263.325 177.802V182.254H261.407V178.054C261.407 177.569 261.3 177.181 261.085 176.892C260.87 176.603 260.544 176.458 260.105 176.458C259.816 176.458 259.564 176.523 259.349 176.654C259.134 176.785 258.971 176.971 258.859 177.214C258.747 177.447 258.691 177.727 258.691 178.054V182.254H256.773V174.974ZM270.238 182.254V181.106C270.051 181.507 269.762 181.829 269.37 182.072C268.978 182.305 268.511 182.422 267.97 182.422C267.335 182.422 266.761 182.254 266.248 181.918C265.744 181.582 265.347 181.125 265.058 180.546C264.778 179.958 264.638 179.314 264.638 178.614C264.638 177.914 264.778 177.275 265.058 176.696C265.347 176.108 265.744 175.646 266.248 175.31C266.752 174.974 267.321 174.806 267.956 174.806C268.488 174.806 268.945 174.927 269.328 175.17C269.72 175.403 270.005 175.721 270.182 176.122V172.034H272.1V182.254H270.238ZM270.182 178.614C270.182 178.194 270.107 177.816 269.958 177.48C269.809 177.144 269.594 176.883 269.314 176.696C269.034 176.5 268.717 176.402 268.362 176.402C267.998 176.402 267.681 176.505 267.41 176.71C267.139 176.915 266.925 177.191 266.766 177.536C266.617 177.872 266.542 178.231 266.542 178.614C266.542 179.006 266.617 179.37 266.766 179.706C266.925 180.042 267.139 180.313 267.41 180.518C267.681 180.723 267.998 180.826 268.362 180.826C268.717 180.826 269.034 180.733 269.314 180.546C269.594 180.35 269.809 180.084 269.958 179.748C270.107 179.412 270.182 179.034 270.182 178.614ZM273.722 180.14C273.722 179.431 273.964 178.889 274.45 178.516C274.935 178.133 275.654 177.905 276.606 177.83L278.37 177.69V177.424C278.37 177.051 278.262 176.761 278.048 176.556C277.842 176.341 277.534 176.234 277.124 176.234C276.75 176.234 276.447 176.327 276.214 176.514C275.98 176.701 275.84 176.939 275.794 177.228H273.974C274.086 176.5 274.426 175.917 274.996 175.478C275.565 175.03 276.274 174.806 277.124 174.806C278.132 174.806 278.906 175.053 279.448 175.548C279.998 176.043 280.274 176.71 280.274 177.55V182.254H278.426V181.26C278.276 181.596 278.006 181.876 277.614 182.1C277.231 182.315 276.778 182.422 276.256 182.422C275.49 182.422 274.874 182.217 274.408 181.806C273.95 181.386 273.722 180.831 273.722 180.14ZM275.57 180.084C275.57 180.401 275.672 180.653 275.878 180.84C276.092 181.027 276.391 181.12 276.774 181.12C277.1 181.12 277.38 181.055 277.614 180.924C277.856 180.793 278.043 180.602 278.174 180.35C278.304 180.098 278.37 179.799 278.37 179.454V178.964L276.984 179.076C276.517 179.113 276.162 179.211 275.92 179.37C275.686 179.519 275.57 179.757 275.57 180.084ZM282.025 174.974H283.859V176.612C283.971 176.08 284.195 175.66 284.531 175.352C284.867 175.044 285.315 174.89 285.875 174.89C286.127 174.89 286.314 174.909 286.435 174.946V176.766C286.342 176.757 286.188 176.752 285.973 176.752C285.544 176.752 285.175 176.841 284.867 177.018C284.568 177.195 284.34 177.452 284.181 177.788C284.022 178.124 283.943 178.535 283.943 179.02V182.254H282.025V174.974ZM288.595 184.998C288.184 184.998 287.806 184.942 287.461 184.83V183.234C287.685 183.318 287.951 183.36 288.259 183.36C288.492 183.36 288.688 183.318 288.847 183.234C289.015 183.15 289.15 183.033 289.253 182.884C289.356 182.744 289.444 182.557 289.519 182.324L289.561 182.226L286.915 174.974H288.875L290.555 180.098L292.179 174.974H294.139L291.549 182.254L291.451 182.506C291.236 183.094 291.012 183.565 290.779 183.92C290.555 184.275 290.27 184.541 289.925 184.718C289.58 184.905 289.136 184.998 288.595 184.998ZM300.817 174.162H297.709V172.454H305.871V174.162H302.777V182.254H300.817V174.162ZM305.503 178.614C305.503 177.905 305.657 177.261 305.965 176.682C306.273 176.103 306.702 175.646 307.253 175.31C307.804 174.974 308.424 174.806 309.115 174.806C309.862 174.806 310.496 174.969 311.019 175.296C311.551 175.623 311.952 176.071 312.223 176.64C312.494 177.209 312.629 177.853 312.629 178.572V179.034H307.337C307.365 179.398 307.454 179.729 307.603 180.028C307.752 180.317 307.962 180.546 308.233 180.714C308.504 180.873 308.821 180.952 309.185 180.952C309.605 180.952 309.946 180.868 310.207 180.7C310.468 180.523 310.664 180.285 310.795 179.986H312.531C312.419 180.462 312.204 180.887 311.887 181.26C311.579 181.624 311.192 181.909 310.725 182.114C310.268 182.319 309.759 182.422 309.199 182.422C308.443 182.422 307.785 182.259 307.225 181.932C306.665 181.596 306.236 181.139 305.937 180.56C305.648 179.981 305.503 179.333 305.503 178.614ZM310.795 177.704C310.748 177.396 310.65 177.13 310.501 176.906C310.361 176.673 310.17 176.491 309.927 176.36C309.694 176.229 309.423 176.164 309.115 176.164C308.807 176.164 308.532 176.229 308.289 176.36C308.056 176.491 307.86 176.673 307.701 176.906C307.552 177.139 307.449 177.405 307.393 177.704H310.795ZM315.658 178.544L313.348 174.974H315.406L316.806 177.242L318.192 174.974H320.25L317.954 178.544L320.334 182.254H318.248L316.806 179.93L315.364 182.254H313.278L315.658 178.544ZM324.351 182.352C323.567 182.352 322.979 182.137 322.587 181.708C322.204 181.269 322.013 180.63 322.013 179.79V176.514H320.851V174.974H322.013V173.056H323.931V174.974H325.681V176.514H323.931V179.734C323.931 180.061 324.01 180.313 324.169 180.49C324.328 180.658 324.57 180.742 324.897 180.742C325.186 180.742 325.452 180.7 325.695 180.616V182.17C325.555 182.226 325.364 182.268 325.121 182.296C324.878 182.333 324.622 182.352 324.351 182.352ZM329.579 178.376C329.579 177.685 329.715 177.069 329.985 176.528C330.265 175.987 330.648 175.567 331.133 175.268C331.628 174.96 332.188 174.806 332.813 174.806C333.168 174.806 333.49 174.862 333.779 174.974C334.078 175.077 334.33 175.226 334.535 175.422C334.741 175.618 334.895 175.842 334.997 176.094V174.974H336.873V181.848C336.873 182.52 336.729 183.089 336.439 183.556C336.15 184.032 335.739 184.391 335.207 184.634C334.675 184.877 334.055 184.998 333.345 184.998C332.365 184.998 331.553 184.774 330.909 184.326C330.275 183.887 329.883 183.281 329.733 182.506H331.679C331.763 182.823 331.945 183.075 332.225 183.262C332.505 183.458 332.86 183.556 333.289 183.556C333.877 183.556 334.302 183.397 334.563 183.08C334.825 182.763 334.955 182.273 334.955 181.61V180.616C334.871 180.859 334.727 181.083 334.521 181.288C334.325 181.484 334.078 181.643 333.779 181.764C333.481 181.876 333.159 181.932 332.813 181.932C332.188 181.932 331.628 181.783 331.133 181.484C330.648 181.176 330.265 180.751 329.985 180.21C329.715 179.669 329.579 179.057 329.579 178.376ZM331.455 178.376C331.455 178.768 331.525 179.123 331.665 179.44C331.815 179.748 332.02 179.995 332.281 180.182C332.552 180.359 332.869 180.448 333.233 180.448C333.569 180.448 333.868 180.364 334.129 180.196C334.391 180.019 334.591 179.776 334.731 179.468C334.881 179.151 334.955 178.787 334.955 178.376C334.955 177.965 334.881 177.606 334.731 177.298C334.582 176.981 334.377 176.738 334.115 176.57C333.854 176.393 333.56 176.304 333.233 176.304C332.869 176.304 332.552 176.393 332.281 176.57C332.02 176.747 331.815 176.995 331.665 177.312C331.525 177.62 331.455 177.975 331.455 178.376ZM341.999 182.422C341.28 182.422 340.636 182.254 340.067 181.918C339.498 181.582 339.054 181.125 338.737 180.546C338.42 179.958 338.261 179.314 338.261 178.614C338.261 177.914 338.42 177.275 338.737 176.696C339.054 176.108 339.498 175.646 340.067 175.31C340.636 174.974 341.28 174.806 341.999 174.806C342.718 174.806 343.362 174.974 343.931 175.31C344.5 175.646 344.944 176.108 345.261 176.696C345.578 177.275 345.737 177.914 345.737 178.614C345.737 179.314 345.578 179.958 345.261 180.546C344.944 181.125 344.5 181.582 343.931 181.918C343.362 182.254 342.718 182.422 341.999 182.422ZM341.999 180.84C342.372 180.84 342.699 180.733 342.979 180.518C343.259 180.303 343.474 180.028 343.623 179.692C343.772 179.356 343.847 178.997 343.847 178.614C343.847 178.231 343.772 177.872 343.623 177.536C343.474 177.2 343.259 176.929 342.979 176.724C342.699 176.509 342.372 176.402 341.999 176.402C341.626 176.402 341.299 176.509 341.019 176.724C340.739 176.929 340.524 177.2 340.375 177.536C340.226 177.872 340.151 178.231 340.151 178.614C340.151 178.997 340.226 179.356 340.375 179.692C340.524 180.028 340.739 180.303 341.019 180.518C341.299 180.733 341.626 180.84 341.999 180.84ZM346.683 178.614C346.683 177.905 346.837 177.261 347.145 176.682C347.453 176.103 347.882 175.646 348.433 175.31C348.983 174.974 349.604 174.806 350.295 174.806C351.041 174.806 351.676 174.969 352.199 175.296C352.731 175.623 353.132 176.071 353.403 176.64C353.673 177.209 353.809 177.853 353.809 178.572V179.034H348.517C348.545 179.398 348.633 179.729 348.783 180.028C348.932 180.317 349.142 180.546 349.413 180.714C349.683 180.873 350.001 180.952 350.365 180.952C350.785 180.952 351.125 180.868 351.387 180.7C351.648 180.523 351.844 180.285 351.975 179.986H353.711C353.599 180.462 353.384 180.887 353.067 181.26C352.759 181.624 352.371 181.909 351.905 182.114C351.447 182.319 350.939 182.422 350.379 182.422C349.623 182.422 348.965 182.259 348.405 181.932C347.845 181.596 347.415 181.139 347.117 180.56C346.827 179.981 346.683 179.333 346.683 178.614ZM351.975 177.704C351.928 177.396 351.83 177.13 351.681 176.906C351.541 176.673 351.349 176.491 351.107 176.36C350.873 176.229 350.603 176.164 350.295 176.164C349.987 176.164 349.711 176.229 349.469 176.36C349.235 176.491 349.039 176.673 348.881 176.906C348.731 177.139 348.629 177.405 348.573 177.704H351.975ZM358.08 182.422C357.147 182.422 356.386 182.203 355.798 181.764C355.21 181.316 354.86 180.695 354.748 179.902H356.498C356.573 180.266 356.741 180.555 357.002 180.77C357.273 180.985 357.632 181.092 358.08 181.092C358.5 181.092 358.832 181.008 359.074 180.84C359.317 180.663 359.438 180.434 359.438 180.154C359.438 179.939 359.364 179.767 359.214 179.636C359.065 179.505 358.818 179.412 358.472 179.356L356.904 179.09C356.223 178.978 355.714 178.763 355.378 178.446C355.042 178.119 354.874 177.667 354.874 177.088C354.874 176.64 355 176.248 355.252 175.912C355.504 175.567 355.859 175.296 356.316 175.1C356.774 174.904 357.296 174.806 357.884 174.806C358.78 174.806 359.499 175.016 360.04 175.436C360.582 175.847 360.885 176.416 360.95 177.144H359.2C359.154 176.836 359.018 176.593 358.794 176.416C358.58 176.239 358.276 176.15 357.884 176.15C357.492 176.15 357.18 176.22 356.946 176.36C356.722 176.491 356.61 176.682 356.61 176.934C356.61 177.13 356.676 177.275 356.806 177.368C356.937 177.452 357.152 177.522 357.45 177.578L359.032 177.83C359.76 177.942 360.302 178.175 360.656 178.53C361.011 178.875 361.188 179.351 361.188 179.958C361.188 180.453 361.053 180.887 360.782 181.26C360.512 181.633 360.138 181.923 359.662 182.128C359.196 182.324 358.668 182.422 358.08 182.422ZM365.505 172.034H367.423V176.066C367.573 175.665 367.82 175.357 368.165 175.142C368.52 174.918 368.949 174.806 369.453 174.806C370.293 174.806 370.937 175.077 371.385 175.618C371.833 176.15 372.057 176.873 372.057 177.788V182.254H370.139V178.04C370.139 177.564 370.032 177.181 369.817 176.892C369.603 176.603 369.276 176.458 368.837 176.458C368.548 176.458 368.296 176.523 368.081 176.654C367.867 176.775 367.703 176.957 367.591 177.2C367.479 177.443 367.423 177.727 367.423 178.054V182.254H365.505V172.034ZM373.37 178.614C373.37 177.905 373.524 177.261 373.832 176.682C374.14 176.103 374.57 175.646 375.12 175.31C375.671 174.974 376.292 174.806 376.982 174.806C377.729 174.806 378.364 174.969 378.886 175.296C379.418 175.623 379.82 176.071 380.09 176.64C380.361 177.209 380.496 177.853 380.496 178.572V179.034H375.204C375.232 179.398 375.321 179.729 375.47 180.028C375.62 180.317 375.83 180.546 376.1 180.714C376.371 180.873 376.688 180.952 377.052 180.952C377.472 180.952 377.813 180.868 378.074 180.7C378.336 180.523 378.532 180.285 378.662 179.986H380.398C380.286 180.462 380.072 180.887 379.754 181.26C379.446 181.624 379.059 181.909 378.592 182.114C378.135 182.319 377.626 182.422 377.066 182.422C376.31 182.422 375.652 182.259 375.092 181.932C374.532 181.596 374.103 181.139 373.804 180.56C373.515 179.981 373.37 179.333 373.37 178.614ZM378.662 177.704C378.616 177.396 378.518 177.13 378.368 176.906C378.228 176.673 378.037 176.491 377.794 176.36C377.561 176.229 377.29 176.164 376.982 176.164C376.674 176.164 376.399 176.229 376.156 176.36C375.923 176.491 375.727 176.673 375.568 176.906C375.419 177.139 375.316 177.405 375.26 177.704H378.662ZM381.912 174.974H383.746V176.612C383.858 176.08 384.082 175.66 384.418 175.352C384.754 175.044 385.202 174.89 385.762 174.89C386.014 174.89 386.2 174.909 386.322 174.946V176.766C386.228 176.757 386.074 176.752 385.86 176.752C385.43 176.752 385.062 176.841 384.754 177.018C384.455 177.195 384.226 177.452 384.068 177.788C383.909 178.124 383.83 178.535 383.83 179.02V182.254H381.912V174.974ZM386.96 178.614C386.96 177.905 387.114 177.261 387.422 176.682C387.73 176.103 388.159 175.646 388.71 175.31C389.261 174.974 389.881 174.806 390.572 174.806C391.319 174.806 391.953 174.969 392.476 175.296C393.008 175.623 393.409 176.071 393.68 176.64C393.951 177.209 394.086 177.853 394.086 178.572V179.034H388.794C388.822 179.398 388.911 179.729 389.06 180.028C389.209 180.317 389.419 180.546 389.69 180.714C389.961 180.873 390.278 180.952 390.642 180.952C391.062 180.952 391.403 180.868 391.664 180.7C391.925 180.523 392.121 180.285 392.252 179.986H393.988C393.876 180.462 393.661 180.887 393.344 181.26C393.036 181.624 392.649 181.909 392.182 182.114C391.725 182.319 391.216 182.422 390.656 182.422C389.9 182.422 389.242 182.259 388.682 181.932C388.122 181.596 387.693 181.139 387.394 180.56C387.105 179.981 386.96 179.333 386.96 178.614ZM392.252 177.704C392.205 177.396 392.107 177.13 391.958 176.906C391.818 176.673 391.627 176.491 391.384 176.36C391.151 176.229 390.88 176.164 390.572 176.164C390.264 176.164 389.989 176.229 389.746 176.36C389.513 176.491 389.317 176.673 389.158 176.906C389.009 177.139 388.906 177.405 388.85 177.704H392.252Z" fill="#0E131F"/>
<path d="M147.285 104.252V203.681" stroke="#C8C8C8" stroke-width="0.810896" stroke-dasharray="1.62 1.62"/>
<path d="M208.709 104.018V203.446" stroke="#C8C8C8" stroke-width="0.810896" stroke-dasharray="1.62 1.62"/>
<g clip-path="url(#clip0_1908_3079)">
<rect width="61.4238" height="61.4238" transform="translate(147.285 128.543)" fill="#00C3B4"/>
<path fill-rule="evenodd" clip-rule="evenodd" d="M192.228 152.125C193.379 152.125 194.313 153.065 194.313 154.225C194.313 155.383 193.379 156.324 192.228 156.324H180.323V168.752C180.323 169.912 179.389 170.852 178.238 170.852C177.087 170.852 176.153 169.912 176.153 168.752V156.324H164.248C163.097 156.324 162.163 155.383 162.163 154.225C162.163 153.065 163.097 152.125 164.248 152.125H192.228Z" fill="#F9F9FC"/>
</g>
<rect x="208.709" y="146.615" width="15.36" height="12" fill="#DD4545"/>
<path d="M208.709 121.234L203.709 118.348V124.121L208.709 121.234ZM147.253 121.234L152.253 124.121V118.348L147.253 121.234ZM199.491 120.734H193.345V121.734H199.491V120.734ZM187.199 120.734H181.054V121.734H187.199V120.734ZM174.908 120.734H168.763V121.734H174.908V120.734ZM162.617 120.734H156.471V121.734H162.617V120.734Z" fill="#E9717A"/>
<path d="M224.074 185.234L219.074 182.348V188.121L224.074 185.234ZM208.709 185.234L213.709 188.121V182.348L208.709 185.234Z" fill="#E9717A"/>
<path d="M176.657 100.346L173.009 94.8742H175.553L177.985 98.5862L180.401 94.8742H182.961L179.313 100.346L183.137 106.074H180.545L177.985 102.122L175.409 106.074H172.833L176.657 100.346Z" fill="#E9717A"/>
<path d="M203.516 213.042L200.924 214.546V212.354L203.884 210.562H205.724V221.762H203.516V213.042ZM214.366 209.442L209.47 224.322H207.342L212.222 209.442H214.366ZM214.505 217.538L219.433 210.562H221.897V217.49H223.401V219.282H221.897V221.762H219.817V219.282H214.505V217.538ZM219.817 217.49V212.866L216.665 217.49H219.817ZM228.213 216.034L224.565 210.562H227.109L229.541 214.274L231.957 210.562H234.517L230.869 216.034L234.693 221.762H232.101L229.541 217.81L226.965 221.762H224.389L228.213 216.034Z" fill="#E9717A"/>
<defs>
<clipPath id="clip0_1908_3079">
<rect width="61.4238" height="61.4238" fill="white" transform="translate(147.285 128.543)"/>
</clipPath>
</defs>
</svg>
