<svg width="567" height="320" viewBox="0 0 567 320" fill="none" xmlns="http://www.w3.org/2000/svg">
<g clip-path="url(#clip0_1908_2729)">
<rect width="566" height="320" transform="translate(0.753906)" fill="#F9F9FC"/>
<rect width="566.813" height="320.697" transform="translate(556.754 206.715)" fill="#F9F9FC"/>
<path opacity="0.8" d="M116.447 200.486V112.256H135.101V185.106H172.926V200.486H116.447ZM262.923 156.371C262.923 165.993 261.099 174.178 257.451 180.928C253.832 187.677 248.892 192.832 242.631 196.394C236.399 199.926 229.391 201.693 221.608 201.693C213.767 201.693 206.731 199.912 200.498 196.351C194.266 192.789 189.34 187.634 185.721 180.884C182.103 174.135 180.293 165.964 180.293 156.371C180.293 146.75 182.103 138.565 185.721 131.815C189.34 125.066 194.266 119.925 200.498 116.392C206.731 112.831 213.767 111.05 221.608 111.05C229.391 111.05 236.399 112.831 242.631 116.392C248.892 119.925 253.832 125.066 257.451 131.815C261.099 138.565 262.923 146.75 262.923 156.371ZM244.01 156.371C244.01 150.139 243.077 144.883 241.21 140.604C239.372 136.324 236.772 133.079 233.412 130.867C230.052 128.656 226.117 127.55 221.608 127.55C217.099 127.55 213.164 128.656 209.804 130.867C206.443 133.079 203.83 136.324 201.963 140.604C200.125 144.883 199.206 150.139 199.206 156.371C199.206 162.604 200.125 167.86 201.963 172.139C203.83 176.418 206.443 179.664 209.804 181.875C213.164 184.087 217.099 185.193 221.608 185.193C226.117 185.193 230.052 184.087 233.412 181.875C236.772 179.664 239.372 176.418 241.21 172.139C243.077 167.86 244.01 162.604 244.01 156.371ZM335.245 140.776C334.642 138.679 333.794 136.827 332.703 135.219C331.612 133.581 330.276 132.203 328.697 131.083C327.146 129.934 325.365 129.058 323.354 128.455C321.373 127.852 319.176 127.55 316.763 127.55C312.254 127.55 308.29 128.67 304.873 130.91C301.484 133.151 298.841 136.41 296.946 140.69C295.05 144.94 294.102 150.139 294.102 156.285C294.102 162.431 295.036 167.659 296.903 171.967C298.77 176.275 301.412 179.563 304.83 181.832C308.247 184.072 312.283 185.193 316.935 185.193C321.157 185.193 324.762 184.446 327.749 182.952C330.764 181.43 333.062 179.29 334.642 176.533C336.25 173.776 337.054 170.516 337.054 166.754L340.845 167.314H318.099V153.27H355.019V164.384C355.019 172.139 353.382 178.802 350.108 184.374C346.834 189.917 342.324 194.196 336.58 197.212C330.836 200.199 324.259 201.693 316.849 201.693C308.578 201.693 301.311 199.869 295.05 196.221C288.789 192.545 283.907 187.332 280.403 180.583C276.927 173.805 275.19 165.763 275.19 156.457C275.19 149.306 276.224 142.93 278.292 137.33C280.388 131.7 283.318 126.933 287.08 123.027C290.843 119.121 295.223 116.148 300.22 114.109C305.217 112.07 310.631 111.05 316.462 111.05C321.459 111.05 326.112 111.782 330.42 113.247C334.728 114.683 338.548 116.722 341.879 119.365C345.24 122.007 347.982 125.152 350.108 128.799C352.233 132.418 353.597 136.41 354.201 140.776H335.245ZM450.11 156.371C450.11 165.993 448.286 174.178 444.638 180.928C441.02 187.677 436.08 192.832 429.819 196.394C423.586 199.926 416.578 201.693 408.795 201.693C400.954 201.693 393.918 199.912 387.685 196.351C381.453 192.789 376.527 187.634 372.908 180.884C369.29 174.135 367.48 165.964 367.48 156.371C367.48 146.75 369.29 138.565 372.908 131.815C376.527 125.066 381.453 119.925 387.685 116.392C393.918 112.831 400.954 111.05 408.795 111.05C416.578 111.05 423.586 112.831 429.819 116.392C436.08 119.925 441.02 125.066 444.638 131.815C448.286 138.565 450.11 146.75 450.11 156.371ZM431.197 156.371C431.197 150.139 430.264 144.883 428.397 140.604C426.559 136.324 423.959 133.079 420.599 130.867C417.239 128.656 413.304 127.55 408.795 127.55C404.286 127.55 400.351 128.656 396.991 130.867C393.63 133.079 391.017 136.324 389.15 140.604C387.312 144.883 386.393 150.139 386.393 156.371C386.393 162.604 387.312 167.86 389.15 172.139C391.017 176.418 393.63 179.664 396.991 181.875C400.351 184.087 404.286 185.193 408.795 185.193C413.304 185.193 417.239 184.087 420.599 181.875C423.959 179.664 426.559 176.418 428.397 172.139C430.264 167.86 431.197 162.604 431.197 156.371Z" fill="#D2D2D2"/>
<path d="M116.851 88.1582V255.137" stroke="#C8C8C8" stroke-width="0.810896" stroke-dasharray="1.62 1.62"/>
<path d="M450.077 100.111V255.136" stroke="#C8C8C8" stroke-width="0.810896" stroke-dasharray="1.62 1.62"/>
<path d="M355.562 93.1523V248.177" stroke="#C8C8C8" stroke-width="0.810896" stroke-dasharray="1.62 1.62"/>
<path d="M108.779 201.137L458.729 201.137" stroke="#C8C8C8" stroke-width="0.810896" stroke-dasharray="1.62 1.62"/>
<path d="M108.779 111.553L458.729 111.553" stroke="#C8C8C8" stroke-width="0.810896" stroke-dasharray="1.62 1.62"/>
<path d="M117.927 225.148V214.239H122.018C122.856 214.239 123.559 214.396 124.127 214.708C124.699 215.021 125.13 215.45 125.421 215.997C125.716 216.54 125.864 217.158 125.864 217.851C125.864 218.55 125.716 219.172 125.421 219.715C125.127 220.259 124.692 220.686 124.116 220.999C123.541 221.308 122.833 221.462 121.991 221.462H119.28V219.838H121.725C122.215 219.838 122.616 219.752 122.929 219.582C123.241 219.412 123.472 219.177 123.621 218.879C123.774 218.581 123.85 218.238 123.85 217.851C123.85 217.464 123.774 217.123 123.621 216.828C123.472 216.533 123.239 216.304 122.923 216.141C122.611 215.974 122.208 215.891 121.714 215.891H119.903V225.148H117.927ZM130.947 225.308C130.148 225.308 129.455 225.132 128.869 224.781C128.283 224.429 127.829 223.937 127.506 223.305C127.186 222.673 127.026 221.935 127.026 221.089C127.026 220.244 127.186 219.504 127.506 218.868C127.829 218.233 128.283 217.739 128.869 217.387C129.455 217.036 130.148 216.86 130.947 216.86C131.746 216.86 132.438 217.036 133.024 217.387C133.61 217.739 134.063 218.233 134.382 218.868C134.706 219.504 134.867 220.244 134.867 221.089C134.867 221.935 134.706 222.673 134.382 223.305C134.063 223.937 133.61 224.429 133.024 224.781C132.438 225.132 131.746 225.308 130.947 225.308ZM130.957 223.763C131.391 223.763 131.753 223.645 132.044 223.407C132.335 223.165 132.552 222.842 132.694 222.437C132.839 222.032 132.912 221.581 132.912 221.084C132.912 220.583 132.839 220.131 132.694 219.726C132.552 219.317 132.335 218.993 132.044 218.751C131.753 218.51 131.391 218.389 130.957 218.389C130.513 218.389 130.144 218.51 129.849 218.751C129.558 218.993 129.34 219.317 129.194 219.726C129.052 220.131 128.981 220.583 128.981 221.084C128.981 221.581 129.052 222.032 129.194 222.437C129.34 222.842 129.558 223.165 129.849 223.407C130.144 223.645 130.513 223.763 130.957 223.763ZM137.958 225.148L135.646 216.967H137.612L139.05 222.719H139.124L140.595 216.967H142.539L144.009 222.688H144.089L145.506 216.967H147.477L145.16 225.148H143.151L141.617 219.619H141.505L139.971 225.148H137.958ZM152.211 225.308C151.391 225.308 150.682 225.138 150.085 224.797C149.492 224.452 149.036 223.966 148.717 223.337C148.397 222.705 148.237 221.961 148.237 221.105C148.237 220.264 148.397 219.525 148.717 218.89C149.04 218.25 149.491 217.753 150.069 217.398C150.648 217.039 151.328 216.86 152.11 216.86C152.614 216.86 153.09 216.942 153.537 217.105C153.988 217.265 154.386 217.513 154.73 217.851C155.078 218.188 155.352 218.618 155.551 219.14C155.75 219.658 155.849 220.276 155.849 220.994V221.585H149.143V220.285H154.001C153.997 219.916 153.917 219.587 153.761 219.3C153.605 219.009 153.386 218.779 153.106 218.613C152.829 218.446 152.506 218.362 152.136 218.362C151.742 218.362 151.396 218.458 151.098 218.65C150.799 218.838 150.567 219.087 150.4 219.396C150.236 219.701 150.153 220.037 150.149 220.402V221.537C150.149 222.013 150.236 222.421 150.41 222.762C150.584 223.099 150.828 223.359 151.14 223.54C151.453 223.717 151.818 223.806 152.237 223.806C152.518 223.806 152.772 223.767 152.999 223.689C153.226 223.607 153.424 223.488 153.59 223.332C153.757 223.176 153.883 222.982 153.969 222.751L155.769 222.954C155.655 223.43 155.439 223.845 155.119 224.2C154.803 224.552 154.398 224.825 153.905 225.021C153.411 225.212 152.846 225.308 152.211 225.308ZM157.48 225.148V216.967H159.35V218.33H159.435C159.584 217.858 159.84 217.494 160.202 217.238C160.568 216.979 160.985 216.849 161.454 216.849C161.561 216.849 161.679 216.855 161.811 216.865C161.946 216.873 162.058 216.885 162.146 216.903V218.676C162.065 218.648 161.935 218.623 161.758 218.602C161.584 218.577 161.415 218.565 161.252 218.565C160.9 218.565 160.584 218.641 160.303 218.794C160.026 218.943 159.808 219.151 159.648 219.417C159.488 219.683 159.409 219.99 159.409 220.338V225.148H157.48ZM166.713 225.308C165.892 225.308 165.184 225.138 164.587 224.797C163.994 224.452 163.538 223.966 163.218 223.337C162.899 222.705 162.739 221.961 162.739 221.105C162.739 220.264 162.899 219.525 163.218 218.89C163.542 218.25 163.993 217.753 164.571 217.398C165.15 217.039 165.83 216.86 166.612 216.86C167.116 216.86 167.592 216.942 168.039 217.105C168.49 217.265 168.888 217.513 169.232 217.851C169.58 218.188 169.854 218.618 170.053 219.14C170.251 219.658 170.351 220.276 170.351 220.994V221.585H163.645V220.285H168.503C168.499 219.916 168.419 219.587 168.263 219.3C168.107 219.009 167.888 218.779 167.608 218.613C167.331 218.446 167.008 218.362 166.638 218.362C166.244 218.362 165.898 218.458 165.599 218.65C165.301 218.838 165.069 219.087 164.902 219.396C164.738 219.701 164.655 220.037 164.651 220.402V221.537C164.651 222.013 164.738 222.421 164.912 222.762C165.086 223.099 165.33 223.359 165.642 223.54C165.955 223.717 166.32 223.806 166.739 223.806C167.02 223.806 167.274 223.767 167.501 223.689C167.728 223.607 167.925 223.488 168.092 223.332C168.259 223.176 168.385 222.982 168.471 222.751L170.271 222.954C170.157 223.43 169.941 223.845 169.621 224.2C169.305 224.552 168.9 224.825 168.407 225.021C167.913 225.212 167.348 225.308 166.713 225.308ZM175.018 225.292C174.376 225.292 173.8 225.127 173.293 224.797C172.785 224.467 172.384 223.987 172.089 223.359C171.794 222.73 171.647 221.967 171.647 221.068C171.647 220.159 171.796 219.392 172.094 218.767C172.396 218.138 172.803 217.664 173.314 217.345C173.825 217.022 174.395 216.86 175.024 216.86C175.503 216.86 175.897 216.942 176.206 217.105C176.515 217.265 176.76 217.458 176.941 217.686C177.122 217.909 177.263 218.121 177.362 218.32H177.442V214.239H179.376V225.148H177.479V223.859H177.362C177.263 224.058 177.119 224.27 176.931 224.493C176.743 224.713 176.494 224.902 176.185 225.058C175.876 225.214 175.487 225.292 175.018 225.292ZM175.556 223.71C175.965 223.71 176.313 223.6 176.6 223.38C176.888 223.156 177.107 222.846 177.256 222.448C177.405 222.05 177.479 221.587 177.479 221.058C177.479 220.528 177.405 220.069 177.256 219.678C177.11 219.287 176.893 218.984 176.606 218.767C176.322 218.55 175.972 218.442 175.556 218.442C175.127 218.442 174.768 218.554 174.48 218.778C174.193 219.001 173.976 219.31 173.831 219.705C173.685 220.099 173.612 220.55 173.612 221.058C173.612 221.569 173.685 222.025 173.831 222.426C173.98 222.824 174.198 223.138 174.486 223.369C174.777 223.597 175.134 223.71 175.556 223.71ZM185.236 225.148V214.239H187.165V218.32H187.245C187.344 218.121 187.484 217.909 187.665 217.686C187.846 217.458 188.092 217.265 188.4 217.105C188.709 216.942 189.104 216.86 189.583 216.86C190.215 216.86 190.785 217.022 191.293 217.345C191.804 217.664 192.209 218.138 192.507 218.767C192.809 219.392 192.96 220.159 192.96 221.068C192.96 221.967 192.813 222.73 192.518 223.359C192.223 223.987 191.822 224.467 191.314 224.797C190.806 225.127 190.231 225.292 189.588 225.292C189.12 225.292 188.731 225.214 188.422 225.058C188.113 224.902 187.864 224.713 187.676 224.493C187.491 224.27 187.348 224.058 187.245 223.859H187.133V225.148H185.236ZM187.127 221.058C187.127 221.587 187.202 222.05 187.351 222.448C187.504 222.846 187.722 223.156 188.006 223.38C188.294 223.6 188.642 223.71 189.05 223.71C189.476 223.71 189.833 223.597 190.121 223.369C190.409 223.138 190.625 222.824 190.771 222.426C190.92 222.025 190.995 221.569 190.995 221.058C190.995 220.55 190.922 220.099 190.776 219.705C190.631 219.31 190.414 219.001 190.126 218.778C189.839 218.554 189.48 218.442 189.05 218.442C188.638 218.442 188.289 218.55 188.001 218.767C187.713 218.984 187.495 219.287 187.346 219.678C187.2 220.069 187.127 220.528 187.127 221.058ZM195.52 228.217C195.257 228.217 195.014 228.195 194.79 228.153C194.57 228.114 194.394 228.067 194.262 228.014L194.71 226.512C194.99 226.594 195.241 226.633 195.461 226.629C195.681 226.626 195.875 226.556 196.042 226.422C196.212 226.29 196.356 226.07 196.473 225.761L196.638 225.319L193.671 216.967H195.717L197.602 223.146H197.688L199.579 216.967H201.629L198.353 226.139C198.201 226.572 197.998 226.944 197.746 227.252C197.494 227.565 197.185 227.803 196.819 227.966C196.457 228.133 196.024 228.217 195.52 228.217Z" fill="black"/>
<path d="M286.258 224.828C283.643 222.774 280.745 221.176 277.631 220.066C280.742 218.96 283.64 217.368 286.258 215.32C286.674 214.993 286.94 214.489 286.94 213.925C286.94 212.945 286.148 212.152 285.168 212.152C284.756 212.152 284.378 212.295 284.077 212.53C281.477 214.562 278.567 216.09 275.428 217.07C273.18 217.771 270.856 218.167 268.506 218.268V213.925C268.506 212.945 267.714 212.152 266.734 212.152C265.754 212.152 264.962 212.945 264.962 213.925V226.22C264.962 227.2 265.754 227.993 266.734 227.993C267.714 227.993 268.506 227.2 268.506 226.22V221.861C270.856 221.959 273.18 222.358 275.425 223.059C278.567 224.042 281.474 225.573 284.074 227.612C284.375 227.847 284.756 227.989 285.168 227.989C286.148 227.989 286.94 227.197 286.94 226.217C286.94 225.653 286.674 225.149 286.262 224.825L286.258 224.828Z" fill="#00C3B4"/>
<path d="M238.617 212.152H214.758C213.779 212.152 212.986 212.945 212.986 213.925C212.986 214.904 213.779 215.697 214.758 215.697H224.914V226.22C224.914 227.2 225.706 227.993 226.686 227.993C227.666 227.993 228.459 227.2 228.459 226.22V215.697H238.614C239.594 215.697 240.386 214.904 240.386 213.925C240.386 212.945 239.594 212.152 238.614 212.152H238.617Z" fill="#00C3B4"/>
<path d="M355.562 213.924C355.562 212.945 354.77 212.152 353.79 212.152C352.81 212.152 352.018 212.945 352.018 213.924V222.986C352.018 223.109 351.986 223.233 351.922 223.344C351.723 223.686 351.285 223.804 350.943 223.607L331.837 212.583C330.29 211.689 328.311 212.218 327.417 213.766C327.122 214.276 326.983 214.834 326.983 215.383V226.217C326.983 227.196 327.775 227.989 328.755 227.989C329.735 227.989 330.527 227.196 330.527 226.217V217.155C330.527 217.035 330.559 216.908 330.622 216.797C330.822 216.454 331.26 216.337 331.602 216.534L350.708 227.555C352.255 228.449 354.234 227.919 355.128 226.372C355.423 225.862 355.562 225.303 355.562 224.755V213.921V213.924Z" fill="#00C3B4"/>
<path d="M317.18 212.152H303.531C299.409 212.152 296.067 215.494 296.067 219.616V220.529C296.067 224.651 299.409 227.993 303.531 227.993H317.18C321.302 227.993 324.644 224.651 324.644 220.529V219.616C324.644 215.494 321.302 212.152 317.18 212.152ZM321.15 220.504C321.15 222.682 319.384 224.448 317.205 224.448H303.556C301.378 224.448 299.612 222.682 299.612 220.504V219.641C299.612 217.463 301.378 215.697 303.556 215.697H317.205C319.384 215.697 321.15 217.463 321.15 219.641V220.504Z" fill="#00C3B4"/>
<path d="M250.052 221.848C249.072 221.848 248.28 221.055 248.28 220.076C248.28 219.096 249.072 218.303 250.052 218.303H259.862C260.842 218.303 261.634 219.096 261.634 220.076C261.634 221.055 260.842 221.848 259.862 221.848H250.052ZM261.102 212.152C262.081 212.152 262.874 212.945 262.874 213.925C262.874 214.904 262.081 215.697 261.102 215.697H249.234C247.056 215.697 245.29 217.463 245.29 219.641V220.504C245.29 222.682 247.056 224.448 249.234 224.448H261.102C262.081 224.448 262.874 225.241 262.874 226.22C262.874 227.2 262.081 227.993 261.102 227.993H249.212C245.09 227.993 241.748 224.651 241.748 220.529V219.616C241.748 215.494 245.09 212.152 249.212 212.152H261.102Z" fill="#00C3B4"/>
<path d="M289.989 226.22C289.989 227.2 290.781 227.993 291.761 227.993C292.741 227.993 293.533 227.2 293.533 226.22V213.925C293.533 212.945 292.741 212.152 291.761 212.152C290.781 212.152 289.989 212.945 289.989 213.925V226.22Z" fill="#00C3B4"/>
<path d="M114.338 96.1582L123.088 101.21V91.1064L114.338 96.1582ZM357.369 96.1582L348.619 91.1064V101.21L357.369 96.1582ZM123.451 97.0332H129.527V95.2832H123.451V97.0332ZM135.603 97.0332H141.679V95.2832H135.603V97.0332ZM147.754 97.0332H153.83V95.2832H147.754V97.0332ZM159.906 97.0332H165.982V95.2832H159.906V97.0332ZM172.058 97.0332H178.133V95.2832H172.058V97.0332ZM184.209 97.0332H190.285V95.2832H184.209V97.0332ZM196.361 97.0332H202.437V95.2832H196.361V97.0332ZM208.512 97.0332H214.588V95.2832H208.512V97.0332ZM220.664 97.0332H226.74V95.2832H220.664V97.0332ZM232.816 97.0332H238.891V95.2832H232.816V97.0332ZM244.967 97.0332H251.043V95.2832H244.967V97.0332ZM257.119 97.0332H263.194V95.2832H257.119V97.0332ZM269.27 97.0332H275.346V95.2832H269.27V97.0332ZM281.422 97.0332H287.498V95.2832H281.422V97.0332ZM293.573 97.0332H299.649V95.2832H293.573V97.0332ZM305.725 97.0332H311.801V95.2832H305.725V97.0332ZM317.877 97.0332H323.952V95.2832H317.877V97.0332ZM330.028 97.0332H336.104V95.2832H330.028V97.0332ZM342.18 97.0332H348.256V95.2832H342.18V97.0332Z" fill="#E9717A"/>
<path d="M231.171 83.6823C230.508 83.6823 229.925 83.5517 229.421 83.2903C228.926 83.029 228.534 82.6697 228.245 82.2123C227.955 81.755 227.769 81.237 227.685 80.6583H228.749C228.842 81.3023 229.094 81.8203 229.505 82.2123C229.925 82.595 230.485 82.7863 231.185 82.7863C231.623 82.7863 232.011 82.707 232.347 82.5483C232.683 82.3803 232.939 82.147 233.117 81.8483C233.303 81.5497 233.397 81.2043 233.397 80.8123C233.397 80.4297 233.313 80.089 233.145 79.7903C232.977 79.4917 232.734 79.263 232.417 79.1043C232.099 78.9363 231.726 78.8523 231.297 78.8523H229.659V77.9003H231.213C231.633 77.9003 231.983 77.8303 232.263 77.6903C232.552 77.541 232.767 77.3357 232.907 77.0743C233.047 76.8037 233.117 76.491 233.117 76.1363C233.117 75.8003 233.028 75.5017 232.851 75.2403C232.673 74.9697 232.426 74.7597 232.109 74.6103C231.791 74.461 231.423 74.3863 231.003 74.3863C230.359 74.3863 229.855 74.559 229.491 74.9043C229.136 75.2497 228.935 75.735 228.889 76.3603H227.825C227.853 75.7723 228.007 75.2637 228.287 74.8343C228.576 74.3957 228.954 74.0643 229.421 73.8403C229.897 73.607 230.424 73.4903 231.003 73.4903C231.619 73.4903 232.169 73.6023 232.655 73.8263C233.14 74.0503 233.518 74.3677 233.789 74.7783C234.059 75.1797 234.195 75.6417 234.195 76.1643C234.195 76.687 234.045 77.149 233.747 77.5503C233.457 77.9517 233.103 78.227 232.683 78.3763C233.224 78.5163 233.658 78.8057 233.985 79.2443C234.311 79.683 234.475 80.2057 234.475 80.8123C234.475 81.3443 234.339 81.8297 234.069 82.2683C233.798 82.6977 233.411 83.043 232.907 83.3043C232.403 83.5563 231.824 83.6823 231.171 83.6823ZM241.035 72.7063L236.751 85.7263H235.757L240.041 72.7063H241.035ZM241.532 80.0983L246.236 73.6863H247.412V80.0843H248.854V80.9663H247.412V83.4863H246.418V80.9663H241.532V80.0983ZM246.418 80.0843V74.8483L242.652 80.0843H246.418Z" fill="#0E131F"/>
</g>
<defs>
<clipPath id="clip0_1908_2729">
<rect width="566" height="320" fill="white" transform="translate(0.753906)"/>
</clipPath>
</defs>
</svg>
