<svg width="566" height="320" viewBox="0 0 566 320" fill="none" xmlns="http://www.w3.org/2000/svg">
<rect width="566" height="320" fill="#F9F9FC"/>
<path d="M141.462 190.549L386.273 190.549" stroke="#C8C8C8" stroke-width="0.810896" stroke-dasharray="1.62 1.62"/>
<path d="M141.333 129.125L386.144 129.125" stroke="#C8C8C8" stroke-width="0.810896" stroke-dasharray="1.62 1.62"/>
<path d="M221.813 132.286H230.977C232.505 132.286 233.829 132.557 234.95 133.098C236.072 133.639 236.932 134.393 237.531 135.36C238.131 136.307 238.43 137.39 238.43 138.608C238.43 139.826 238.121 140.928 237.502 141.914C236.884 142.881 236.014 143.635 234.892 144.176C233.771 144.717 232.466 144.988 230.977 144.988H225.873V152.586H221.813V132.286ZM230.571 141.595C231.364 141.595 232.041 141.469 232.601 141.218C233.181 140.967 233.616 140.619 233.906 140.174C234.216 139.71 234.37 139.178 234.37 138.579C234.37 137.999 234.216 137.496 233.906 137.071C233.616 136.626 233.181 136.278 232.601 136.027C232.041 135.776 231.364 135.65 230.571 135.65H225.873V141.595H230.571ZM241.263 137.506H245.062V140.899C245.294 139.797 245.758 138.927 246.454 138.289C247.15 137.651 248.078 137.332 249.238 137.332C249.76 137.332 250.147 137.371 250.398 137.448V141.218C250.205 141.199 249.886 141.189 249.441 141.189C248.552 141.189 247.788 141.373 247.15 141.74C246.532 142.107 246.058 142.639 245.729 143.335C245.401 144.031 245.236 144.882 245.236 145.887V152.586H241.263V137.506ZM259.464 152.934C257.975 152.934 256.641 152.586 255.462 151.89C254.282 151.194 253.364 150.247 252.707 149.048C252.049 147.83 251.721 146.496 251.721 145.046C251.721 143.596 252.049 142.272 252.707 141.073C253.364 139.855 254.282 138.898 255.462 138.202C256.641 137.506 257.975 137.158 259.464 137.158C260.952 137.158 262.286 137.506 263.466 138.202C264.645 138.898 265.563 139.855 266.221 141.073C266.878 142.272 267.207 143.596 267.207 145.046C267.207 146.496 266.878 147.83 266.221 149.048C265.563 150.247 264.645 151.194 263.466 151.89C262.286 152.586 260.952 152.934 259.464 152.934ZM259.464 149.657C260.237 149.657 260.914 149.435 261.494 148.99C262.074 148.545 262.518 147.975 262.828 147.279C263.137 146.583 263.292 145.839 263.292 145.046C263.292 144.253 263.137 143.509 262.828 142.813C262.518 142.117 262.074 141.556 261.494 141.131C260.914 140.686 260.237 140.464 259.464 140.464C258.69 140.464 258.014 140.686 257.434 141.131C256.854 141.556 256.409 142.117 256.1 142.813C255.79 143.509 255.636 144.253 255.636 145.046C255.636 145.839 255.79 146.583 256.1 147.279C256.409 147.975 256.854 148.545 257.434 148.99C258.014 149.435 258.69 149.657 259.464 149.657ZM269.166 144.553C269.166 143.122 269.446 141.846 270.007 140.725C270.587 139.604 271.38 138.734 272.385 138.115C273.41 137.477 274.57 137.158 275.865 137.158C276.6 137.158 277.267 137.274 277.866 137.506C278.485 137.719 279.007 138.028 279.432 138.434C279.857 138.84 280.176 139.304 280.389 139.826V137.506H284.275V151.745C284.275 153.137 283.975 154.316 283.376 155.283C282.777 156.269 281.926 157.013 280.824 157.516C279.722 158.019 278.436 158.27 276.967 158.27C274.937 158.27 273.255 157.806 271.921 156.878C270.606 155.969 269.794 154.713 269.485 153.108H273.516C273.69 153.765 274.067 154.287 274.647 154.674C275.227 155.08 275.962 155.283 276.851 155.283C278.069 155.283 278.949 154.954 279.49 154.297C280.031 153.64 280.302 152.625 280.302 151.252V149.193C280.128 149.696 279.828 150.16 279.403 150.585C278.997 150.991 278.485 151.32 277.866 151.571C277.247 151.803 276.58 151.919 275.865 151.919C274.57 151.919 273.41 151.61 272.385 150.991C271.38 150.353 270.587 149.473 270.007 148.352C269.446 147.231 269.166 145.964 269.166 144.553ZM273.052 144.553C273.052 145.365 273.197 146.1 273.487 146.757C273.796 147.395 274.222 147.907 274.763 148.294C275.324 148.661 275.981 148.845 276.735 148.845C277.431 148.845 278.05 148.671 278.591 148.323C279.132 147.956 279.548 147.453 279.838 146.815C280.147 146.158 280.302 145.404 280.302 144.553C280.302 143.702 280.147 142.958 279.838 142.32C279.529 141.663 279.103 141.16 278.562 140.812C278.021 140.445 277.412 140.261 276.735 140.261C275.981 140.261 275.324 140.445 274.763 140.812C274.222 141.179 273.796 141.692 273.487 142.349C273.197 142.987 273.052 143.722 273.052 144.553ZM288.048 137.506H291.847V140.899C292.079 139.797 292.543 138.927 293.239 138.289C293.935 137.651 294.863 137.332 296.023 137.332C296.545 137.332 296.932 137.371 297.183 137.448V141.218C296.99 141.199 296.671 141.189 296.226 141.189C295.337 141.189 294.573 141.373 293.935 141.74C293.317 142.107 292.843 142.639 292.514 143.335C292.186 144.031 292.021 144.882 292.021 145.887V152.586H288.048V137.506ZM298.772 148.207C298.772 146.738 299.275 145.616 300.28 144.843C301.286 144.05 302.774 143.577 304.746 143.422L308.4 143.132V142.581C308.4 141.808 308.178 141.208 307.733 140.783C307.308 140.338 306.67 140.116 305.819 140.116C305.046 140.116 304.418 140.309 303.934 140.696C303.451 141.083 303.161 141.576 303.064 142.175H299.294C299.526 140.667 300.232 139.459 301.411 138.55C302.591 137.622 304.06 137.158 305.819 137.158C307.907 137.158 309.512 137.67 310.633 138.695C311.774 139.72 312.344 141.102 312.344 142.842V152.586H308.516V150.527C308.207 151.223 307.646 151.803 306.834 152.267C306.042 152.712 305.104 152.934 304.021 152.934C302.436 152.934 301.16 152.509 300.193 151.658C299.246 150.788 298.772 149.638 298.772 148.207ZM302.6 148.091C302.6 148.748 302.813 149.27 303.238 149.657C303.683 150.044 304.302 150.237 305.094 150.237C305.771 150.237 306.351 150.102 306.834 149.831C307.337 149.56 307.724 149.164 307.994 148.642C308.265 148.12 308.4 147.501 308.4 146.786V145.771L305.529 146.003C304.563 146.08 303.828 146.283 303.325 146.612C302.842 146.921 302.6 147.414 302.6 148.091ZM315.972 137.506H319.8V139.884C320.167 139.014 320.699 138.347 321.395 137.883C322.091 137.4 322.99 137.158 324.092 137.158C325.213 137.158 326.141 137.39 326.876 137.854C327.63 138.299 328.21 138.946 328.616 139.797C329.099 138.946 329.718 138.299 330.472 137.854C331.245 137.39 332.212 137.158 333.372 137.158C335.093 137.158 336.407 137.69 337.316 138.753C338.225 139.816 338.679 141.286 338.679 143.161V152.586H334.706V143.77C334.706 142.784 334.484 142.02 334.039 141.479C333.594 140.918 332.937 140.638 332.067 140.638C331.468 140.638 330.955 140.764 330.53 141.015C330.124 141.266 329.815 141.634 329.602 142.117C329.409 142.6 329.312 143.18 329.312 143.857V152.586H325.339V143.77C325.339 142.784 325.117 142.02 324.672 141.479C324.247 140.918 323.589 140.638 322.7 140.638C321.811 140.638 321.124 140.918 320.641 141.479C320.177 142.02 319.945 142.813 319.945 143.857V152.586H315.972V137.506ZM348.484 137.506H352.312V139.826C352.66 138.975 353.192 138.318 353.907 137.854C354.642 137.39 355.56 137.158 356.662 137.158C358.402 137.158 359.736 137.719 360.664 138.84C361.592 139.942 362.056 141.45 362.056 143.364V152.586H358.083V143.886C358.083 142.881 357.861 142.078 357.416 141.479C356.971 140.88 356.295 140.58 355.386 140.58C354.787 140.58 354.265 140.715 353.82 140.986C353.375 141.257 353.037 141.643 352.805 142.146C352.573 142.629 352.457 143.209 352.457 143.886V152.586H348.484V137.506ZM365.297 148.207C365.297 146.738 365.799 145.616 366.805 144.843C367.81 144.05 369.299 143.577 371.271 143.422L374.925 143.132V142.581C374.925 141.808 374.702 141.208 374.258 140.783C373.832 140.338 373.194 140.116 372.344 140.116C371.57 140.116 370.942 140.309 370.459 140.696C369.975 141.083 369.685 141.576 369.589 142.175H365.819C366.051 140.667 366.756 139.459 367.936 138.55C369.115 137.622 370.584 137.158 372.344 137.158C374.432 137.158 376.036 137.67 377.158 138.695C378.298 139.72 378.869 141.102 378.869 142.842V152.586H375.041V150.527C374.731 151.223 374.171 151.803 373.359 152.267C372.566 152.712 371.628 152.934 370.546 152.934C368.96 152.934 367.684 152.509 366.718 151.658C365.77 150.788 365.297 149.638 365.297 148.207ZM369.125 148.091C369.125 148.748 369.337 149.27 369.763 149.657C370.207 150.044 370.826 150.237 371.619 150.237C372.295 150.237 372.875 150.102 373.359 149.831C373.861 149.56 374.248 149.164 374.519 148.642C374.789 148.12 374.925 147.501 374.925 146.786V145.771L372.054 146.003C371.087 146.08 370.352 146.283 369.85 146.612C369.366 146.921 369.125 147.414 369.125 148.091ZM382.497 137.506H386.325V139.884C386.692 139.014 387.224 138.347 387.92 137.883C388.616 137.4 389.515 137.158 390.617 137.158C391.738 137.158 392.666 137.39 393.401 137.854C394.155 138.299 394.735 138.946 395.141 139.797C395.624 138.946 396.243 138.299 396.997 137.854C397.77 137.39 398.737 137.158 399.897 137.158C401.617 137.158 402.932 137.69 403.841 138.753C404.749 139.816 405.204 141.286 405.204 143.161V152.586H401.231V143.77C401.231 142.784 401.008 142.02 400.564 141.479C400.119 140.918 399.462 140.638 398.592 140.638C397.992 140.638 397.48 140.764 397.055 141.015C396.649 141.266 396.339 141.634 396.127 142.117C395.933 142.6 395.837 143.18 395.837 143.857V152.586H391.864V143.77C391.864 142.784 391.641 142.02 391.197 141.479C390.771 140.918 390.114 140.638 389.225 140.638C388.335 140.638 387.649 140.918 387.166 141.479C386.702 142.02 386.47 142.813 386.47 143.857V152.586H382.497V137.506ZM407.935 145.046C407.935 143.577 408.254 142.243 408.892 141.044C409.53 139.845 410.42 138.898 411.56 138.202C412.701 137.506 413.987 137.158 415.417 137.158C416.964 137.158 418.279 137.496 419.361 138.173C420.463 138.85 421.295 139.778 421.855 140.957C422.416 142.136 422.696 143.47 422.696 144.959V145.916H411.734C411.792 146.67 411.976 147.356 412.285 147.975C412.595 148.574 413.03 149.048 413.59 149.396C414.151 149.725 414.808 149.889 415.562 149.889C416.432 149.889 417.138 149.715 417.679 149.367C418.221 149 418.627 148.507 418.897 147.888H422.493C422.261 148.874 421.817 149.754 421.159 150.527C420.521 151.281 419.719 151.871 418.752 152.296C417.805 152.721 416.751 152.934 415.591 152.934C414.025 152.934 412.662 152.596 411.502 151.919C410.342 151.223 409.453 150.276 408.834 149.077C408.235 147.878 407.935 146.535 407.935 145.046ZM418.897 143.161C418.801 142.523 418.598 141.972 418.288 141.508C417.998 141.025 417.602 140.648 417.099 140.377C416.616 140.106 416.055 139.971 415.417 139.971C414.779 139.971 414.209 140.106 413.706 140.377C413.223 140.648 412.817 141.025 412.488 141.508C412.179 141.991 411.966 142.542 411.85 143.161H418.897ZM227.033 170.824H220.595V167.286H237.502V170.824H231.093V187.586H227.033V170.824ZM242.061 172.506L244.294 182.54L247.571 172.506H251.283L254.56 182.54L256.793 172.506H260.766L256.445 187.586H252.907L249.427 176.798L245.947 187.586H242.409L238.088 172.506H242.061ZM269.829 187.934C268.34 187.934 267.006 187.586 265.827 186.89C264.648 186.194 263.729 185.247 263.072 184.048C262.415 182.83 262.086 181.496 262.086 180.046C262.086 178.596 262.415 177.272 263.072 176.073C263.729 174.855 264.648 173.898 265.827 173.202C267.006 172.506 268.34 172.158 269.829 172.158C271.318 172.158 272.652 172.506 273.831 173.202C275.01 173.898 275.929 174.855 276.586 176.073C277.243 177.272 277.572 178.596 277.572 180.046C277.572 181.496 277.243 182.83 276.586 184.048C275.929 185.247 275.01 186.194 273.831 186.89C272.652 187.586 271.318 187.934 269.829 187.934ZM269.829 184.657C270.602 184.657 271.279 184.435 271.859 183.99C272.439 183.545 272.884 182.975 273.193 182.279C273.502 181.583 273.657 180.839 273.657 180.046C273.657 179.253 273.502 178.509 273.193 177.813C272.884 177.117 272.439 176.556 271.859 176.131C271.279 175.686 270.602 175.464 269.829 175.464C269.056 175.464 268.379 175.686 267.799 176.131C267.219 176.556 266.774 177.117 266.465 177.813C266.156 178.509 266.001 179.253 266.001 180.046C266.001 180.839 266.156 181.583 266.465 182.279C266.774 182.975 267.219 183.545 267.799 183.99C268.379 184.435 269.056 184.657 269.829 184.657ZM286.749 166.416H290.722V187.586H286.749V166.416ZM294.792 172.506H298.765V187.586H294.792V172.506ZM294.763 166.59H298.794V170.418H294.763V166.59ZM302.69 172.506H306.518V174.826C306.866 173.975 307.398 173.318 308.113 172.854C308.848 172.39 309.766 172.158 310.868 172.158C312.608 172.158 313.942 172.719 314.87 173.84C315.798 174.942 316.262 176.45 316.262 178.364V187.586H312.289V178.886C312.289 177.881 312.067 177.078 311.622 176.479C311.177 175.88 310.501 175.58 309.592 175.58C308.993 175.58 308.471 175.715 308.026 175.986C307.581 176.257 307.243 176.643 307.011 177.146C306.779 177.629 306.663 178.209 306.663 178.886V187.586H302.69V172.506ZM318.981 180.046C318.981 178.577 319.3 177.243 319.938 176.044C320.576 174.845 321.466 173.898 322.606 173.202C323.747 172.506 325.033 172.158 326.463 172.158C328.01 172.158 329.325 172.496 330.407 173.173C331.509 173.85 332.341 174.778 332.901 175.957C333.462 177.136 333.742 178.47 333.742 179.959V180.916H322.78C322.838 181.67 323.022 182.356 323.331 182.975C323.641 183.574 324.076 184.048 324.636 184.396C325.197 184.725 325.854 184.889 326.608 184.889C327.478 184.889 328.184 184.715 328.725 184.367C329.267 184 329.673 183.507 329.943 182.888H333.539C333.307 183.874 332.863 184.754 332.205 185.527C331.567 186.281 330.765 186.871 329.798 187.296C328.851 187.721 327.797 187.934 326.637 187.934C325.071 187.934 323.708 187.596 322.548 186.919C321.388 186.223 320.499 185.276 319.88 184.077C319.281 182.878 318.981 181.535 318.981 180.046ZM329.943 178.161C329.847 177.523 329.644 176.972 329.334 176.508C329.044 176.025 328.648 175.648 328.145 175.377C327.662 175.106 327.101 174.971 326.463 174.971C325.825 174.971 325.255 175.106 324.752 175.377C324.269 175.648 323.863 176.025 323.534 176.508C323.225 176.991 323.012 177.542 322.896 178.161H329.943ZM342.59 187.934C340.657 187.934 339.081 187.48 337.863 186.571C336.645 185.643 335.92 184.357 335.688 182.714H339.313C339.468 183.468 339.816 184.067 340.357 184.512C340.918 184.957 341.662 185.179 342.59 185.179C343.46 185.179 344.147 185.005 344.649 184.657C345.152 184.29 345.403 183.816 345.403 183.236C345.403 182.791 345.249 182.434 344.939 182.163C344.63 181.892 344.118 181.699 343.402 181.583L340.154 181.032C338.743 180.8 337.689 180.355 336.993 179.698C336.297 179.021 335.949 178.084 335.949 176.885C335.949 175.957 336.21 175.145 336.732 174.449C337.254 173.734 337.989 173.173 338.936 172.767C339.884 172.361 340.966 172.158 342.184 172.158C344.04 172.158 345.529 172.593 346.65 173.463C347.772 174.314 348.4 175.493 348.535 177.001H344.91C344.814 176.363 344.533 175.86 344.069 175.493C343.625 175.126 342.996 174.942 342.184 174.942C341.372 174.942 340.725 175.087 340.241 175.377C339.777 175.648 339.545 176.044 339.545 176.566C339.545 176.972 339.681 177.272 339.951 177.465C340.222 177.639 340.667 177.784 341.285 177.9L344.562 178.422C346.07 178.654 347.192 179.137 347.926 179.872C348.661 180.587 349.028 181.573 349.028 182.83C349.028 183.855 348.748 184.754 348.187 185.527C347.627 186.3 346.853 186.9 345.867 187.325C344.901 187.731 343.808 187.934 342.59 187.934Z" fill="#0E131F"/>
<path d="M145.05 104.834V204.263" stroke="#C8C8C8" stroke-width="0.810896" stroke-dasharray="1.62 1.62"/>
<path d="M206.474 104.6V204.028" stroke="#C8C8C8" stroke-width="0.810896" stroke-dasharray="1.62 1.62"/>
<g clip-path="url(#clip0_1908_3055)">
<rect width="61.4238" height="61.4238" transform="translate(145.05 129.125)" fill="#00C3B4"/>
<path fill-rule="evenodd" clip-rule="evenodd" d="M189.993 152.707C191.145 152.707 192.078 153.647 192.078 154.807C192.078 155.965 191.145 156.906 189.993 156.906H178.088V169.334C178.088 170.494 177.154 171.434 176.003 171.434C174.852 171.434 173.918 170.494 173.918 169.334V156.906H162.013C160.862 156.906 159.928 155.965 159.928 154.807C159.928 153.647 160.862 152.707 162.013 152.707H189.993Z" fill="#F9F9FC"/>
</g>
<rect x="206.474" y="147.197" width="15.36" height="12" fill="#DD4545"/>
<path d="M206.474 121.816L201.474 118.93V124.703L206.474 121.816ZM145.018 121.816L150.018 124.703V118.93L145.018 121.816ZM197.256 121.316H191.11V122.316H197.256V121.316ZM184.965 121.316H178.819V122.316H184.965V121.316ZM172.673 121.316H166.528V122.316H172.673V121.316ZM160.382 121.316H154.237V122.316H160.382V121.316Z" fill="#E9717A"/>
<path d="M221.839 185.816L216.839 182.93V188.703L221.839 185.816ZM206.474 185.816L211.474 188.703V182.93L206.474 185.816Z" fill="#E9717A"/>
<path d="M174.422 100.928L170.774 95.4562H173.318L175.75 99.1682L178.166 95.4562H180.726L177.078 100.928L180.902 106.656H178.31L175.75 102.704L173.174 106.656H170.598L174.422 100.928Z" fill="#E9717A"/>
<path d="M201.281 213.624L198.689 215.128V212.936L201.649 211.144H203.489V222.344H201.281V213.624ZM212.131 210.024L207.235 224.904H205.107L209.987 210.024H212.131ZM212.27 218.12L217.198 211.144H219.662V218.072H221.166V219.864H219.662V222.344H217.582V219.864H212.27V218.12ZM217.582 218.072V213.448L214.43 218.072H217.582ZM225.978 216.616L222.33 211.144H224.874L227.306 214.856L229.722 211.144H232.282L228.634 216.616L232.458 222.344H229.866L227.306 218.392L224.73 222.344H222.154L225.978 216.616Z" fill="#E9717A"/>
<defs>
<clipPath id="clip0_1908_3055">
<rect width="61.4238" height="61.4238" fill="white" transform="translate(145.05 129.125)"/>
</clipPath>
</defs>
</svg>
