<svg width="566" height="320" viewBox="0 0 566 320" fill="none" xmlns="http://www.w3.org/2000/svg">
<rect width="566" height="320" fill="#F9F9FC"/>
<path d="M288.219 164.641C284.183 161.47 279.711 159.004 274.907 157.292C279.706 155.585 284.178 153.128 288.219 149.968C288.86 149.464 289.271 148.686 289.271 147.815C289.271 146.303 288.048 145.08 286.536 145.08C285.9 145.08 285.318 145.3 284.853 145.662C280.842 148.798 276.35 151.157 271.507 152.669C268.038 153.75 264.452 154.361 260.827 154.518V147.815C260.827 146.303 259.604 145.08 258.092 145.08C256.581 145.08 255.357 146.303 255.357 147.815V166.789C255.357 168.3 256.581 169.524 258.092 169.524C259.604 169.524 260.827 168.3 260.827 166.789V160.061C264.452 160.213 268.038 160.829 271.502 161.911C276.35 163.427 280.837 165.791 284.848 168.937C285.313 169.299 285.9 169.519 286.536 169.519C288.048 169.519 289.271 168.296 289.271 166.784C289.271 165.913 288.86 165.135 288.224 164.636L288.219 164.641Z" fill="#00C3B4"/>
<path d="M214.707 145.082H177.893C176.381 145.082 175.158 146.305 175.158 147.817C175.158 149.329 176.381 150.552 177.893 150.552H193.563V166.791C193.563 168.302 194.786 169.526 196.298 169.526C197.809 169.526 199.032 168.302 199.032 166.791V150.552H214.703C216.214 150.552 217.437 149.329 217.437 147.817C217.437 146.305 216.214 145.082 214.703 145.082H214.707Z" fill="#00C3B4"/>
<path d="M395.158 147.818C395.158 146.307 393.935 145.083 392.423 145.083C390.911 145.083 389.688 146.307 389.688 147.818V161.802C389.688 161.992 389.639 162.183 389.542 162.354C389.233 162.883 388.558 163.064 388.03 162.761L358.549 145.749C356.161 144.369 353.108 145.186 351.729 147.574C351.274 148.362 351.059 149.223 351.059 150.069V166.787C351.059 168.299 352.282 169.522 353.793 169.522C355.305 169.522 356.528 168.299 356.528 166.787V152.804C356.528 152.618 356.577 152.422 356.675 152.251C356.983 151.723 357.658 151.542 358.187 151.845L387.668 168.852C390.055 170.232 393.108 169.414 394.488 167.027C394.943 166.239 395.158 165.378 395.158 164.532V147.814V147.818Z" fill="#00C3B4"/>
<path d="M335.933 145.08H314.872C308.511 145.08 303.355 150.237 303.355 156.597V158.006C303.355 164.367 308.511 169.524 314.872 169.524H335.933C342.293 169.524 347.449 164.367 347.449 158.006V156.597C347.449 150.237 342.293 145.08 335.933 145.08ZM342.058 157.967C342.058 161.328 339.333 164.054 335.972 164.054H314.911C311.55 164.054 308.825 161.328 308.825 157.967V156.636C308.825 153.275 311.55 150.55 314.911 150.55H335.972C339.333 150.55 342.058 153.275 342.058 156.636V157.967Z" fill="#00C3B4"/>
<path d="M232.352 160.042C230.84 160.042 229.617 158.819 229.617 157.307C229.617 155.795 230.84 154.572 232.352 154.572H247.489C249.001 154.572 250.224 155.795 250.224 157.307C250.224 158.819 249.001 160.042 247.489 160.042H232.352ZM249.402 145.08C250.914 145.08 252.137 146.303 252.137 147.815C252.137 149.327 250.914 150.55 249.402 150.55H231.09C227.729 150.55 225.004 153.275 225.004 156.636V157.967C225.004 161.328 227.729 164.054 231.09 164.054H249.402C250.914 164.054 252.137 165.277 252.137 166.789C252.137 168.3 250.914 169.524 249.402 169.524H231.056C224.696 169.524 219.539 164.367 219.539 158.006V156.597C219.539 150.237 224.696 145.08 231.056 145.08H249.402Z" fill="#00C3B4"/>
<path d="M293.975 166.789C293.975 168.3 295.198 169.524 296.71 169.524C298.222 169.524 299.445 168.3 299.445 166.789V147.815C299.445 146.303 298.222 145.08 296.71 145.08C295.198 145.08 293.975 146.303 293.975 147.815V166.789Z" fill="#00C3B4"/>
<path d="M161.001 169.801L405.812 169.801" stroke="#C8C8C8" stroke-width="0.810896" stroke-dasharray="1.62 1.62"/>
<path d="M161.001 144.801L405.812 144.801" stroke="#C8C8C8" stroke-width="0.810896" stroke-dasharray="1.62 1.62"/>
<path d="M217.724 130.359L212.724 127.473V133.246L217.724 130.359ZM175.665 130.359L180.665 133.246V127.473L175.665 130.359ZM209.838 129.859H204.581V130.859H209.838V129.859ZM199.323 129.859H194.066V130.859H199.323V129.859ZM188.808 129.859H183.551V130.859H188.808V129.859Z" fill="#E9717A"/>
<path d="M194.871 109.639L191.223 104.167H193.767L196.199 107.879L198.615 104.167H201.175L197.527 109.639L201.351 115.367H198.759L196.199 111.415L193.623 115.367H191.047L194.871 109.639Z" fill="#E9717A"/>
<path d="M176.304 187.274H185.468C186.995 187.274 188.32 187.545 189.441 188.086C190.562 188.628 191.423 189.382 192.022 190.348C192.621 191.296 192.921 192.378 192.921 193.596C192.921 194.814 192.612 195.916 191.993 196.902C191.374 197.869 190.504 198.623 189.383 199.164C188.262 199.706 186.957 199.976 185.468 199.976H180.364V207.574H176.304V187.274ZM185.062 196.583C185.855 196.583 186.531 196.458 187.092 196.206C187.672 195.955 188.107 195.607 188.397 195.162C188.706 194.698 188.861 194.167 188.861 193.567C188.861 192.987 188.706 192.485 188.397 192.059C188.107 191.615 187.672 191.267 187.092 191.015C186.531 190.764 185.855 190.638 185.062 190.638H180.364V196.583H185.062ZM195.754 192.494H199.553V195.887C199.785 194.785 200.249 193.915 200.945 193.277C201.641 192.639 202.569 192.32 203.729 192.32C204.251 192.32 204.638 192.359 204.889 192.436V196.206C204.696 196.187 204.377 196.177 203.932 196.177C203.043 196.177 202.279 196.361 201.641 196.728C201.022 197.096 200.549 197.627 200.22 198.323C199.891 199.019 199.727 199.87 199.727 200.875V207.574H195.754V192.494ZM213.954 207.922C212.466 207.922 211.132 207.574 209.952 206.878C208.773 206.182 207.855 205.235 207.197 204.036C206.54 202.818 206.211 201.484 206.211 200.034C206.211 198.584 206.54 197.26 207.197 196.061C207.855 194.843 208.773 193.886 209.952 193.19C211.132 192.494 212.466 192.146 213.954 192.146C215.443 192.146 216.777 192.494 217.956 193.19C219.136 193.886 220.054 194.843 220.711 196.061C221.369 197.26 221.697 198.584 221.697 200.034C221.697 201.484 221.369 202.818 220.711 204.036C220.054 205.235 219.136 206.182 217.956 206.878C216.777 207.574 215.443 207.922 213.954 207.922ZM213.954 204.645C214.728 204.645 215.404 204.423 215.984 203.978C216.564 203.534 217.009 202.963 217.318 202.267C217.628 201.571 217.782 200.827 217.782 200.034C217.782 199.242 217.628 198.497 217.318 197.801C217.009 197.105 216.564 196.545 215.984 196.119C215.404 195.675 214.728 195.452 213.954 195.452C213.181 195.452 212.504 195.675 211.924 196.119C211.344 196.545 210.9 197.105 210.59 197.801C210.281 198.497 210.126 199.242 210.126 200.034C210.126 200.827 210.281 201.571 210.59 202.267C210.9 202.963 211.344 203.534 211.924 203.978C212.504 204.423 213.181 204.645 213.954 204.645ZM223.657 199.541C223.657 198.111 223.937 196.835 224.498 195.713C225.078 194.592 225.87 193.722 226.876 193.103C227.9 192.465 229.06 192.146 230.356 192.146C231.09 192.146 231.757 192.262 232.357 192.494C232.975 192.707 233.497 193.016 233.923 193.422C234.348 193.828 234.667 194.292 234.88 194.814V192.494H238.766V206.733C238.766 208.125 238.466 209.305 237.867 210.271C237.267 211.257 236.417 212.002 235.315 212.504C234.213 213.007 232.927 213.258 231.458 213.258C229.428 213.258 227.746 212.794 226.412 211.866C225.097 210.958 224.285 209.701 223.976 208.096H228.007C228.181 208.754 228.558 209.276 229.138 209.662C229.718 210.068 230.452 210.271 231.342 210.271C232.56 210.271 233.439 209.943 233.981 209.285C234.522 208.628 234.793 207.613 234.793 206.24V204.181C234.619 204.684 234.319 205.148 233.894 205.573C233.488 205.979 232.975 206.308 232.357 206.559C231.738 206.791 231.071 206.907 230.356 206.907C229.06 206.907 227.9 206.598 226.876 205.979C225.87 205.341 225.078 204.462 224.498 203.34C223.937 202.219 223.657 200.953 223.657 199.541ZM227.543 199.541C227.543 200.353 227.688 201.088 227.978 201.745C228.287 202.383 228.712 202.896 229.254 203.282C229.814 203.65 230.472 203.833 231.226 203.833C231.922 203.833 232.54 203.659 233.082 203.311C233.623 202.944 234.039 202.441 234.329 201.803C234.638 201.146 234.793 200.392 234.793 199.541C234.793 198.691 234.638 197.946 234.329 197.308C234.019 196.651 233.594 196.148 233.053 195.8C232.511 195.433 231.902 195.249 231.226 195.249C230.472 195.249 229.814 195.433 229.254 195.8C228.712 196.168 228.287 196.68 227.978 197.337C227.688 197.975 227.543 198.71 227.543 199.541ZM242.539 192.494H246.338V195.887C246.57 194.785 247.034 193.915 247.73 193.277C248.426 192.639 249.354 192.32 250.514 192.32C251.036 192.32 251.423 192.359 251.674 192.436V196.206C251.481 196.187 251.162 196.177 250.717 196.177C249.828 196.177 249.064 196.361 248.426 196.728C247.807 197.096 247.334 197.627 247.005 198.323C246.676 199.019 246.512 199.87 246.512 200.875V207.574H242.539V192.494ZM253.263 203.195C253.263 201.726 253.766 200.605 254.771 199.831C255.776 199.039 257.265 198.565 259.237 198.41L262.891 198.12V197.569C262.891 196.796 262.669 196.197 262.224 195.771C261.799 195.327 261.161 195.104 260.31 195.104C259.537 195.104 258.908 195.298 258.425 195.684C257.942 196.071 257.652 196.564 257.555 197.163H253.785C254.017 195.655 254.723 194.447 255.902 193.538C257.081 192.61 258.551 192.146 260.31 192.146C262.398 192.146 264.003 192.659 265.124 193.683C266.265 194.708 266.835 196.09 266.835 197.83V207.574H263.007V205.515C262.698 206.211 262.137 206.791 261.325 207.255C260.532 207.7 259.595 207.922 258.512 207.922C256.927 207.922 255.651 207.497 254.684 206.646C253.737 205.776 253.263 204.626 253.263 203.195ZM257.091 203.079C257.091 203.737 257.304 204.259 257.729 204.645C258.174 205.032 258.792 205.225 259.585 205.225C260.262 205.225 260.842 205.09 261.325 204.819C261.828 204.549 262.214 204.152 262.485 203.63C262.756 203.108 262.891 202.49 262.891 201.774V200.759L260.02 200.991C259.053 201.069 258.319 201.272 257.816 201.6C257.333 201.91 257.091 202.403 257.091 203.079ZM270.463 192.494H274.291V194.872C274.658 194.002 275.19 193.335 275.886 192.871C276.582 192.388 277.481 192.146 278.583 192.146C279.704 192.146 280.632 192.378 281.367 192.842C282.121 193.287 282.701 193.935 283.107 194.785C283.59 193.935 284.209 193.287 284.963 192.842C285.736 192.378 286.703 192.146 287.863 192.146C289.584 192.146 290.898 192.678 291.807 193.741C292.716 194.805 293.17 196.274 293.17 198.149V207.574H289.197V198.758C289.197 197.772 288.975 197.009 288.53 196.467C288.085 195.907 287.428 195.626 286.558 195.626C285.959 195.626 285.446 195.752 285.021 196.003C284.615 196.255 284.306 196.622 284.093 197.105C283.9 197.589 283.803 198.169 283.803 198.845V207.574H279.83V198.758C279.83 197.772 279.608 197.009 279.163 196.467C278.738 195.907 278.08 195.626 277.191 195.626C276.302 195.626 275.615 195.907 275.132 196.467C274.668 197.009 274.436 197.801 274.436 198.845V207.574H270.463V192.494ZM302.975 192.494H306.803V194.814C307.151 193.964 307.682 193.306 308.398 192.842C309.132 192.378 310.051 192.146 311.153 192.146C312.893 192.146 314.227 192.707 315.155 193.828C316.083 194.93 316.547 196.438 316.547 198.352V207.574H312.574V198.874C312.574 197.869 312.351 197.067 311.907 196.467C311.462 195.868 310.785 195.568 309.877 195.568C309.277 195.568 308.755 195.704 308.311 195.974C307.866 196.245 307.528 196.632 307.296 197.134C307.064 197.618 306.948 198.198 306.948 198.874V207.574H302.975V192.494ZM319.787 203.195C319.787 201.726 320.29 200.605 321.295 199.831C322.301 199.039 323.789 198.565 325.761 198.41L329.415 198.12V197.569C329.415 196.796 329.193 196.197 328.748 195.771C328.323 195.327 327.685 195.104 326.834 195.104C326.061 195.104 325.433 195.298 324.949 195.684C324.466 196.071 324.176 196.564 324.079 197.163H320.309C320.541 195.655 321.247 194.447 322.426 193.538C323.606 192.61 325.075 192.146 326.834 192.146C328.922 192.146 330.527 192.659 331.648 193.683C332.789 194.708 333.359 196.09 333.359 197.83V207.574H329.531V205.515C329.222 206.211 328.661 206.791 327.849 207.255C327.057 207.7 326.119 207.922 325.036 207.922C323.451 207.922 322.175 207.497 321.208 206.646C320.261 205.776 319.787 204.626 319.787 203.195ZM323.615 203.079C323.615 203.737 323.828 204.259 324.253 204.645C324.698 205.032 325.317 205.225 326.109 205.225C326.786 205.225 327.366 205.09 327.849 204.819C328.352 204.549 328.739 204.152 329.009 203.63C329.28 203.108 329.415 202.49 329.415 201.774V200.759L326.544 200.991C325.578 201.069 324.843 201.272 324.34 201.6C323.857 201.91 323.615 202.403 323.615 203.079ZM336.987 192.494H340.815V194.872C341.183 194.002 341.714 193.335 342.41 192.871C343.106 192.388 344.005 192.146 345.107 192.146C346.229 192.146 347.157 192.378 347.891 192.842C348.645 193.287 349.225 193.935 349.631 194.785C350.115 193.935 350.733 193.287 351.487 192.842C352.261 192.378 353.227 192.146 354.387 192.146C356.108 192.146 357.423 192.678 358.331 193.741C359.24 194.805 359.694 196.274 359.694 198.149V207.574H355.721V198.758C355.721 197.772 355.499 197.009 355.054 196.467C354.61 195.907 353.952 195.626 353.082 195.626C352.483 195.626 351.971 195.752 351.545 196.003C351.139 196.255 350.83 196.622 350.617 197.105C350.424 197.589 350.327 198.169 350.327 198.845V207.574H346.354V198.758C346.354 197.772 346.132 197.009 345.687 196.467C345.262 195.907 344.605 195.626 343.715 195.626C342.826 195.626 342.14 195.907 341.656 196.467C341.192 197.009 340.96 197.801 340.96 198.845V207.574H336.987V192.494ZM362.426 200.034C362.426 198.565 362.745 197.231 363.383 196.032C364.021 194.834 364.911 193.886 366.051 193.19C367.192 192.494 368.478 192.146 369.908 192.146C371.455 192.146 372.77 192.485 373.852 193.161C374.954 193.838 375.786 194.766 376.346 195.945C376.907 197.125 377.187 198.459 377.187 199.947V200.904H366.225C366.283 201.658 366.467 202.345 366.776 202.963C367.086 203.563 367.521 204.036 368.081 204.384C368.642 204.713 369.299 204.877 370.053 204.877C370.923 204.877 371.629 204.703 372.17 204.355C372.712 203.988 373.118 203.495 373.388 202.876H376.984C376.752 203.862 376.308 204.742 375.65 205.515C375.012 206.269 374.21 206.859 373.243 207.284C372.296 207.71 371.242 207.922 370.082 207.922C368.516 207.922 367.153 207.584 365.993 206.907C364.833 206.211 363.944 205.264 363.325 204.065C362.726 202.867 362.426 201.523 362.426 200.034ZM373.388 198.149C373.292 197.511 373.089 196.96 372.779 196.496C372.489 196.013 372.093 195.636 371.59 195.365C371.107 195.095 370.546 194.959 369.908 194.959C369.27 194.959 368.7 195.095 368.197 195.365C367.714 195.636 367.308 196.013 366.979 196.496C366.67 196.98 366.457 197.531 366.341 198.149H373.388Z" fill="#0E131F"/>
<rect x="175.805" y="170.076" width="17.1387" height="17.1387" fill="#DD4545"/>
<path d="M175.158 119.203V218.632" stroke="#C8C8C8" stroke-width="0.810896" stroke-dasharray="1.62 1.62"/>
</svg>
