<svg width="567" height="321" viewBox="0 0 567 321" fill="none" xmlns="http://www.w3.org/2000/svg">
<rect width="566" height="320" transform="translate(0.753906 0.970703)" fill="#F9F9FC"/>
<path d="M362.287 168.857V142.841H367.788V164.322H378.941V168.857H362.287ZM405.479 155.849C405.479 158.686 404.941 161.1 403.866 163.09C402.798 165.08 401.342 166.6 399.496 167.651C397.658 168.692 395.591 169.213 393.296 169.213C390.984 169.213 388.909 168.688 387.072 167.638C385.234 166.588 383.781 165.068 382.714 163.077C381.647 161.087 381.114 158.678 381.114 155.849C381.114 153.012 381.647 150.598 382.714 148.608C383.781 146.618 385.234 145.102 387.072 144.06C388.909 143.01 390.984 142.485 393.296 142.485C395.591 142.485 397.658 143.01 399.496 144.06C401.342 145.102 402.798 146.618 403.866 148.608C404.941 150.598 405.479 153.012 405.479 155.849ZM399.902 155.849C399.902 154.011 399.627 152.462 399.076 151.2C398.534 149.938 397.768 148.981 396.777 148.329C395.786 147.677 394.626 147.351 393.296 147.351C391.967 147.351 390.806 147.677 389.816 148.329C388.825 148.981 388.054 149.938 387.504 151.2C386.962 152.462 386.691 154.011 386.691 155.849C386.691 157.687 386.962 159.237 387.504 160.499C388.054 161.76 388.825 162.717 389.816 163.37C390.806 164.022 391.967 164.348 393.296 164.348C394.626 164.348 395.786 164.022 396.777 163.37C397.768 162.717 398.534 161.76 399.076 160.499C399.627 159.237 399.902 157.687 399.902 155.849ZM426.805 151.251C426.627 150.632 426.377 150.086 426.055 149.612C425.733 149.129 425.34 148.723 424.874 148.392C424.416 148.054 423.891 147.795 423.299 147.617C422.714 147.44 422.066 147.351 421.355 147.351C420.025 147.351 418.857 147.681 417.849 148.341C416.849 149.002 416.07 149.963 415.511 151.225C414.952 152.479 414.673 154.011 414.673 155.824C414.673 157.636 414.948 159.177 415.499 160.448C416.049 161.718 416.828 162.688 417.836 163.357C418.844 164.017 420.034 164.348 421.406 164.348C422.651 164.348 423.713 164.128 424.594 163.687C425.483 163.238 426.161 162.607 426.627 161.794C427.101 160.981 427.338 160.02 427.338 158.911L428.456 159.076H421.749V154.935H432.635V158.212C432.635 160.499 432.153 162.463 431.187 164.106C430.222 165.741 428.892 167.003 427.198 167.892C425.505 168.773 423.565 169.213 421.38 169.213C418.941 169.213 416.799 168.675 414.952 167.6C413.106 166.516 411.666 164.979 410.633 162.988C409.608 160.99 409.096 158.618 409.096 155.875C409.096 153.766 409.401 151.886 410.011 150.234C410.629 148.574 411.493 147.169 412.602 146.017C413.712 144.865 415.003 143.988 416.477 143.387C417.95 142.786 419.547 142.485 421.266 142.485C422.74 142.485 424.112 142.701 425.382 143.133C426.652 143.557 427.779 144.158 428.761 144.937C429.752 145.716 430.561 146.643 431.187 147.719C431.814 148.786 432.216 149.963 432.394 151.251H426.805ZM460.675 155.849C460.675 158.686 460.137 161.1 459.062 163.09C457.995 165.08 456.538 166.6 454.692 167.651C452.854 168.692 450.788 169.213 448.493 169.213C446.18 169.213 444.106 168.688 442.268 167.638C440.43 166.588 438.978 165.068 437.911 163.077C436.843 161.087 436.31 158.678 436.31 155.849C436.31 153.012 436.843 150.598 437.911 148.608C438.978 146.618 440.43 145.102 442.268 144.06C444.106 143.01 446.18 142.485 448.493 142.485C450.788 142.485 452.854 143.01 454.692 144.06C456.538 145.102 457.995 146.618 459.062 148.608C460.137 150.598 460.675 153.012 460.675 155.849ZM455.098 155.849C455.098 154.011 454.823 152.462 454.273 151.2C453.731 149.938 452.964 148.981 451.973 148.329C450.982 147.677 449.822 147.351 448.493 147.351C447.163 147.351 446.003 147.677 445.012 148.329C444.021 148.981 443.25 149.938 442.7 151.2C442.158 152.462 441.887 154.011 441.887 155.849C441.887 157.687 442.158 159.237 442.7 160.499C443.25 161.76 444.021 162.717 445.012 163.37C446.003 164.022 447.163 164.348 448.493 164.348C449.822 164.348 450.982 164.022 451.973 163.37C452.964 162.717 453.731 161.76 454.273 160.499C454.823 159.237 455.098 157.687 455.098 155.849Z" fill="#D2D2D2"/>
<path d="M108.375 69.416V224.441" stroke="#C8C8C8" stroke-width="0.810896" stroke-dasharray="1.62 1.62"/>
<path d="M461.228 69.416V224.441" stroke="#C8C8C8" stroke-width="0.810896" stroke-dasharray="1.62 1.62"/>
<path d="M91.8562 135.93L476.343 135.93" stroke="#C8C8C8" stroke-width="0.810896" stroke-dasharray="1.62 1.62"/>
<path d="M91.9783 175.004L476.465 175.004" stroke="#C8C8C8" stroke-width="0.810896" stroke-dasharray="1.62 1.62"/>
<line x1="304.803" y1="135.93" x2="304.803" y2="174.466" stroke="#888B93" stroke-width="0.722564"/>
<rect x="317.079" y="135.984" width="38.7456" height="38.7456" stroke="#D2D2D2"/>
<path d="M325.032 157.744V153.328H327.904V153.999H325.832V155.198H327.755V155.868H325.832V157.074H327.921V157.744H325.032ZM328.686 157.744V154.432H329.432V154.995H329.471C329.54 154.805 329.654 154.657 329.814 154.551C329.973 154.443 330.164 154.389 330.385 154.389C330.609 154.389 330.798 154.444 330.952 154.553C331.107 154.661 331.217 154.808 331.28 154.995H331.314C331.388 154.811 331.511 154.664 331.685 154.555C331.861 154.444 332.068 154.389 332.308 154.389C332.613 154.389 332.862 154.485 333.054 154.678C333.247 154.871 333.343 155.152 333.343 155.521V157.744H332.561V155.642C332.561 155.436 332.506 155.286 332.397 155.191C332.288 155.095 332.154 155.047 331.996 155.047C331.807 155.047 331.66 155.106 331.554 155.223C331.449 155.34 331.396 155.492 331.396 155.678V157.744H330.631V155.609C330.631 155.438 330.579 155.302 330.476 155.2C330.373 155.098 330.24 155.047 330.074 155.047C329.962 155.047 329.86 155.075 329.768 155.133C329.676 155.189 329.603 155.269 329.548 155.372C329.494 155.474 329.466 155.594 329.466 155.73V157.744H328.686ZM334.17 157.744V153.328H334.95V154.98H334.983C335.023 154.899 335.08 154.814 335.153 154.723C335.226 154.631 335.326 154.553 335.451 154.488C335.576 154.422 335.735 154.389 335.929 154.389C336.185 154.389 336.416 154.454 336.621 154.585C336.828 154.715 336.992 154.906 337.113 155.161C337.235 155.414 337.296 155.724 337.296 156.092C337.296 156.456 337.237 156.765 337.117 157.02C336.998 157.274 336.836 157.468 336.63 157.602C336.424 157.736 336.192 157.802 335.931 157.802C335.742 157.802 335.584 157.771 335.459 157.707C335.334 157.644 335.234 157.568 335.157 157.479C335.083 157.388 335.024 157.303 334.983 157.222H334.937V157.744H334.17ZM334.935 156.088C334.935 156.302 334.965 156.49 335.026 156.651C335.088 156.812 335.176 156.938 335.291 157.028C335.407 157.117 335.548 157.162 335.714 157.162C335.886 157.162 336.031 157.116 336.147 157.024C336.263 156.931 336.351 156.803 336.41 156.642C336.47 156.48 336.501 156.295 336.501 156.088C336.501 155.883 336.471 155.7 336.412 155.54C336.353 155.381 336.266 155.256 336.149 155.165C336.033 155.075 335.888 155.029 335.714 155.029C335.547 155.029 335.405 155.073 335.289 155.161C335.172 155.249 335.084 155.372 335.024 155.53C334.965 155.688 334.935 155.874 334.935 156.088ZM338.741 153.328V157.744H337.96V153.328H338.741ZM341.009 157.809C340.677 157.809 340.391 157.74 340.149 157.602C339.909 157.462 339.724 157.265 339.595 157.011C339.466 156.755 339.401 156.454 339.401 156.108C339.401 155.767 339.466 155.468 339.595 155.211C339.726 154.952 339.908 154.751 340.143 154.607C340.377 154.462 340.652 154.389 340.968 154.389C341.173 154.389 341.365 154.422 341.546 154.488C341.729 154.553 341.89 154.653 342.029 154.79C342.17 154.927 342.281 155.101 342.361 155.312C342.442 155.522 342.482 155.772 342.482 156.062V156.302H339.767V155.775H341.734C341.733 155.626 341.7 155.493 341.637 155.377C341.574 155.259 341.485 155.166 341.372 155.098C341.26 155.031 341.129 154.997 340.979 154.997C340.82 154.997 340.68 155.036 340.559 155.113C340.438 155.19 340.344 155.29 340.276 155.415C340.21 155.539 340.176 155.675 340.175 155.823V156.282C340.175 156.475 340.21 156.64 340.281 156.778C340.351 156.915 340.45 157.02 340.576 157.093C340.703 157.165 340.851 157.201 341.02 157.201C341.134 157.201 341.237 157.185 341.329 157.153C341.421 157.12 341.5 157.072 341.568 157.009C341.635 156.946 341.687 156.867 341.721 156.774L342.45 156.856C342.404 157.048 342.316 157.217 342.187 157.36C342.059 157.503 341.895 157.613 341.695 157.692C341.495 157.77 341.267 157.809 341.009 157.809ZM343.143 157.744V154.432H343.889V154.995H343.927C343.996 154.805 344.111 154.657 344.27 154.551C344.43 154.443 344.62 154.389 344.842 154.389C345.066 154.389 345.255 154.444 345.409 154.553C345.564 154.661 345.673 154.808 345.737 154.995H345.771C345.844 154.811 345.968 154.664 346.142 154.555C346.317 154.444 346.525 154.389 346.765 154.389C347.07 154.389 347.319 154.485 347.511 154.678C347.704 154.871 347.8 155.152 347.8 155.521V157.744H347.017V155.642C347.017 155.436 346.963 155.286 346.853 155.191C346.744 155.095 346.611 155.047 346.452 155.047C346.264 155.047 346.117 155.106 346.01 155.223C345.905 155.34 345.853 155.492 345.853 155.678V157.744H345.088V155.609C345.088 155.438 345.036 155.302 344.932 155.2C344.83 155.098 344.696 155.047 344.531 155.047C344.419 155.047 344.317 155.075 344.225 155.133C344.133 155.189 344.06 155.269 344.005 155.372C343.95 155.474 343.923 155.594 343.923 155.73V157.744H343.143Z" fill="#D2D2D2"/>
<g clip-path="url(#clip0_1908_2793)">
<path fill-rule="evenodd" clip-rule="evenodd" d="M143.326 144.924H110.796C110.27 144.924 109.745 145.116 109.363 145.501C108.98 145.886 108.789 146.416 108.789 146.945C108.789 147.474 108.98 148.004 109.363 148.389C109.745 148.774 110.27 148.966 110.796 148.966H125.031V163.308C125.031 163.837 125.222 164.367 125.604 164.752C125.986 165.137 126.511 165.329 127.037 165.329C127.562 165.329 128.088 165.137 128.47 164.752C128.852 164.367 129.043 163.837 129.043 163.308V149.015H143.278C143.804 149.015 144.329 148.822 144.711 148.437C145.093 148.052 145.284 147.523 145.284 146.993C145.284 146.464 145.093 145.934 144.711 145.549C144.329 145.164 143.804 144.972 143.278 144.972L143.326 144.924Z" fill="#2DD4BF"/>
<path fill-rule="evenodd" clip-rule="evenodd" d="M157.562 165.425C154.887 165.425 152.259 164.367 150.349 162.442C148.438 160.517 147.387 157.918 147.387 155.175C147.387 152.431 148.438 149.833 150.349 147.908C152.259 145.983 154.839 144.924 157.562 144.924H171.797C172.322 144.924 172.848 145.116 173.23 145.501C173.612 145.886 173.803 146.416 173.803 146.945C173.803 147.474 173.612 148.004 173.23 148.389C172.848 148.774 172.322 148.966 171.797 148.966H157.562C155.938 148.966 154.409 149.592 153.262 150.747C152.116 151.902 151.495 153.442 151.495 155.078C151.495 156.715 152.116 158.255 153.262 159.41C154.409 160.565 155.938 161.19 157.562 161.19H171.797C172.322 161.19 172.848 161.383 173.23 161.768C173.612 162.153 173.803 162.682 173.803 163.212C173.803 163.741 173.612 164.27 173.23 164.655C172.848 165.04 172.322 165.233 171.797 165.233H157.562V165.425ZM169.743 157.244C170.268 157.244 170.794 157.051 171.176 156.666C171.558 156.281 171.749 155.752 171.749 155.223C171.749 154.693 171.558 154.164 171.176 153.779C170.794 153.394 170.268 153.201 169.743 153.201H157.562C157.036 153.201 156.511 153.394 156.129 153.779C155.746 154.164 155.555 154.693 155.555 155.223C155.555 155.752 155.746 156.281 156.129 156.666C156.511 157.051 157.036 157.244 157.562 157.244H169.743Z" fill="#2DD4BF"/>
<path d="M205.523 161.719C201.654 158.927 197.355 156.762 192.769 155.27C192.674 155.27 192.578 155.222 192.482 155.174L192.817 155.077C197.355 153.634 201.654 151.468 205.523 148.628C205.953 148.292 206.24 147.81 206.335 147.281C206.431 146.752 206.335 146.222 205.953 145.789C205.619 145.356 205.189 145.067 204.663 144.971C204.138 144.875 203.613 144.971 203.135 145.308C196.925 149.832 189.569 152.479 181.926 153.008V146.992C181.926 146.463 181.735 145.933 181.352 145.548C180.97 145.163 180.445 144.971 179.919 144.971C179.394 144.971 178.868 145.163 178.486 145.548C178.104 145.933 177.913 146.463 177.913 146.992V163.403C177.913 163.932 178.104 164.462 178.486 164.847C178.868 165.232 179.394 165.424 179.919 165.424C180.445 165.424 180.97 165.232 181.352 164.847C181.735 164.462 181.926 163.932 181.926 163.403V157.339C189.569 157.869 196.877 160.564 203.135 165.039C203.565 165.328 204.138 165.472 204.663 165.376C205.189 165.28 205.667 164.991 205.953 164.558C206.24 164.125 206.383 163.596 206.288 163.066C206.192 162.537 205.905 162.056 205.476 161.719H205.523Z" fill="#2DD4BF"/>
<path d="M210.442 146.994C210.442 146.465 210.633 145.935 211.016 145.55C211.398 145.165 211.923 144.973 212.449 144.973C212.974 144.973 213.5 145.165 213.882 145.55C214.264 145.935 214.455 146.465 214.455 146.994V163.405C214.455 163.934 214.264 164.464 213.882 164.849C213.5 165.234 212.974 165.426 212.449 165.426C211.923 165.426 211.398 165.234 211.016 164.849C210.633 164.464 210.442 163.934 210.442 163.405V146.994Z" fill="#2DD4BF"/>
<path d="M242.972 144.924H228.737C226.062 144.924 223.434 145.983 221.524 147.908C219.613 149.833 218.562 152.431 218.562 155.175C218.562 157.918 219.613 160.517 221.524 162.442C223.434 164.367 226.014 165.425 228.737 165.425H242.972C245.647 165.425 248.274 164.367 250.185 162.442C252.096 160.517 253.146 157.918 253.146 155.175C253.146 152.431 252.096 149.833 250.185 147.908C248.274 145.983 245.695 144.924 242.972 144.924V144.924ZM242.972 161.335H228.737C227.113 161.335 225.584 160.709 224.438 159.554C223.291 158.399 222.67 156.859 222.67 155.223C222.67 153.586 223.291 152.046 224.438 150.891C225.584 149.736 227.113 149.111 228.737 149.111H242.972C244.596 149.111 246.124 149.736 247.271 150.891C248.417 152.046 249.038 153.586 249.038 155.223C249.038 156.859 248.417 158.399 247.271 159.554C246.124 160.709 244.596 161.335 242.972 161.335Z" fill="#2DD4BF"/>
<path d="M291.789 146.993V162.345C291.789 162.345 291.789 162.73 291.741 162.923C291.646 163.404 291.455 163.885 291.12 164.27C290.834 164.655 290.404 164.944 289.974 165.185C289.544 165.377 289.019 165.473 288.541 165.473C288.063 165.473 287.586 165.281 287.156 165.04L262.507 150.555C262.412 150.506 262.316 150.458 262.22 150.458C262.22 150.458 262.173 150.458 262.125 150.458C261.982 150.458 261.838 150.458 261.695 150.603C261.552 150.699 261.456 150.795 261.408 150.94C261.361 151.036 261.313 151.18 261.313 151.276V163.452C261.313 163.982 261.122 164.511 260.74 164.896C260.357 165.281 259.832 165.473 259.307 165.473C258.781 165.473 258.256 165.281 257.874 164.896C257.491 164.511 257.3 163.982 257.3 163.452V148.004C257.3 148.004 257.3 147.619 257.348 147.426C257.444 146.945 257.635 146.512 257.921 146.127C258.208 145.742 258.59 145.453 259.02 145.213C259.45 145.02 259.928 144.924 260.405 144.924C260.883 144.924 261.361 145.068 261.791 145.309L261.934 145.405L286.582 159.891C286.582 159.891 286.773 159.987 286.869 159.987C286.869 159.987 286.917 159.987 286.965 159.987C287.108 159.987 287.251 159.987 287.394 159.843C287.538 159.747 287.633 159.65 287.681 159.506C287.729 159.41 287.777 159.265 287.777 159.169V146.993C287.777 146.464 287.968 145.934 288.35 145.549C288.732 145.164 289.257 144.972 289.783 144.972C290.308 144.972 290.834 145.164 291.216 145.549C291.598 145.934 291.789 146.464 291.789 146.993Z" fill="#2DD4BF"/>
</g>
<defs>
<clipPath id="clip0_1908_2793">
<rect width="183.049" height="20.5015" fill="white" transform="translate(108.742 144.924)"/>
</clipPath>
</defs>
</svg>
