<svg width="1156" height="698" viewBox="0 0 1156 698" fill="none" xmlns="http://www.w3.org/2000/svg">
<g clip-path="url(#clip0_1422_2440)">
<rect width="590.202" height="698" fill="#00C3B4"/>
<path d="M65.6208 640.8H66.8688V652H65.6208V640.8ZM69.7421 643.808H70.8941V645.216C71.0861 644.715 71.4061 644.325 71.8541 644.048C72.3021 643.76 72.8461 643.616 73.4861 643.616C74.4354 643.616 75.1714 643.92 75.6941 644.528C76.2274 645.136 76.4941 645.957 76.4941 646.992V652H75.2781V647.168C75.2781 646.389 75.1074 645.787 74.7661 645.36C74.4354 644.923 73.9394 644.704 73.2781 644.704C72.8301 644.704 72.4301 644.805 72.0781 645.008C71.7261 645.211 71.4487 645.504 71.2461 645.888C71.0541 646.261 70.9581 646.704 70.9581 647.216V652H69.7421V643.808ZM85.5763 652.096C84.7763 652.096 84.1737 651.883 83.7683 651.456C83.3737 651.019 83.1763 650.379 83.1763 649.536V644.832H81.6083V643.808H83.1763V641.632H84.3923V643.808H86.8243V644.832H84.3923V649.6C84.3923 650.069 84.5043 650.427 84.7283 650.672C84.963 650.917 85.3097 651.04 85.7683 651.04C86.1203 651.04 86.4777 650.987 86.8403 650.88V651.92C86.7123 651.973 86.531 652.016 86.2963 652.048C86.0723 652.08 85.8323 652.096 85.5763 652.096ZM88.0865 647.904C88.0865 647.093 88.2518 646.363 88.5825 645.712C88.9131 645.061 89.3665 644.549 89.9425 644.176C90.5185 643.803 91.1691 643.616 91.8945 643.616C92.6838 643.616 93.3558 643.797 93.9105 644.16C94.4758 644.512 94.8971 644.992 95.1745 645.6C95.4625 646.208 95.6065 646.885 95.6065 647.632V648.192H89.2705C89.3025 648.757 89.4251 649.269 89.6385 649.728C89.8518 650.176 90.1558 650.533 90.5505 650.8C90.9558 651.067 91.4305 651.2 91.9745 651.2C92.5611 651.2 93.0411 651.067 93.4145 650.8C93.7878 650.523 94.0705 650.155 94.2625 649.696H95.4465C95.2971 650.197 95.0571 650.635 94.7265 651.008C94.4065 651.381 94.0065 651.675 93.5265 651.888C93.0571 652.091 92.5398 652.192 91.9745 652.192C91.1745 652.192 90.4811 652 89.8945 651.616C89.3078 651.232 88.8598 650.715 88.5505 650.064C88.2411 649.413 88.0865 648.693 88.0865 647.904ZM94.4705 647.216C94.4278 646.704 94.2998 646.251 94.0865 645.856C93.8731 645.461 93.5798 645.152 93.2065 644.928C92.8331 644.693 92.3905 644.576 91.8785 644.576C91.3985 644.576 90.9718 644.693 90.5985 644.928C90.2358 645.163 89.9425 645.477 89.7185 645.872C89.5051 646.267 89.3665 646.715 89.3025 647.216H94.4705ZM97.3588 649.616C97.3588 648.88 97.6148 648.288 98.1268 647.84C98.6495 647.392 99.3642 647.141 100.271 647.088L102.911 646.912V646.608C102.911 645.968 102.745 645.472 102.415 645.12C102.084 644.768 101.593 644.592 100.943 644.592C100.377 644.592 99.9188 644.736 99.5668 645.024C99.2148 645.301 98.9908 645.669 98.8948 646.128H97.6948C97.8122 645.371 98.1588 644.763 98.7348 644.304C99.3108 643.845 100.041 643.616 100.927 643.616C101.951 643.616 102.74 643.888 103.295 644.432C103.849 644.965 104.127 645.685 104.127 646.592V652H102.943V650.72C102.772 651.147 102.452 651.499 101.983 651.776C101.513 652.053 100.948 652.192 100.287 652.192C99.4015 652.192 98.6922 651.957 98.1588 651.488C97.6255 651.008 97.3588 650.384 97.3588 649.616ZM98.5428 649.584C98.5428 650.096 98.7082 650.507 99.0388 650.816C99.3695 651.125 99.8388 651.28 100.447 651.28C100.916 651.28 101.337 651.173 101.711 650.96C102.084 650.747 102.377 650.443 102.591 650.048C102.804 649.643 102.911 649.163 102.911 648.608V647.792L100.735 647.936C100.009 647.989 99.4602 648.149 99.0868 648.416C98.7242 648.683 98.5428 649.072 98.5428 649.584ZM106.853 640.32H108.069V652H106.853V640.32ZM113.743 647.648C113.743 646.901 113.897 646.224 114.207 645.616C114.527 644.997 114.964 644.512 115.519 644.16C116.073 643.797 116.708 643.616 117.423 643.616C117.86 643.616 118.265 643.691 118.639 643.84C119.023 643.989 119.343 644.192 119.599 644.448C119.865 644.704 120.063 644.992 120.191 645.312V643.808H121.375V651.648C121.375 652.363 121.225 652.981 120.927 653.504C120.628 654.037 120.201 654.443 119.647 654.72C119.092 654.997 118.436 655.136 117.679 655.136C116.74 655.136 115.94 654.885 115.279 654.384C114.617 653.893 114.175 653.243 113.951 652.432H115.199C115.38 652.955 115.689 653.371 116.127 653.68C116.564 653.989 117.097 654.144 117.727 654.144C118.58 654.144 119.199 653.909 119.583 653.44C119.967 652.971 120.159 652.277 120.159 651.36V649.952C120.041 650.272 119.855 650.565 119.599 650.832C119.343 651.088 119.028 651.296 118.655 651.456C118.281 651.605 117.871 651.68 117.423 651.68C116.708 651.68 116.073 651.504 115.519 651.152C114.964 650.789 114.527 650.304 114.207 649.696C113.897 649.077 113.743 648.395 113.743 647.648ZM114.959 647.648C114.959 648.213 115.071 648.725 115.295 649.184C115.519 649.643 115.828 650.005 116.223 650.272C116.628 650.539 117.092 650.672 117.615 650.672C118.116 650.672 118.559 650.549 118.943 650.304C119.327 650.048 119.625 649.691 119.839 649.232C120.052 648.773 120.159 648.245 120.159 647.648C120.159 647.061 120.047 646.539 119.823 646.08C119.599 645.621 119.295 645.264 118.911 645.008C118.527 644.752 118.095 644.624 117.615 644.624C117.081 644.624 116.612 644.757 116.207 645.024C115.812 645.291 115.503 645.653 115.279 646.112C115.065 646.571 114.959 647.083 114.959 647.648ZM124.101 643.808H125.253V645.776C125.413 645.125 125.707 644.619 126.133 644.256C126.571 643.893 127.152 643.712 127.877 643.712C128.187 643.712 128.411 643.733 128.549 643.776V644.816C128.432 644.795 128.251 644.784 128.005 644.784C127.493 644.784 127.029 644.917 126.613 645.184C126.208 645.44 125.888 645.813 125.653 646.304C125.429 646.795 125.317 647.376 125.317 648.048V652H124.101V643.808ZM129.43 647.904C129.43 647.093 129.596 646.363 129.926 645.712C130.257 645.061 130.71 644.549 131.286 644.176C131.862 643.803 132.513 643.616 133.238 643.616C134.028 643.616 134.7 643.797 135.254 644.16C135.82 644.512 136.241 644.992 136.518 645.6C136.806 646.208 136.95 646.885 136.95 647.632V648.192H130.614C130.646 648.757 130.769 649.269 130.982 649.728C131.196 650.176 131.5 650.533 131.894 650.8C132.3 651.067 132.774 651.2 133.318 651.2C133.905 651.2 134.385 651.067 134.758 650.8C135.132 650.523 135.414 650.155 135.606 649.696H136.79C136.641 650.197 136.401 650.635 136.07 651.008C135.75 651.381 135.35 651.675 134.87 651.888C134.401 652.091 133.884 652.192 133.318 652.192C132.518 652.192 131.825 652 131.238 651.616C130.652 651.232 130.204 650.715 129.894 650.064C129.585 649.413 129.43 648.693 129.43 647.904ZM135.814 647.216C135.772 646.704 135.644 646.251 135.43 645.856C135.217 645.461 134.924 645.152 134.55 644.928C134.177 644.693 133.734 644.576 133.222 644.576C132.742 644.576 132.316 644.693 131.942 644.928C131.58 645.163 131.286 645.477 131.062 645.872C130.849 646.267 130.71 646.715 130.646 647.216H135.814ZM138.446 647.904C138.446 647.093 138.611 646.363 138.942 645.712C139.272 645.061 139.726 644.549 140.302 644.176C140.878 643.803 141.528 643.616 142.254 643.616C143.043 643.616 143.715 643.797 144.27 644.16C144.835 644.512 145.256 644.992 145.534 645.6C145.822 646.208 145.966 646.885 145.966 647.632V648.192H139.63C139.662 648.757 139.784 649.269 139.998 649.728C140.211 650.176 140.515 650.533 140.91 650.8C141.315 651.067 141.79 651.2 142.334 651.2C142.92 651.2 143.4 651.067 143.774 650.8C144.147 650.523 144.43 650.155 144.622 649.696H145.806C145.656 650.197 145.416 650.635 145.086 651.008C144.766 651.381 144.366 651.675 143.886 651.888C143.416 652.091 142.899 652.192 142.334 652.192C141.534 652.192 140.84 652 140.254 651.616C139.667 651.232 139.219 650.715 138.91 650.064C138.6 649.413 138.446 648.693 138.446 647.904ZM144.83 647.216C144.787 646.704 144.659 646.251 144.446 645.856C144.232 645.461 143.939 645.152 143.566 644.928C143.192 644.693 142.75 644.576 142.238 644.576C141.758 644.576 141.331 644.693 140.958 644.928C140.595 645.163 140.302 645.477 140.078 645.872C139.864 646.267 139.726 646.715 139.662 647.216H144.83ZM148.07 643.808H149.222V645.216C149.414 644.715 149.734 644.325 150.182 644.048C150.63 643.76 151.174 643.616 151.814 643.616C152.764 643.616 153.5 643.92 154.022 644.528C154.556 645.136 154.822 645.957 154.822 646.992V652H153.606V647.168C153.606 646.389 153.436 645.787 153.094 645.36C152.764 644.923 152.268 644.704 151.606 644.704C151.158 644.704 150.758 644.805 150.406 645.008C150.054 645.211 149.777 645.504 149.574 645.888C149.382 646.261 149.286 646.704 149.286 647.216V652H148.07V643.808ZM161.056 640.32H162.272V652H161.056V640.32ZM168.366 652.192C167.63 652.192 166.958 652 166.35 651.616C165.753 651.221 165.284 650.699 164.942 650.048C164.601 649.387 164.43 648.672 164.43 647.904C164.43 647.136 164.601 646.427 164.942 645.776C165.284 645.115 165.753 644.592 166.35 644.208C166.958 643.813 167.63 643.616 168.366 643.616C169.102 643.616 169.769 643.813 170.366 644.208C170.974 644.592 171.449 645.115 171.79 645.776C172.132 646.427 172.302 647.136 172.302 647.904C172.302 648.672 172.132 649.387 171.79 650.048C171.449 650.699 170.974 651.221 170.366 651.616C169.769 652 169.102 652.192 168.366 652.192ZM168.366 651.136C168.9 651.136 169.374 650.987 169.79 650.688C170.206 650.379 170.526 649.979 170.75 649.488C170.974 648.987 171.086 648.459 171.086 647.904C171.086 647.349 170.974 646.827 170.75 646.336C170.526 645.835 170.206 645.435 169.79 645.136C169.374 644.827 168.9 644.672 168.366 644.672C167.833 644.672 167.358 644.827 166.942 645.136C166.526 645.435 166.206 645.835 165.982 646.336C165.758 646.827 165.646 647.349 165.646 647.904C165.646 648.459 165.758 648.987 165.982 649.488C166.206 649.979 166.526 650.379 166.942 650.688C167.358 650.987 167.833 651.136 168.366 651.136ZM173.743 647.648C173.743 646.901 173.897 646.224 174.207 645.616C174.527 644.997 174.964 644.512 175.519 644.16C176.073 643.797 176.708 643.616 177.423 643.616C177.86 643.616 178.265 643.691 178.639 643.84C179.023 643.989 179.343 644.192 179.599 644.448C179.865 644.704 180.063 644.992 180.191 645.312V643.808H181.375V651.648C181.375 652.363 181.225 652.981 180.927 653.504C180.628 654.037 180.201 654.443 179.647 654.72C179.092 654.997 178.436 655.136 177.679 655.136C176.74 655.136 175.94 654.885 175.279 654.384C174.617 653.893 174.175 653.243 173.951 652.432H175.199C175.38 652.955 175.689 653.371 176.127 653.68C176.564 653.989 177.097 654.144 177.727 654.144C178.58 654.144 179.199 653.909 179.583 653.44C179.967 652.971 180.159 652.277 180.159 651.36V649.952C180.041 650.272 179.855 650.565 179.599 650.832C179.343 651.088 179.028 651.296 178.655 651.456C178.281 651.605 177.871 651.68 177.423 651.68C176.708 651.68 176.073 651.504 175.519 651.152C174.964 650.789 174.527 650.304 174.207 649.696C173.897 649.077 173.743 648.395 173.743 647.648ZM174.959 647.648C174.959 648.213 175.071 648.725 175.295 649.184C175.519 649.643 175.828 650.005 176.223 650.272C176.628 650.539 177.092 650.672 177.615 650.672C178.116 650.672 178.559 650.549 178.943 650.304C179.327 650.048 179.625 649.691 179.839 649.232C180.052 648.773 180.159 648.245 180.159 647.648C180.159 647.061 180.047 646.539 179.823 646.08C179.599 645.621 179.295 645.264 178.911 645.008C178.527 644.752 178.095 644.624 177.615 644.624C177.081 644.624 176.612 644.757 176.207 645.024C175.812 645.291 175.503 645.653 175.279 646.112C175.065 646.571 174.959 647.083 174.959 647.648ZM187.397 652.192C186.661 652.192 185.989 652 185.381 651.616C184.784 651.221 184.315 650.699 183.973 650.048C183.632 649.387 183.461 648.672 183.461 647.904C183.461 647.136 183.632 646.427 183.973 645.776C184.315 645.115 184.784 644.592 185.381 644.208C185.989 643.813 186.661 643.616 187.397 643.616C188.133 643.616 188.8 643.813 189.397 644.208C190.005 644.592 190.48 645.115 190.821 645.776C191.163 646.427 191.333 647.136 191.333 647.904C191.333 648.672 191.163 649.387 190.821 650.048C190.48 650.699 190.005 651.221 189.397 651.616C188.8 652 188.133 652.192 187.397 652.192ZM187.397 651.136C187.931 651.136 188.405 650.987 188.821 650.688C189.237 650.379 189.557 649.979 189.781 649.488C190.005 648.987 190.117 648.459 190.117 647.904C190.117 647.349 190.005 646.827 189.781 646.336C189.557 645.835 189.237 645.435 188.821 645.136C188.405 644.827 187.931 644.672 187.397 644.672C186.864 644.672 186.389 644.827 185.973 645.136C185.557 645.435 185.237 645.835 185.013 646.336C184.789 646.827 184.677 647.349 184.677 647.904C184.677 648.459 184.789 648.987 185.013 649.488C185.237 649.979 185.557 650.379 185.973 650.688C186.389 650.987 186.864 651.136 187.397 651.136ZM199.826 652.192C198.844 652.192 198.044 651.947 197.426 651.456C196.807 650.955 196.418 650.272 196.258 649.408H197.426C197.554 649.973 197.815 650.421 198.21 650.752C198.615 651.072 199.154 651.232 199.826 651.232C200.455 651.232 200.956 651.088 201.33 650.8C201.703 650.501 201.89 650.112 201.89 649.632C201.89 649.269 201.756 648.981 201.49 648.768C201.234 648.544 200.828 648.384 200.274 648.288L198.69 648.016C197.964 647.899 197.41 647.675 197.026 647.344C196.652 647.003 196.466 646.549 196.466 645.984C196.466 645.504 196.599 645.088 196.866 644.736C197.132 644.373 197.5 644.096 197.97 643.904C198.439 643.712 198.972 643.616 199.57 643.616C200.498 643.616 201.239 643.84 201.794 644.288C202.359 644.736 202.679 645.349 202.754 646.128H201.586C201.5 645.669 201.287 645.296 200.946 645.008C200.604 644.72 200.14 644.576 199.554 644.576C198.967 644.576 198.492 644.693 198.13 644.928C197.778 645.163 197.602 645.477 197.602 645.872C197.602 646.192 197.703 646.437 197.906 646.608C198.108 646.768 198.466 646.891 198.978 646.976L200.626 647.264C201.426 647.403 202.023 647.659 202.418 648.032C202.823 648.405 203.026 648.917 203.026 649.568C203.026 650.091 202.882 650.549 202.594 650.944C202.316 651.339 201.932 651.648 201.442 651.872C200.962 652.085 200.423 652.192 199.826 652.192ZM205.07 640.32H206.286V645.216C206.468 644.704 206.782 644.309 207.23 644.032C207.678 643.755 208.206 643.616 208.814 643.616C209.753 643.616 210.489 643.915 211.022 644.512C211.556 645.109 211.822 645.92 211.822 646.944V652H210.606V647.12C210.606 646.363 210.436 645.771 210.094 645.344C209.764 644.917 209.268 644.704 208.606 644.704C208.158 644.704 207.758 644.805 207.406 645.008C207.054 645.2 206.777 645.488 206.574 645.872C206.382 646.245 206.286 646.693 206.286 647.216V652H205.07V640.32ZM217.757 652.192C217.021 652.192 216.349 652 215.741 651.616C215.143 651.221 214.674 650.699 214.333 650.048C213.991 649.387 213.821 648.672 213.821 647.904C213.821 647.136 213.991 646.427 214.333 645.776C214.674 645.115 215.143 644.592 215.741 644.208C216.349 643.813 217.021 643.616 217.757 643.616C218.493 643.616 219.159 643.813 219.757 644.208C220.365 644.592 220.839 645.115 221.181 645.776C221.522 646.427 221.693 647.136 221.693 647.904C221.693 648.672 221.522 649.387 221.181 650.048C220.839 650.699 220.365 651.221 219.757 651.616C219.159 652 218.493 652.192 217.757 652.192ZM217.757 651.136C218.29 651.136 218.765 650.987 219.181 650.688C219.597 650.379 219.917 649.979 220.141 649.488C220.365 648.987 220.477 648.459 220.477 647.904C220.477 647.349 220.365 646.827 220.141 646.336C219.917 645.835 219.597 645.435 219.181 645.136C218.765 644.827 218.29 644.672 217.757 644.672C217.223 644.672 216.749 644.827 216.333 645.136C215.917 645.435 215.597 645.835 215.373 646.336C215.149 646.827 215.037 647.349 215.037 647.904C215.037 648.459 215.149 648.987 215.373 649.488C215.597 649.979 215.917 650.379 216.333 650.688C216.749 650.987 217.223 651.136 217.757 651.136ZM223.693 643.808H224.909V648.672C224.909 649.451 225.075 650.059 225.405 650.496C225.736 650.923 226.232 651.136 226.893 651.136C227.341 651.136 227.736 651.035 228.077 650.832C228.419 650.629 228.685 650.341 228.877 649.968C229.069 649.584 229.165 649.136 229.165 648.624V643.808H230.381V652H229.229V650.624C229.048 651.093 228.733 651.472 228.285 651.76C227.848 652.048 227.315 652.192 226.685 652.192C225.747 652.192 225.011 651.888 224.477 651.28C223.955 650.672 223.693 649.851 223.693 648.816V643.808ZM233.181 640.32H234.397V652H233.181V640.32ZM243.195 652V650.368C242.993 650.891 242.625 651.328 242.091 651.68C241.558 652.021 240.961 652.192 240.299 652.192C239.595 652.192 238.955 652 238.379 651.616C237.814 651.232 237.366 650.715 237.035 650.064C236.715 649.403 236.555 648.683 236.555 647.904C236.555 647.125 236.715 646.411 237.035 645.76C237.366 645.099 237.814 644.576 238.379 644.192C238.955 643.808 239.595 643.616 240.299 643.616C240.95 643.616 241.537 643.792 242.059 644.144C242.593 644.485 242.961 644.917 243.163 645.44V640.32H244.379V652H243.195ZM243.163 647.904C243.163 647.328 243.041 646.795 242.795 646.304C242.561 645.803 242.23 645.408 241.803 645.12C241.387 644.821 240.923 644.672 240.411 644.672C239.899 644.672 239.441 644.821 239.035 645.12C238.641 645.408 238.331 645.803 238.107 646.304C237.883 646.795 237.771 647.328 237.771 647.904C237.771 648.48 237.883 649.019 238.107 649.52C238.331 650.011 238.641 650.405 239.035 650.704C239.441 650.992 239.899 651.136 240.411 651.136C240.923 651.136 241.387 650.992 241.803 650.704C242.23 650.405 242.561 650.011 242.795 649.52C243.041 649.019 243.163 648.48 243.163 647.904ZM250.617 640.32H251.833V645.44C252.036 644.917 252.398 644.485 252.921 644.144C253.454 643.792 254.046 643.616 254.697 643.616C255.401 643.616 256.036 643.808 256.601 644.192C257.177 644.576 257.625 645.099 257.945 645.76C258.276 646.411 258.441 647.125 258.441 647.904C258.441 648.683 258.276 649.403 257.945 650.064C257.625 650.715 257.177 651.232 256.601 651.616C256.036 652 255.401 652.192 254.697 652.192C254.036 652.192 253.438 652.021 252.905 651.68C252.372 651.328 252.004 650.891 251.801 650.368V652H250.617V640.32ZM251.833 647.904C251.833 648.48 251.95 649.019 252.185 649.52C252.43 650.011 252.761 650.405 253.177 650.704C253.604 650.992 254.073 651.136 254.585 651.136C255.097 651.136 255.55 650.992 255.945 650.704C256.35 650.405 256.665 650.011 256.889 649.52C257.113 649.019 257.225 648.48 257.225 647.904C257.225 647.328 257.113 646.795 256.889 646.304C256.665 645.803 256.35 645.408 255.945 645.12C255.55 644.821 255.097 644.672 254.585 644.672C254.073 644.672 253.604 644.821 253.177 645.12C252.761 645.408 252.43 645.803 252.185 646.304C251.95 646.795 251.833 647.328 251.833 647.904ZM259.883 647.904C259.883 647.093 260.049 646.363 260.379 645.712C260.71 645.061 261.163 644.549 261.739 644.176C262.315 643.803 262.966 643.616 263.691 643.616C264.481 643.616 265.153 643.797 265.707 644.16C266.273 644.512 266.694 644.992 266.971 645.6C267.259 646.208 267.403 646.885 267.403 647.632V648.192H261.067C261.099 648.757 261.222 649.269 261.435 649.728C261.649 650.176 261.953 650.533 262.347 650.8C262.753 651.067 263.227 651.2 263.771 651.2C264.358 651.2 264.838 651.067 265.211 650.8C265.585 650.523 265.867 650.155 266.059 649.696H267.243C267.094 650.197 266.854 650.635 266.523 651.008C266.203 651.381 265.803 651.675 265.323 651.888C264.854 652.091 264.337 652.192 263.771 652.192C262.971 652.192 262.278 652 261.691 651.616C261.105 651.232 260.657 650.715 260.347 650.064C260.038 649.413 259.883 648.693 259.883 647.904ZM266.267 647.216C266.225 646.704 266.097 646.251 265.883 645.856C265.67 645.461 265.377 645.152 265.003 644.928C264.63 644.693 264.187 644.576 263.675 644.576C263.195 644.576 262.769 644.693 262.395 644.928C262.033 645.163 261.739 645.477 261.515 645.872C261.302 646.267 261.163 646.715 261.099 647.216H266.267ZM273.103 643.808H274.319V652H273.103V643.808ZM273.071 640.624H274.351V642.272H273.071V640.624ZM277.117 643.808H278.269V645.216C278.461 644.715 278.781 644.325 279.229 644.048C279.677 643.76 280.221 643.616 280.861 643.616C281.81 643.616 282.546 643.92 283.069 644.528C283.602 645.136 283.869 645.957 283.869 646.992V652H282.653V647.168C282.653 646.389 282.482 645.787 282.141 645.36C281.81 644.923 281.314 644.704 280.653 644.704C280.205 644.704 279.805 644.805 279.453 645.008C279.101 645.211 278.824 645.504 278.621 645.888C278.429 646.261 278.333 646.704 278.333 647.216V652H277.117V643.808ZM290.231 643.808L291.927 650.496L294.135 643.808H295.351L297.543 650.496L299.255 643.808H300.423L298.103 652H297.031L294.743 644.912L292.455 652H291.383L289.063 643.808H290.231ZM302.18 640.32H303.396V645.216C303.577 644.704 303.892 644.309 304.34 644.032C304.788 643.755 305.316 643.616 305.924 643.616C306.862 643.616 307.598 643.915 308.132 644.512C308.665 645.109 308.932 645.92 308.932 646.944V652H307.716V647.12C307.716 646.363 307.545 645.771 307.204 645.344C306.873 644.917 306.377 644.704 305.716 644.704C305.268 644.704 304.868 644.805 304.516 645.008C304.164 645.2 303.886 645.488 303.684 645.872C303.492 646.245 303.396 646.693 303.396 647.216V652H302.18V640.32ZM311.65 643.808H312.866V652H311.65V643.808ZM311.618 640.624H312.898V642.272H311.618V640.624ZM318.592 652.096C317.792 652.096 317.189 651.883 316.784 651.456C316.389 651.019 316.192 650.379 316.192 649.536V644.832H314.624V643.808H316.192V641.632H317.408V643.808H319.84V644.832H317.408V649.6C317.408 650.069 317.52 650.427 317.744 650.672C317.979 650.917 318.325 651.04 318.784 651.04C319.136 651.04 319.493 650.987 319.856 650.88V651.92C319.728 651.973 319.547 652.016 319.312 652.048C319.088 652.08 318.848 652.096 318.592 652.096ZM321.102 647.904C321.102 647.093 321.267 646.363 321.598 645.712C321.929 645.061 322.382 644.549 322.958 644.176C323.534 643.803 324.185 643.616 324.91 643.616C325.699 643.616 326.371 643.797 326.926 644.16C327.491 644.512 327.913 644.992 328.19 645.6C328.478 646.208 328.622 646.885 328.622 647.632V648.192H322.286C322.318 648.757 322.441 649.269 322.654 649.728C322.867 650.176 323.171 650.533 323.566 650.8C323.971 651.067 324.446 651.2 324.99 651.2C325.577 651.2 326.057 651.067 326.43 650.8C326.803 650.523 327.086 650.155 327.278 649.696H328.462C328.313 650.197 328.073 650.635 327.742 651.008C327.422 651.381 327.022 651.675 326.542 651.888C326.073 652.091 325.555 652.192 324.99 652.192C324.19 652.192 323.497 652 322.91 651.616C322.323 651.232 321.875 650.715 321.566 650.064C321.257 649.413 321.102 648.693 321.102 647.904ZM327.486 647.216C327.443 646.704 327.315 646.251 327.102 645.856C326.889 645.461 326.595 645.152 326.222 644.928C325.849 644.693 325.406 644.576 324.894 644.576C324.414 644.576 323.987 644.693 323.614 644.928C323.251 645.163 322.958 645.477 322.734 645.872C322.521 646.267 322.382 646.715 322.318 647.216H327.486Z" fill="white" fill-opacity="0.9"/>
<path d="M64.6948 583.816H66.4588L66.7108 581.386H65.1448V579.478H66.9268L67.2508 576.4H69.3928L69.0688 579.478H71.2828L71.6068 576.4H73.7488L73.4248 579.478H74.9728V581.386H73.2088L72.9568 583.816H74.5228V585.724H72.7408L72.3988 589H70.2568L70.5988 585.724H68.4028L68.0428 589H65.9008L66.2608 585.724H64.6948V583.816ZM70.8148 583.816L71.0668 581.386H68.8528L68.6008 583.816H70.8148ZM81.7178 589.252C80.5538 589.252 79.5698 588.964 78.7658 588.388C77.9618 587.8 77.3618 587.014 76.9658 586.03C76.5698 585.034 76.3718 583.924 76.3718 582.7C76.3718 581.476 76.5698 580.372 76.9658 579.388C77.3618 578.392 77.9618 577.606 78.7658 577.03C79.5698 576.442 80.5538 576.148 81.7178 576.148C82.8818 576.148 83.8658 576.442 84.6698 577.03C85.4738 577.606 86.0738 578.392 86.4698 579.388C86.8658 580.372 87.0638 581.476 87.0638 582.7C87.0638 583.924 86.8658 585.034 86.4698 586.03C86.0738 587.014 85.4738 587.8 84.6698 588.388C83.8658 588.964 82.8818 589.252 81.7178 589.252ZM81.7178 586.624C82.2458 586.624 82.6778 586.45 83.0138 586.102C83.3618 585.754 83.6138 585.286 83.7698 584.698C83.9258 584.11 84.0038 583.444 84.0038 582.7C84.0038 581.956 83.9258 581.29 83.7698 580.702C83.6138 580.114 83.3618 579.646 83.0138 579.298C82.6778 578.95 82.2458 578.776 81.7178 578.776C81.1898 578.776 80.7518 578.95 80.4038 579.298C80.0678 579.646 79.8218 580.114 79.6658 580.702C79.5098 581.29 79.4318 581.956 79.4318 582.7C79.4318 583.444 79.5098 584.11 79.6658 584.698C79.8218 585.286 80.0678 585.754 80.4038 586.102C80.7518 586.45 81.1898 586.624 81.7178 586.624ZM94.0225 589.252C92.8585 589.252 91.8745 588.964 91.0705 588.388C90.2665 587.8 89.6665 587.014 89.2705 586.03C88.8745 585.034 88.6765 583.924 88.6765 582.7C88.6765 581.476 88.8745 580.372 89.2705 579.388C89.6665 578.392 90.2665 577.606 91.0705 577.03C91.8745 576.442 92.8585 576.148 94.0225 576.148C95.1865 576.148 96.1705 576.442 96.9745 577.03C97.7785 577.606 98.3785 578.392 98.7745 579.388C99.1705 580.372 99.3685 581.476 99.3685 582.7C99.3685 583.924 99.1705 585.034 98.7745 586.03C98.3785 587.014 97.7785 587.8 96.9745 588.388C96.1705 588.964 95.1865 589.252 94.0225 589.252ZM94.0225 586.624C94.5505 586.624 94.9825 586.45 95.3185 586.102C95.6665 585.754 95.9185 585.286 96.0745 584.698C96.2305 584.11 96.3085 583.444 96.3085 582.7C96.3085 581.956 96.2305 581.29 96.0745 580.702C95.9185 580.114 95.6665 579.646 95.3185 579.298C94.9825 578.95 94.5505 578.776 94.0225 578.776C93.4945 578.776 93.0565 578.95 92.7085 579.298C92.3725 579.646 92.1265 580.114 91.9705 580.702C91.8145 581.29 91.7365 581.956 91.7365 582.7C91.7365 583.444 91.8145 584.11 91.9705 584.698C92.1265 585.286 92.3725 585.754 92.7085 586.102C93.0565 586.45 93.4945 586.624 94.0225 586.624ZM100.675 584.284C100.675 583.372 100.879 582.544 101.287 581.8C101.695 581.044 102.271 580.45 103.015 580.018C103.771 579.574 104.641 579.352 105.625 579.352C106.501 579.352 107.281 579.526 107.965 579.874C108.649 580.21 109.189 580.684 109.585 581.296C109.993 581.908 110.233 582.604 110.305 583.384H107.425C107.317 582.94 107.107 582.58 106.795 582.304C106.495 582.028 106.111 581.89 105.643 581.89C105.223 581.89 104.863 582.004 104.563 582.232C104.275 582.448 104.059 582.736 103.915 583.096C103.771 583.456 103.699 583.852 103.699 584.284C103.699 584.716 103.771 585.112 103.915 585.472C104.059 585.832 104.275 586.126 104.563 586.354C104.863 586.57 105.223 586.678 105.643 586.678C106.111 586.678 106.495 586.54 106.795 586.264C107.107 585.988 107.317 585.628 107.425 585.184H110.305C110.233 585.964 109.993 586.66 109.585 587.272C109.189 587.884 108.649 588.364 107.965 588.712C107.281 589.048 106.501 589.216 105.625 589.216C104.641 589.216 103.771 589 103.015 588.568C102.271 588.124 101.695 587.53 101.287 586.786C100.879 586.03 100.675 585.196 100.675 584.284ZM116.422 589.252C115.486 589.252 114.664 589.078 113.956 588.73C113.248 588.382 112.69 587.896 112.282 587.272C111.874 586.648 111.64 585.922 111.58 585.094H114.514C114.574 585.574 114.772 585.964 115.108 586.264C115.444 586.552 115.876 586.696 116.404 586.696C116.752 586.696 117.052 586.636 117.304 586.516C117.556 586.396 117.748 586.234 117.88 586.03C118.012 585.814 118.078 585.574 118.078 585.31C118.078 585.034 118.012 584.8 117.88 584.608C117.748 584.404 117.556 584.248 117.304 584.14C117.052 584.032 116.758 583.978 116.422 583.978H114.496V581.314H115.972C116.344 581.314 116.662 581.266 116.926 581.17C117.202 581.074 117.412 580.93 117.556 580.738C117.7 580.534 117.772 580.288 117.772 580C117.772 579.748 117.712 579.526 117.592 579.334C117.472 579.142 117.292 578.992 117.052 578.884C116.824 578.764 116.56 578.704 116.26 578.704C115.768 578.704 115.384 578.836 115.108 579.1C114.832 579.364 114.682 579.712 114.658 580.144H111.778C111.814 579.352 112.018 578.656 112.39 578.056C112.774 577.444 113.296 576.976 113.956 576.652C114.616 576.316 115.384 576.148 116.26 576.148C117.148 576.148 117.934 576.304 118.618 576.616C119.302 576.916 119.836 577.348 120.22 577.912C120.604 578.464 120.796 579.112 120.796 579.856C120.796 580.48 120.634 581.026 120.31 581.494C119.998 581.95 119.548 582.292 118.96 582.52C119.668 582.724 120.202 583.078 120.562 583.582C120.922 584.074 121.102 584.68 121.102 585.4C121.102 586.18 120.898 586.864 120.49 587.452C120.082 588.028 119.524 588.472 118.816 588.784C118.108 589.096 117.31 589.252 116.422 589.252ZM122.905 575.86H125.929V580.846C126.169 580.378 126.511 580.012 126.955 579.748C127.399 579.484 127.951 579.352 128.611 579.352C129.439 579.352 130.177 579.568 130.825 580C131.485 580.432 131.995 581.026 132.355 581.782C132.727 582.538 132.913 583.372 132.913 584.284C132.913 585.196 132.727 586.03 132.355 586.786C131.995 587.542 131.485 588.136 130.825 588.568C130.165 589 129.421 589.216 128.593 589.216C127.921 589.216 127.357 589.084 126.901 588.82C126.445 588.556 126.091 588.19 125.839 587.722V589H122.905V575.86ZM125.929 584.284C125.929 584.764 126.007 585.19 126.163 585.562C126.319 585.922 126.547 586.204 126.847 586.408C127.147 586.612 127.495 586.714 127.891 586.714C128.299 586.714 128.653 586.6 128.953 586.372C129.253 586.144 129.481 585.844 129.637 585.472C129.805 585.1 129.889 584.704 129.889 584.284C129.889 583.864 129.805 583.468 129.637 583.096C129.481 582.724 129.253 582.424 128.953 582.196C128.653 581.968 128.299 581.854 127.891 581.854C127.495 581.854 127.147 581.956 126.847 582.16C126.547 582.364 126.319 582.652 126.163 583.024C126.007 583.384 125.929 583.804 125.929 584.284ZM134.041 584.05L139.315 576.4H142.753V583.96H144.355V586.444H142.753V589H139.855V586.444H134.041V584.05ZM139.855 583.96V579.568L136.975 583.96H139.855Z" fill="white" fill-opacity="0.9"/>
<path d="M64.1008 616H526.101" stroke="white" stroke-opacity="0.9" stroke-width="0.5"/>
<path d="M292.34 357.008C287.937 353.55 283.059 350.86 277.818 348.992C283.053 347.129 287.931 344.45 292.34 341.002C293.039 340.452 293.487 339.604 293.487 338.654C293.487 337.005 292.153 335.67 290.504 335.67C289.81 335.67 289.175 335.911 288.668 336.306C284.292 339.727 279.392 342.299 274.108 343.948C270.324 345.128 266.412 345.795 262.458 345.966V338.654C262.458 337.005 261.123 335.67 259.474 335.67C257.825 335.67 256.491 337.005 256.491 338.654V359.351C256.491 361 257.825 362.335 259.474 362.335C261.123 362.335 262.458 361 262.458 359.351V352.013C266.412 352.178 270.324 352.851 274.103 354.03C279.392 355.685 284.286 358.262 288.663 361.694C289.17 362.089 289.81 362.329 290.504 362.329C292.153 362.329 293.487 360.995 293.487 359.346C293.487 358.396 293.039 357.547 292.345 357.003L292.34 357.008Z" fill="white"/>
<path d="M212.145 335.67H171.983C170.334 335.67 169 337.005 169 338.654C169 340.303 170.334 341.637 171.983 341.637H189.078V359.351C189.078 361 190.412 362.335 192.061 362.335C193.711 362.335 195.045 361 195.045 359.351V341.637H212.14C213.789 341.637 215.123 340.303 215.123 338.654C215.123 337.005 213.789 335.67 212.14 335.67H212.145Z" fill="white"/>
<path d="M409 338.654C409 337.005 407.666 335.671 406.017 335.671C404.367 335.671 403.033 337.005 403.033 338.654V353.908C403.033 354.116 402.98 354.324 402.873 354.511C402.537 355.087 401.8 355.285 401.224 354.954L369.063 336.397C366.458 334.892 363.128 335.783 361.623 338.387C361.126 339.247 360.892 340.186 360.892 341.109V359.346C360.892 360.995 362.226 362.33 363.875 362.33C365.524 362.33 366.858 360.995 366.858 359.346V344.093C366.858 343.89 366.912 343.677 367.019 343.49C367.355 342.913 368.091 342.716 368.668 343.047L400.829 361.598C403.433 363.104 406.764 362.212 408.269 359.608C408.765 358.748 409 357.809 409 356.886V338.649V338.654Z" fill="white"/>
<path d="M344.391 335.67H321.415C314.476 335.67 308.851 341.296 308.851 348.234V349.771C308.851 356.709 314.476 362.335 321.415 362.335H344.391C351.329 362.335 356.954 356.709 356.954 349.771V348.234C356.954 341.296 351.329 335.67 344.391 335.67ZM351.073 349.728C351.073 353.395 348.1 356.368 344.433 356.368H321.457C317.791 356.368 314.818 353.395 314.818 349.728V348.277C314.818 344.61 317.791 341.637 321.457 341.637H344.433C348.1 341.637 351.073 344.61 351.073 348.277V349.728Z" fill="white"/>
<path d="M231.394 351.991C229.744 351.991 228.41 350.657 228.41 349.008C228.41 347.359 229.744 346.024 231.394 346.024H247.906C249.556 346.024 250.89 347.359 250.89 349.008C250.89 350.657 249.556 351.991 247.906 351.991H231.394ZM249.993 335.67C251.642 335.67 252.977 337.005 252.977 338.654C252.977 340.303 251.642 341.637 249.993 341.637H230.017C226.35 341.637 223.377 344.61 223.377 348.277V349.728C223.377 353.395 226.35 356.368 230.017 356.368H249.993C251.642 356.368 252.977 357.702 252.977 359.351C252.977 361 251.642 362.335 249.993 362.335H229.979C223.041 362.335 217.416 356.709 217.416 349.771V348.234C217.416 341.296 223.041 335.67 229.979 335.67H249.993Z" fill="white"/>
<path d="M298.619 359.351C298.619 361 299.953 362.335 301.603 362.335C303.252 362.335 304.586 361 304.586 359.351V338.654C304.586 337.005 303.252 335.67 301.603 335.67C299.953 335.67 298.619 337.005 298.619 338.654V359.351Z" fill="white"/>
</g>
<rect x="578" width="578" height="349" fill="#0E131F"/>
<path d="M631.52 291.8H632.768V303H631.52V291.8ZM635.641 294.808H636.793V296.216C636.985 295.715 637.305 295.325 637.753 295.048C638.201 294.76 638.745 294.616 639.385 294.616C640.335 294.616 641.071 294.92 641.593 295.528C642.127 296.136 642.393 296.957 642.393 297.992V303H641.177V298.168C641.177 297.389 641.007 296.787 640.665 296.36C640.335 295.923 639.839 295.704 639.177 295.704C638.729 295.704 638.329 295.805 637.977 296.008C637.625 296.211 637.348 296.504 637.145 296.888C636.953 297.261 636.857 297.704 636.857 298.216V303H635.641V294.808ZM654.548 303V301.368C654.345 301.891 653.977 302.328 653.444 302.68C652.91 303.021 652.313 303.192 651.652 303.192C650.948 303.192 650.308 303 649.732 302.616C649.166 302.232 648.718 301.715 648.388 301.064C648.068 300.403 647.908 299.683 647.908 298.904C647.908 298.125 648.068 297.411 648.388 296.76C648.718 296.099 649.166 295.576 649.732 295.192C650.308 294.808 650.948 294.616 651.652 294.616C652.302 294.616 652.889 294.792 653.412 295.144C653.945 295.485 654.313 295.917 654.516 296.44V291.32H655.732V303H654.548ZM654.516 298.904C654.516 298.328 654.393 297.795 654.148 297.304C653.913 296.803 653.582 296.408 653.156 296.12C652.74 295.821 652.276 295.672 651.764 295.672C651.252 295.672 650.793 295.821 650.388 296.12C649.993 296.408 649.684 296.803 649.46 297.304C649.236 297.795 649.124 298.328 649.124 298.904C649.124 299.48 649.236 300.019 649.46 300.52C649.684 301.011 649.993 301.405 650.388 301.704C650.793 301.992 651.252 302.136 651.764 302.136C652.276 302.136 652.74 301.992 653.156 301.704C653.582 301.405 653.913 301.011 654.148 300.52C654.393 300.019 654.516 299.48 654.516 298.904ZM658.102 300.616C658.102 299.88 658.358 299.288 658.87 298.84C659.392 298.392 660.107 298.141 661.014 298.088L663.654 297.912V297.608C663.654 296.968 663.488 296.472 663.158 296.12C662.827 295.768 662.336 295.592 661.686 295.592C661.12 295.592 660.662 295.736 660.31 296.024C659.958 296.301 659.734 296.669 659.638 297.128H658.438C658.555 296.371 658.902 295.763 659.478 295.304C660.054 294.845 660.784 294.616 661.67 294.616C662.694 294.616 663.483 294.888 664.038 295.432C664.592 295.965 664.87 296.685 664.87 297.592V303H663.686V301.72C663.515 302.147 663.195 302.499 662.726 302.776C662.256 303.053 661.691 303.192 661.03 303.192C660.144 303.192 659.435 302.957 658.902 302.488C658.368 302.008 658.102 301.384 658.102 300.616ZM659.286 300.584C659.286 301.096 659.451 301.507 659.782 301.816C660.112 302.125 660.582 302.28 661.19 302.28C661.659 302.28 662.08 302.173 662.454 301.96C662.827 301.747 663.12 301.443 663.334 301.048C663.547 300.643 663.654 300.163 663.654 299.608V298.792L661.478 298.936C660.752 298.989 660.203 299.149 659.83 299.416C659.467 299.683 659.286 300.072 659.286 300.584ZM667.516 294.808H668.668V296.776C668.828 296.125 669.122 295.619 669.548 295.256C669.986 294.893 670.567 294.712 671.292 294.712C671.602 294.712 671.826 294.733 671.964 294.776V295.816C671.847 295.795 671.666 295.784 671.42 295.784C670.908 295.784 670.444 295.917 670.028 296.184C669.623 296.44 669.303 296.813 669.068 297.304C668.844 297.795 668.732 298.376 668.732 299.048V303H667.516V294.808ZM673.719 291.32H674.935V299.24L679.191 294.808H680.583L677.479 298.136L680.631 303H679.303L676.663 298.92L674.935 300.728V303H673.719V291.32ZM686.065 291.32H687.281V303H686.065V291.32ZM693.375 303.192C692.639 303.192 691.967 303 691.359 302.616C690.761 302.221 690.292 301.699 689.951 301.048C689.609 300.387 689.439 299.672 689.439 298.904C689.439 298.136 689.609 297.427 689.951 296.776C690.292 296.115 690.761 295.592 691.359 295.208C691.967 294.813 692.639 294.616 693.375 294.616C694.111 294.616 694.777 294.813 695.375 295.208C695.983 295.592 696.457 296.115 696.799 296.776C697.14 297.427 697.311 298.136 697.311 298.904C697.311 299.672 697.14 300.387 696.799 301.048C696.457 301.699 695.983 302.221 695.375 302.616C694.777 303 694.111 303.192 693.375 303.192ZM693.375 302.136C693.908 302.136 694.383 301.987 694.799 301.688C695.215 301.379 695.535 300.979 695.759 300.488C695.983 299.987 696.095 299.459 696.095 298.904C696.095 298.349 695.983 297.827 695.759 297.336C695.535 296.835 695.215 296.435 694.799 296.136C694.383 295.827 693.908 295.672 693.375 295.672C692.841 295.672 692.367 295.827 691.951 296.136C691.535 296.435 691.215 296.835 690.991 297.336C690.767 297.827 690.655 298.349 690.655 298.904C690.655 299.459 690.767 299.987 690.991 300.488C691.215 300.979 691.535 301.379 691.951 301.688C692.367 301.987 692.841 302.136 693.375 302.136ZM698.751 298.648C698.751 297.901 698.906 297.224 699.215 296.616C699.535 295.997 699.973 295.512 700.527 295.16C701.082 294.797 701.717 294.616 702.431 294.616C702.869 294.616 703.274 294.691 703.647 294.84C704.031 294.989 704.351 295.192 704.607 295.448C704.874 295.704 705.071 295.992 705.199 296.312V294.808H706.383V302.648C706.383 303.363 706.234 303.981 705.935 304.504C705.637 305.037 705.21 305.443 704.655 305.72C704.101 305.997 703.445 306.136 702.687 306.136C701.749 306.136 700.949 305.885 700.287 305.384C699.626 304.893 699.183 304.243 698.959 303.432H700.207C700.389 303.955 700.698 304.371 701.135 304.68C701.573 304.989 702.106 305.144 702.735 305.144C703.589 305.144 704.207 304.909 704.591 304.44C704.975 303.971 705.167 303.277 705.167 302.36V300.952C705.05 301.272 704.863 301.565 704.607 301.832C704.351 302.088 704.037 302.296 703.663 302.456C703.29 302.605 702.879 302.68 702.431 302.68C701.717 302.68 701.082 302.504 700.527 302.152C699.973 301.789 699.535 301.304 699.215 300.696C698.906 300.077 698.751 299.395 698.751 298.648ZM699.967 298.648C699.967 299.213 700.079 299.725 700.303 300.184C700.527 300.643 700.837 301.005 701.231 301.272C701.637 301.539 702.101 301.672 702.623 301.672C703.125 301.672 703.567 301.549 703.951 301.304C704.335 301.048 704.634 300.691 704.847 300.232C705.061 299.773 705.167 299.245 705.167 298.648C705.167 298.061 705.055 297.539 704.831 297.08C704.607 296.621 704.303 296.264 703.919 296.008C703.535 295.752 703.103 295.624 702.623 295.624C702.09 295.624 701.621 295.757 701.215 296.024C700.821 296.291 700.511 296.653 700.287 297.112C700.074 297.571 699.967 298.083 699.967 298.648ZM712.406 303.192C711.67 303.192 710.998 303 710.39 302.616C709.793 302.221 709.323 301.699 708.982 301.048C708.641 300.387 708.47 299.672 708.47 298.904C708.47 298.136 708.641 297.427 708.982 296.776C709.323 296.115 709.793 295.592 710.39 295.208C710.998 294.813 711.67 294.616 712.406 294.616C713.142 294.616 713.809 294.813 714.406 295.208C715.014 295.592 715.489 296.115 715.83 296.776C716.171 297.427 716.342 298.136 716.342 298.904C716.342 299.672 716.171 300.387 715.83 301.048C715.489 301.699 715.014 302.221 714.406 302.616C713.809 303 713.142 303.192 712.406 303.192ZM712.406 302.136C712.939 302.136 713.414 301.987 713.83 301.688C714.246 301.379 714.566 300.979 714.79 300.488C715.014 299.987 715.126 299.459 715.126 298.904C715.126 298.349 715.014 297.827 714.79 297.336C714.566 296.835 714.246 296.435 713.83 296.136C713.414 295.827 712.939 295.672 712.406 295.672C711.873 295.672 711.398 295.827 710.982 296.136C710.566 296.435 710.246 296.835 710.022 297.336C709.798 297.827 709.686 298.349 709.686 298.904C709.686 299.459 709.798 299.987 710.022 300.488C710.246 300.979 710.566 301.379 710.982 301.688C711.398 301.987 711.873 302.136 712.406 302.136ZM724.834 303.192C723.853 303.192 723.053 302.947 722.434 302.456C721.815 301.955 721.426 301.272 721.266 300.408H722.434C722.562 300.973 722.823 301.421 723.218 301.752C723.623 302.072 724.162 302.232 724.834 302.232C725.463 302.232 725.965 302.088 726.338 301.8C726.711 301.501 726.898 301.112 726.898 300.632C726.898 300.269 726.765 299.981 726.498 299.768C726.242 299.544 725.837 299.384 725.282 299.288L723.698 299.016C722.973 298.899 722.418 298.675 722.034 298.344C721.661 298.003 721.474 297.549 721.474 296.984C721.474 296.504 721.607 296.088 721.874 295.736C722.141 295.373 722.509 295.096 722.978 294.904C723.447 294.712 723.981 294.616 724.578 294.616C725.506 294.616 726.247 294.84 726.802 295.288C727.367 295.736 727.687 296.349 727.762 297.128H726.594C726.509 296.669 726.295 296.296 725.954 296.008C725.613 295.72 725.149 295.576 724.562 295.576C723.975 295.576 723.501 295.693 723.138 295.928C722.786 296.163 722.61 296.477 722.61 296.872C722.61 297.192 722.711 297.437 722.914 297.608C723.117 297.768 723.474 297.891 723.986 297.976L725.634 298.264C726.434 298.403 727.031 298.659 727.426 299.032C727.831 299.405 728.034 299.917 728.034 300.568C728.034 301.091 727.89 301.549 727.602 301.944C727.325 302.339 726.941 302.648 726.45 302.872C725.97 303.085 725.431 303.192 724.834 303.192ZM730.079 291.32H731.295V296.216C731.476 295.704 731.791 295.309 732.239 295.032C732.687 294.755 733.215 294.616 733.823 294.616C734.761 294.616 735.497 294.915 736.031 295.512C736.564 296.109 736.831 296.92 736.831 297.944V303H735.615V298.12C735.615 297.363 735.444 296.771 735.103 296.344C734.772 295.917 734.276 295.704 733.615 295.704C733.167 295.704 732.767 295.805 732.415 296.008C732.063 296.2 731.785 296.488 731.583 296.872C731.391 297.245 731.295 297.693 731.295 298.216V303H730.079V291.32ZM742.765 303.192C742.029 303.192 741.357 303 740.749 302.616C740.152 302.221 739.683 301.699 739.341 301.048C739 300.387 738.829 299.672 738.829 298.904C738.829 298.136 739 297.427 739.341 296.776C739.683 296.115 740.152 295.592 740.749 295.208C741.357 294.813 742.029 294.616 742.765 294.616C743.501 294.616 744.168 294.813 744.765 295.208C745.373 295.592 745.848 296.115 746.189 296.776C746.531 297.427 746.701 298.136 746.701 298.904C746.701 299.672 746.531 300.387 746.189 301.048C745.848 301.699 745.373 302.221 744.765 302.616C744.168 303 743.501 303.192 742.765 303.192ZM742.765 302.136C743.299 302.136 743.773 301.987 744.189 301.688C744.605 301.379 744.925 300.979 745.149 300.488C745.373 299.987 745.485 299.459 745.485 298.904C745.485 298.349 745.373 297.827 745.149 297.336C744.925 296.835 744.605 296.435 744.189 296.136C743.773 295.827 743.299 295.672 742.765 295.672C742.232 295.672 741.757 295.827 741.341 296.136C740.925 296.435 740.605 296.835 740.381 297.336C740.157 297.827 740.045 298.349 740.045 298.904C740.045 299.459 740.157 299.987 740.381 300.488C740.605 300.979 740.925 301.379 741.341 301.688C741.757 301.987 742.232 302.136 742.765 302.136ZM748.702 294.808H749.918V299.672C749.918 300.451 750.083 301.059 750.414 301.496C750.745 301.923 751.241 302.136 751.902 302.136C752.35 302.136 752.745 302.035 753.086 301.832C753.427 301.629 753.694 301.341 753.886 300.968C754.078 300.584 754.174 300.136 754.174 299.624V294.808H755.39V303H754.238V301.624C754.057 302.093 753.742 302.472 753.294 302.76C752.857 303.048 752.323 303.192 751.694 303.192C750.755 303.192 750.019 302.888 749.486 302.28C748.963 301.672 748.702 300.851 748.702 299.816V294.808ZM758.19 291.32H759.406V303H758.19V291.32ZM768.204 303V301.368C768.001 301.891 767.633 302.328 767.1 302.68C766.566 303.021 765.969 303.192 765.308 303.192C764.604 303.192 763.964 303 763.388 302.616C762.822 302.232 762.374 301.715 762.044 301.064C761.724 300.403 761.564 299.683 761.564 298.904C761.564 298.125 761.724 297.411 762.044 296.76C762.374 296.099 762.822 295.576 763.388 295.192C763.964 294.808 764.604 294.616 765.308 294.616C765.958 294.616 766.545 294.792 767.068 295.144C767.601 295.485 767.969 295.917 768.172 296.44V291.32H769.388V303H768.204ZM768.172 298.904C768.172 298.328 768.049 297.795 767.804 297.304C767.569 296.803 767.238 296.408 766.812 296.12C766.396 295.821 765.932 295.672 765.42 295.672C764.908 295.672 764.449 295.821 764.044 296.12C763.649 296.408 763.34 296.803 763.116 297.304C762.892 297.795 762.78 298.328 762.78 298.904C762.78 299.48 762.892 300.019 763.116 300.52C763.34 301.011 763.649 301.405 764.044 301.704C764.449 301.992 764.908 302.136 765.42 302.136C765.932 302.136 766.396 301.992 766.812 301.704C767.238 301.405 767.569 301.011 767.804 300.52C768.049 300.019 768.172 299.48 768.172 298.904ZM775.626 291.32H776.842V296.44C777.044 295.917 777.407 295.485 777.93 295.144C778.463 294.792 779.055 294.616 779.706 294.616C780.41 294.616 781.044 294.808 781.61 295.192C782.186 295.576 782.634 296.099 782.954 296.76C783.284 297.411 783.45 298.125 783.45 298.904C783.45 299.683 783.284 300.403 782.954 301.064C782.634 301.715 782.186 302.232 781.61 302.616C781.044 303 780.41 303.192 779.706 303.192C779.044 303.192 778.447 303.021 777.914 302.68C777.38 302.328 777.012 301.891 776.81 301.368V303H775.626V291.32ZM776.842 298.904C776.842 299.48 776.959 300.019 777.194 300.52C777.439 301.011 777.77 301.405 778.186 301.704C778.612 301.992 779.082 302.136 779.594 302.136C780.106 302.136 780.559 301.992 780.954 301.704C781.359 301.405 781.674 301.011 781.898 300.52C782.122 300.019 782.234 299.48 782.234 298.904C782.234 298.328 782.122 297.795 781.898 297.304C781.674 296.803 781.359 296.408 780.954 296.12C780.559 295.821 780.106 295.672 779.594 295.672C779.082 295.672 778.612 295.821 778.186 296.12C777.77 296.408 777.439 296.803 777.194 297.304C776.959 297.795 776.842 298.328 776.842 298.904ZM784.892 298.904C784.892 298.093 785.057 297.363 785.388 296.712C785.719 296.061 786.172 295.549 786.748 295.176C787.324 294.803 787.975 294.616 788.7 294.616C789.489 294.616 790.161 294.797 790.716 295.16C791.281 295.512 791.703 295.992 791.98 296.6C792.268 297.208 792.412 297.885 792.412 298.632V299.192H786.076C786.108 299.757 786.231 300.269 786.444 300.728C786.657 301.176 786.961 301.533 787.356 301.8C787.761 302.067 788.236 302.2 788.78 302.2C789.367 302.2 789.847 302.067 790.22 301.8C790.593 301.523 790.876 301.155 791.068 300.696H792.252C792.103 301.197 791.863 301.635 791.532 302.008C791.212 302.381 790.812 302.675 790.332 302.888C789.863 303.091 789.345 303.192 788.78 303.192C787.98 303.192 787.287 303 786.7 302.616C786.113 302.232 785.665 301.715 785.356 301.064C785.047 300.413 784.892 299.693 784.892 298.904ZM791.276 298.216C791.233 297.704 791.105 297.251 790.892 296.856C790.679 296.461 790.385 296.152 790.012 295.928C789.639 295.693 789.196 295.576 788.684 295.576C788.204 295.576 787.777 295.693 787.404 295.928C787.041 296.163 786.748 296.477 786.524 296.872C786.311 297.267 786.172 297.715 786.108 298.216H791.276ZM798.112 294.808H799.328V303H798.112V294.808ZM798.08 291.624H799.36V293.272H798.08V291.624ZM802.126 294.808H803.278V296.216C803.47 295.715 803.79 295.325 804.238 295.048C804.686 294.76 805.23 294.616 805.87 294.616C806.819 294.616 807.555 294.92 808.078 295.528C808.611 296.136 808.878 296.957 808.878 297.992V303H807.662V298.168C807.662 297.389 807.491 296.787 807.15 296.36C806.819 295.923 806.323 295.704 805.662 295.704C805.214 295.704 804.814 295.805 804.462 296.008C804.11 296.211 803.832 296.504 803.63 296.888C803.438 297.261 803.342 297.704 803.342 298.216V303H802.126V294.808ZM817.96 303.096C817.16 303.096 816.557 302.883 816.152 302.456C815.757 302.019 815.56 301.379 815.56 300.536V295.832H813.992V294.808H815.56V292.632H816.776V294.808H819.208V295.832H816.776V300.6C816.776 301.069 816.888 301.427 817.112 301.672C817.347 301.917 817.693 302.04 818.152 302.04C818.504 302.04 818.861 301.987 819.224 301.88V302.92C819.096 302.973 818.915 303.016 818.68 303.048C818.456 303.08 818.216 303.096 817.96 303.096ZM820.47 298.904C820.47 298.093 820.635 297.363 820.966 296.712C821.297 296.061 821.75 295.549 822.326 295.176C822.902 294.803 823.553 294.616 824.278 294.616C825.067 294.616 825.739 294.797 826.294 295.16C826.859 295.512 827.281 295.992 827.558 296.6C827.846 297.208 827.99 297.885 827.99 298.632V299.192H821.654C821.686 299.757 821.809 300.269 822.022 300.728C822.235 301.176 822.539 301.533 822.934 301.8C823.339 302.067 823.814 302.2 824.358 302.2C824.945 302.2 825.425 302.067 825.798 301.8C826.171 301.523 826.454 301.155 826.646 300.696H827.83C827.681 301.197 827.441 301.635 827.11 302.008C826.79 302.381 826.39 302.675 825.91 302.888C825.441 303.091 824.923 303.192 824.358 303.192C823.558 303.192 822.865 303 822.278 302.616C821.691 302.232 821.243 301.715 820.934 301.064C820.625 300.413 820.47 299.693 820.47 298.904ZM826.854 298.216C826.811 297.704 826.683 297.251 826.47 296.856C826.257 296.461 825.963 296.152 825.59 295.928C825.217 295.693 824.774 295.576 824.262 295.576C823.782 295.576 823.355 295.693 822.982 295.928C822.619 296.163 822.326 296.477 822.102 296.872C821.889 297.267 821.75 297.715 821.686 298.216H826.854ZM829.742 300.616C829.742 299.88 829.998 299.288 830.51 298.84C831.033 298.392 831.748 298.141 832.654 298.088L835.294 297.912V297.608C835.294 296.968 835.129 296.472 834.798 296.12C834.468 295.768 833.977 295.592 833.326 295.592C832.761 295.592 832.302 295.736 831.95 296.024C831.598 296.301 831.374 296.669 831.278 297.128H830.078C830.196 296.371 830.542 295.763 831.118 295.304C831.694 294.845 832.425 294.616 833.31 294.616C834.334 294.616 835.124 294.888 835.678 295.432C836.233 295.965 836.51 296.685 836.51 297.592V303H835.326V301.72C835.156 302.147 834.836 302.499 834.366 302.776C833.897 303.053 833.332 303.192 832.67 303.192C831.785 303.192 831.076 302.957 830.542 302.488C830.009 302.008 829.742 301.384 829.742 300.616ZM830.926 300.584C830.926 301.096 831.092 301.507 831.422 301.816C831.753 302.125 832.222 302.28 832.83 302.28C833.3 302.28 833.721 302.173 834.094 301.96C834.468 301.747 834.761 301.443 834.974 301.048C835.188 300.643 835.294 300.163 835.294 299.608V298.792L833.118 298.936C832.393 298.989 831.844 299.149 831.47 299.416C831.108 299.683 830.926 300.072 830.926 300.584ZM839.237 291.32H840.453V303H839.237V291.32ZM846.126 298.648C846.126 297.901 846.281 297.224 846.59 296.616C846.91 295.997 847.348 295.512 847.902 295.16C848.457 294.797 849.092 294.616 849.806 294.616C850.244 294.616 850.649 294.691 851.022 294.84C851.406 294.989 851.726 295.192 851.982 295.448C852.249 295.704 852.446 295.992 852.574 296.312V294.808H853.758V302.648C853.758 303.363 853.609 303.981 853.31 304.504C853.012 305.037 852.585 305.443 852.03 305.72C851.476 305.997 850.82 306.136 850.062 306.136C849.124 306.136 848.324 305.885 847.662 305.384C847.001 304.893 846.558 304.243 846.334 303.432H847.582C847.764 303.955 848.073 304.371 848.51 304.68C848.948 304.989 849.481 305.144 850.11 305.144C850.964 305.144 851.582 304.909 851.966 304.44C852.35 303.971 852.542 303.277 852.542 302.36V300.952C852.425 301.272 852.238 301.565 851.982 301.832C851.726 302.088 851.412 302.296 851.038 302.456C850.665 302.605 850.254 302.68 849.806 302.68C849.092 302.68 848.457 302.504 847.902 302.152C847.348 301.789 846.91 301.304 846.59 300.696C846.281 300.077 846.126 299.395 846.126 298.648ZM847.342 298.648C847.342 299.213 847.454 299.725 847.678 300.184C847.902 300.643 848.212 301.005 848.606 301.272C849.012 301.539 849.476 301.672 849.998 301.672C850.5 301.672 850.942 301.549 851.326 301.304C851.71 301.048 852.009 300.691 852.222 300.232C852.436 299.773 852.542 299.245 852.542 298.648C852.542 298.061 852.43 297.539 852.206 297.08C851.982 296.621 851.678 296.264 851.294 296.008C850.91 295.752 850.478 295.624 849.998 295.624C849.465 295.624 848.996 295.757 848.59 296.024C848.196 296.291 847.886 296.653 847.662 297.112C847.449 297.571 847.342 298.083 847.342 298.648ZM856.485 294.808H857.637V296.776C857.797 296.125 858.09 295.619 858.517 295.256C858.954 294.893 859.536 294.712 860.261 294.712C860.57 294.712 860.794 294.733 860.933 294.776V295.816C860.816 295.795 860.634 295.784 860.389 295.784C859.877 295.784 859.413 295.917 858.997 296.184C858.592 296.44 858.272 296.813 858.037 297.304C857.813 297.795 857.701 298.376 857.701 299.048V303H856.485V294.808ZM861.814 298.904C861.814 298.093 861.979 297.363 862.31 296.712C862.64 296.061 863.094 295.549 863.67 295.176C864.246 294.803 864.896 294.616 865.622 294.616C866.411 294.616 867.083 294.797 867.638 295.16C868.203 295.512 868.624 295.992 868.902 296.6C869.19 297.208 869.334 297.885 869.334 298.632V299.192H862.998C863.03 299.757 863.152 300.269 863.366 300.728C863.579 301.176 863.883 301.533 864.278 301.8C864.683 302.067 865.158 302.2 865.702 302.2C866.288 302.2 866.768 302.067 867.142 301.8C867.515 301.523 867.798 301.155 867.99 300.696H869.174C869.024 301.197 868.784 301.635 868.454 302.008C868.134 302.381 867.734 302.675 867.254 302.888C866.784 303.091 866.267 303.192 865.702 303.192C864.902 303.192 864.208 303 863.622 302.616C863.035 302.232 862.587 301.715 862.278 301.064C861.968 300.413 861.814 299.693 861.814 298.904ZM868.198 298.216C868.155 297.704 868.027 297.251 867.814 296.856C867.6 296.461 867.307 296.152 866.934 295.928C866.56 295.693 866.118 295.576 865.606 295.576C865.126 295.576 864.699 295.693 864.326 295.928C863.963 296.163 863.67 296.477 863.446 296.872C863.232 297.267 863.094 297.715 863.03 298.216H868.198ZM870.829 298.904C870.829 298.093 870.995 297.363 871.325 296.712C871.656 296.061 872.109 295.549 872.685 295.176C873.261 294.803 873.912 294.616 874.637 294.616C875.427 294.616 876.099 294.797 876.653 295.16C877.219 295.512 877.64 295.992 877.917 296.6C878.205 297.208 878.349 297.885 878.349 298.632V299.192H872.013C872.045 299.757 872.168 300.269 872.381 300.728C872.595 301.176 872.899 301.533 873.293 301.8C873.699 302.067 874.173 302.2 874.717 302.2C875.304 302.2 875.784 302.067 876.157 301.8C876.531 301.523 876.813 301.155 877.005 300.696H878.189C878.04 301.197 877.8 301.635 877.469 302.008C877.149 302.381 876.749 302.675 876.269 302.888C875.8 303.091 875.283 303.192 874.717 303.192C873.917 303.192 873.224 303 872.637 302.616C872.051 302.232 871.603 301.715 871.293 301.064C870.984 300.413 870.829 299.693 870.829 298.904ZM877.213 298.216C877.171 297.704 877.043 297.251 876.829 296.856C876.616 296.461 876.323 296.152 875.949 295.928C875.576 295.693 875.133 295.576 874.621 295.576C874.141 295.576 873.715 295.693 873.341 295.928C872.979 296.163 872.685 296.477 872.461 296.872C872.248 297.267 872.109 297.715 872.045 298.216H877.213ZM880.454 294.808H881.606V296.216C881.798 295.715 882.118 295.325 882.566 295.048C883.014 294.76 883.558 294.616 884.198 294.616C885.147 294.616 885.883 294.92 886.406 295.528C886.939 296.136 887.206 296.957 887.206 297.992V303H885.99V298.168C885.99 297.389 885.819 296.787 885.478 296.36C885.147 295.923 884.651 295.704 883.99 295.704C883.542 295.704 883.142 295.805 882.79 296.008C882.438 296.211 882.16 296.504 881.958 296.888C881.766 297.261 881.67 297.704 881.67 298.216V303H880.454V294.808Z" fill="white" fill-opacity="0.9"/>
<path d="M630.594 234.816H632.358L632.61 232.386H631.044V230.478H632.826L633.15 227.4H635.292L634.968 230.478H637.182L637.506 227.4H639.648L639.324 230.478H640.872V232.386H639.108L638.856 234.816H640.422V236.724H638.64L638.298 240H636.156L636.498 236.724H634.302L633.942 240H631.8L632.16 236.724H630.594V234.816ZM636.714 234.816L636.966 232.386H634.752L634.5 234.816H636.714ZM647.617 240.252C646.453 240.252 645.469 239.964 644.665 239.388C643.861 238.8 643.261 238.014 642.865 237.03C642.469 236.034 642.271 234.924 642.271 233.7C642.271 232.476 642.469 231.372 642.865 230.388C643.261 229.392 643.861 228.606 644.665 228.03C645.469 227.442 646.453 227.148 647.617 227.148C648.781 227.148 649.765 227.442 650.569 228.03C651.373 228.606 651.973 229.392 652.369 230.388C652.765 231.372 652.963 232.476 652.963 233.7C652.963 234.924 652.765 236.034 652.369 237.03C651.973 238.014 651.373 238.8 650.569 239.388C649.765 239.964 648.781 240.252 647.617 240.252ZM647.617 237.624C648.145 237.624 648.577 237.45 648.913 237.102C649.261 236.754 649.513 236.286 649.669 235.698C649.825 235.11 649.903 234.444 649.903 233.7C649.903 232.956 649.825 232.29 649.669 231.702C649.513 231.114 649.261 230.646 648.913 230.298C648.577 229.95 648.145 229.776 647.617 229.776C647.089 229.776 646.651 229.95 646.303 230.298C645.967 230.646 645.721 231.114 645.565 231.702C645.409 232.29 645.331 232.956 645.331 233.7C645.331 234.444 645.409 235.11 645.565 235.698C645.721 236.286 645.967 236.754 646.303 237.102C646.651 237.45 647.089 237.624 647.617 237.624ZM654.936 227.4H664.53V230.082H658.032V232.26H664.296V234.942H658.032V237.318H664.674V240H654.936V227.4ZM668.836 230.802L666.028 232.26V229.254L669.358 227.4H671.896V240H668.836V230.802ZM678.77 240.252C677.834 240.252 677.012 240.078 676.304 239.73C675.596 239.382 675.038 238.896 674.63 238.272C674.222 237.648 673.988 236.922 673.928 236.094H676.862C676.922 236.574 677.12 236.964 677.456 237.264C677.792 237.552 678.224 237.696 678.752 237.696C679.1 237.696 679.4 237.636 679.652 237.516C679.904 237.396 680.096 237.234 680.228 237.03C680.36 236.814 680.426 236.574 680.426 236.31C680.426 236.034 680.36 235.8 680.228 235.608C680.096 235.404 679.904 235.248 679.652 235.14C679.4 235.032 679.106 234.978 678.77 234.978H676.844V232.314H678.32C678.692 232.314 679.01 232.266 679.274 232.17C679.55 232.074 679.76 231.93 679.904 231.738C680.048 231.534 680.12 231.288 680.12 231C680.12 230.748 680.06 230.526 679.94 230.334C679.82 230.142 679.64 229.992 679.4 229.884C679.172 229.764 678.908 229.704 678.608 229.704C678.116 229.704 677.732 229.836 677.456 230.1C677.18 230.364 677.03 230.712 677.006 231.144H674.126C674.162 230.352 674.366 229.656 674.738 229.056C675.122 228.444 675.644 227.976 676.304 227.652C676.964 227.316 677.732 227.148 678.608 227.148C679.496 227.148 680.282 227.304 680.966 227.616C681.65 227.916 682.184 228.348 682.568 228.912C682.952 229.464 683.144 230.112 683.144 230.856C683.144 231.48 682.982 232.026 682.658 232.494C682.346 232.95 681.896 233.292 681.308 233.52C682.016 233.724 682.55 234.078 682.91 234.582C683.27 235.074 683.45 235.68 683.45 236.4C683.45 237.18 683.246 237.864 682.838 238.452C682.43 239.028 681.872 239.472 681.164 239.784C680.456 240.096 679.658 240.252 678.77 240.252ZM687.522 230.802L684.714 232.26V229.254L688.044 227.4H690.582V240H687.522V230.802ZM693.01 227.4H702.316V230.082H696.106V232.476H702.082V235.158H696.106V240H693.01V227.4Z" fill="white" fill-opacity="0.9"/>
<path d="M630 267H1092" stroke="white" stroke-opacity="0.9" stroke-width="0.5"/>
<path d="M869.783 152.174C866.114 149.292 862.049 147.05 857.682 145.494C862.045 143.942 866.11 141.709 869.783 138.836C870.366 138.378 870.74 137.671 870.74 136.879C870.74 135.505 869.628 134.393 868.253 134.393C867.675 134.393 867.146 134.593 866.723 134.922C863.077 137.773 858.994 139.917 854.591 141.291C851.437 142.274 848.177 142.83 844.882 142.972V136.879C844.882 135.505 843.77 134.393 842.395 134.393C841.021 134.393 839.909 135.505 839.909 136.879V154.126C839.909 155.5 841.021 156.612 842.395 156.612C843.77 156.612 844.882 155.5 844.882 154.126V148.011C848.177 148.149 851.437 148.709 854.586 149.692C858.994 151.071 863.072 153.219 866.719 156.079C867.142 156.408 867.675 156.608 868.253 156.608C869.628 156.608 870.74 155.496 870.74 154.122C870.74 153.33 870.366 152.623 869.788 152.169L869.783 152.174Z" fill="#00C3B4"/>
<path d="M802.954 134.393H769.486C768.112 134.393 767 135.505 767 136.879C767 138.253 768.112 139.365 769.486 139.365H783.732V154.126C783.732 155.5 784.844 156.612 786.218 156.612C787.592 156.612 788.704 155.5 788.704 154.126V139.365H802.95C804.324 139.365 805.436 138.253 805.436 136.879C805.436 135.505 804.324 134.393 802.95 134.393H802.954Z" fill="#00C3B4"/>
<path d="M967 136.879C967 135.504 965.888 134.393 964.514 134.393C963.139 134.393 962.028 135.504 962.028 136.879V149.589C962.028 149.763 961.983 149.936 961.894 150.092C961.614 150.572 961 150.737 960.52 150.461L933.719 134.997C931.548 133.743 928.773 134.486 927.519 136.656C927.105 137.372 926.91 138.155 926.91 138.924V154.121C926.91 155.495 928.022 156.607 929.396 156.607C930.77 156.607 931.882 155.495 931.882 154.121V141.411C931.882 141.242 931.927 141.064 932.015 140.908C932.296 140.428 932.909 140.263 933.39 140.539L960.191 155.998C962.361 157.252 965.136 156.509 966.391 154.339C966.804 153.623 967 152.84 967 152.071V136.874V136.879Z" fill="#00C3B4"/>
<path d="M913.159 134.393H894.012C888.23 134.393 883.543 139.081 883.543 144.862V146.143C883.543 151.925 888.23 156.612 894.012 156.612H913.159C918.941 156.612 923.629 151.925 923.629 146.143V144.862C923.629 139.081 918.941 134.393 913.159 134.393ZM918.727 146.108C918.727 149.163 916.25 151.64 913.195 151.64H894.048C890.992 151.64 888.515 149.163 888.515 146.108V144.898C888.515 141.842 890.992 139.365 894.048 139.365H913.195C916.25 139.365 918.727 141.842 918.727 144.898V146.108Z" fill="#00C3B4"/>
<path d="M818.995 147.993C817.621 147.993 816.509 146.881 816.509 145.507C816.509 144.133 817.621 143.021 818.995 143.021H832.756C834.13 143.021 835.242 144.133 835.242 145.507C835.242 146.881 834.13 147.993 832.756 147.993H818.995ZM834.495 134.393C835.869 134.393 836.981 135.505 836.981 136.879C836.981 138.253 835.869 139.365 834.495 139.365H817.847C814.792 139.365 812.315 141.842 812.315 144.898V146.108C812.315 149.163 814.792 151.64 817.847 151.64H834.495C835.869 151.64 836.981 152.752 836.981 154.126C836.981 155.5 835.869 156.612 834.495 156.612H817.816C812.034 156.612 807.347 151.925 807.347 146.143V144.862C807.347 139.081 812.034 134.393 817.816 134.393H834.495Z" fill="#00C3B4"/>
<path d="M875.016 154.126C875.016 155.5 876.128 156.612 877.502 156.612C878.877 156.612 879.988 155.5 879.988 154.126V136.879C879.988 135.505 878.877 134.393 877.502 134.393C876.128 134.393 875.016 135.505 875.016 136.879V154.126Z" fill="#00C3B4"/>
<rect x="578" y="349" width="578" height="349" fill="white"/>
<rect x="578.1" y="349.1" width="577.8" height="348.8" stroke="black" stroke-opacity="0.6" stroke-width="0.2"/>
<path d="M863.783 501.174C860.114 498.292 856.049 496.05 851.681 494.494C856.044 492.942 860.109 490.709 863.783 487.836C864.366 487.378 864.739 486.671 864.739 485.879C864.739 484.505 863.628 483.393 862.253 483.393C861.675 483.393 861.146 483.593 860.723 483.922C857.076 486.773 852.993 488.917 848.59 490.291C845.437 491.274 842.177 491.83 838.881 491.972V485.879C838.881 484.505 837.769 483.393 836.395 483.393C835.021 483.393 833.909 484.505 833.909 485.879V503.126C833.909 504.5 835.021 505.612 836.395 505.612C837.769 505.612 838.881 504.5 838.881 503.126V497.011C842.177 497.149 845.437 497.709 848.586 498.692C852.993 500.071 857.072 502.219 860.719 505.079C861.141 505.408 861.675 505.608 862.253 505.608C863.628 505.608 864.739 504.496 864.739 503.122C864.739 502.33 864.366 501.623 863.788 501.169L863.783 501.174Z" fill="#00C3B4"/>
<path d="M796.954 483.393H763.486C762.112 483.393 761 484.505 761 485.879C761 487.253 762.112 488.365 763.486 488.365H777.731V503.126C777.731 504.5 778.843 505.612 780.218 505.612C781.592 505.612 782.704 504.5 782.704 503.126V488.365H796.949C798.324 488.365 799.436 487.253 799.436 485.879C799.436 484.505 798.324 483.393 796.949 483.393H796.954Z" fill="#00C3B4"/>
<path d="M961 485.879C961 484.504 959.888 483.393 958.514 483.393C957.139 483.393 956.027 484.504 956.027 485.879V498.589C956.027 498.763 955.983 498.936 955.894 499.092C955.614 499.572 955 499.737 954.52 499.461L927.719 483.997C925.548 482.743 922.773 483.486 921.519 485.656C921.105 486.372 920.909 487.155 920.909 487.924V503.121C920.909 504.495 922.021 505.607 923.396 505.607C924.77 505.607 925.882 504.495 925.882 503.121V490.411C925.882 490.242 925.926 490.064 926.015 489.908C926.295 489.428 926.909 489.263 927.39 489.539L954.19 504.998C956.361 506.252 959.136 505.509 960.39 503.339C960.804 502.623 961 501.84 961 501.071V485.874V485.879Z" fill="#00C3B4"/>
<path d="M907.159 483.393H888.012C882.23 483.393 877.542 488.081 877.542 493.862V495.143C877.542 500.925 882.23 505.612 888.012 505.612H907.159C912.941 505.612 917.628 500.925 917.628 495.143V493.862C917.628 488.081 912.941 483.393 907.159 483.393ZM912.727 495.108C912.727 498.163 910.25 500.64 907.194 500.64H888.048C884.992 500.64 882.515 498.163 882.515 495.108V493.898C882.515 490.842 884.992 488.365 888.048 488.365H907.194C910.25 488.365 912.727 490.842 912.727 493.898V495.108Z" fill="#00C3B4"/>
<path d="M812.995 496.993C811.62 496.993 810.508 495.881 810.508 494.507C810.508 493.133 811.62 492.021 812.995 492.021H826.755C828.13 492.021 829.242 493.133 829.242 494.507C829.242 495.881 828.13 496.993 826.755 496.993H812.995ZM828.494 483.393C829.869 483.393 830.981 484.505 830.981 485.879C830.981 487.253 829.869 488.365 828.494 488.365H811.847C808.792 488.365 806.314 490.842 806.314 493.898V495.108C806.314 498.163 808.792 500.64 811.847 500.64H828.494C829.869 500.64 830.981 501.752 830.981 503.126C830.981 504.5 829.869 505.612 828.494 505.612H811.816C806.034 505.612 801.346 500.925 801.346 495.143V493.862C801.346 488.081 806.034 483.393 811.816 483.393H828.494Z" fill="#00C3B4"/>
<path d="M869.016 503.126C869.016 504.5 870.128 505.612 871.502 505.612C872.876 505.612 873.988 504.5 873.988 503.126V485.879C873.988 484.505 872.876 483.393 871.502 483.393C870.128 483.393 869.016 484.505 869.016 485.879V503.126Z" fill="#00C3B4"/>
<path d="M631.52 640.8H632.768V652H631.52V640.8ZM635.641 643.808H636.793V645.216C636.985 644.715 637.305 644.325 637.753 644.048C638.201 643.76 638.745 643.616 639.385 643.616C640.335 643.616 641.071 643.92 641.593 644.528C642.127 645.136 642.393 645.957 642.393 646.992V652H641.177V647.168C641.177 646.389 641.007 645.787 640.665 645.36C640.335 644.923 639.839 644.704 639.177 644.704C638.729 644.704 638.329 644.805 637.977 645.008C637.625 645.211 637.348 645.504 637.145 645.888C636.953 646.261 636.857 646.704 636.857 647.216V652H635.641V643.808ZM648.756 643.808L650.452 650.496L652.66 643.808H653.876L656.068 650.496L657.78 643.808H658.948L656.628 652H655.556L653.268 644.912L650.98 652H649.908L647.588 643.808H648.756ZM660.704 640.32H661.92V645.216C662.101 644.704 662.416 644.309 662.864 644.032C663.312 643.755 663.84 643.616 664.448 643.616C665.386 643.616 666.122 643.915 666.656 644.512C667.189 645.109 667.456 645.92 667.456 646.944V652H666.24V647.12C666.24 646.363 666.069 645.771 665.728 645.344C665.397 644.917 664.901 644.704 664.24 644.704C663.792 644.704 663.392 644.805 663.04 645.008C662.688 645.2 662.41 645.488 662.208 645.872C662.016 646.245 661.92 646.693 661.92 647.216V652H660.704V640.32ZM670.174 643.808H671.39V652H670.174V643.808ZM670.142 640.624H671.422V642.272H670.142V640.624ZM677.116 652.096C676.316 652.096 675.713 651.883 675.308 651.456C674.913 651.019 674.716 650.379 674.716 649.536V644.832H673.148V643.808H674.716V641.632H675.932V643.808H678.364V644.832H675.932V649.6C675.932 650.069 676.044 650.427 676.268 650.672C676.503 650.917 676.849 651.04 677.308 651.04C677.66 651.04 678.017 650.987 678.38 650.88V651.92C678.252 651.973 678.071 652.016 677.836 652.048C677.612 652.08 677.372 652.096 677.116 652.096ZM679.626 647.904C679.626 647.093 679.792 646.363 680.122 645.712C680.453 645.061 680.906 644.549 681.482 644.176C682.058 643.803 682.709 643.616 683.434 643.616C684.224 643.616 684.896 643.797 685.45 644.16C686.016 644.512 686.437 644.992 686.714 645.6C687.002 646.208 687.146 646.885 687.146 647.632V648.192H680.81C680.842 648.757 680.965 649.269 681.178 649.728C681.392 650.176 681.696 650.533 682.09 650.8C682.496 651.067 682.97 651.2 683.514 651.2C684.101 651.2 684.581 651.067 684.954 650.8C685.328 650.523 685.61 650.155 685.802 649.696H686.986C686.837 650.197 686.597 650.635 686.266 651.008C685.946 651.381 685.546 651.675 685.066 651.888C684.597 652.091 684.08 652.192 683.514 652.192C682.714 652.192 682.021 652 681.434 651.616C680.848 651.232 680.4 650.715 680.09 650.064C679.781 649.413 679.626 648.693 679.626 647.904ZM686.01 647.216C685.968 646.704 685.84 646.251 685.626 645.856C685.413 645.461 685.12 645.152 684.746 644.928C684.373 644.693 683.93 644.576 683.418 644.576C682.938 644.576 682.512 644.693 682.138 644.928C681.776 645.163 681.482 645.477 681.258 645.872C681.045 646.267 680.906 646.715 680.842 647.216H686.01ZM692.846 640.32H694.062V652H692.846V640.32ZM700.156 652.192C699.42 652.192 698.748 652 698.14 651.616C697.543 651.221 697.073 650.699 696.732 650.048C696.391 649.387 696.22 648.672 696.22 647.904C696.22 647.136 696.391 646.427 696.732 645.776C697.073 645.115 697.543 644.592 698.14 644.208C698.748 643.813 699.42 643.616 700.156 643.616C700.892 643.616 701.559 643.813 702.156 644.208C702.764 644.592 703.239 645.115 703.58 645.776C703.921 646.427 704.092 647.136 704.092 647.904C704.092 648.672 703.921 649.387 703.58 650.048C703.239 650.699 702.764 651.221 702.156 651.616C701.559 652 700.892 652.192 700.156 652.192ZM700.156 651.136C700.689 651.136 701.164 650.987 701.58 650.688C701.996 650.379 702.316 649.979 702.54 649.488C702.764 648.987 702.876 648.459 702.876 647.904C702.876 647.349 702.764 646.827 702.54 646.336C702.316 645.835 701.996 645.435 701.58 645.136C701.164 644.827 700.689 644.672 700.156 644.672C699.623 644.672 699.148 644.827 698.732 645.136C698.316 645.435 697.996 645.835 697.772 646.336C697.548 646.827 697.436 647.349 697.436 647.904C697.436 648.459 697.548 648.987 697.772 649.488C697.996 649.979 698.316 650.379 698.732 650.688C699.148 650.987 699.623 651.136 700.156 651.136ZM705.533 647.648C705.533 646.901 705.687 646.224 705.997 645.616C706.317 644.997 706.754 644.512 707.309 644.16C707.863 643.797 708.498 643.616 709.213 643.616C709.65 643.616 710.055 643.691 710.429 643.84C710.813 643.989 711.133 644.192 711.389 644.448C711.655 644.704 711.853 644.992 711.981 645.312V643.808H713.165V651.648C713.165 652.363 713.015 652.981 712.717 653.504C712.418 654.037 711.991 654.443 711.437 654.72C710.882 654.997 710.226 655.136 709.469 655.136C708.53 655.136 707.73 654.885 707.069 654.384C706.407 653.893 705.965 653.243 705.741 652.432H706.989C707.17 652.955 707.479 653.371 707.917 653.68C708.354 653.989 708.887 654.144 709.516 654.144C710.37 654.144 710.989 653.909 711.373 653.44C711.757 652.971 711.949 652.277 711.949 651.36V649.952C711.831 650.272 711.645 650.565 711.389 650.832C711.133 651.088 710.818 651.296 710.445 651.456C710.071 651.605 709.661 651.68 709.213 651.68C708.498 651.68 707.863 651.504 707.309 651.152C706.754 650.789 706.317 650.304 705.997 649.696C705.687 649.077 705.533 648.395 705.533 647.648ZM706.749 647.648C706.749 648.213 706.861 648.725 707.085 649.184C707.309 649.643 707.618 650.005 708.013 650.272C708.418 650.539 708.882 650.672 709.405 650.672C709.906 650.672 710.349 650.549 710.733 650.304C711.117 650.048 711.415 649.691 711.629 649.232C711.842 648.773 711.949 648.245 711.949 647.648C711.949 647.061 711.837 646.539 711.613 646.08C711.389 645.621 711.085 645.264 710.701 645.008C710.317 644.752 709.885 644.624 709.405 644.624C708.871 644.624 708.402 644.757 707.997 645.024C707.602 645.291 707.293 645.653 707.069 646.112C706.855 646.571 706.749 647.083 706.749 647.648ZM719.187 652.192C718.451 652.192 717.779 652 717.171 651.616C716.574 651.221 716.105 650.699 715.763 650.048C715.422 649.387 715.251 648.672 715.251 647.904C715.251 647.136 715.422 646.427 715.763 645.776C716.105 645.115 716.574 644.592 717.171 644.208C717.779 643.813 718.451 643.616 719.187 643.616C719.923 643.616 720.59 643.813 721.187 644.208C721.795 644.592 722.27 645.115 722.611 645.776C722.953 646.427 723.123 647.136 723.123 647.904C723.123 648.672 722.953 649.387 722.611 650.048C722.27 650.699 721.795 651.221 721.187 651.616C720.59 652 719.923 652.192 719.187 652.192ZM719.187 651.136C719.721 651.136 720.195 650.987 720.611 650.688C721.027 650.379 721.347 649.979 721.571 649.488C721.795 648.987 721.907 648.459 721.907 647.904C721.907 647.349 721.795 646.827 721.571 646.336C721.347 645.835 721.027 645.435 720.611 645.136C720.195 644.827 719.721 644.672 719.187 644.672C718.654 644.672 718.179 644.827 717.763 645.136C717.347 645.435 717.027 645.835 716.803 646.336C716.579 646.827 716.467 647.349 716.467 647.904C716.467 648.459 716.579 648.987 716.803 649.488C717.027 649.979 717.347 650.379 717.763 650.688C718.179 650.987 718.654 651.136 719.187 651.136ZM731.615 652.192C730.634 652.192 729.834 651.947 729.215 651.456C728.597 650.955 728.207 650.272 728.047 649.408H729.215C729.343 649.973 729.605 650.421 729.999 650.752C730.405 651.072 730.943 651.232 731.615 651.232C732.245 651.232 732.746 651.088 733.119 650.8C733.493 650.501 733.679 650.112 733.679 649.632C733.679 649.269 733.546 648.981 733.279 648.768C733.023 648.544 732.618 648.384 732.063 648.288L730.479 648.016C729.754 647.899 729.199 647.675 728.815 647.344C728.442 647.003 728.255 646.549 728.255 645.984C728.255 645.504 728.389 645.088 728.655 644.736C728.922 644.373 729.29 644.096 729.759 643.904C730.229 643.712 730.762 643.616 731.359 643.616C732.287 643.616 733.029 643.84 733.583 644.288C734.149 644.736 734.469 645.349 734.543 646.128H733.375C733.29 645.669 733.077 645.296 732.735 645.008C732.394 644.72 731.93 644.576 731.343 644.576C730.757 644.576 730.282 644.693 729.919 644.928C729.567 645.163 729.391 645.477 729.391 645.872C729.391 646.192 729.493 646.437 729.695 646.608C729.898 646.768 730.255 646.891 730.767 646.976L732.415 647.264C733.215 647.403 733.813 647.659 734.207 648.032C734.613 648.405 734.815 648.917 734.815 649.568C734.815 650.091 734.671 650.549 734.383 650.944C734.106 651.339 733.722 651.648 733.231 651.872C732.751 652.085 732.213 652.192 731.615 652.192ZM736.86 640.32H738.076V645.216C738.257 644.704 738.572 644.309 739.02 644.032C739.468 643.755 739.996 643.616 740.604 643.616C741.543 643.616 742.279 643.915 742.812 644.512C743.345 645.109 743.612 645.92 743.612 646.944V652H742.396V647.12C742.396 646.363 742.225 645.771 741.884 645.344C741.553 644.917 741.057 644.704 740.396 644.704C739.948 644.704 739.548 644.805 739.196 645.008C738.844 645.2 738.567 645.488 738.364 645.872C738.172 646.245 738.076 646.693 738.076 647.216V652H736.86V640.32ZM749.547 652.192C748.811 652.192 748.139 652 747.531 651.616C746.933 651.221 746.464 650.699 746.123 650.048C745.781 649.387 745.611 648.672 745.611 647.904C745.611 647.136 745.781 646.427 746.123 645.776C746.464 645.115 746.933 644.592 747.531 644.208C748.139 643.813 748.811 643.616 749.547 643.616C750.283 643.616 750.949 643.813 751.547 644.208C752.155 644.592 752.629 645.115 752.971 645.776C753.312 646.427 753.483 647.136 753.483 647.904C753.483 648.672 753.312 649.387 752.971 650.048C752.629 650.699 752.155 651.221 751.547 651.616C750.949 652 750.283 652.192 749.547 652.192ZM749.547 651.136C750.08 651.136 750.555 650.987 750.971 650.688C751.387 650.379 751.707 649.979 751.931 649.488C752.155 648.987 752.267 648.459 752.267 647.904C752.267 647.349 752.155 646.827 751.931 646.336C751.707 645.835 751.387 645.435 750.971 645.136C750.555 644.827 750.08 644.672 749.547 644.672C749.013 644.672 748.539 644.827 748.123 645.136C747.707 645.435 747.387 645.835 747.163 646.336C746.939 646.827 746.827 647.349 746.827 647.904C746.827 648.459 746.939 648.987 747.163 649.488C747.387 649.979 747.707 650.379 748.123 650.688C748.539 650.987 749.013 651.136 749.547 651.136ZM755.483 643.808H756.699V648.672C756.699 649.451 756.864 650.059 757.195 650.496C757.526 650.923 758.022 651.136 758.683 651.136C759.131 651.136 759.526 651.035 759.867 650.832C760.208 650.629 760.475 650.341 760.667 649.968C760.859 649.584 760.955 649.136 760.955 648.624V643.808H762.171V652H761.019V650.624C760.838 651.093 760.523 651.472 760.075 651.76C759.638 652.048 759.104 652.192 758.475 652.192C757.536 652.192 756.8 651.888 756.267 651.28C755.744 650.672 755.483 649.851 755.483 648.816V643.808ZM764.971 640.32H766.187V652H764.971V640.32ZM774.985 652V650.368C774.782 650.891 774.414 651.328 773.881 651.68C773.348 652.021 772.75 652.192 772.089 652.192C771.385 652.192 770.745 652 770.169 651.616C769.604 651.232 769.156 650.715 768.825 650.064C768.505 649.403 768.345 648.683 768.345 647.904C768.345 647.125 768.505 646.411 768.825 645.76C769.156 645.099 769.604 644.576 770.169 644.192C770.745 643.808 771.385 643.616 772.089 643.616C772.74 643.616 773.326 643.792 773.849 644.144C774.382 644.485 774.75 644.917 774.953 645.44V640.32H776.169V652H774.985ZM774.953 647.904C774.953 647.328 774.83 646.795 774.585 646.304C774.35 645.803 774.02 645.408 773.593 645.12C773.177 644.821 772.713 644.672 772.201 644.672C771.689 644.672 771.23 644.821 770.825 645.12C770.43 645.408 770.121 645.803 769.897 646.304C769.673 646.795 769.561 647.328 769.561 647.904C769.561 648.48 769.673 649.019 769.897 649.52C770.121 650.011 770.43 650.405 770.825 650.704C771.23 650.992 771.689 651.136 772.201 651.136C772.713 651.136 773.177 650.992 773.593 650.704C774.02 650.405 774.35 650.011 774.585 649.52C774.83 649.019 774.953 648.48 774.953 647.904ZM782.407 640.32H783.623V645.44C783.826 644.917 784.188 644.485 784.711 644.144C785.244 643.792 785.836 643.616 786.487 643.616C787.191 643.616 787.826 643.808 788.391 644.192C788.967 644.576 789.415 645.099 789.735 645.76C790.066 646.411 790.231 647.125 790.231 647.904C790.231 648.683 790.066 649.403 789.735 650.064C789.415 650.715 788.967 651.232 788.391 651.616C787.826 652 787.191 652.192 786.487 652.192C785.826 652.192 785.228 652.021 784.695 651.68C784.162 651.328 783.794 650.891 783.591 650.368V652H782.407V640.32ZM783.623 647.904C783.623 648.48 783.74 649.019 783.975 649.52C784.22 650.011 784.551 650.405 784.967 650.704C785.394 650.992 785.863 651.136 786.375 651.136C786.887 651.136 787.34 650.992 787.735 650.704C788.14 650.405 788.455 650.011 788.679 649.52C788.903 649.019 789.015 648.48 789.015 647.904C789.015 647.328 788.903 646.795 788.679 646.304C788.455 645.803 788.14 645.408 787.735 645.12C787.34 644.821 786.887 644.672 786.375 644.672C785.863 644.672 785.394 644.821 784.967 645.12C784.551 645.408 784.22 645.803 783.975 646.304C783.74 646.795 783.623 647.328 783.623 647.904ZM791.673 647.904C791.673 647.093 791.838 646.363 792.169 645.712C792.5 645.061 792.953 644.549 793.529 644.176C794.105 643.803 794.756 643.616 795.481 643.616C796.27 643.616 796.942 643.797 797.497 644.16C798.062 644.512 798.484 644.992 798.761 645.6C799.049 646.208 799.193 646.885 799.193 647.632V648.192H792.857C792.889 648.757 793.012 649.269 793.225 649.728C793.438 650.176 793.742 650.533 794.137 650.8C794.542 651.067 795.017 651.2 795.561 651.2C796.148 651.2 796.628 651.067 797.001 650.8C797.374 650.523 797.657 650.155 797.849 649.696H799.033C798.884 650.197 798.644 650.635 798.313 651.008C797.993 651.381 797.593 651.675 797.113 651.888C796.644 652.091 796.126 652.192 795.561 652.192C794.761 652.192 794.068 652 793.481 651.616C792.894 651.232 792.446 650.715 792.137 650.064C791.828 649.413 791.673 648.693 791.673 647.904ZM798.057 647.216C798.014 646.704 797.886 646.251 797.673 645.856C797.46 645.461 797.166 645.152 796.793 644.928C796.42 644.693 795.977 644.576 795.465 644.576C794.985 644.576 794.558 644.693 794.185 644.928C793.822 645.163 793.529 645.477 793.305 645.872C793.092 646.267 792.953 646.715 792.889 647.216H798.057ZM804.893 643.808H806.109V652H804.893V643.808ZM804.861 640.624H806.141V642.272H804.861V640.624ZM808.907 643.808H810.059V645.216C810.251 644.715 810.571 644.325 811.019 644.048C811.467 643.76 812.011 643.616 812.651 643.616C813.6 643.616 814.336 643.92 814.859 644.528C815.392 645.136 815.659 645.957 815.659 646.992V652H814.443V647.168C814.443 646.389 814.272 645.787 813.931 645.36C813.6 644.923 813.104 644.704 812.443 644.704C811.995 644.704 811.595 644.805 811.243 645.008C810.891 645.211 810.614 645.504 810.411 645.888C810.219 646.261 810.123 646.704 810.123 647.216V652H808.907V643.808ZM824.741 652.096C823.941 652.096 823.338 651.883 822.933 651.456C822.538 651.019 822.341 650.379 822.341 649.536V644.832H820.773V643.808H822.341V641.632H823.557V643.808H825.989V644.832H823.557V649.6C823.557 650.069 823.669 650.427 823.893 650.672C824.128 650.917 824.474 651.04 824.933 651.04C825.285 651.04 825.642 650.987 826.005 650.88V651.92C825.877 651.973 825.696 652.016 825.461 652.048C825.237 652.08 824.997 652.096 824.741 652.096ZM827.251 647.904C827.251 647.093 827.417 646.363 827.747 645.712C828.078 645.061 828.531 644.549 829.107 644.176C829.683 643.803 830.334 643.616 831.059 643.616C831.849 643.616 832.521 643.797 833.075 644.16C833.641 644.512 834.062 644.992 834.339 645.6C834.627 646.208 834.771 646.885 834.771 647.632V648.192H828.435C828.467 648.757 828.59 649.269 828.803 649.728C829.017 650.176 829.321 650.533 829.715 650.8C830.121 651.067 830.595 651.2 831.139 651.2C831.726 651.2 832.206 651.067 832.579 650.8C832.953 650.523 833.235 650.155 833.427 649.696H834.611C834.462 650.197 834.222 650.635 833.891 651.008C833.571 651.381 833.171 651.675 832.691 651.888C832.222 652.091 831.705 652.192 831.139 652.192C830.339 652.192 829.646 652 829.059 651.616C828.473 651.232 828.025 650.715 827.715 650.064C827.406 649.413 827.251 648.693 827.251 647.904ZM833.635 647.216C833.593 646.704 833.465 646.251 833.251 645.856C833.038 645.461 832.745 645.152 832.371 644.928C831.998 644.693 831.555 644.576 831.043 644.576C830.563 644.576 830.137 644.693 829.763 644.928C829.401 645.163 829.107 645.477 828.883 645.872C828.67 646.267 828.531 646.715 828.467 647.216H833.635ZM836.524 649.616C836.524 648.88 836.78 648.288 837.292 647.84C837.814 647.392 838.529 647.141 839.436 647.088L842.076 646.912V646.608C842.076 645.968 841.91 645.472 841.58 645.12C841.249 644.768 840.758 644.592 840.108 644.592C839.542 644.592 839.084 644.736 838.732 645.024C838.38 645.301 838.156 645.669 838.06 646.128H836.86C836.977 645.371 837.324 644.763 837.9 644.304C838.476 643.845 839.206 643.616 840.092 643.616C841.116 643.616 841.905 643.888 842.46 644.432C843.014 644.965 843.292 645.685 843.292 646.592V652H842.108V650.72C841.937 651.147 841.617 651.499 841.148 651.776C840.678 652.053 840.113 652.192 839.452 652.192C838.566 652.192 837.857 651.957 837.324 651.488C836.79 651.008 836.524 650.384 836.524 649.616ZM837.708 649.584C837.708 650.096 837.873 650.507 838.204 650.816C838.534 651.125 839.004 651.28 839.612 651.28C840.081 651.28 840.502 651.173 840.876 650.96C841.249 650.747 841.542 650.443 841.756 650.048C841.969 649.643 842.076 649.163 842.076 648.608V647.792L839.9 647.936C839.174 647.989 838.625 648.149 838.252 648.416C837.889 648.683 837.708 649.072 837.708 649.584ZM846.018 640.32H847.234V652H846.018V640.32ZM852.908 647.648C852.908 646.901 853.062 646.224 853.372 645.616C853.692 644.997 854.129 644.512 854.684 644.16C855.238 643.797 855.873 643.616 856.588 643.616C857.025 643.616 857.43 643.691 857.804 643.84C858.188 643.989 858.508 644.192 858.764 644.448C859.03 644.704 859.228 644.992 859.356 645.312V643.808H860.54V651.648C860.54 652.363 860.39 652.981 860.092 653.504C859.793 654.037 859.366 654.443 858.812 654.72C858.257 654.997 857.601 655.136 856.844 655.136C855.905 655.136 855.105 654.885 854.444 654.384C853.782 653.893 853.34 653.243 853.116 652.432H854.364C854.545 652.955 854.854 653.371 855.292 653.68C855.729 653.989 856.262 654.144 856.891 654.144C857.745 654.144 858.364 653.909 858.748 653.44C859.132 652.971 859.324 652.277 859.324 651.36V649.952C859.206 650.272 859.02 650.565 858.764 650.832C858.508 651.088 858.193 651.296 857.82 651.456C857.446 651.605 857.036 651.68 856.588 651.68C855.873 651.68 855.238 651.504 854.684 651.152C854.129 650.789 853.692 650.304 853.372 649.696C853.062 649.077 852.908 648.395 852.908 647.648ZM854.124 647.648C854.124 648.213 854.236 648.725 854.46 649.184C854.684 649.643 854.993 650.005 855.388 650.272C855.793 650.539 856.257 650.672 856.78 650.672C857.281 650.672 857.724 650.549 858.108 650.304C858.492 650.048 858.79 649.691 859.004 649.232C859.217 648.773 859.324 648.245 859.324 647.648C859.324 647.061 859.212 646.539 858.988 646.08C858.764 645.621 858.46 645.264 858.076 645.008C857.692 644.752 857.26 644.624 856.78 644.624C856.246 644.624 855.777 644.757 855.372 645.024C854.977 645.291 854.668 645.653 854.444 646.112C854.23 646.571 854.124 647.083 854.124 647.648ZM863.266 643.808H864.418V645.776C864.578 645.125 864.872 644.619 865.298 644.256C865.736 643.893 866.317 643.712 867.042 643.712C867.352 643.712 867.576 643.733 867.714 643.776V644.816C867.597 644.795 867.416 644.784 867.17 644.784C866.658 644.784 866.194 644.917 865.778 645.184C865.373 645.44 865.053 645.813 864.818 646.304C864.594 646.795 864.482 647.376 864.482 648.048V652H863.266V643.808ZM868.595 647.904C868.595 647.093 868.76 646.363 869.091 645.712C869.422 645.061 869.875 644.549 870.451 644.176C871.027 643.803 871.678 643.616 872.403 643.616C873.192 643.616 873.864 643.797 874.419 644.16C874.984 644.512 875.406 644.992 875.683 645.6C875.971 646.208 876.115 646.885 876.115 647.632V648.192H869.779C869.811 648.757 869.934 649.269 870.147 649.728C870.36 650.176 870.664 650.533 871.059 650.8C871.464 651.067 871.939 651.2 872.483 651.2C873.07 651.2 873.55 651.067 873.923 650.8C874.296 650.523 874.579 650.155 874.771 649.696H875.955C875.806 650.197 875.566 650.635 875.235 651.008C874.915 651.381 874.515 651.675 874.035 651.888C873.566 652.091 873.048 652.192 872.483 652.192C871.683 652.192 870.99 652 870.403 651.616C869.816 651.232 869.368 650.715 869.059 650.064C868.75 649.413 868.595 648.693 868.595 647.904ZM874.979 647.216C874.936 646.704 874.808 646.251 874.595 645.856C874.382 645.461 874.088 645.152 873.715 644.928C873.342 644.693 872.899 644.576 872.387 644.576C871.907 644.576 871.48 644.693 871.107 644.928C870.744 645.163 870.451 645.477 870.227 645.872C870.014 646.267 869.875 646.715 869.811 647.216H874.979ZM877.611 647.904C877.611 647.093 877.776 646.363 878.107 645.712C878.437 645.061 878.891 644.549 879.467 644.176C880.043 643.803 880.693 643.616 881.419 643.616C882.208 643.616 882.88 643.797 883.435 644.16C884 644.512 884.421 644.992 884.699 645.6C884.987 646.208 885.131 646.885 885.131 647.632V648.192H878.795C878.827 648.757 878.949 649.269 879.163 649.728C879.376 650.176 879.68 650.533 880.075 650.8C880.48 651.067 880.955 651.2 881.499 651.2C882.085 651.2 882.565 651.067 882.939 650.8C883.312 650.523 883.595 650.155 883.787 649.696H884.971C884.821 650.197 884.581 650.635 884.251 651.008C883.931 651.381 883.531 651.675 883.051 651.888C882.581 652.091 882.064 652.192 881.499 652.192C880.699 652.192 880.005 652 879.419 651.616C878.832 651.232 878.384 650.715 878.075 650.064C877.765 649.413 877.611 648.693 877.611 647.904ZM883.995 647.216C883.952 646.704 883.824 646.251 883.611 645.856C883.397 645.461 883.104 645.152 882.731 644.928C882.357 644.693 881.915 644.576 881.403 644.576C880.923 644.576 880.496 644.693 880.123 644.928C879.76 645.163 879.467 645.477 879.243 645.872C879.029 646.267 878.891 646.715 878.827 647.216H883.995ZM887.235 643.808H888.387V645.216C888.579 644.715 888.899 644.325 889.347 644.048C889.795 643.76 890.339 643.616 890.979 643.616C891.928 643.616 892.664 643.92 893.187 644.528C893.72 645.136 893.987 645.957 893.987 646.992V652H892.771V647.168C892.771 646.389 892.6 645.787 892.259 645.36C891.928 644.923 891.432 644.704 890.771 644.704C890.323 644.704 889.923 644.805 889.571 645.008C889.219 645.211 888.942 645.504 888.739 645.888C888.547 646.261 888.451 646.704 888.451 647.216V652H887.235V643.808Z" fill="#0E131F"/>
<path d="M630.594 583.816H632.358L632.61 581.386H631.044V579.478H632.826L633.15 576.4H635.292L634.968 579.478H637.182L637.506 576.4H639.648L639.324 579.478H640.872V581.386H639.108L638.856 583.816H640.422V585.724H638.64L638.298 589H636.156L636.498 585.724H634.302L633.942 589H631.8L632.16 585.724H630.594V583.816ZM636.714 583.816L636.966 581.386H634.752L634.5 583.816H636.714ZM642.631 576.4H651.937V579.082H645.727V581.476H651.703V584.158H645.727V589H642.631V576.4ZM653.916 576.4H663.222V579.082H657.012V581.476H662.988V584.158H657.012V589H653.916V576.4ZM665.201 576.4H674.507V579.082H668.297V581.476H674.273V584.158H668.297V589H665.201V576.4ZM676.486 576.4H685.792V579.082H679.582V581.476H685.558V584.158H679.582V589H676.486V576.4ZM687.772 576.4H697.078V579.082H690.868V581.476H696.844V584.158H690.868V589H687.772V576.4ZM699.057 576.4H708.363V579.082H702.153V581.476H708.129V584.158H702.153V589H699.057V576.4Z" fill="#0E131F"/>
<path d="M630 616H1092" stroke="black" stroke-width="0.5"/>
<defs>
<clipPath id="clip0_1422_2440">
<rect width="578" height="698" fill="white"/>
</clipPath>
</defs>
</svg>
