<svg width="566" height="698" viewBox="0 0 566 698" fill="none" xmlns="http://www.w3.org/2000/svg">
<rect width="566" height="698" fill="#F9F9FC"/>
<path d="M66.16 71.2H73.432C74.488 71.2 75.424 71.416 76.24 71.848C77.072 72.28 77.712 72.864 78.16 73.6C78.624 74.336 78.856 75.144 78.856 76.024C78.856 76.92 78.624 77.744 78.16 78.496C77.696 79.232 77.048 79.816 76.216 80.248C75.4 80.68 74.472 80.896 73.432 80.896H68.032V88H66.16V71.2ZM73.24 79.264C74.008 79.264 74.672 79.12 75.232 78.832C75.808 78.544 76.24 78.16 76.528 77.68C76.832 77.184 76.984 76.632 76.984 76.024C76.984 75.416 76.832 74.872 76.528 74.392C76.24 73.912 75.808 73.536 75.232 73.264C74.672 72.976 74.008 72.832 73.24 72.832H68.032V79.264H73.24ZM81.9072 75.712H83.6352V78.664C83.8752 77.688 84.3152 76.928 84.9552 76.384C85.6112 75.84 86.4832 75.568 87.5712 75.568C88.0352 75.568 88.3712 75.6 88.5792 75.664V77.224C88.4032 77.192 88.1312 77.176 87.7632 77.176C86.9952 77.176 86.2992 77.376 85.6752 77.776C85.0672 78.16 84.5872 78.72 84.2352 79.456C83.8992 80.192 83.7312 81.064 83.7312 82.072V88H81.9072V75.712ZM91.3319 75.712H93.1559V88H91.3319V75.712ZM91.2839 70.936H93.2039V73.408H91.2839V70.936ZM97.3525 75.712H99.0805V77.824C99.3525 77.088 99.8085 76.504 100.449 76.072C101.105 75.64 101.881 75.424 102.777 75.424C103.705 75.424 104.497 75.624 105.153 76.024C105.825 76.424 106.337 76.992 106.689 77.728C107.073 77.008 107.617 76.448 108.321 76.048C109.041 75.632 109.865 75.424 110.793 75.424C112.249 75.424 113.361 75.872 114.129 76.768C114.913 77.648 115.305 78.856 115.305 80.392V88H113.481V80.68C113.481 79.544 113.233 78.656 112.737 78.016C112.241 77.376 111.497 77.056 110.505 77.056C109.849 77.056 109.273 77.2 108.777 77.488C108.281 77.776 107.897 78.2 107.625 78.76C107.369 79.32 107.241 80.008 107.241 80.824V88H105.417V80.68C105.417 79.544 105.169 78.656 104.673 78.016C104.177 77.376 103.441 77.056 102.465 77.056C101.457 77.056 100.657 77.384 100.065 78.04C99.4725 78.68 99.1765 79.608 99.1765 80.824V88H97.3525V75.712ZM118.785 84.424C118.785 83.32 119.169 82.432 119.937 81.76C120.721 81.088 121.793 80.712 123.153 80.632L127.113 80.368V79.912C127.113 78.952 126.865 78.208 126.369 77.68C125.873 77.152 125.137 76.888 124.161 76.888C123.313 76.888 122.625 77.104 122.097 77.536C121.569 77.952 121.233 78.504 121.089 79.192H119.289C119.465 78.056 119.985 77.144 120.849 76.456C121.713 75.768 122.809 75.424 124.137 75.424C125.673 75.424 126.857 75.832 127.689 76.648C128.521 77.448 128.937 78.528 128.937 79.888V88H127.161V86.08C126.905 86.72 126.425 87.248 125.721 87.664C125.017 88.08 124.169 88.288 123.177 88.288C121.849 88.288 120.785 87.936 119.985 87.232C119.185 86.512 118.785 85.576 118.785 84.424ZM120.561 84.376C120.561 85.144 120.809 85.76 121.305 86.224C121.801 86.688 122.505 86.92 123.417 86.92C124.121 86.92 124.753 86.76 125.313 86.44C125.873 86.12 126.313 85.664 126.633 85.072C126.953 84.464 127.113 83.744 127.113 82.912V81.688L123.849 81.904C122.761 81.984 121.937 82.224 121.377 82.624C120.833 83.024 120.561 83.608 120.561 84.376ZM132.907 75.712H134.635V78.664C134.875 77.688 135.315 76.928 135.955 76.384C136.611 75.84 137.483 75.568 138.571 75.568C139.035 75.568 139.371 75.6 139.579 75.664V77.224C139.403 77.192 139.131 77.176 138.763 77.176C137.995 77.176 137.299 77.376 136.675 77.776C136.067 78.16 135.587 78.72 135.235 79.456C134.899 80.192 134.731 81.064 134.731 82.072V88H132.907V75.712ZM142.306 92.704C141.826 92.704 141.346 92.64 140.866 92.512V90.952C141.282 91.08 141.714 91.144 142.162 91.144C142.722 91.144 143.186 91.024 143.554 90.784C143.922 90.56 144.226 90.248 144.466 89.848C144.706 89.448 144.946 88.912 145.186 88.24L145.33 87.856L140.626 75.712H142.426L146.242 85.768L149.818 75.712H151.618L147.082 88L146.794 88.768C146.474 89.632 146.13 90.344 145.762 90.904C145.394 91.48 144.93 91.92 144.37 92.224C143.81 92.544 143.122 92.704 142.306 92.704ZM159.441 71.2H161.313V86.32H170.433V88H159.441V71.2ZM178.023 88.288C176.919 88.288 175.911 88 174.999 87.424C174.103 86.832 173.399 86.048 172.887 85.072C172.375 84.08 172.119 83.008 172.119 81.856C172.119 80.704 172.375 79.64 172.887 78.664C173.399 77.672 174.103 76.888 174.999 76.312C175.911 75.72 176.919 75.424 178.023 75.424C179.127 75.424 180.127 75.72 181.023 76.312C181.935 76.888 182.647 77.672 183.159 78.664C183.671 79.64 183.927 80.704 183.927 81.856C183.927 83.008 183.671 84.08 183.159 85.072C182.647 86.048 181.935 86.832 181.023 87.424C180.127 88 179.127 88.288 178.023 88.288ZM178.023 86.704C178.823 86.704 179.535 86.48 180.159 86.032C180.783 85.568 181.263 84.968 181.599 84.232C181.935 83.48 182.103 82.688 182.103 81.856C182.103 81.024 181.935 80.24 181.599 79.504C181.263 78.752 180.783 78.152 180.159 77.704C179.535 77.24 178.823 77.008 178.023 77.008C177.223 77.008 176.511 77.24 175.887 77.704C175.263 78.152 174.783 78.752 174.447 79.504C174.111 80.24 173.943 81.024 173.943 81.856C173.943 82.688 174.111 83.48 174.447 84.232C174.783 84.968 175.263 85.568 175.887 86.032C176.511 86.48 177.223 86.704 178.023 86.704ZM186.088 81.472C186.088 80.352 186.32 79.336 186.784 78.424C187.264 77.496 187.92 76.768 188.752 76.24C189.584 75.696 190.536 75.424 191.608 75.424C192.264 75.424 192.872 75.536 193.432 75.76C194.008 75.984 194.488 76.288 194.872 76.672C195.272 77.056 195.568 77.488 195.76 77.968V75.712H197.536V87.472C197.536 88.544 197.312 89.472 196.864 90.256C196.416 91.056 195.776 91.664 194.944 92.08C194.112 92.496 193.128 92.704 191.992 92.704C190.584 92.704 189.384 92.328 188.392 91.576C187.4 90.84 186.736 89.864 186.4 88.648H188.272C188.544 89.432 189.008 90.056 189.664 90.52C190.32 90.984 191.12 91.216 192.064 91.216C193.344 91.216 194.272 90.864 194.848 90.16C195.424 89.456 195.712 88.416 195.712 87.04V84.928C195.536 85.408 195.256 85.848 194.872 86.248C194.488 86.632 194.016 86.944 193.456 87.184C192.896 87.408 192.28 87.52 191.608 87.52C190.536 87.52 189.584 87.256 188.752 86.728C187.92 86.184 187.264 85.456 186.784 84.544C186.32 83.616 186.088 82.592 186.088 81.472ZM187.912 81.472C187.912 82.32 188.08 83.088 188.416 83.776C188.752 84.464 189.216 85.008 189.808 85.408C190.416 85.808 191.112 86.008 191.896 86.008C192.648 86.008 193.312 85.824 193.888 85.456C194.464 85.072 194.912 84.536 195.232 83.848C195.552 83.16 195.712 82.368 195.712 81.472C195.712 80.592 195.544 79.808 195.208 79.12C194.872 78.432 194.416 77.896 193.84 77.512C193.264 77.128 192.616 76.936 191.896 76.936C191.096 76.936 190.392 77.136 189.784 77.536C189.192 77.936 188.728 78.48 188.392 79.168C188.072 79.856 187.912 80.624 187.912 81.472ZM206.57 88.288C205.466 88.288 204.458 88 203.546 87.424C202.65 86.832 201.946 86.048 201.434 85.072C200.922 84.08 200.666 83.008 200.666 81.856C200.666 80.704 200.922 79.64 201.434 78.664C201.946 77.672 202.65 76.888 203.546 76.312C204.458 75.72 205.466 75.424 206.57 75.424C207.674 75.424 208.674 75.72 209.57 76.312C210.482 76.888 211.194 77.672 211.706 78.664C212.218 79.64 212.474 80.704 212.474 81.856C212.474 83.008 212.218 84.08 211.706 85.072C211.194 86.048 210.482 86.832 209.57 87.424C208.674 88 207.674 88.288 206.57 88.288ZM206.57 86.704C207.37 86.704 208.082 86.48 208.706 86.032C209.33 85.568 209.81 84.968 210.146 84.232C210.482 83.48 210.65 82.688 210.65 81.856C210.65 81.024 210.482 80.24 210.146 79.504C209.81 78.752 209.33 78.152 208.706 77.704C208.082 77.24 207.37 77.008 206.57 77.008C205.77 77.008 205.058 77.24 204.434 77.704C203.81 78.152 203.33 78.752 202.994 79.504C202.658 80.24 202.49 81.024 202.49 81.856C202.49 82.688 202.658 83.48 202.994 84.232C203.33 84.968 203.81 85.568 204.434 86.032C205.058 86.48 205.77 86.704 206.57 86.704Z" fill="#0E131F"/>
<path d="M284.754 362.795C277.169 356.837 268.766 352.204 259.737 348.986C268.756 345.777 277.159 341.162 284.754 335.223C285.958 334.276 286.73 332.814 286.73 331.177C286.73 328.337 284.432 326.038 281.591 326.038C280.396 326.038 279.302 326.452 278.428 327.132C270.889 333.025 262.449 337.457 253.347 340.298C246.829 342.33 240.09 343.479 233.277 343.773V331.177C233.277 328.337 230.979 326.038 228.138 326.038C225.297 326.038 222.999 328.337 222.999 331.177V366.831C222.999 369.672 225.297 371.97 228.138 371.97C230.979 371.97 233.277 369.672 233.277 366.831V354.19C240.09 354.475 246.829 355.633 253.338 357.665C262.449 360.515 270.88 364.955 278.419 370.867C279.292 371.547 280.396 371.961 281.591 371.961C284.432 371.961 286.73 369.663 286.73 366.822C286.73 365.185 285.958 363.723 284.763 362.786L284.754 362.795Z" fill="#00C3B4"/>
<path d="M146.607 326.038H77.4238C74.5829 326.038 72.2844 328.337 72.2844 331.177C72.2844 334.018 74.5829 336.317 77.4238 336.317H106.871V366.831C106.871 369.672 109.17 371.97 112.011 371.97C114.852 371.97 117.15 369.672 117.15 366.831V336.317H146.598C149.439 336.317 151.737 334.018 151.737 331.177C151.737 328.337 149.439 326.038 146.598 326.038H146.607Z" fill="#00C3B4"/>
<path d="M485.715 331.177C485.715 328.337 483.417 326.038 480.576 326.038C477.735 326.038 475.437 328.337 475.437 331.177V357.453C475.437 357.812 475.345 358.17 475.161 358.492C474.582 359.485 473.313 359.825 472.32 359.255L416.918 327.288C412.432 324.696 406.695 326.231 404.102 330.718C403.247 332.198 402.843 333.816 402.843 335.407V366.822C402.843 369.663 405.141 371.961 407.982 371.961C410.823 371.961 413.121 369.663 413.121 366.822V340.546C413.121 340.197 413.213 339.829 413.397 339.507C413.976 338.514 415.245 338.174 416.238 338.744L471.64 370.702C476.126 373.294 481.863 371.759 484.456 367.272C485.311 365.792 485.715 364.174 485.715 362.583V331.168V331.177Z" fill="#00C3B4"/>
<path d="M374.418 326.038H334.838C322.887 326.038 313.196 335.728 313.196 347.68V350.328C313.196 362.28 322.887 371.97 334.838 371.97H374.418C386.37 371.97 396.06 362.28 396.06 350.328V347.68C396.06 335.728 386.37 326.038 374.418 326.038ZM385.928 350.255C385.928 356.571 380.807 361.692 374.491 361.692H334.912C328.596 361.692 323.475 356.571 323.475 350.255V347.754C323.475 341.438 328.596 336.317 334.912 336.317H374.491C380.807 336.317 385.928 341.438 385.928 347.754V350.255Z" fill="#00C3B4"/>
<path d="M179.766 354.153C176.925 354.153 174.626 351.854 174.626 349.013C174.626 346.173 176.925 343.874 179.766 343.874H208.211C211.052 343.874 213.35 346.173 213.35 349.013C213.35 351.854 211.052 354.153 208.211 354.153H179.766ZM211.806 326.038C214.647 326.038 216.945 328.337 216.945 331.177C216.945 334.018 214.647 336.317 211.806 336.317H177.394C171.077 336.317 165.956 341.438 165.956 347.754V350.255C165.956 356.571 171.077 361.692 177.394 361.692H211.806C214.647 361.692 216.945 363.99 216.945 366.831C216.945 369.672 214.647 371.97 211.806 371.97H177.329C165.377 371.97 155.687 362.28 155.687 350.328V347.68C155.687 335.728 165.377 326.038 177.329 326.038H211.806Z" fill="#00C3B4"/>
<path d="M295.57 366.831C295.57 369.672 297.869 371.97 300.71 371.97C303.551 371.97 305.849 369.672 305.849 366.831V331.177C305.849 328.337 303.551 326.038 300.71 326.038C297.869 326.038 295.57 328.337 295.57 331.177V366.831Z" fill="#00C3B4"/>
</svg>
