<svg width="1156" height="698" viewBox="0 0 1156 698" fill="none" xmlns="http://www.w3.org/2000/svg">
<rect width="1156" height="698" fill="#F9F9FC"/>
<g clip-path="url(#clip0_1367_1900)">
<rect width="160" height="160" transform="translate(796 228)" fill="#00C3B4"/>
<path fill-rule="evenodd" clip-rule="evenodd" d="M913.069 289.43C916.069 289.43 918.5 291.878 918.5 294.899C918.5 297.917 916.069 300.368 913.069 300.368H882.059V332.74C882.059 335.761 879.626 338.209 876.628 338.209C873.629 338.209 871.198 335.761 871.198 332.74V300.368H840.185C837.187 300.368 834.754 297.917 834.754 294.899C834.754 291.878 837.187 289.43 840.185 289.43H913.069Z" fill="#F9F9FC"/>
</g>
<path d="M770 403.823L764.948 412.573H775.052L770 403.823ZM770 421.816H769.125V422.691H770V421.816ZM982.562 421.816V422.691H983.437V421.816H982.562ZM982.562 403.823L977.51 412.573H987.614L982.562 403.823ZM769.125 417.317V421.816H770.875V417.317H769.125ZM770 422.691H772.952V420.941H770V422.691ZM778.857 422.691H784.761V420.941H778.857V422.691ZM790.666 422.691H796.57V420.941H790.666V422.691ZM802.475 422.691H808.379V420.941H802.475V422.691ZM814.284 422.691H820.188V420.941H814.284V422.691ZM826.093 422.691H831.997V420.941H826.093V422.691ZM837.902 422.691H843.806V420.941H837.902V422.691ZM849.711 422.691H855.615V420.941H849.711V422.691ZM861.52 422.691H867.424V420.941H861.52V422.691ZM873.329 422.691H879.233V420.941H873.329V422.691ZM885.138 422.691H891.042V420.941H885.138V422.691ZM896.947 422.691H902.851V420.941H896.947V422.691ZM908.756 422.691H914.66V420.941H908.756V422.691ZM920.565 422.691H926.469V420.941H920.565V422.691ZM932.374 422.691H938.278V420.941H932.374V422.691ZM944.183 422.691H950.087V420.941H944.183V422.691ZM955.992 422.691H961.896V420.941H955.992V422.691ZM967.801 422.691H973.705V420.941H967.801V422.691ZM979.61 422.691H982.562V420.941H979.61V422.691ZM983.437 421.816V417.317H981.687V421.816H983.437Z" fill="#E9717A"/>
<path d="M856.762 448.605L853.018 450.549V446.541L857.458 444.069H860.842V460.869H856.762V448.605ZM874.184 442.389L866.864 464.709H862.88L870.2 442.389H874.184ZM874.094 454.269L881.126 444.069H885.71V454.149H887.846V457.461H885.71V460.869H881.846V457.461H874.094V454.269ZM881.846 454.149V448.293L878.006 454.149H881.846ZM894.096 444.069L891.744 450.741H888.432L889.8 444.069H894.096ZM899.976 444.069L897.624 450.741H894.312L895.68 444.069H899.976Z" fill="#0E131F"/>
<path d="M151 339.947L145.948 348.697H156.052L151 339.947ZM151 357.937H150.125V358.812H151V357.937ZM576.237 357.937V358.812H577.112V357.937H576.237ZM576.237 339.947L571.185 348.697H581.289L576.237 339.947ZM150.125 353.44V357.937H151.875V353.44H150.125ZM151 358.812H154.037V357.062H151V358.812ZM160.112 358.812H166.187V357.062H160.112V358.812ZM172.262 358.812H178.337V357.062H172.262V358.812ZM184.411 358.812H190.486V357.062H184.411V358.812ZM196.561 358.812H202.636V357.062H196.561V358.812ZM208.711 358.812H214.786V357.062H208.711V358.812ZM220.86 358.812H226.935V357.062H220.86V358.812ZM233.01 358.812H239.085V357.062H233.01V358.812ZM245.16 358.812H251.234V357.062H245.16V358.812ZM257.309 358.812H263.384V357.062H257.309V358.812ZM269.459 358.812H275.534V357.062H269.459V358.812ZM281.608 358.812H287.683V357.062H281.608V358.812ZM293.758 358.812H299.833V357.062H293.758V358.812ZM305.908 358.812H311.983V357.062H305.908V358.812ZM318.057 358.812H324.132V357.062H318.057V358.812ZM330.207 358.812H336.282V357.062H330.207V358.812ZM342.357 358.812H348.431V357.062H342.357V358.812ZM354.506 358.812H360.581V357.062H354.506V358.812ZM366.656 358.812H372.731V357.062H366.656V358.812ZM378.805 358.812H384.88V357.062H378.805V358.812ZM390.955 358.812H397.03V357.062H390.955V358.812ZM403.105 358.812H409.18V357.062H403.105V358.812ZM415.254 358.812H421.329V357.062H415.254V358.812ZM427.404 358.812H433.479V357.062H427.404V358.812ZM439.554 358.812H445.628V357.062H439.554V358.812ZM451.703 358.812H457.778V357.062H451.703V358.812ZM463.853 358.812H469.928V357.062H463.853V358.812ZM476.002 358.812H482.077V357.062H476.002V358.812ZM488.152 358.812H494.227V357.062H488.152V358.812ZM500.302 358.812H506.376V357.062H500.302V358.812ZM512.451 358.812H518.526V357.062H512.451V358.812ZM524.601 358.812H530.676V357.062H524.601V358.812ZM536.75 358.812H542.825V357.062H536.75V358.812ZM548.9 358.812H554.975V357.062H548.9V358.812ZM561.05 358.812H567.124V357.062H561.05V358.812ZM573.199 358.812H576.237V357.062H573.199V358.812ZM577.112 357.937V353.44H575.362V357.937H577.112Z" fill="#E9717A"/>
<path d="M356.918 393.736L353.174 395.68V391.672L357.614 389.2H360.998V406H356.918V393.736ZM368.94 389.2L366.588 395.872H363.276L364.644 389.2H368.94ZM374.82 389.2L372.468 395.872H369.156L370.524 389.2H374.82Z" fill="#0E131F"/>
<path d="M366.469 314.767C358.884 308.809 350.481 304.175 341.453 300.958C350.472 297.749 358.875 293.134 366.469 287.194C367.673 286.247 368.446 284.786 368.446 283.149C368.446 280.308 366.147 278.01 363.306 278.01C362.111 278.01 361.017 278.423 360.144 279.104C352.605 284.997 344.165 289.428 335.063 292.269C328.545 294.301 321.806 295.45 314.993 295.745V283.149C314.993 280.308 312.695 278.01 309.854 278.01C307.013 278.01 304.714 280.308 304.714 283.149V318.803C304.714 321.644 307.013 323.942 309.854 323.942C312.695 323.942 314.993 321.644 314.993 318.803V306.161C321.806 306.446 328.545 307.605 335.054 309.636C344.165 312.487 352.596 316.927 360.135 322.839C361.008 323.519 362.111 323.933 363.306 323.933C366.147 323.933 368.446 321.634 368.446 318.793C368.446 317.157 367.673 315.695 366.478 314.757L366.469 314.767Z" fill="#00C3B4"/>
<path d="M228.323 278.01H159.139C156.298 278.01 154 280.308 154 283.149C154 285.99 156.298 288.288 159.139 288.288H188.587V318.803C188.587 321.644 190.886 323.942 193.726 323.942C196.567 323.942 198.866 321.644 198.866 318.803V288.288H228.313C231.154 288.288 233.453 285.99 233.453 283.149C233.453 280.308 231.154 278.01 228.313 278.01H228.323Z" fill="#00C3B4"/>
<path d="M567.431 283.149C567.431 280.308 565.133 278.01 562.292 278.01C559.451 278.01 557.152 280.308 557.152 283.149V309.425C557.152 309.784 557.06 310.142 556.877 310.464C556.297 311.457 555.029 311.797 554.036 311.227L498.634 279.26C494.147 276.668 488.41 278.203 485.818 282.69C484.963 284.17 484.558 285.788 484.558 287.379V318.794C484.558 321.635 486.857 323.933 489.697 323.933C492.538 323.933 494.837 321.635 494.837 318.794V292.518C494.837 292.168 494.929 291.801 495.113 291.479C495.692 290.486 496.961 290.146 497.953 290.716L553.355 322.674C557.842 325.266 563.579 323.731 566.171 319.244C567.026 317.764 567.431 316.146 567.431 314.555V283.14V283.149Z" fill="#00C3B4"/>
<path d="M456.133 278.01H416.554C404.602 278.01 394.912 287.7 394.912 299.652V302.3C394.912 314.252 404.602 323.942 416.554 323.942H456.133C468.085 323.942 477.776 314.252 477.776 302.3V299.652C477.776 287.7 468.085 278.01 456.133 278.01ZM467.644 302.226C467.644 308.542 462.523 313.663 456.207 313.663H416.628C410.311 313.663 405.191 308.542 405.191 302.226V299.726C405.191 293.409 410.311 288.288 416.628 288.288H456.207C462.523 288.288 467.644 293.409 467.644 299.726V302.226Z" fill="#00C3B4"/>
<path d="M261.481 306.124C258.64 306.124 256.342 303.826 256.342 300.985C256.342 298.144 258.64 295.846 261.481 295.846H289.927C292.768 295.846 295.066 298.144 295.066 300.985C295.066 303.826 292.768 306.124 289.927 306.124H261.481ZM293.522 278.01C296.362 278.01 298.661 280.308 298.661 283.149C298.661 285.99 296.362 288.288 293.522 288.288H259.109C252.793 288.288 247.672 293.409 247.672 299.726V302.226C247.672 308.542 252.793 313.663 259.109 313.663H293.522C296.362 313.663 298.661 315.962 298.661 318.803C298.661 321.644 296.362 323.942 293.522 323.942H259.045C247.093 323.942 237.403 314.252 237.403 302.3V299.652C237.403 287.7 247.093 278.01 259.045 278.01H293.522Z" fill="#00C3B4"/>
<path d="M377.286 318.803C377.286 321.644 379.584 323.942 382.425 323.942C385.266 323.942 387.565 321.644 387.565 318.803V283.149C387.565 280.308 385.266 278.01 382.425 278.01C379.584 278.01 377.286 280.308 377.286 283.149V318.803Z" fill="#00C3B4"/>
<defs>
<clipPath id="clip0_1367_1900">
<rect width="160" height="160" fill="white" transform="translate(796 228)"/>
</clipPath>
</defs>
</svg>
