<svg width="566" height="698" viewBox="0 0 566 698" fill="none" xmlns="http://www.w3.org/2000/svg">
<rect width="566" height="698" fill="#F9F9FC"/>
<path d="M70.528 72.88H64.84V71.2H78.088V72.88H72.4V88H70.528V72.88ZM80.9697 70.48H82.7937V77.824C83.0657 77.056 83.5377 76.464 84.2097 76.048C84.8817 75.632 85.6737 75.424 86.5857 75.424C87.9937 75.424 89.0977 75.872 89.8977 76.768C90.6977 77.664 91.0977 78.88 91.0977 80.416V88H89.2737V80.68C89.2737 79.544 89.0177 78.656 88.5057 78.016C88.0097 77.376 87.2657 77.056 86.2737 77.056C85.6017 77.056 85.0017 77.208 84.4737 77.512C83.9457 77.8 83.5297 78.232 83.2257 78.808C82.9377 79.368 82.7937 80.04 82.7937 80.824V88H80.9697V70.48ZM94.0956 81.856C94.0956 80.64 94.3436 79.544 94.8396 78.568C95.3356 77.592 96.0156 76.824 96.8796 76.264C97.7436 75.704 98.7196 75.424 99.8076 75.424C100.992 75.424 102 75.696 102.832 76.24C103.68 76.768 104.312 77.488 104.728 78.4C105.16 79.312 105.376 80.328 105.376 81.448V82.288H95.8716C95.9196 83.136 96.1036 83.904 96.4236 84.592C96.7436 85.264 97.1996 85.8 97.7916 86.2C98.3996 86.6 99.1116 86.8 99.9276 86.8C100.808 86.8 101.528 86.6 102.088 86.2C102.648 85.784 103.072 85.232 103.36 84.544H105.136C104.912 85.296 104.552 85.952 104.056 86.512C103.576 87.072 102.976 87.512 102.256 87.832C101.552 88.136 100.776 88.288 99.9276 88.288C98.7276 88.288 97.6876 88 96.8076 87.424C95.9276 86.848 95.2556 86.072 94.7916 85.096C94.3276 84.12 94.0956 83.04 94.0956 81.856ZM103.672 80.824C103.608 80.056 103.416 79.376 103.096 78.784C102.776 78.192 102.336 77.728 101.776 77.392C101.216 77.04 100.552 76.864 99.7836 76.864C99.0636 76.864 98.4236 77.04 97.8636 77.392C97.3196 77.744 96.8796 78.216 96.5436 78.808C96.2236 79.4 96.0156 80.072 95.9196 80.824H103.672ZM118.15 88.288C116.678 88.288 115.478 87.92 114.55 87.184C113.622 86.432 113.038 85.408 112.798 84.112H114.55C114.742 84.96 115.134 85.632 115.726 86.128C116.334 86.608 117.142 86.848 118.15 86.848C119.094 86.848 119.846 86.632 120.406 86.2C120.966 85.752 121.246 85.168 121.246 84.448C121.246 83.904 121.046 83.472 120.646 83.152C120.262 82.816 119.654 82.576 118.822 82.432L116.446 82.024C115.358 81.848 114.526 81.512 113.95 81.016C113.39 80.504 113.11 79.824 113.11 78.976C113.11 78.256 113.31 77.632 113.71 77.104C114.11 76.56 114.662 76.144 115.366 75.856C116.07 75.568 116.87 75.424 117.766 75.424C119.158 75.424 120.27 75.76 121.102 76.432C121.95 77.104 122.43 78.024 122.542 79.192H120.79C120.662 78.504 120.342 77.944 119.83 77.512C119.318 77.08 118.622 76.864 117.742 76.864C116.862 76.864 116.15 77.04 115.606 77.392C115.078 77.744 114.814 78.216 114.814 78.808C114.814 79.288 114.966 79.656 115.27 79.912C115.574 80.152 116.11 80.336 116.878 80.464L119.35 80.896C120.55 81.104 121.446 81.488 122.038 82.048C122.646 82.608 122.95 83.376 122.95 84.352C122.95 85.136 122.734 85.824 122.302 86.416C121.886 87.008 121.31 87.472 120.574 87.808C119.854 88.128 119.046 88.288 118.15 88.288ZM125.923 92.704C125.443 92.704 124.963 92.64 124.483 92.512V90.952C124.899 91.08 125.331 91.144 125.779 91.144C126.339 91.144 126.803 91.024 127.171 90.784C127.539 90.56 127.843 90.248 128.083 89.848C128.323 89.448 128.563 88.912 128.803 88.24L128.947 87.856L124.243 75.712H126.043L129.859 85.768L133.435 75.712H135.235L130.699 88L130.411 88.768C130.091 89.632 129.747 90.344 129.379 90.904C129.011 91.48 128.547 91.92 127.987 92.224C127.427 92.544 126.739 92.704 125.923 92.704ZM137.665 75.712H139.393V77.824C139.665 77.088 140.121 76.504 140.761 76.072C141.417 75.64 142.193 75.424 143.089 75.424C144.017 75.424 144.809 75.624 145.465 76.024C146.137 76.424 146.649 76.992 147.001 77.728C147.385 77.008 147.929 76.448 148.633 76.048C149.353 75.632 150.177 75.424 151.105 75.424C152.561 75.424 153.673 75.872 154.441 76.768C155.225 77.648 155.617 78.856 155.617 80.392V88H153.793V80.68C153.793 79.544 153.545 78.656 153.049 78.016C152.553 77.376 151.809 77.056 150.817 77.056C150.161 77.056 149.585 77.2 149.089 77.488C148.593 77.776 148.209 78.2 147.937 78.76C147.681 79.32 147.553 80.008 147.553 80.824V88H145.729V80.68C145.729 79.544 145.481 78.656 144.985 78.016C144.489 77.376 143.753 77.056 142.777 77.056C141.769 77.056 140.969 77.384 140.377 78.04C139.785 78.68 139.489 79.608 139.489 80.824V88H137.665V75.712ZM159.579 70.48H161.403V78.16C161.707 77.376 162.251 76.728 163.035 76.216C163.835 75.688 164.723 75.424 165.699 75.424C166.755 75.424 167.707 75.712 168.555 76.288C169.419 76.864 170.091 77.648 170.571 78.64C171.067 79.616 171.315 80.688 171.315 81.856C171.315 83.024 171.067 84.104 170.571 85.096C170.091 86.072 169.419 86.848 168.555 87.424C167.707 88 166.755 88.288 165.699 88.288C164.707 88.288 163.811 88.032 163.011 87.52C162.211 86.992 161.659 86.336 161.355 85.552V88H159.579V70.48ZM161.403 81.856C161.403 82.72 161.579 83.528 161.931 84.28C162.299 85.016 162.795 85.608 163.419 86.056C164.059 86.488 164.763 86.704 165.531 86.704C166.299 86.704 166.979 86.488 167.571 86.056C168.179 85.608 168.651 85.016 168.987 84.28C169.323 83.528 169.491 82.72 169.491 81.856C169.491 80.992 169.323 80.192 168.987 79.456C168.651 78.704 168.179 78.112 167.571 77.68C166.979 77.232 166.299 77.008 165.531 77.008C164.763 77.008 164.059 77.232 163.419 77.68C162.795 78.112 162.299 78.704 161.931 79.456C161.579 80.192 161.403 80.992 161.403 81.856ZM179.382 88.288C178.278 88.288 177.27 88 176.358 87.424C175.462 86.832 174.758 86.048 174.246 85.072C173.734 84.08 173.478 83.008 173.478 81.856C173.478 80.704 173.734 79.64 174.246 78.664C174.758 77.672 175.462 76.888 176.358 76.312C177.27 75.72 178.278 75.424 179.382 75.424C180.486 75.424 181.486 75.72 182.382 76.312C183.294 76.888 184.006 77.672 184.518 78.664C185.03 79.64 185.286 80.704 185.286 81.856C185.286 83.008 185.03 84.08 184.518 85.072C184.006 86.048 183.294 86.832 182.382 87.424C181.486 88 180.486 88.288 179.382 88.288ZM179.382 86.704C180.182 86.704 180.894 86.48 181.518 86.032C182.142 85.568 182.622 84.968 182.958 84.232C183.294 83.48 183.462 82.688 183.462 81.856C183.462 81.024 183.294 80.24 182.958 79.504C182.622 78.752 182.142 78.152 181.518 77.704C180.894 77.24 180.182 77.008 179.382 77.008C178.582 77.008 177.87 77.24 177.246 77.704C176.622 78.152 176.142 78.752 175.806 79.504C175.47 80.24 175.302 81.024 175.302 81.856C175.302 82.688 175.47 83.48 175.806 84.232C176.142 84.968 176.622 85.568 177.246 86.032C177.87 86.48 178.582 86.704 179.382 86.704ZM188.527 70.48H190.351V88H188.527V70.48Z" fill="#0E131F"/>
<g clip-path="url(#clip0_1367_1902)">
<rect width="116.069" height="116.069" transform="translate(214.965 290.631)" fill="#00C3B4"/>
<path fill-rule="evenodd" clip-rule="evenodd" d="M299.891 335.194C302.067 335.194 303.831 336.97 303.831 339.161C303.831 341.351 302.067 343.129 299.891 343.129H277.395V366.613C277.395 368.804 275.63 370.58 273.456 370.58C271.28 370.58 269.516 368.804 269.516 366.613V343.129H247.018C244.844 343.129 243.079 341.351 243.079 339.161C243.079 336.97 244.844 335.194 247.018 335.194H299.891Z" fill="#F9F9FC"/>
</g>
<defs>
<clipPath id="clip0_1367_1902">
<rect width="116.069" height="116.069" fill="white" transform="translate(214.965 290.631)"/>
</clipPath>
</defs>
</svg>
