<svg width="40" height="40" viewBox="0 0 40 40" fill="none" xmlns="http://www.w3.org/2000/svg">
<path d="M33.3333 15H18.3333C16.4924 15 15 16.4924 15 18.3333V33.3333C15 35.1743 16.4924 36.6667 18.3333 36.6667H33.3333C35.1743 36.6667 36.6667 35.1743 36.6667 33.3333V18.3333C36.6667 16.4924 35.1743 15 33.3333 15Z" stroke="white" stroke-width="2.5" stroke-linecap="round" stroke-linejoin="round"/>
<path d="M8.3335 25.0002H6.66683C5.78277 25.0002 4.93493 24.649 4.30981 24.0239C3.68469 23.3987 3.3335 22.5509 3.3335 21.6668V6.66683C3.3335 5.78277 3.68469 4.93493 4.30981 4.30981C4.93493 3.68469 5.78277 3.3335 6.66683 3.3335H21.6668C22.5509 3.3335 23.3987 3.68469 24.0239 4.30981C24.649 4.93493 25.0002 5.78277 25.0002 6.66683V8.3335" stroke="white" stroke-width="2.5" stroke-linecap="round" stroke-linejoin="round"/>
</svg>
