<svg width="1156" height="698" viewBox="0 0 1156 698" fill="none" xmlns="http://www.w3.org/2000/svg">
<rect width="1156" height="698" fill="#424651"/>
<path d="M65.44 618.8H66.688V623.776H73.408V618.8H74.656V630H73.408V624.896H66.688V630H65.44V618.8ZM76.8138 625.904C76.8138 625.093 76.9791 624.363 77.3098 623.712C77.6404 623.061 78.0938 622.549 78.6698 622.176C79.2458 621.803 79.8964 621.616 80.6218 621.616C81.4111 621.616 82.0831 621.797 82.6378 622.16C83.2031 622.512 83.6244 622.992 83.9018 623.6C84.1898 624.208 84.3338 624.885 84.3338 625.632V626.192H77.9978C78.0298 626.757 78.1524 627.269 78.3658 627.728C78.5791 628.176 78.8831 628.533 79.2778 628.8C79.6831 629.067 80.1578 629.2 80.7018 629.2C81.2884 629.2 81.7684 629.067 82.1418 628.8C82.5151 628.523 82.7978 628.155 82.9898 627.696H84.1737C84.0244 628.197 83.7844 628.635 83.4538 629.008C83.1338 629.381 82.7338 629.675 82.2538 629.888C81.7844 630.091 81.2671 630.192 80.7018 630.192C79.9018 630.192 79.2084 630 78.6218 629.616C78.0351 629.232 77.5871 628.715 77.2778 628.064C76.9684 627.413 76.8138 626.693 76.8138 625.904ZM83.1978 625.216C83.1551 624.704 83.0271 624.251 82.8138 623.856C82.6004 623.461 82.3071 623.152 81.9338 622.928C81.5604 622.693 81.1178 622.576 80.6058 622.576C80.1258 622.576 79.6991 622.693 79.3258 622.928C78.9631 623.163 78.6698 623.477 78.4457 623.872C78.2324 624.267 78.0938 624.715 78.0298 625.216H83.1978ZM88.4739 625.84L85.5939 621.808H86.9059L89.1139 624.912L91.2899 621.808H92.6019L89.7539 625.84L92.7459 630H91.4179L89.1139 626.768L86.8099 630H85.4819L88.4739 625.84ZM98.1881 628.272H99.6281V630H98.1881V628.272ZM98.1881 622.816H99.6281V624.544H98.1881V622.816ZM105.3 626.128L110.676 618.8H112.02V626.112H113.668V627.12H112.02V630H110.884V627.12H105.3V626.128ZM110.884 626.112V620.128L106.58 626.112H110.884ZM115.446 629.088L120.15 624.16C120.545 623.733 120.838 623.344 121.03 622.992C121.222 622.629 121.318 622.219 121.318 621.76C121.318 621.355 121.222 620.992 121.03 620.672C120.849 620.352 120.588 620.101 120.246 619.92C119.905 619.739 119.51 619.648 119.062 619.648C118.305 619.648 117.708 619.877 117.27 620.336C116.844 620.784 116.609 621.403 116.566 622.192H115.366C115.388 621.467 115.558 620.832 115.878 620.288C116.198 619.744 116.63 619.323 117.174 619.024C117.729 618.725 118.364 618.576 119.078 618.576C119.761 618.576 120.364 618.715 120.886 618.992C121.42 619.259 121.83 619.637 122.118 620.128C122.406 620.608 122.55 621.152 122.55 621.76C122.55 622.827 122.076 623.835 121.126 624.784L117.03 628.928H122.614V630H115.446V629.088ZM124.066 626.128L129.442 618.8H130.786V626.112H132.434V627.12H130.786V630H129.65V627.12H124.066V626.128ZM129.65 626.112V620.128L125.346 626.112H129.65ZM138.146 630.224C137.368 630.224 136.669 630.053 136.05 629.712C135.442 629.36 134.968 628.891 134.626 628.304C134.285 627.707 134.114 627.051 134.114 626.336C134.114 625.739 134.226 625.179 134.45 624.656C134.674 624.133 134.989 623.563 135.394 622.944L138.082 618.8H139.394L136.514 623.072C136.706 622.912 136.978 622.784 137.33 622.688C137.682 622.592 138.088 622.544 138.546 622.544C139.197 622.544 139.794 622.715 140.338 623.056C140.882 623.387 141.314 623.84 141.634 624.416C141.965 624.992 142.13 625.616 142.13 626.288C142.13 627.024 141.96 627.691 141.618 628.288C141.288 628.885 140.818 629.36 140.21 629.712C139.613 630.053 138.925 630.224 138.146 630.224ZM138.114 629.2C138.68 629.2 139.176 629.077 139.602 628.832C140.029 628.576 140.354 628.229 140.578 627.792C140.813 627.355 140.93 626.864 140.93 626.32C140.93 625.776 140.813 625.291 140.578 624.864C140.344 624.437 140.018 624.107 139.602 623.872C139.186 623.637 138.712 623.52 138.178 623.52C137.624 623.52 137.128 623.643 136.69 623.888C136.264 624.123 135.928 624.459 135.682 624.896C135.437 625.323 135.314 625.808 135.314 626.352C135.314 626.907 135.426 627.403 135.65 627.84C135.885 628.267 136.216 628.603 136.642 628.848C137.069 629.083 137.56 629.2 138.114 629.2ZM147.879 630.224C147.228 630.224 146.631 630.096 146.087 629.84C145.554 629.584 145.106 629.227 144.743 628.768C144.391 628.299 144.146 627.765 144.007 627.168H145.239C145.399 627.744 145.708 628.219 146.167 628.592C146.636 628.965 147.207 629.152 147.879 629.152C148.423 629.152 148.908 629.04 149.335 628.816C149.762 628.581 150.092 628.251 150.327 627.824C150.572 627.397 150.695 626.901 150.695 626.336C150.695 625.824 150.578 625.355 150.343 624.928C150.108 624.501 149.778 624.165 149.351 623.92C148.924 623.664 148.434 623.536 147.879 623.536C147.324 623.536 146.834 623.664 146.407 623.92C145.98 624.165 145.655 624.496 145.431 624.912H144.183L144.999 618.8H151.079V619.872H146.007L145.511 623.616C145.724 623.275 146.055 622.997 146.503 622.784C146.951 622.571 147.463 622.464 148.039 622.464C148.732 622.464 149.372 622.629 149.959 622.96C150.556 623.28 151.031 623.733 151.383 624.32C151.735 624.907 151.911 625.573 151.911 626.32C151.911 627.067 151.735 627.739 151.383 628.336C151.031 628.923 150.546 629.387 149.927 629.728C149.319 630.059 148.636 630.224 147.879 630.224ZM155.895 620.24L153.111 622.112V620.88L156.103 618.8H157.127V630H155.895V620.24ZM65.44 640.8H70.384C71.12 640.8 71.7707 640.944 72.336 641.232C72.912 641.509 73.3547 641.893 73.664 642.384C73.984 642.864 74.144 643.397 74.144 643.984C74.144 644.517 74.016 645.008 73.76 645.456C73.504 645.904 73.1413 646.277 72.672 646.576C72.2027 646.875 71.664 647.067 71.056 647.152L73.616 652H72.272L69.744 647.2H66.688V652H65.44V640.8ZM70.256 646.112C70.7893 646.112 71.2533 646.021 71.648 645.84C72.0533 645.648 72.3627 645.392 72.576 645.072C72.7893 644.741 72.896 644.379 72.896 643.984C72.896 643.589 72.7893 643.232 72.576 642.912C72.3627 642.592 72.0533 642.341 71.648 642.16C71.2533 641.979 70.7893 641.888 70.256 641.888H66.688V646.112H70.256ZM84.7433 643.904C84.4339 643.2 83.9859 642.656 83.3993 642.272C82.8233 641.888 82.1033 641.696 81.2393 641.696C80.4286 641.696 79.7139 641.92 79.0953 642.368C78.4766 642.805 77.9966 643.387 77.6553 644.112C77.3246 644.827 77.1593 645.589 77.1593 646.4C77.1593 647.232 77.3246 648.011 77.6553 648.736C77.9966 649.451 78.4766 650.027 79.0953 650.464C79.7246 650.891 80.4553 651.104 81.2873 651.104C82.0446 651.104 82.6953 650.949 83.2393 650.64C83.7833 650.32 84.2099 649.888 84.5193 649.344C84.8286 648.8 85.0206 648.181 85.0953 647.488H80.5673V646.368H86.3433V646.928C86.3433 647.888 86.1353 648.773 85.7193 649.584C85.3139 650.384 84.7273 651.024 83.9593 651.504C83.2019 651.984 82.3113 652.224 81.2873 652.224C80.2419 652.224 79.3086 651.957 78.4873 651.424C77.6659 650.88 77.0313 650.165 76.5833 649.28C76.1353 648.384 75.9113 647.424 75.9113 646.4C75.9113 645.376 76.1406 644.416 76.5993 643.52C77.0579 642.624 77.6926 641.909 78.5033 641.376C79.3139 640.843 80.2259 640.576 81.2393 640.576C82.4766 640.576 83.5059 640.875 84.3273 641.472C85.1486 642.069 85.7193 642.88 86.0393 643.904H84.7433ZM88.7369 640.8H93.3129C94.4115 640.8 95.2649 641.051 95.8729 641.552C96.4915 642.053 96.8009 642.72 96.8009 643.552C96.8009 644.192 96.6409 644.731 96.3209 645.168C96.0009 645.605 95.5155 645.925 94.8649 646.128C95.5795 646.235 96.1502 646.549 96.5769 647.072C97.0142 647.584 97.2329 648.181 97.2329 648.864C97.2329 649.835 96.8862 650.603 96.1929 651.168C95.5102 651.723 94.5769 652 93.3929 652H88.7369V640.8ZM93.2329 650.944C94.0969 650.944 94.7742 650.768 95.2649 650.416C95.7662 650.053 96.0169 649.525 96.0169 648.832C96.0169 648.395 95.9049 648.016 95.6809 647.696C95.4675 647.365 95.1529 647.115 94.7369 646.944C94.3209 646.763 93.8195 646.672 93.2329 646.672H89.9369V650.944H93.2329ZM93.0249 645.616C93.8355 645.616 94.4649 645.44 94.9129 645.088C95.3609 644.725 95.5849 644.24 95.5849 643.632C95.5849 643.077 95.3769 642.645 94.9609 642.336C94.5449 642.016 93.9529 641.856 93.1849 641.856H89.9369V645.616H93.0249ZM102.954 650.272H104.394V652H102.954V650.272ZM102.954 644.816H104.394V646.544H102.954V644.816ZM114.178 652.224C113.399 652.224 112.7 652.053 112.082 651.712C111.474 651.36 110.999 650.891 110.658 650.304C110.316 649.707 110.146 649.051 110.146 648.336C110.146 647.739 110.258 647.179 110.482 646.656C110.706 646.133 111.02 645.563 111.426 644.944L114.114 640.8H115.426L112.546 645.072C112.738 644.912 113.01 644.784 113.362 644.688C113.714 644.592 114.119 644.544 114.578 644.544C115.228 644.544 115.826 644.715 116.37 645.056C116.914 645.387 117.346 645.84 117.666 646.416C117.996 646.992 118.162 647.616 118.162 648.288C118.162 649.024 117.991 649.691 117.65 650.288C117.319 650.885 116.85 651.36 116.242 651.712C115.644 652.053 114.956 652.224 114.178 652.224ZM114.146 651.2C114.711 651.2 115.207 651.077 115.634 650.832C116.06 650.576 116.386 650.229 116.61 649.792C116.844 649.355 116.962 648.864 116.962 648.32C116.962 647.776 116.844 647.291 116.61 646.864C116.375 646.437 116.05 646.107 115.634 645.872C115.218 645.637 114.743 645.52 114.21 645.52C113.655 645.52 113.159 645.643 112.722 645.888C112.295 646.123 111.959 646.459 111.714 646.896C111.468 647.323 111.346 647.808 111.346 648.352C111.346 648.907 111.458 649.403 111.682 649.84C111.916 650.267 112.247 650.603 112.674 650.848C113.1 651.083 113.591 651.2 114.146 651.2ZM123.99 652.224C123.211 652.224 122.513 652.053 121.894 651.712C121.286 651.36 120.811 650.891 120.47 650.304C120.129 649.707 119.958 649.051 119.958 648.336C119.958 647.739 120.07 647.179 120.294 646.656C120.518 646.133 120.833 645.563 121.238 644.944L123.926 640.8H125.238L122.358 645.072C122.55 644.912 122.822 644.784 123.174 644.688C123.526 644.592 123.931 644.544 124.39 644.544C125.041 644.544 125.638 644.715 126.182 645.056C126.726 645.387 127.158 645.84 127.478 646.416C127.809 646.992 127.974 647.616 127.974 648.288C127.974 649.024 127.803 649.691 127.462 650.288C127.131 650.885 126.662 651.36 126.054 651.712C125.457 652.053 124.769 652.224 123.99 652.224ZM123.958 651.2C124.523 651.2 125.019 651.077 125.446 650.832C125.873 650.576 126.198 650.229 126.422 649.792C126.657 649.355 126.774 648.864 126.774 648.32C126.774 647.776 126.657 647.291 126.422 646.864C126.187 646.437 125.862 646.107 125.446 645.872C125.03 645.637 124.555 645.52 124.022 645.52C123.467 645.52 122.971 645.643 122.534 645.888C122.107 646.123 121.771 646.459 121.526 646.896C121.281 647.323 121.158 647.808 121.158 648.352C121.158 648.907 121.27 649.403 121.494 649.84C121.729 650.267 122.059 650.603 122.486 650.848C122.913 651.083 123.403 651.2 123.958 651.2ZM131.596 650.464L130.252 654.144H129.388L130.268 650.464H131.596ZM142.954 641.792H137.034V640.8H144.25V641.648L138.906 652H137.642L142.954 641.792ZM149.78 652.224C148.863 652.224 148.079 651.973 147.428 651.472C146.778 650.96 146.282 650.267 145.94 649.392C145.61 648.507 145.444 647.509 145.444 646.4C145.444 645.291 145.61 644.299 145.94 643.424C146.282 642.539 146.778 641.845 147.428 641.344C148.079 640.832 148.863 640.576 149.78 640.576C150.698 640.576 151.482 640.832 152.132 641.344C152.783 641.845 153.274 642.539 153.604 643.424C153.946 644.299 154.116 645.291 154.116 646.4C154.116 647.509 153.946 648.507 153.604 649.392C153.274 650.267 152.783 650.96 152.132 651.472C151.482 651.973 150.698 652.224 149.78 652.224ZM149.78 651.152C150.495 651.152 151.082 650.928 151.54 650.48C152.01 650.021 152.351 649.435 152.564 648.72C152.778 648.005 152.884 647.232 152.884 646.4C152.884 645.568 152.778 644.795 152.564 644.08C152.351 643.365 152.01 642.784 151.54 642.336C151.082 641.877 150.495 641.648 149.78 641.648C149.066 641.648 148.474 641.877 148.004 642.336C147.546 642.784 147.21 643.365 146.996 644.08C146.783 644.795 146.676 645.568 146.676 646.4C146.676 647.232 146.783 648.005 146.996 648.72C147.21 649.435 147.546 650.021 148.004 650.48C148.474 650.928 149.066 651.152 149.78 651.152ZM157.846 650.464L156.502 654.144H155.638L156.518 650.464H157.846ZM163.444 648.976C163.444 648.229 163.647 647.616 164.052 647.136C164.458 646.645 164.986 646.299 165.636 646.096C165.103 645.851 164.687 645.504 164.388 645.056C164.09 644.597 163.94 644.096 163.94 643.552C163.94 642.965 164.09 642.448 164.388 642C164.698 641.541 165.119 641.189 165.652 640.944C166.186 640.699 166.788 640.576 167.46 640.576C168.132 640.576 168.735 640.699 169.268 640.944C169.802 641.189 170.218 641.541 170.516 642C170.826 642.448 170.98 642.965 170.98 643.552C170.98 644.096 170.831 644.597 170.532 645.056C170.234 645.504 169.818 645.851 169.284 646.096C169.935 646.299 170.463 646.645 170.868 647.136C171.274 647.616 171.476 648.229 171.476 648.976C171.476 649.573 171.306 650.123 170.964 650.624C170.634 651.115 170.164 651.504 169.556 651.792C168.948 652.08 168.25 652.224 167.46 652.224C166.671 652.224 165.972 652.08 165.364 651.792C164.756 651.504 164.282 651.115 163.94 650.624C163.61 650.123 163.444 649.573 163.444 648.976ZM164.612 648.88C164.612 649.349 164.73 649.765 164.964 650.128C165.21 650.48 165.546 650.757 165.972 650.96C166.399 651.152 166.895 651.248 167.46 651.248C168.026 651.248 168.522 651.152 168.948 650.96C169.375 650.757 169.706 650.48 169.94 650.128C170.186 649.765 170.308 649.349 170.308 648.88C170.308 648.421 170.186 648.021 169.94 647.68C169.695 647.339 169.354 647.077 168.916 646.896C168.49 646.715 168.004 646.624 167.46 646.624C166.916 646.624 166.426 646.715 165.988 646.896C165.562 647.077 165.226 647.339 164.98 647.68C164.735 648.021 164.612 648.421 164.612 648.88ZM165.092 643.616C165.092 643.979 165.194 644.315 165.396 644.624C165.599 644.923 165.876 645.168 166.228 645.36C166.591 645.541 167.002 645.632 167.46 645.632C167.919 645.632 168.324 645.541 168.676 645.36C169.039 645.168 169.322 644.923 169.524 644.624C169.727 644.315 169.828 643.979 169.828 643.616C169.828 643.189 169.727 642.821 169.524 642.512C169.332 642.203 169.055 641.968 168.692 641.808C168.34 641.637 167.93 641.552 167.46 641.552C166.991 641.552 166.575 641.637 166.212 641.808C165.86 641.968 165.583 642.203 165.38 642.512C165.188 642.821 165.092 643.189 165.092 643.616ZM175.785 642.24L173.001 644.112V642.88L175.993 640.8H177.017V652H175.785V642.24Z" fill="white"/>
<path d="M70.084 558.252C69.064 558.252 68.164 558.078 67.384 557.73C66.604 557.382 65.98 556.884 65.512 556.236C65.044 555.588 64.768 554.832 64.684 553.968H67.69C67.81 554.544 68.074 555 68.482 555.336C68.89 555.66 69.436 555.822 70.12 555.822C70.54 555.822 70.906 555.762 71.218 555.642C71.53 555.522 71.77 555.354 71.938 555.138C72.106 554.922 72.19 554.664 72.19 554.364C72.19 554.04 72.082 553.776 71.866 553.572C71.65 553.356 71.308 553.206 70.84 553.122L68.212 552.6C67.132 552.384 66.316 552 65.764 551.448C65.224 550.884 64.954 550.092 64.954 549.072C64.954 548.328 65.164 547.656 65.584 547.056C66.004 546.456 66.586 545.988 67.33 545.652C68.074 545.316 68.92 545.148 69.868 545.148C71.344 545.148 72.526 545.508 73.414 546.228C74.302 546.948 74.776 547.938 74.836 549.198H71.866C71.782 548.706 71.566 548.316 71.218 548.028C70.882 547.728 70.426 547.578 69.85 547.578C69.466 547.578 69.13 547.626 68.842 547.722C68.566 547.818 68.35 547.962 68.194 548.154C68.038 548.334 67.96 548.562 67.96 548.838C67.96 549.126 68.05 549.348 68.23 549.504C68.41 549.66 68.692 549.774 69.076 549.846L71.938 550.386C73.006 550.59 73.816 550.992 74.368 551.592C74.92 552.192 75.196 552.984 75.196 553.968C75.196 554.796 74.974 555.54 74.53 556.2C74.098 556.848 73.492 557.352 72.712 557.712C71.944 558.072 71.068 558.252 70.084 558.252ZM76.8552 544.86H79.8792V549.864C80.0712 549.396 80.3772 549.03 80.7972 548.766C81.2172 548.49 81.7392 548.352 82.3632 548.352C83.4552 548.352 84.2832 548.7 84.8472 549.396C85.4112 550.092 85.6932 551.04 85.6932 552.24V558H82.6692V552.618C82.6692 552.126 82.5552 551.724 82.3272 551.412C82.0992 551.1 81.7572 550.944 81.3012 550.944C80.9892 550.944 80.7252 551.01 80.5092 551.142C80.3052 551.274 80.1492 551.466 80.0412 551.718C79.9332 551.958 79.8792 552.252 79.8792 552.6V558H76.8552V544.86ZM87.3799 555.264C87.3799 554.316 87.6979 553.608 88.3339 553.14C88.9819 552.66 89.9779 552.366 91.3219 552.258L93.2299 552.096V551.7C93.2299 551.352 93.1219 551.076 92.9059 550.872C92.6899 550.668 92.3719 550.566 91.9519 550.566C91.5439 550.566 91.2139 550.662 90.9619 550.854C90.7219 551.046 90.5839 551.298 90.5479 551.61H87.6859C87.8299 550.626 88.2859 549.84 89.0539 549.252C89.8219 548.652 90.7939 548.352 91.9699 548.352C93.3259 548.352 94.3759 548.682 95.1199 549.342C95.8759 549.99 96.2539 550.872 96.2539 551.988V558H93.3199V556.74C93.1279 557.172 92.7859 557.526 92.2939 557.802C91.8139 558.078 91.2499 558.216 90.6019 558.216C89.6179 558.216 88.8319 557.952 88.2439 557.424C87.6679 556.884 87.3799 556.164 87.3799 555.264ZM90.3139 555.156C90.3139 555.48 90.4219 555.738 90.6379 555.93C90.8659 556.11 91.1719 556.2 91.5559 556.2C91.9039 556.2 92.2039 556.134 92.4559 556.002C92.7079 555.87 92.8999 555.678 93.0319 555.426C93.1639 555.174 93.2299 554.868 93.2299 554.508V553.986L91.8079 554.13C91.3279 554.178 90.9559 554.28 90.6919 554.436C90.4399 554.58 90.3139 554.82 90.3139 555.156ZM104.73 558V556.722C104.478 557.19 104.124 557.556 103.668 557.82C103.212 558.084 102.648 558.216 101.976 558.216C101.148 558.216 100.404 558 99.7443 557.568C99.0843 557.136 98.5683 556.542 98.1963 555.786C97.8363 555.03 97.6563 554.196 97.6563 553.284C97.6563 552.372 97.8363 551.538 98.1963 550.782C98.5683 550.026 99.0783 549.432 99.7263 549C100.386 548.568 101.13 548.352 101.958 548.352C102.618 548.352 103.17 548.484 103.614 548.748C104.058 549.012 104.4 549.378 104.64 549.846V544.86H107.664V558H104.73ZM104.64 553.284C104.64 552.804 104.562 552.384 104.406 552.024C104.25 551.652 104.022 551.364 103.722 551.16C103.422 550.956 103.074 550.854 102.678 550.854C102.27 550.854 101.916 550.968 101.616 551.196C101.316 551.424 101.082 551.724 100.914 552.096C100.758 552.468 100.68 552.864 100.68 553.284C100.68 553.704 100.758 554.1 100.914 554.472C101.082 554.844 101.316 555.144 101.616 555.372C101.916 555.6 102.27 555.714 102.678 555.714C103.074 555.714 103.422 555.612 103.722 555.408C104.022 555.204 104.25 554.922 104.406 554.562C104.562 554.19 104.64 553.764 104.64 553.284ZM114.156 558.216C113.184 558.216 112.314 558 111.546 557.568C110.79 557.136 110.202 556.548 109.782 555.804C109.362 555.048 109.152 554.208 109.152 553.284C109.152 552.36 109.362 551.526 109.782 550.782C110.202 550.026 110.79 549.432 111.546 549C112.314 548.568 113.184 548.352 114.156 548.352C115.128 548.352 115.992 548.568 116.748 549C117.516 549.432 118.11 550.026 118.53 550.782C118.95 551.526 119.16 552.36 119.16 553.284C119.16 554.208 118.95 555.048 118.53 555.804C118.11 556.548 117.516 557.136 116.748 557.568C115.992 558 115.128 558.216 114.156 558.216ZM114.156 555.732C114.576 555.732 114.936 555.618 115.236 555.39C115.548 555.15 115.782 554.844 115.938 554.472C116.094 554.1 116.172 553.704 116.172 553.284C116.172 552.864 116.094 552.468 115.938 552.096C115.782 551.724 115.548 551.424 115.236 551.196C114.936 550.956 114.576 550.836 114.156 550.836C113.736 550.836 113.37 550.956 113.058 551.196C112.758 551.424 112.53 551.724 112.374 552.096C112.218 552.468 112.14 552.864 112.14 553.284C112.14 553.704 112.218 554.1 112.374 554.472C112.53 554.844 112.758 555.15 113.058 555.39C113.37 555.618 113.736 555.732 114.156 555.732ZM122.841 548.568L123.957 554.112L125.775 548.568H128.547L130.365 554.112L131.481 548.568H134.523L131.805 558H129.105L127.161 551.97L125.217 558H122.517L119.799 548.568H122.841ZM139.07 552.96C139.07 552.06 139.244 551.262 139.592 550.566C139.952 549.858 140.45 549.312 141.086 548.928C141.722 548.544 142.442 548.352 143.246 548.352C143.678 548.352 144.068 548.418 144.416 548.55C144.776 548.67 145.076 548.844 145.316 549.072C145.568 549.3 145.76 549.564 145.892 549.864V548.568H148.862V557.424C148.862 558.312 148.664 559.062 148.268 559.674C147.884 560.286 147.332 560.748 146.612 561.06C145.904 561.372 145.076 561.528 144.128 561.528C142.772 561.528 141.662 561.24 140.798 560.664C139.934 560.088 139.418 559.278 139.25 558.234H142.328C142.388 558.558 142.562 558.816 142.85 559.008C143.15 559.2 143.528 559.296 143.984 559.296C144.644 559.296 145.118 559.122 145.406 558.774C145.694 558.426 145.838 557.874 145.838 557.118V556.002C145.742 556.29 145.568 556.554 145.316 556.794C145.076 557.022 144.776 557.208 144.416 557.352C144.056 557.496 143.666 557.568 143.246 557.568C142.442 557.568 141.722 557.376 141.086 556.992C140.45 556.596 139.952 556.05 139.592 555.354C139.244 554.658 139.07 553.86 139.07 552.96ZM142.022 552.96C142.022 553.404 142.1 553.8 142.256 554.148C142.412 554.484 142.634 554.754 142.922 554.958C143.21 555.15 143.552 555.246 143.948 555.246C144.308 555.246 144.632 555.15 144.92 554.958C145.208 554.766 145.43 554.502 145.586 554.166C145.754 553.818 145.838 553.416 145.838 552.96C145.838 552.504 145.754 552.108 145.586 551.772C145.43 551.424 145.208 551.154 144.92 550.962C144.632 550.77 144.308 550.674 143.948 550.674C143.552 550.674 143.21 550.77 142.922 550.962C142.634 551.154 142.412 551.424 142.256 551.772C142.1 552.12 142.022 552.516 142.022 552.96ZM150.842 548.568H153.74V550.62C153.86 549.96 154.124 549.438 154.532 549.054C154.94 548.658 155.48 548.46 156.152 548.46C156.464 548.46 156.698 548.484 156.854 548.532V551.484C156.734 551.472 156.542 551.466 156.278 551.466C155.738 551.466 155.288 551.562 154.928 551.754C154.568 551.946 154.298 552.228 154.118 552.6C153.95 552.972 153.866 553.44 153.866 554.004V558H150.842V548.568ZM157.598 553.284C157.598 552.384 157.802 551.556 158.21 550.8C158.618 550.044 159.188 549.45 159.92 549.018C160.652 548.574 161.492 548.352 162.44 548.352C163.436 548.352 164.282 548.568 164.978 549C165.686 549.432 166.22 550.026 166.58 550.782C166.94 551.538 167.12 552.396 167.12 553.356V553.932H160.496C160.532 554.316 160.634 554.664 160.802 554.976C160.97 555.276 161.198 555.51 161.486 555.678C161.786 555.846 162.134 555.93 162.53 555.93C162.998 555.93 163.382 555.84 163.682 555.66C163.982 555.468 164.198 555.222 164.33 554.922H167.048C166.916 555.558 166.64 556.128 166.22 556.632C165.8 557.124 165.272 557.514 164.636 557.802C164.012 558.078 163.322 558.216 162.566 558.216C161.546 558.216 160.658 558.006 159.902 557.586C159.158 557.154 158.588 556.566 158.192 555.822C157.796 555.078 157.598 554.232 157.598 553.284ZM164.258 552.042C164.21 551.73 164.102 551.454 163.934 551.214C163.778 550.962 163.568 550.77 163.304 550.638C163.052 550.506 162.764 550.44 162.44 550.44C162.116 550.44 161.822 550.512 161.558 550.656C161.306 550.788 161.09 550.974 160.91 551.214C160.742 551.454 160.622 551.73 160.55 552.042H164.258ZM170.236 561.528C169.624 561.528 169.072 561.444 168.58 561.276V558.774C168.856 558.882 169.204 558.936 169.624 558.936C169.876 558.936 170.086 558.9 170.254 558.828C170.422 558.756 170.56 558.654 170.668 558.522C170.776 558.402 170.86 558.246 170.92 558.054L170.938 558L167.608 548.568H170.722L172.522 554.652L174.322 548.568H177.436L174.142 558L174.07 558.198C173.77 559.014 173.47 559.656 173.17 560.124C172.87 560.592 172.486 560.94 172.018 561.168C171.562 561.408 170.968 561.528 170.236 561.528Z" fill="white"/>
<path d="M384.176 630.224C383.12 630.224 382.187 629.952 381.376 629.408C380.576 628.864 379.957 628.144 379.52 627.248C379.093 626.352 378.88 625.403 378.88 624.4C378.88 623.397 379.093 622.448 379.52 621.552C379.957 620.656 380.576 619.936 381.376 619.392C382.187 618.848 383.12 618.576 384.176 618.576C384.965 618.576 385.675 618.72 386.304 619.008C386.944 619.285 387.477 619.675 387.904 620.176C388.331 620.677 388.645 621.264 388.848 621.936H387.568C387.28 621.232 386.859 620.683 386.304 620.288C385.749 619.893 385.04 619.696 384.176 619.696C383.344 619.696 382.619 619.92 382 620.368C381.392 620.816 380.928 621.403 380.608 622.128C380.288 622.843 380.128 623.6 380.128 624.4C380.128 625.2 380.288 625.963 380.608 626.688C380.928 627.403 381.392 627.984 382 628.432C382.619 628.88 383.344 629.104 384.176 629.104C385.04 629.104 385.749 628.907 386.304 628.512C386.859 628.117 387.28 627.568 387.568 626.864H388.848C388.645 627.536 388.331 628.123 387.904 628.624C387.477 629.125 386.944 629.52 386.304 629.808C385.675 630.085 384.965 630.224 384.176 630.224ZM391.237 618.8H392.965L396.853 628.64L400.709 618.8H402.469V630H401.349V620.048L397.381 630H396.325L392.357 620.048V630H391.237V618.8ZM408.45 625.392L404.226 618.8H405.57L409.074 624.304L412.578 618.8H413.922L409.698 625.392V630H408.45V625.392ZM415.69 618.8H416.938V624.848L423.082 618.8H424.554L420.266 623.168L424.57 630H423.21L419.402 623.984L416.938 626.384V630H415.69V618.8ZM430.001 628.272H431.441V630H430.001V628.272ZM430.001 622.816H431.441V624.544H430.001V622.816ZM439.66 620.24L436.876 622.112V620.88L439.868 618.8H440.892V630H439.66V620.24ZM447.302 618.576C448.081 618.576 448.774 618.752 449.382 619.104C450.001 619.445 450.481 619.915 450.822 620.512C451.164 621.099 451.334 621.749 451.334 622.464C451.334 623.061 451.222 623.621 450.998 624.144C450.774 624.667 450.46 625.237 450.054 625.856L447.366 630H446.054L448.934 625.728C448.742 625.888 448.47 626.016 448.118 626.112C447.766 626.208 447.361 626.256 446.902 626.256C446.252 626.256 445.654 626.091 445.11 625.76C444.566 625.419 444.129 624.96 443.798 624.384C443.478 623.808 443.318 623.184 443.318 622.512C443.318 621.776 443.484 621.109 443.814 620.512C444.156 619.915 444.625 619.445 445.222 619.104C445.83 618.752 446.524 618.576 447.302 618.576ZM447.334 619.6C446.769 619.6 446.273 619.728 445.846 619.984C445.42 620.229 445.089 620.571 444.854 621.008C444.63 621.445 444.518 621.936 444.518 622.48C444.518 623.024 444.636 623.509 444.87 623.936C445.105 624.363 445.43 624.693 445.846 624.928C446.262 625.163 446.737 625.28 447.27 625.28C447.825 625.28 448.316 625.163 448.742 624.928C449.18 624.683 449.521 624.347 449.766 623.92C450.012 623.483 450.134 622.992 450.134 622.448C450.134 621.893 450.017 621.403 449.782 620.976C449.558 620.539 449.233 620.203 448.806 619.968C448.38 619.723 447.889 619.6 447.334 619.6ZM454.237 628.464L452.893 632.144H452.029L452.909 628.464H454.237ZM462.223 620.24L459.439 622.112V620.88L462.431 618.8H463.455V630H462.223V620.24ZM465.769 626.128L471.145 618.8H472.489V626.112H474.137V627.12H472.489V630H471.353V627.12H465.769V626.128ZM471.353 626.112V620.128L467.049 626.112H471.353ZM477.643 628.464L476.299 632.144H475.435L476.315 628.464H477.643ZM487.577 630.224C486.66 630.224 485.876 629.973 485.225 629.472C484.575 628.96 484.079 628.267 483.737 627.392C483.407 626.507 483.241 625.509 483.241 624.4C483.241 623.291 483.407 622.299 483.737 621.424C484.079 620.539 484.575 619.845 485.225 619.344C485.876 618.832 486.66 618.576 487.577 618.576C488.495 618.576 489.279 618.832 489.929 619.344C490.58 619.845 491.071 620.539 491.401 621.424C491.743 622.299 491.913 623.291 491.913 624.4C491.913 625.509 491.743 626.507 491.401 627.392C491.071 628.267 490.58 628.96 489.929 629.472C489.279 629.973 488.495 630.224 487.577 630.224ZM487.577 629.152C488.292 629.152 488.879 628.928 489.337 628.48C489.807 628.021 490.148 627.435 490.361 626.72C490.575 626.005 490.681 625.232 490.681 624.4C490.681 623.568 490.575 622.795 490.361 622.08C490.148 621.365 489.807 620.784 489.337 620.336C488.879 619.877 488.292 619.648 487.577 619.648C486.863 619.648 486.271 619.877 485.801 620.336C485.343 620.784 485.007 621.365 484.793 622.08C484.58 622.795 484.473 623.568 484.473 624.4C484.473 625.232 484.58 626.005 484.793 626.72C485.007 627.435 485.343 628.021 485.801 628.48C486.271 628.928 486.863 629.152 487.577 629.152ZM495.643 628.464L494.299 632.144H493.435L494.315 628.464H495.643ZM505.193 630.224C504.415 630.224 503.716 630.053 503.097 629.712C502.489 629.36 502.015 628.891 501.673 628.304C501.332 627.707 501.161 627.051 501.161 626.336C501.161 625.739 501.273 625.179 501.497 624.656C501.721 624.133 502.036 623.563 502.441 622.944L505.129 618.8H506.441L503.561 623.072C503.753 622.912 504.025 622.784 504.377 622.688C504.729 622.592 505.135 622.544 505.593 622.544C506.244 622.544 506.841 622.715 507.385 623.056C507.929 623.387 508.361 623.84 508.681 624.416C509.012 624.992 509.177 625.616 509.177 626.288C509.177 627.024 509.007 627.691 508.665 628.288C508.335 628.885 507.865 629.36 507.257 629.712C506.66 630.053 505.972 630.224 505.193 630.224ZM505.161 629.2C505.727 629.2 506.223 629.077 506.649 628.832C507.076 628.576 507.401 628.229 507.625 627.792C507.86 627.355 507.977 626.864 507.977 626.32C507.977 625.776 507.86 625.291 507.625 624.864C507.391 624.437 507.065 624.107 506.649 623.872C506.233 623.637 505.759 623.52 505.225 623.52C504.671 623.52 504.175 623.643 503.737 623.888C503.311 624.123 502.975 624.459 502.729 624.896C502.484 625.323 502.361 625.808 502.361 626.352C502.361 626.907 502.473 627.403 502.697 627.84C502.932 628.267 503.263 628.603 503.689 628.848C504.116 629.083 504.607 629.2 505.161 629.2ZM511.054 626.976C511.054 626.229 511.256 625.616 511.662 625.136C512.067 624.645 512.595 624.299 513.246 624.096C512.712 623.851 512.296 623.504 511.998 623.056C511.699 622.597 511.55 622.096 511.55 621.552C511.55 620.965 511.699 620.448 511.998 620C512.307 619.541 512.728 619.189 513.262 618.944C513.795 618.699 514.398 618.576 515.07 618.576C515.742 618.576 516.344 618.699 516.878 618.944C517.411 619.189 517.827 619.541 518.126 620C518.435 620.448 518.59 620.965 518.59 621.552C518.59 622.096 518.44 622.597 518.142 623.056C517.843 623.504 517.427 623.851 516.894 624.096C517.544 624.299 518.072 624.645 518.478 625.136C518.883 625.616 519.086 626.229 519.086 626.976C519.086 627.573 518.915 628.123 518.574 628.624C518.243 629.115 517.774 629.504 517.166 629.792C516.558 630.08 515.859 630.224 515.07 630.224C514.28 630.224 513.582 630.08 512.974 629.792C512.366 629.504 511.891 629.115 511.55 628.624C511.219 628.123 511.054 627.573 511.054 626.976ZM512.222 626.88C512.222 627.349 512.339 627.765 512.574 628.128C512.819 628.48 513.155 628.757 513.582 628.96C514.008 629.152 514.504 629.248 515.07 629.248C515.635 629.248 516.131 629.152 516.558 628.96C516.984 628.757 517.315 628.48 517.55 628.128C517.795 627.765 517.918 627.349 517.918 626.88C517.918 626.421 517.795 626.021 517.55 625.68C517.304 625.339 516.963 625.077 516.526 624.896C516.099 624.715 515.614 624.624 515.07 624.624C514.526 624.624 514.035 624.715 513.598 624.896C513.171 625.077 512.835 625.339 512.59 625.68C512.344 626.021 512.222 626.421 512.222 626.88ZM512.702 621.616C512.702 621.979 512.803 622.315 513.006 622.624C513.208 622.923 513.486 623.168 513.838 623.36C514.2 623.541 514.611 623.632 515.07 623.632C515.528 623.632 515.934 623.541 516.286 623.36C516.648 623.168 516.931 622.923 517.134 622.624C517.336 622.315 517.438 621.979 517.438 621.616C517.438 621.189 517.336 620.821 517.134 620.512C516.942 620.203 516.664 619.968 516.302 619.808C515.95 619.637 515.539 619.552 515.07 619.552C514.6 619.552 514.184 619.637 513.822 619.808C513.47 619.968 513.192 620.203 512.99 620.512C512.798 620.821 512.702 621.189 512.702 621.616ZM379.44 640.8H384.288C384.992 640.8 385.616 640.944 386.16 641.232C386.715 641.52 387.141 641.909 387.44 642.4C387.749 642.891 387.904 643.429 387.904 644.016C387.904 644.613 387.749 645.163 387.44 645.664C387.131 646.155 386.699 646.544 386.144 646.832C385.6 647.12 384.981 647.264 384.288 647.264H380.688V652H379.44V640.8ZM384.16 646.176C384.672 646.176 385.115 646.08 385.488 645.888C385.872 645.696 386.16 645.44 386.352 645.12C386.555 644.789 386.656 644.421 386.656 644.016C386.656 643.611 386.555 643.248 386.352 642.928C386.16 642.608 385.872 642.357 385.488 642.176C385.115 641.984 384.672 641.888 384.16 641.888H380.688V646.176H384.16ZM389.133 649.616C389.133 648.88 389.389 648.288 389.901 647.84C390.424 647.392 391.138 647.141 392.045 647.088L394.685 646.912V646.608C394.685 645.968 394.52 645.472 394.189 645.12C393.858 644.768 393.368 644.592 392.717 644.592C392.152 644.592 391.693 644.736 391.341 645.024C390.989 645.301 390.765 645.669 390.669 646.128H389.469C389.586 645.371 389.933 644.763 390.509 644.304C391.085 643.845 391.816 643.616 392.701 643.616C393.725 643.616 394.514 643.888 395.069 644.432C395.624 644.965 395.901 645.685 395.901 646.592V652H394.717V650.72C394.546 651.147 394.226 651.499 393.757 651.776C393.288 652.053 392.722 652.192 392.061 652.192C391.176 652.192 390.466 651.957 389.933 651.488C389.4 651.008 389.133 650.384 389.133 649.616ZM390.317 649.584C390.317 650.096 390.482 650.507 390.813 650.816C391.144 651.125 391.613 651.28 392.221 651.28C392.69 651.28 393.112 651.173 393.485 650.96C393.858 650.747 394.152 650.443 394.365 650.048C394.578 649.643 394.685 649.163 394.685 648.608V647.792L392.509 647.936C391.784 647.989 391.234 648.149 390.861 648.416C390.498 648.683 390.317 649.072 390.317 649.584ZM398.548 643.808H399.7V645.216C399.892 644.715 400.212 644.325 400.66 644.048C401.108 643.76 401.652 643.616 402.292 643.616C403.241 643.616 403.977 643.92 404.5 644.528C405.033 645.136 405.3 645.957 405.3 646.992V652H404.084V647.168C404.084 646.389 403.913 645.787 403.572 645.36C403.241 644.923 402.745 644.704 402.084 644.704C401.636 644.704 401.236 644.805 400.884 645.008C400.532 645.211 400.254 645.504 400.052 645.888C399.86 646.261 399.764 646.704 399.764 647.216V652H398.548V643.808ZM410.788 652.096C409.988 652.096 409.385 651.883 408.98 651.456C408.585 651.019 408.388 650.379 408.388 649.536V644.832H406.82V643.808H408.388V641.632H409.604V643.808H412.036V644.832H409.604V649.6C409.604 650.069 409.716 650.427 409.94 650.672C410.175 650.917 410.521 651.04 410.98 651.04C411.332 651.04 411.689 650.987 412.052 650.88V651.92C411.924 651.973 411.743 652.016 411.508 652.048C411.284 652.08 411.044 652.096 410.788 652.096ZM417.234 652.192C416.498 652.192 415.826 652 415.218 651.616C414.621 651.221 414.151 650.699 413.81 650.048C413.469 649.387 413.298 648.672 413.298 647.904C413.298 647.136 413.469 646.427 413.81 645.776C414.151 645.115 414.621 644.592 415.218 644.208C415.826 643.813 416.498 643.616 417.234 643.616C417.97 643.616 418.637 643.813 419.234 644.208C419.842 644.592 420.317 645.115 420.658 645.776C420.999 646.427 421.17 647.136 421.17 647.904C421.17 648.672 420.999 649.387 420.658 650.048C420.317 650.699 419.842 651.221 419.234 651.616C418.637 652 417.97 652.192 417.234 652.192ZM417.234 651.136C417.767 651.136 418.242 650.987 418.658 650.688C419.074 650.379 419.394 649.979 419.618 649.488C419.842 648.987 419.954 648.459 419.954 647.904C419.954 647.349 419.842 646.827 419.618 646.336C419.394 645.835 419.074 645.435 418.658 645.136C418.242 644.827 417.767 644.672 417.234 644.672C416.701 644.672 416.226 644.827 415.81 645.136C415.394 645.435 415.074 645.835 414.85 646.336C414.626 646.827 414.514 647.349 414.514 647.904C414.514 648.459 414.626 648.987 414.85 649.488C415.074 649.979 415.394 650.379 415.81 650.688C416.226 650.987 416.701 651.136 417.234 651.136ZM423.251 643.808H424.403V645.216C424.595 644.715 424.915 644.325 425.363 644.048C425.811 643.76 426.355 643.616 426.995 643.616C427.944 643.616 428.68 643.92 429.203 644.528C429.736 645.136 430.003 645.957 430.003 646.992V652H428.787V647.168C428.787 646.389 428.616 645.787 428.275 645.36C427.944 644.923 427.448 644.704 426.787 644.704C426.339 644.704 425.939 644.805 425.587 645.008C425.235 645.211 424.957 645.504 424.755 645.888C424.563 646.261 424.467 646.704 424.467 647.216V652H423.251V643.808ZM432.001 647.904C432.001 647.093 432.167 646.363 432.497 645.712C432.828 645.061 433.281 644.549 433.857 644.176C434.433 643.803 435.084 643.616 435.809 643.616C436.599 643.616 437.271 643.797 437.825 644.16C438.391 644.512 438.812 644.992 439.089 645.6C439.377 646.208 439.521 646.885 439.521 647.632V648.192H433.185C433.217 648.757 433.34 649.269 433.553 649.728C433.767 650.176 434.071 650.533 434.465 650.8C434.871 651.067 435.345 651.2 435.889 651.2C436.476 651.2 436.956 651.067 437.329 650.8C437.703 650.523 437.985 650.155 438.177 649.696H439.361C439.212 650.197 438.972 650.635 438.641 651.008C438.321 651.381 437.921 651.675 437.441 651.888C436.972 652.091 436.455 652.192 435.889 652.192C435.089 652.192 434.396 652 433.809 651.616C433.223 651.232 432.775 650.715 432.465 650.064C432.156 649.413 432.001 648.693 432.001 647.904ZM438.385 647.216C438.343 646.704 438.215 646.251 438.001 645.856C437.788 645.461 437.495 645.152 437.121 644.928C436.748 644.693 436.305 644.576 435.793 644.576C435.313 644.576 434.887 644.693 434.513 644.928C434.151 645.163 433.857 645.477 433.633 645.872C433.42 646.267 433.281 646.715 433.217 647.216H438.385ZM445.141 650.272H446.581V652H445.141V650.272ZM445.141 644.816H446.581V646.544H445.141V644.816ZM458.173 641.792H452.253V640.8H459.469V641.648L454.125 652H452.861L458.173 641.792ZM465.02 652.224C464.369 652.224 463.772 652.096 463.228 651.84C462.694 651.584 462.246 651.227 461.884 650.768C461.532 650.299 461.286 649.765 461.148 649.168H462.38C462.54 649.744 462.849 650.219 463.308 650.592C463.777 650.965 464.348 651.152 465.02 651.152C465.564 651.152 466.049 651.04 466.476 650.816C466.902 650.581 467.233 650.251 467.468 649.824C467.713 649.397 467.836 648.901 467.836 648.336C467.836 647.824 467.718 647.355 467.484 646.928C467.249 646.501 466.918 646.165 466.492 645.92C466.065 645.664 465.574 645.536 465.02 645.536C464.465 645.536 463.974 645.664 463.548 645.92C463.121 646.165 462.796 646.496 462.572 646.912H461.324L462.14 640.8H468.22V641.872H463.148L462.652 645.616C462.865 645.275 463.196 644.997 463.644 644.784C464.092 644.571 464.604 644.464 465.18 644.464C465.873 644.464 466.513 644.629 467.1 644.96C467.697 645.28 468.172 645.733 468.524 646.32C468.876 646.907 469.052 647.573 469.052 648.32C469.052 649.067 468.876 649.739 468.524 650.336C468.172 650.923 467.686 651.387 467.068 651.728C466.46 652.059 465.777 652.224 465.02 652.224ZM470.738 648.128L476.114 640.8H477.458V648.112H479.106V649.12H477.458V652H476.322V649.12H470.738V648.128ZM476.322 648.112V642.128L472.018 648.112H476.322ZM485.14 652.224C484.222 652.224 483.438 651.973 482.788 651.472C482.137 650.96 481.641 650.267 481.3 649.392C480.969 648.507 480.804 647.509 480.804 646.4C480.804 645.291 480.969 644.299 481.3 643.424C481.641 642.539 482.137 641.845 482.788 641.344C483.438 640.832 484.222 640.576 485.14 640.576C486.057 640.576 486.841 640.832 487.492 641.344C488.142 641.845 488.633 642.539 488.964 643.424C489.305 644.299 489.476 645.291 489.476 646.4C489.476 647.509 489.305 648.507 488.964 649.392C488.633 650.267 488.142 650.96 487.492 651.472C486.841 651.973 486.057 652.224 485.14 652.224ZM485.14 651.152C485.854 651.152 486.441 650.928 486.9 650.48C487.369 650.021 487.71 649.435 487.924 648.72C488.137 648.005 488.244 647.232 488.244 646.4C488.244 645.568 488.137 644.795 487.924 644.08C487.71 643.365 487.369 642.784 486.9 642.336C486.441 641.877 485.854 641.648 485.14 641.648C484.425 641.648 483.833 641.877 483.364 642.336C482.905 642.784 482.569 643.365 482.356 644.08C482.142 644.795 482.036 645.568 482.036 646.4C482.036 647.232 482.142 648.005 482.356 648.72C482.569 649.435 482.905 650.021 483.364 650.48C483.833 650.928 484.425 651.152 485.14 651.152ZM500.129 652.224C499.073 652.224 498.14 651.952 497.329 651.408C496.529 650.864 495.91 650.144 495.473 649.248C495.046 648.352 494.833 647.403 494.833 646.4C494.833 645.397 495.046 644.448 495.473 643.552C495.91 642.656 496.529 641.936 497.329 641.392C498.14 640.848 499.073 640.576 500.129 640.576C500.918 640.576 501.628 640.72 502.257 641.008C502.897 641.285 503.43 641.675 503.857 642.176C504.284 642.677 504.598 643.264 504.801 643.936H503.521C503.233 643.232 502.812 642.683 502.257 642.288C501.702 641.893 500.993 641.696 500.129 641.696C499.297 641.696 498.572 641.92 497.953 642.368C497.345 642.816 496.881 643.403 496.561 644.128C496.241 644.843 496.081 645.6 496.081 646.4C496.081 647.2 496.241 647.963 496.561 648.688C496.881 649.403 497.345 649.984 497.953 650.432C498.572 650.88 499.297 651.104 500.129 651.104C500.993 651.104 501.702 650.907 502.257 650.512C502.812 650.117 503.233 649.568 503.521 648.864H504.801C504.598 649.536 504.284 650.123 503.857 650.624C503.43 651.125 502.897 651.52 502.257 651.808C501.628 652.085 500.918 652.224 500.129 652.224Z" fill="white"/>
<path d="M64 589.5H526" stroke="white" stroke-width="0.5"/>
<rect x="587" y="266" width="569" height="432" fill="#898B92"/>
<path d="M642.44 618.8H643.688V623.776H650.408V618.8H651.656V630H650.408V624.896H643.688V630H642.44V618.8ZM653.814 625.904C653.814 625.093 653.979 624.363 654.31 623.712C654.64 623.061 655.094 622.549 655.67 622.176C656.246 621.803 656.896 621.616 657.622 621.616C658.411 621.616 659.083 621.797 659.638 622.16C660.203 622.512 660.624 622.992 660.902 623.6C661.19 624.208 661.334 624.885 661.334 625.632V626.192H654.998C655.03 626.757 655.152 627.269 655.366 627.728C655.579 628.176 655.883 628.533 656.278 628.8C656.683 629.067 657.158 629.2 657.702 629.2C658.288 629.2 658.768 629.067 659.142 628.8C659.515 628.523 659.798 628.155 659.99 627.696H661.174C661.024 628.197 660.784 628.635 660.454 629.008C660.134 629.381 659.734 629.675 659.254 629.888C658.784 630.091 658.267 630.192 657.702 630.192C656.902 630.192 656.208 630 655.622 629.616C655.035 629.232 654.587 628.715 654.278 628.064C653.968 627.413 653.814 626.693 653.814 625.904ZM660.198 625.216C660.155 624.704 660.027 624.251 659.814 623.856C659.6 623.461 659.307 623.152 658.934 622.928C658.56 622.693 658.118 622.576 657.606 622.576C657.126 622.576 656.699 622.693 656.326 622.928C655.963 623.163 655.67 623.477 655.446 623.872C655.232 624.267 655.094 624.715 655.03 625.216H660.198ZM665.474 625.84L662.594 621.808H663.906L666.114 624.912L668.29 621.808H669.602L666.754 625.84L669.746 630H668.418L666.114 626.768L663.81 630H662.482L665.474 625.84ZM675.188 628.272H676.628V630H675.188V628.272ZM675.188 622.816H676.628V624.544H675.188V622.816ZM682.46 626.976C682.46 626.229 682.663 625.616 683.068 625.136C683.473 624.645 684.001 624.299 684.652 624.096C684.119 623.851 683.703 623.504 683.404 623.056C683.105 622.597 682.956 622.096 682.956 621.552C682.956 620.965 683.105 620.448 683.404 620C683.713 619.541 684.135 619.189 684.668 618.944C685.201 618.699 685.804 618.576 686.476 618.576C687.148 618.576 687.751 618.699 688.284 618.944C688.817 619.189 689.233 619.541 689.532 620C689.841 620.448 689.996 620.965 689.996 621.552C689.996 622.096 689.847 622.597 689.548 623.056C689.249 623.504 688.833 623.851 688.3 624.096C688.951 624.299 689.479 624.645 689.884 625.136C690.289 625.616 690.492 626.229 690.492 626.976C690.492 627.573 690.321 628.123 689.98 628.624C689.649 629.115 689.18 629.504 688.572 629.792C687.964 630.08 687.265 630.224 686.476 630.224C685.687 630.224 684.988 630.08 684.38 629.792C683.772 629.504 683.297 629.115 682.956 628.624C682.625 628.123 682.46 627.573 682.46 626.976ZM683.628 626.88C683.628 627.349 683.745 627.765 683.98 628.128C684.225 628.48 684.561 628.757 684.988 628.96C685.415 629.152 685.911 629.248 686.476 629.248C687.041 629.248 687.537 629.152 687.964 628.96C688.391 628.757 688.721 628.48 688.956 628.128C689.201 627.765 689.324 627.349 689.324 626.88C689.324 626.421 689.201 626.021 688.956 625.68C688.711 625.339 688.369 625.077 687.932 624.896C687.505 624.715 687.02 624.624 686.476 624.624C685.932 624.624 685.441 624.715 685.004 624.896C684.577 625.077 684.241 625.339 683.996 625.68C683.751 626.021 683.628 626.421 683.628 626.88ZM684.108 621.616C684.108 621.979 684.209 622.315 684.412 622.624C684.615 622.923 684.892 623.168 685.244 623.36C685.607 623.541 686.017 623.632 686.476 623.632C686.935 623.632 687.34 623.541 687.692 623.36C688.055 623.168 688.337 622.923 688.54 622.624C688.743 622.315 688.844 621.979 688.844 621.616C688.844 621.189 688.743 620.821 688.54 620.512C688.348 620.203 688.071 619.968 687.708 619.808C687.356 619.637 686.945 619.552 686.476 619.552C686.007 619.552 685.591 619.637 685.228 619.808C684.876 619.968 684.599 620.203 684.396 620.512C684.204 620.821 684.108 621.189 684.108 621.616ZM696.349 618.576C697.128 618.576 697.821 618.752 698.429 619.104C699.048 619.445 699.528 619.915 699.869 620.512C700.21 621.099 700.381 621.749 700.381 622.464C700.381 623.061 700.269 623.621 700.045 624.144C699.821 624.667 699.506 625.237 699.101 625.856L696.413 630H695.101L697.981 625.728C697.789 625.888 697.517 626.016 697.165 626.112C696.813 626.208 696.408 626.256 695.949 626.256C695.298 626.256 694.701 626.091 694.157 625.76C693.613 625.419 693.176 624.96 692.845 624.384C692.525 623.808 692.365 623.184 692.365 622.512C692.365 621.776 692.53 621.109 692.861 620.512C693.202 619.915 693.672 619.445 694.269 619.104C694.877 618.752 695.57 618.576 696.349 618.576ZM696.381 619.6C695.816 619.6 695.32 619.728 694.893 619.984C694.466 620.229 694.136 620.571 693.901 621.008C693.677 621.445 693.565 621.936 693.565 622.48C693.565 623.024 693.682 623.509 693.917 623.936C694.152 624.363 694.477 624.693 694.893 624.928C695.309 625.163 695.784 625.28 696.317 625.28C696.872 625.28 697.362 625.163 697.789 624.928C698.226 624.683 698.568 624.347 698.813 623.92C699.058 623.483 699.181 622.992 699.181 622.448C699.181 621.893 699.064 621.403 698.829 620.976C698.605 620.539 698.28 620.203 697.853 619.968C697.426 619.723 696.936 619.6 696.381 619.6ZM702.226 626.976C702.226 626.229 702.428 625.616 702.834 625.136C703.239 624.645 703.767 624.299 704.418 624.096C703.884 623.851 703.468 623.504 703.17 623.056C702.871 622.597 702.722 622.096 702.722 621.552C702.722 620.965 702.871 620.448 703.17 620C703.479 619.541 703.9 619.189 704.434 618.944C704.967 618.699 705.57 618.576 706.242 618.576C706.914 618.576 707.516 618.699 708.05 618.944C708.583 619.189 708.999 619.541 709.298 620C709.607 620.448 709.762 620.965 709.762 621.552C709.762 622.096 709.612 622.597 709.314 623.056C709.015 623.504 708.599 623.851 708.066 624.096C708.716 624.299 709.244 624.645 709.65 625.136C710.055 625.616 710.258 626.229 710.258 626.976C710.258 627.573 710.087 628.123 709.746 628.624C709.415 629.115 708.946 629.504 708.338 629.792C707.73 630.08 707.031 630.224 706.242 630.224C705.452 630.224 704.754 630.08 704.146 629.792C703.538 629.504 703.063 629.115 702.722 628.624C702.391 628.123 702.226 627.573 702.226 626.976ZM703.394 626.88C703.394 627.349 703.511 627.765 703.746 628.128C703.991 628.48 704.327 628.757 704.754 628.96C705.18 629.152 705.676 629.248 706.242 629.248C706.807 629.248 707.303 629.152 707.73 628.96C708.156 628.757 708.487 628.48 708.722 628.128C708.967 627.765 709.09 627.349 709.09 626.88C709.09 626.421 708.967 626.021 708.722 625.68C708.476 625.339 708.135 625.077 707.698 624.896C707.271 624.715 706.786 624.624 706.242 624.624C705.698 624.624 705.207 624.715 704.77 624.896C704.343 625.077 704.007 625.339 703.762 625.68C703.516 626.021 703.394 626.421 703.394 626.88ZM703.874 621.616C703.874 621.979 703.975 622.315 704.178 622.624C704.38 622.923 704.658 623.168 705.01 623.36C705.372 623.541 705.783 623.632 706.242 623.632C706.7 623.632 707.106 623.541 707.458 623.36C707.82 623.168 708.103 622.923 708.306 622.624C708.508 622.315 708.61 621.979 708.61 621.616C708.61 621.189 708.508 620.821 708.306 620.512C708.114 620.203 707.836 619.968 707.474 619.808C707.122 619.637 706.711 619.552 706.242 619.552C705.772 619.552 705.356 619.637 704.994 619.808C704.642 619.968 704.364 620.203 704.162 620.512C703.97 620.821 703.874 621.189 703.874 621.616ZM712.659 618.8H717.235C718.333 618.8 719.187 619.051 719.795 619.552C720.413 620.053 720.723 620.72 720.723 621.552C720.723 622.192 720.563 622.731 720.243 623.168C719.923 623.605 719.437 623.925 718.787 624.128C719.501 624.235 720.072 624.549 720.499 625.072C720.936 625.584 721.155 626.181 721.155 626.864C721.155 627.835 720.808 628.603 720.115 629.168C719.432 629.723 718.499 630 717.315 630H712.659V618.8ZM717.155 628.944C718.019 628.944 718.696 628.768 719.187 628.416C719.688 628.053 719.939 627.525 719.939 626.832C719.939 626.395 719.827 626.016 719.603 625.696C719.389 625.365 719.075 625.115 718.659 624.944C718.243 624.763 717.741 624.672 717.155 624.672H713.859V628.944H717.155ZM716.947 623.616C717.757 623.616 718.387 623.44 718.835 623.088C719.283 622.725 719.507 622.24 719.507 621.632C719.507 621.077 719.299 620.645 718.883 620.336C718.467 620.016 717.875 619.856 717.107 619.856H713.859V623.616H716.947ZM726.896 618.576C727.675 618.576 728.368 618.752 728.976 619.104C729.595 619.445 730.075 619.915 730.416 620.512C730.757 621.099 730.928 621.749 730.928 622.464C730.928 623.061 730.816 623.621 730.592 624.144C730.368 624.667 730.053 625.237 729.648 625.856L726.96 630H725.648L728.528 625.728C728.336 625.888 728.064 626.016 727.712 626.112C727.36 626.208 726.955 626.256 726.496 626.256C725.845 626.256 725.248 626.091 724.704 625.76C724.16 625.419 723.723 624.96 723.392 624.384C723.072 623.808 722.912 623.184 722.912 622.512C722.912 621.776 723.077 621.109 723.408 620.512C723.749 619.915 724.219 619.445 724.816 619.104C725.424 618.752 726.117 618.576 726.896 618.576ZM726.928 619.6C726.363 619.6 725.867 619.728 725.44 619.984C725.013 620.229 724.683 620.571 724.448 621.008C724.224 621.445 724.112 621.936 724.112 622.48C724.112 623.024 724.229 623.509 724.464 623.936C724.699 624.363 725.024 624.693 725.44 624.928C725.856 625.163 726.331 625.28 726.864 625.28C727.419 625.28 727.909 625.163 728.336 624.928C728.773 624.683 729.115 624.347 729.36 623.92C729.605 623.483 729.728 622.992 729.728 622.448C729.728 621.893 729.611 621.403 729.376 620.976C729.152 620.539 728.827 620.203 728.4 619.968C727.973 619.723 727.483 619.6 726.928 619.6ZM732.853 629.088L737.557 624.16C737.951 623.733 738.245 623.344 738.437 622.992C738.629 622.629 738.725 622.219 738.725 621.76C738.725 621.355 738.629 620.992 738.437 620.672C738.255 620.352 737.994 620.101 737.653 619.92C737.311 619.739 736.917 619.648 736.469 619.648C735.711 619.648 735.114 619.877 734.677 620.336C734.25 620.784 734.015 621.403 733.973 622.192H732.773C732.794 621.467 732.965 620.832 733.285 620.288C733.605 619.744 734.037 619.323 734.581 619.024C735.135 618.725 735.77 618.576 736.485 618.576C737.167 618.576 737.77 618.715 738.293 618.992C738.826 619.259 739.237 619.637 739.525 620.128C739.813 620.608 739.957 621.152 739.957 621.76C739.957 622.827 739.482 623.835 738.533 624.784L734.437 628.928H740.021V630H732.853V629.088ZM642.44 640.8H647.384C648.12 640.8 648.771 640.944 649.336 641.232C649.912 641.509 650.355 641.893 650.664 642.384C650.984 642.864 651.144 643.397 651.144 643.984C651.144 644.517 651.016 645.008 650.76 645.456C650.504 645.904 650.141 646.277 649.672 646.576C649.203 646.875 648.664 647.067 648.056 647.152L650.616 652H649.272L646.744 647.2H643.688V652H642.44V640.8ZM647.256 646.112C647.789 646.112 648.253 646.021 648.648 645.84C649.053 645.648 649.363 645.392 649.576 645.072C649.789 644.741 649.896 644.379 649.896 643.984C649.896 643.589 649.789 643.232 649.576 642.912C649.363 642.592 649.053 642.341 648.648 642.16C648.253 641.979 647.789 641.888 647.256 641.888H643.688V646.112H647.256ZM661.743 643.904C661.434 643.2 660.986 642.656 660.399 642.272C659.823 641.888 659.103 641.696 658.239 641.696C657.429 641.696 656.714 641.92 656.095 642.368C655.477 642.805 654.997 643.387 654.655 644.112C654.325 644.827 654.159 645.589 654.159 646.4C654.159 647.232 654.325 648.011 654.655 648.736C654.997 649.451 655.477 650.027 656.095 650.464C656.725 650.891 657.455 651.104 658.287 651.104C659.045 651.104 659.695 650.949 660.239 650.64C660.783 650.32 661.21 649.888 661.519 649.344C661.829 648.8 662.021 648.181 662.095 647.488H657.567V646.368H663.343V646.928C663.343 647.888 663.135 648.773 662.719 649.584C662.314 650.384 661.727 651.024 660.959 651.504C660.202 651.984 659.311 652.224 658.287 652.224C657.242 652.224 656.309 651.957 655.487 651.424C654.666 650.88 654.031 650.165 653.583 649.28C653.135 648.384 652.911 647.424 652.911 646.4C652.911 645.376 653.141 644.416 653.599 643.52C654.058 642.624 654.693 641.909 655.503 641.376C656.314 640.843 657.226 640.576 658.239 640.576C659.477 640.576 660.506 640.875 661.327 641.472C662.149 642.069 662.719 642.88 663.039 643.904H661.743ZM665.737 640.8H670.313C671.412 640.8 672.265 641.051 672.873 641.552C673.492 642.053 673.801 642.72 673.801 643.552C673.801 644.192 673.641 644.731 673.321 645.168C673.001 645.605 672.516 645.925 671.865 646.128C672.58 646.235 673.15 646.549 673.577 647.072C674.014 647.584 674.233 648.181 674.233 648.864C674.233 649.835 673.886 650.603 673.193 651.168C672.51 651.723 671.577 652 670.393 652H665.737V640.8ZM670.233 650.944C671.097 650.944 671.774 650.768 672.265 650.416C672.766 650.053 673.017 649.525 673.017 648.832C673.017 648.395 672.905 648.016 672.681 647.696C672.468 647.365 672.153 647.115 671.737 646.944C671.321 646.763 670.82 646.672 670.233 646.672H666.937V650.944H670.233ZM670.025 645.616C670.836 645.616 671.465 645.44 671.913 645.088C672.361 644.725 672.585 644.24 672.585 643.632C672.585 643.077 672.377 642.645 671.961 642.336C671.545 642.016 670.953 641.856 670.185 641.856H666.937V645.616H670.025ZM679.954 650.272H681.394V652H679.954V650.272ZM679.954 644.816H681.394V646.544H679.954V644.816ZM689.613 642.24L686.829 644.112V642.88L689.821 640.8H690.845V652H689.613V642.24ZM697.271 652.224C696.514 652.224 695.847 652.075 695.271 651.776C694.706 651.477 694.258 651.067 693.927 650.544C693.597 650.021 693.383 649.429 693.287 648.768H694.503C694.61 649.504 694.898 650.096 695.367 650.544C695.847 650.981 696.487 651.2 697.287 651.2C697.789 651.2 698.231 651.109 698.615 650.928C698.999 650.736 699.293 650.469 699.495 650.128C699.709 649.787 699.815 649.392 699.815 648.944C699.815 648.507 699.719 648.117 699.527 647.776C699.335 647.435 699.058 647.173 698.695 646.992C698.333 646.8 697.906 646.704 697.415 646.704H695.543V645.616H697.319C697.799 645.616 698.199 645.536 698.519 645.376C698.85 645.205 699.095 644.971 699.255 644.672C699.415 644.363 699.495 644.005 699.495 643.6C699.495 643.216 699.394 642.875 699.191 642.576C698.989 642.267 698.706 642.027 698.343 641.856C697.981 641.685 697.559 641.6 697.079 641.6C696.343 641.6 695.767 641.797 695.351 642.192C694.946 642.587 694.717 643.141 694.663 643.856H693.447C693.479 643.184 693.655 642.603 693.975 642.112C694.306 641.611 694.738 641.232 695.271 640.976C695.815 640.709 696.418 640.576 697.079 640.576C697.783 640.576 698.413 640.704 698.967 640.96C699.522 641.216 699.954 641.579 700.263 642.048C700.573 642.507 700.727 643.035 700.727 643.632C700.727 644.229 700.557 644.757 700.215 645.216C699.885 645.675 699.479 645.989 698.999 646.16C699.618 646.32 700.114 646.651 700.487 647.152C700.861 647.653 701.047 648.251 701.047 648.944C701.047 649.552 700.893 650.107 700.583 650.608C700.274 651.099 699.831 651.493 699.255 651.792C698.679 652.08 698.018 652.224 697.271 652.224ZM708.72 641.792H702.8V640.8H710.016V641.648L704.672 652H703.408L708.72 641.792ZM711.737 650.464L710.393 654.144H709.529L710.409 650.464H711.737ZM719.723 642.24L716.939 644.112V642.88L719.931 640.8H720.955V652H719.723V642.24ZM727.381 652.224C726.623 652.224 725.957 652.075 725.381 651.776C724.815 651.477 724.367 651.067 724.037 650.544C723.706 650.021 723.493 649.429 723.397 648.768H724.613C724.719 649.504 725.007 650.096 725.477 650.544C725.957 650.981 726.597 651.2 727.397 651.2C727.898 651.2 728.341 651.109 728.725 650.928C729.109 650.736 729.402 650.469 729.605 650.128C729.818 649.787 729.925 649.392 729.925 648.944C729.925 648.507 729.829 648.117 729.637 647.776C729.445 647.435 729.167 647.173 728.805 646.992C728.442 646.8 728.015 646.704 727.525 646.704H725.653V645.616H727.429C727.909 645.616 728.309 645.536 728.629 645.376C728.959 645.205 729.205 644.971 729.365 644.672C729.525 644.363 729.605 644.005 729.605 643.6C729.605 643.216 729.503 642.875 729.301 642.576C729.098 642.267 728.815 642.027 728.453 641.856C728.09 641.685 727.669 641.6 727.189 641.6C726.453 641.6 725.877 641.797 725.461 642.192C725.055 642.587 724.826 643.141 724.773 643.856H723.557C723.589 643.184 723.765 642.603 724.085 642.112C724.415 641.611 724.847 641.232 725.381 640.976C725.925 640.709 726.527 640.576 727.189 640.576C727.893 640.576 728.522 640.704 729.077 640.96C729.631 641.216 730.063 641.579 730.373 642.048C730.682 642.507 730.837 643.035 730.837 643.632C730.837 644.229 730.666 644.757 730.325 645.216C729.994 645.675 729.589 645.989 729.109 646.16C729.727 646.32 730.223 646.651 730.597 647.152C730.97 647.653 731.157 648.251 731.157 648.944C731.157 649.552 731.002 650.107 730.693 650.608C730.383 651.099 729.941 651.493 729.365 651.792C728.789 652.08 728.127 652.224 727.381 652.224ZM737.005 640.576C737.784 640.576 738.477 640.752 739.085 641.104C739.704 641.445 740.184 641.915 740.525 642.512C740.867 643.099 741.037 643.749 741.037 644.464C741.037 645.061 740.925 645.621 740.701 646.144C740.477 646.667 740.163 647.237 739.757 647.856L737.069 652H735.757L738.637 647.728C738.445 647.888 738.173 648.016 737.821 648.112C737.469 648.208 737.064 648.256 736.605 648.256C735.955 648.256 735.357 648.091 734.813 647.76C734.269 647.419 733.832 646.96 733.501 646.384C733.181 645.808 733.021 645.184 733.021 644.512C733.021 643.776 733.187 643.109 733.517 642.512C733.859 641.915 734.328 641.445 734.925 641.104C735.533 640.752 736.227 640.576 737.005 640.576ZM737.037 641.6C736.472 641.6 735.976 641.728 735.549 641.984C735.123 642.229 734.792 642.571 734.557 643.008C734.333 643.445 734.221 643.936 734.221 644.48C734.221 645.024 734.339 645.509 734.573 645.936C734.808 646.363 735.133 646.693 735.549 646.928C735.965 647.163 736.44 647.28 736.973 647.28C737.528 647.28 738.019 647.163 738.445 646.928C738.883 646.683 739.224 646.347 739.469 645.92C739.715 645.483 739.837 644.992 739.837 644.448C739.837 643.893 739.72 643.403 739.485 642.976C739.261 642.539 738.936 642.203 738.509 641.968C738.083 641.723 737.592 641.6 737.037 641.6ZM743.94 650.464L742.596 654.144H741.732L742.612 650.464H743.94ZM751.926 642.24L749.142 644.112V642.88L752.134 640.8H753.158V652H751.926V642.24ZM755.472 648.128L760.848 640.8H762.192V648.112H763.84V649.12H762.192V652H761.056V649.12H755.472V648.128ZM761.056 648.112V642.128L756.752 648.112H761.056ZM769.553 652.224C768.774 652.224 768.075 652.053 767.457 651.712C766.849 651.36 766.374 650.891 766.033 650.304C765.691 649.707 765.521 649.051 765.521 648.336C765.521 647.739 765.633 647.179 765.857 646.656C766.081 646.133 766.395 645.563 766.801 644.944L769.489 640.8H770.801L767.921 645.072C768.113 644.912 768.385 644.784 768.737 644.688C769.089 644.592 769.494 644.544 769.953 644.544C770.603 644.544 771.201 644.715 771.745 645.056C772.289 645.387 772.721 645.84 773.041 646.416C773.371 646.992 773.537 647.616 773.537 648.288C773.537 649.024 773.366 649.691 773.025 650.288C772.694 650.885 772.225 651.36 771.617 651.712C771.019 652.053 770.331 652.224 769.553 652.224ZM769.521 651.2C770.086 651.2 770.582 651.077 771.009 650.832C771.435 650.576 771.761 650.229 771.985 649.792C772.219 649.355 772.337 648.864 772.337 648.32C772.337 647.776 772.219 647.291 771.985 646.864C771.75 646.437 771.425 646.107 771.009 645.872C770.593 645.637 770.118 645.52 769.585 645.52C769.03 645.52 768.534 645.643 768.097 645.888C767.67 646.123 767.334 646.459 767.089 646.896C766.843 647.323 766.721 647.808 766.721 648.352C766.721 648.907 766.833 649.403 767.057 649.84C767.291 650.267 767.622 650.603 768.049 650.848C768.475 651.083 768.966 651.2 769.521 651.2Z" fill="white"/>
<path d="M642.17 545.4H646.022L649.244 553.86L652.466 545.4H656.318V558H653.42V549.666L650.378 558H648.11L645.068 549.666V558H642.17V545.4ZM658.568 548.568H661.592V558H658.568V548.568ZM658.55 544.86H661.61V547.506H658.55V544.86ZM667.552 558.216C666.292 558.216 665.266 557.928 664.474 557.352C663.682 556.764 663.226 555.954 663.106 554.922H665.86C665.932 555.306 666.112 555.612 666.4 555.84C666.688 556.056 667.072 556.164 667.552 556.164C667.996 556.164 668.344 556.086 668.596 555.93C668.86 555.762 668.992 555.54 668.992 555.264C668.992 555.06 668.92 554.898 668.776 554.778C668.632 554.646 668.392 554.556 668.056 554.508L665.914 554.148C665.002 553.992 664.33 553.698 663.898 553.266C663.466 552.834 663.25 552.222 663.25 551.43C663.25 550.83 663.418 550.302 663.754 549.846C664.09 549.378 664.564 549.012 665.176 548.748C665.8 548.484 666.514 548.352 667.318 548.352C668.518 548.352 669.478 548.628 670.198 549.18C670.93 549.72 671.338 550.476 671.422 551.448H668.722C668.662 551.124 668.518 550.872 668.29 550.692C668.062 550.5 667.738 550.404 667.318 550.404C666.91 550.404 666.586 550.476 666.346 550.62C666.106 550.752 665.986 550.944 665.986 551.196C665.986 551.376 666.052 551.514 666.184 551.61C666.316 551.694 666.526 551.76 666.814 551.808L668.938 552.132C669.886 552.276 670.588 552.582 671.044 553.05C671.512 553.506 671.746 554.13 671.746 554.922C671.746 555.594 671.56 556.182 671.188 556.686C670.828 557.178 670.33 557.556 669.694 557.82C669.058 558.084 668.344 558.216 667.552 558.216ZM676.796 558.126C675.74 558.126 674.948 557.832 674.42 557.244C673.904 556.656 673.646 555.786 673.646 554.634V550.98H672.278V548.568H673.646V546.084H676.67V548.568H678.668V550.98H676.67V554.49C676.67 554.85 676.76 555.126 676.94 555.318C677.12 555.51 677.39 555.606 677.75 555.606C678.11 555.606 678.422 555.558 678.686 555.462V557.874C678.482 557.958 678.212 558.018 677.876 558.054C677.54 558.102 677.18 558.126 676.796 558.126ZM683.516 552.96C683.516 552.06 683.69 551.262 684.038 550.566C684.398 549.858 684.896 549.312 685.532 548.928C686.168 548.544 686.888 548.352 687.692 548.352C688.124 548.352 688.514 548.418 688.862 548.55C689.222 548.67 689.522 548.844 689.762 549.072C690.014 549.3 690.206 549.564 690.338 549.864V548.568H693.308V557.424C693.308 558.312 693.11 559.062 692.714 559.674C692.33 560.286 691.778 560.748 691.058 561.06C690.35 561.372 689.522 561.528 688.574 561.528C687.218 561.528 686.108 561.24 685.244 560.664C684.38 560.088 683.864 559.278 683.696 558.234H686.774C686.834 558.558 687.008 558.816 687.296 559.008C687.596 559.2 687.974 559.296 688.43 559.296C689.09 559.296 689.564 559.122 689.852 558.774C690.14 558.426 690.284 557.874 690.284 557.118V556.002C690.188 556.29 690.014 556.554 689.762 556.794C689.522 557.022 689.222 557.208 688.862 557.352C688.502 557.496 688.112 557.568 687.692 557.568C686.888 557.568 686.168 557.376 685.532 556.992C684.896 556.596 684.398 556.05 684.038 555.354C683.69 554.658 683.516 553.86 683.516 552.96ZM686.468 552.96C686.468 553.404 686.546 553.8 686.702 554.148C686.858 554.484 687.08 554.754 687.368 554.958C687.656 555.15 687.998 555.246 688.394 555.246C688.754 555.246 689.078 555.15 689.366 554.958C689.654 554.766 689.876 554.502 690.032 554.166C690.2 553.818 690.284 553.416 690.284 552.96C690.284 552.504 690.2 552.108 690.032 551.772C689.876 551.424 689.654 551.154 689.366 550.962C689.078 550.77 688.754 550.674 688.394 550.674C687.998 550.674 687.656 550.77 687.368 550.962C687.08 551.154 686.858 551.424 686.702 551.772C686.546 552.12 686.468 552.516 686.468 552.96ZM695.287 548.568H698.185V550.62C698.305 549.96 698.569 549.438 698.977 549.054C699.385 548.658 699.925 548.46 700.597 548.46C700.909 548.46 701.143 548.484 701.299 548.532V551.484C701.179 551.472 700.987 551.466 700.723 551.466C700.183 551.466 699.733 551.562 699.373 551.754C699.013 551.946 698.743 552.228 698.563 552.6C698.395 552.972 698.311 553.44 698.311 554.004V558H695.287V548.568ZM702.043 553.284C702.043 552.384 702.247 551.556 702.655 550.8C703.063 550.044 703.633 549.45 704.365 549.018C705.097 548.574 705.937 548.352 706.885 548.352C707.881 548.352 708.727 548.568 709.423 549C710.131 549.432 710.665 550.026 711.025 550.782C711.385 551.538 711.565 552.396 711.565 553.356V553.932H704.941C704.977 554.316 705.079 554.664 705.247 554.976C705.415 555.276 705.643 555.51 705.931 555.678C706.231 555.846 706.579 555.93 706.975 555.93C707.443 555.93 707.827 555.84 708.127 555.66C708.427 555.468 708.643 555.222 708.775 554.922H711.493C711.361 555.558 711.085 556.128 710.665 556.632C710.245 557.124 709.717 557.514 709.081 557.802C708.457 558.078 707.767 558.216 707.011 558.216C705.991 558.216 705.103 558.006 704.347 557.586C703.603 557.154 703.033 556.566 702.637 555.822C702.241 555.078 702.043 554.232 702.043 553.284ZM708.703 552.042C708.655 551.73 708.547 551.454 708.379 551.214C708.223 550.962 708.013 550.77 707.749 550.638C707.497 550.506 707.209 550.44 706.885 550.44C706.561 550.44 706.267 550.512 706.003 550.656C705.751 550.788 705.535 550.974 705.355 551.214C705.187 551.454 705.067 551.73 704.995 552.042H708.703ZM714.682 561.528C714.07 561.528 713.518 561.444 713.026 561.276V558.774C713.302 558.882 713.65 558.936 714.07 558.936C714.322 558.936 714.532 558.9 714.7 558.828C714.868 558.756 715.006 558.654 715.114 558.522C715.222 558.402 715.306 558.246 715.366 558.054L715.384 558L712.054 548.568H715.168L716.968 554.652L718.768 548.568H721.882L718.588 558L718.516 558.198C718.216 559.014 717.916 559.656 717.616 560.124C717.316 560.592 716.932 560.94 716.464 561.168C716.008 561.408 715.414 561.528 714.682 561.528Z" fill="white"/>
<path d="M961.176 630.224C960.12 630.224 959.187 629.952 958.376 629.408C957.576 628.864 956.957 628.144 956.52 627.248C956.093 626.352 955.88 625.403 955.88 624.4C955.88 623.397 956.093 622.448 956.52 621.552C956.957 620.656 957.576 619.936 958.376 619.392C959.187 618.848 960.12 618.576 961.176 618.576C961.965 618.576 962.675 618.72 963.304 619.008C963.944 619.285 964.477 619.675 964.904 620.176C965.331 620.677 965.645 621.264 965.848 621.936H964.568C964.28 621.232 963.859 620.683 963.304 620.288C962.749 619.893 962.04 619.696 961.176 619.696C960.344 619.696 959.619 619.92 959 620.368C958.392 620.816 957.928 621.403 957.608 622.128C957.288 622.843 957.128 623.6 957.128 624.4C957.128 625.2 957.288 625.963 957.608 626.688C957.928 627.403 958.392 627.984 959 628.432C959.619 628.88 960.344 629.104 961.176 629.104C962.04 629.104 962.749 628.907 963.304 628.512C963.859 628.117 964.28 627.568 964.568 626.864H965.848C965.645 627.536 965.331 628.123 964.904 628.624C964.477 629.125 963.944 629.52 963.304 629.808C962.675 630.085 961.965 630.224 961.176 630.224ZM968.237 618.8H969.965L973.853 628.64L977.709 618.8H979.469V630H978.349V620.048L974.381 630H973.325L969.357 620.048V630H968.237V618.8ZM985.45 625.392L981.226 618.8H982.57L986.074 624.304L989.578 618.8H990.922L986.698 625.392V630H985.45V625.392ZM992.69 618.8H993.938V624.848L1000.08 618.8H1001.55L997.266 623.168L1001.57 630H1000.21L996.402 623.984L993.938 626.384V630H992.69V618.8ZM1007 628.272H1008.44V630H1007V628.272ZM1007 622.816H1008.44V624.544H1007V622.816ZM1018.22 630.224C1017.45 630.224 1016.75 630.053 1016.13 629.712C1015.52 629.36 1015.05 628.891 1014.7 628.304C1014.36 627.707 1014.19 627.051 1014.19 626.336C1014.19 625.739 1014.3 625.179 1014.53 624.656C1014.75 624.133 1015.07 623.563 1015.47 622.944L1018.16 618.8H1019.47L1016.59 623.072C1016.78 622.912 1017.06 622.784 1017.41 622.688C1017.76 622.592 1018.17 622.544 1018.62 622.544C1019.28 622.544 1019.87 622.715 1020.42 623.056C1020.96 623.387 1021.39 623.84 1021.71 624.416C1022.04 624.992 1022.21 625.616 1022.21 626.288C1022.21 627.024 1022.04 627.691 1021.7 628.288C1021.37 628.885 1020.9 629.36 1020.29 629.712C1019.69 630.053 1019 630.224 1018.22 630.224ZM1018.19 629.2C1018.76 629.2 1019.25 629.077 1019.68 628.832C1020.11 628.576 1020.43 628.229 1020.66 627.792C1020.89 627.355 1021.01 626.864 1021.01 626.32C1021.01 625.776 1020.89 625.291 1020.66 624.864C1020.42 624.437 1020.1 624.107 1019.68 623.872C1019.26 623.637 1018.79 623.52 1018.26 623.52C1017.7 623.52 1017.21 623.643 1016.77 623.888C1016.34 624.123 1016.01 624.459 1015.76 624.896C1015.52 625.323 1015.39 625.808 1015.39 626.352C1015.39 626.907 1015.5 627.403 1015.73 627.84C1015.96 628.267 1016.29 628.603 1016.72 628.848C1017.15 629.083 1017.64 629.2 1018.19 629.2ZM1025.83 628.464L1024.49 632.144H1023.62L1024.5 628.464H1025.83ZM1035.3 630.224C1034.65 630.224 1034.05 630.096 1033.51 629.84C1032.98 629.584 1032.53 629.227 1032.16 628.768C1031.81 628.299 1031.57 627.765 1031.43 627.168H1032.66C1032.82 627.744 1033.13 628.219 1033.59 628.592C1034.06 628.965 1034.63 629.152 1035.3 629.152C1035.84 629.152 1036.33 629.04 1036.76 628.816C1037.18 628.581 1037.51 628.251 1037.75 627.824C1037.99 627.397 1038.12 626.901 1038.12 626.336C1038.12 625.824 1038 625.355 1037.76 624.928C1037.53 624.501 1037.2 624.165 1036.77 623.92C1036.35 623.664 1035.86 623.536 1035.3 623.536C1034.75 623.536 1034.26 623.664 1033.83 623.92C1033.4 624.165 1033.08 624.496 1032.85 624.912H1031.6L1032.42 618.8H1038.5V619.872H1033.43L1032.93 623.616C1033.15 623.275 1033.48 622.997 1033.92 622.784C1034.37 622.571 1034.88 622.464 1035.46 622.464C1036.15 622.464 1036.79 622.629 1037.38 622.96C1037.98 623.28 1038.45 623.733 1038.8 624.32C1039.16 624.907 1039.33 625.573 1039.33 626.32C1039.33 627.067 1039.16 627.739 1038.8 628.336C1038.45 628.923 1037.97 629.387 1037.35 629.728C1036.74 630.059 1036.06 630.224 1035.3 630.224ZM1042.99 628.464L1041.64 632.144H1040.78L1041.66 628.464H1042.99ZM1052.92 630.224C1052 630.224 1051.22 629.973 1050.57 629.472C1049.92 628.96 1049.42 628.267 1049.08 627.392C1048.75 626.507 1048.59 625.509 1048.59 624.4C1048.59 623.291 1048.75 622.299 1049.08 621.424C1049.42 620.539 1049.92 619.845 1050.57 619.344C1051.22 618.832 1052 618.576 1052.92 618.576C1053.84 618.576 1054.62 618.832 1055.27 619.344C1055.92 619.845 1056.41 620.539 1056.75 621.424C1057.09 622.299 1057.26 623.291 1057.26 624.4C1057.26 625.509 1057.09 626.507 1056.75 627.392C1056.41 628.267 1055.92 628.96 1055.27 629.472C1054.62 629.973 1053.84 630.224 1052.92 630.224ZM1052.92 629.152C1053.64 629.152 1054.22 628.928 1054.68 628.48C1055.15 628.021 1055.49 627.435 1055.7 626.72C1055.92 626.005 1056.03 625.232 1056.03 624.4C1056.03 623.568 1055.92 622.795 1055.7 622.08C1055.49 621.365 1055.15 620.784 1054.68 620.336C1054.22 619.877 1053.64 619.648 1052.92 619.648C1052.21 619.648 1051.61 619.877 1051.15 620.336C1050.69 620.784 1050.35 621.365 1050.14 622.08C1049.92 622.795 1049.82 623.568 1049.82 624.4C1049.82 625.232 1049.92 626.005 1050.14 626.72C1050.35 627.435 1050.69 628.021 1051.15 628.48C1051.61 628.928 1052.21 629.152 1052.92 629.152ZM1060.99 628.464L1059.64 632.144H1058.78L1059.66 628.464H1060.99ZM1066.43 626.128L1071.8 618.8H1073.15V626.112H1074.79V627.12H1073.15V630H1072.01V627.12H1066.43V626.128ZM1072.01 626.112V620.128L1067.71 626.112H1072.01ZM1080.44 630.224C1079.69 630.224 1079.02 630.075 1078.44 629.776C1077.88 629.477 1077.43 629.067 1077.1 628.544C1076.77 628.021 1076.56 627.429 1076.46 626.768H1077.68C1077.78 627.504 1078.07 628.096 1078.54 628.544C1079.02 628.981 1079.66 629.2 1080.46 629.2C1080.96 629.2 1081.4 629.109 1081.79 628.928C1082.17 628.736 1082.46 628.469 1082.67 628.128C1082.88 627.787 1082.99 627.392 1082.99 626.944C1082.99 626.507 1082.89 626.117 1082.7 625.776C1082.51 625.435 1082.23 625.173 1081.87 624.992C1081.5 624.8 1081.08 624.704 1080.59 624.704H1078.72V623.616H1080.49C1080.97 623.616 1081.37 623.536 1081.69 623.376C1082.02 623.205 1082.27 622.971 1082.43 622.672C1082.59 622.363 1082.67 622.005 1082.67 621.6C1082.67 621.216 1082.57 620.875 1082.36 620.576C1082.16 620.267 1081.88 620.027 1081.52 619.856C1081.15 619.685 1080.73 619.6 1080.25 619.6C1079.52 619.6 1078.94 619.797 1078.52 620.192C1078.12 620.587 1077.89 621.141 1077.84 621.856H1076.62C1076.65 621.184 1076.83 620.603 1077.15 620.112C1077.48 619.611 1077.91 619.232 1078.44 618.976C1078.99 618.709 1079.59 618.576 1080.25 618.576C1080.96 618.576 1081.58 618.704 1082.14 618.96C1082.69 619.216 1083.13 619.579 1083.44 620.048C1083.74 620.507 1083.9 621.035 1083.9 621.632C1083.9 622.229 1083.73 622.757 1083.39 623.216C1083.06 623.675 1082.65 623.989 1082.17 624.16C1082.79 624.32 1083.29 624.651 1083.66 625.152C1084.03 625.653 1084.22 626.251 1084.22 626.944C1084.22 627.552 1084.06 628.107 1083.76 628.608C1083.45 629.099 1083 629.493 1082.43 629.792C1081.85 630.08 1081.19 630.224 1080.44 630.224ZM956.44 640.8H961.288C961.992 640.8 962.616 640.944 963.16 641.232C963.715 641.52 964.141 641.909 964.44 642.4C964.749 642.891 964.904 643.429 964.904 644.016C964.904 644.613 964.749 645.163 964.44 645.664C964.131 646.155 963.699 646.544 963.144 646.832C962.6 647.12 961.981 647.264 961.288 647.264H957.688V652H956.44V640.8ZM961.16 646.176C961.672 646.176 962.115 646.08 962.488 645.888C962.872 645.696 963.16 645.44 963.352 645.12C963.555 644.789 963.656 644.421 963.656 644.016C963.656 643.611 963.555 643.248 963.352 642.928C963.16 642.608 962.872 642.357 962.488 642.176C962.115 641.984 961.672 641.888 961.16 641.888H957.688V646.176H961.16ZM966.133 649.616C966.133 648.88 966.389 648.288 966.901 647.84C967.424 647.392 968.138 647.141 969.045 647.088L971.685 646.912V646.608C971.685 645.968 971.52 645.472 971.189 645.12C970.858 644.768 970.368 644.592 969.717 644.592C969.152 644.592 968.693 644.736 968.341 645.024C967.989 645.301 967.765 645.669 967.669 646.128H966.469C966.586 645.371 966.933 644.763 967.509 644.304C968.085 643.845 968.816 643.616 969.701 643.616C970.725 643.616 971.514 643.888 972.069 644.432C972.624 644.965 972.901 645.685 972.901 646.592V652H971.717V650.72C971.546 651.147 971.226 651.499 970.757 651.776C970.288 652.053 969.722 652.192 969.061 652.192C968.176 652.192 967.466 651.957 966.933 651.488C966.4 651.008 966.133 650.384 966.133 649.616ZM967.317 649.584C967.317 650.096 967.482 650.507 967.813 650.816C968.144 651.125 968.613 651.28 969.221 651.28C969.69 651.28 970.112 651.173 970.485 650.96C970.858 650.747 971.152 650.443 971.365 650.048C971.578 649.643 971.685 649.163 971.685 648.608V647.792L969.509 647.936C968.784 647.989 968.234 648.149 967.861 648.416C967.498 648.683 967.317 649.072 967.317 649.584ZM975.548 643.808H976.7V645.216C976.892 644.715 977.212 644.325 977.66 644.048C978.108 643.76 978.652 643.616 979.292 643.616C980.241 643.616 980.977 643.92 981.5 644.528C982.033 645.136 982.3 645.957 982.3 646.992V652H981.084V647.168C981.084 646.389 980.913 645.787 980.572 645.36C980.241 644.923 979.745 644.704 979.084 644.704C978.636 644.704 978.236 644.805 977.884 645.008C977.532 645.211 977.254 645.504 977.052 645.888C976.86 646.261 976.764 646.704 976.764 647.216V652H975.548V643.808ZM987.788 652.096C986.988 652.096 986.385 651.883 985.98 651.456C985.585 651.019 985.388 650.379 985.388 649.536V644.832H983.82V643.808H985.388V641.632H986.604V643.808H989.036V644.832H986.604V649.6C986.604 650.069 986.716 650.427 986.94 650.672C987.175 650.917 987.521 651.04 987.98 651.04C988.332 651.04 988.689 650.987 989.052 650.88V651.92C988.924 651.973 988.743 652.016 988.508 652.048C988.284 652.08 988.044 652.096 987.788 652.096ZM994.234 652.192C993.498 652.192 992.826 652 992.218 651.616C991.621 651.221 991.151 650.699 990.81 650.048C990.469 649.387 990.298 648.672 990.298 647.904C990.298 647.136 990.469 646.427 990.81 645.776C991.151 645.115 991.621 644.592 992.218 644.208C992.826 643.813 993.498 643.616 994.234 643.616C994.97 643.616 995.637 643.813 996.234 644.208C996.842 644.592 997.317 645.115 997.658 645.776C997.999 646.427 998.17 647.136 998.17 647.904C998.17 648.672 997.999 649.387 997.658 650.048C997.317 650.699 996.842 651.221 996.234 651.616C995.637 652 994.97 652.192 994.234 652.192ZM994.234 651.136C994.767 651.136 995.242 650.987 995.658 650.688C996.074 650.379 996.394 649.979 996.618 649.488C996.842 648.987 996.954 648.459 996.954 647.904C996.954 647.349 996.842 646.827 996.618 646.336C996.394 645.835 996.074 645.435 995.658 645.136C995.242 644.827 994.767 644.672 994.234 644.672C993.701 644.672 993.226 644.827 992.81 645.136C992.394 645.435 992.074 645.835 991.85 646.336C991.626 646.827 991.514 647.349 991.514 647.904C991.514 648.459 991.626 648.987 991.85 649.488C992.074 649.979 992.394 650.379 992.81 650.688C993.226 650.987 993.701 651.136 994.234 651.136ZM1000.25 643.808H1001.4V645.216C1001.59 644.715 1001.91 644.325 1002.36 644.048C1002.81 643.76 1003.35 643.616 1003.99 643.616C1004.94 643.616 1005.68 643.92 1006.2 644.528C1006.74 645.136 1007 645.957 1007 646.992V652H1005.79V647.168C1005.79 646.389 1005.62 645.787 1005.27 645.36C1004.94 644.923 1004.45 644.704 1003.79 644.704C1003.34 644.704 1002.94 644.805 1002.59 645.008C1002.23 645.211 1001.96 645.504 1001.75 645.888C1001.56 646.261 1001.47 646.704 1001.47 647.216V652H1000.25V643.808ZM1009 647.904C1009 647.093 1009.17 646.363 1009.5 645.712C1009.83 645.061 1010.28 644.549 1010.86 644.176C1011.43 643.803 1012.08 643.616 1012.81 643.616C1013.6 643.616 1014.27 643.797 1014.83 644.16C1015.39 644.512 1015.81 644.992 1016.09 645.6C1016.38 646.208 1016.52 646.885 1016.52 647.632V648.192H1010.19C1010.22 648.757 1010.34 649.269 1010.55 649.728C1010.77 650.176 1011.07 650.533 1011.47 650.8C1011.87 651.067 1012.35 651.2 1012.89 651.2C1013.48 651.2 1013.96 651.067 1014.33 650.8C1014.7 650.523 1014.99 650.155 1015.18 649.696H1016.36C1016.21 650.197 1015.97 650.635 1015.64 651.008C1015.32 651.381 1014.92 651.675 1014.44 651.888C1013.97 652.091 1013.45 652.192 1012.89 652.192C1012.09 652.192 1011.4 652 1010.81 651.616C1010.22 651.232 1009.77 650.715 1009.47 650.064C1009.16 649.413 1009 648.693 1009 647.904ZM1015.39 647.216C1015.34 646.704 1015.21 646.251 1015 645.856C1014.79 645.461 1014.49 645.152 1014.12 644.928C1013.75 644.693 1013.31 644.576 1012.79 644.576C1012.31 644.576 1011.89 644.693 1011.51 644.928C1011.15 645.163 1010.86 645.477 1010.63 645.872C1010.42 646.267 1010.28 646.715 1010.22 647.216H1015.39ZM1022.14 650.272H1023.58V652H1022.14V650.272ZM1022.14 644.816H1023.58V646.544H1022.14V644.816ZM1029.41 648.976C1029.41 648.229 1029.62 647.616 1030.02 647.136C1030.43 646.645 1030.95 646.299 1031.61 646.096C1031.07 645.851 1030.66 645.504 1030.36 645.056C1030.06 644.597 1029.91 644.096 1029.91 643.552C1029.91 642.965 1030.06 642.448 1030.36 642C1030.67 641.541 1031.09 641.189 1031.62 640.944C1032.15 640.699 1032.76 640.576 1033.43 640.576C1034.1 640.576 1034.7 640.699 1035.24 640.944C1035.77 641.189 1036.19 641.541 1036.49 642C1036.79 642.448 1036.95 642.965 1036.95 643.552C1036.95 644.096 1036.8 644.597 1036.5 645.056C1036.2 645.504 1035.79 645.851 1035.25 646.096C1035.9 646.299 1036.43 646.645 1036.84 647.136C1037.24 647.616 1037.45 648.229 1037.45 648.976C1037.45 649.573 1037.27 650.123 1036.93 650.624C1036.6 651.115 1036.13 651.504 1035.53 651.792C1034.92 652.08 1034.22 652.224 1033.43 652.224C1032.64 652.224 1031.94 652.08 1031.33 651.792C1030.73 651.504 1030.25 651.115 1029.91 650.624C1029.58 650.123 1029.41 649.573 1029.41 648.976ZM1030.58 648.88C1030.58 649.349 1030.7 649.765 1030.93 650.128C1031.18 650.48 1031.51 650.757 1031.94 650.96C1032.37 651.152 1032.86 651.248 1033.43 651.248C1033.99 651.248 1034.49 651.152 1034.92 650.96C1035.34 650.757 1035.67 650.48 1035.91 650.128C1036.15 649.765 1036.28 649.349 1036.28 648.88C1036.28 648.421 1036.15 648.021 1035.91 647.68C1035.66 647.339 1035.32 647.077 1034.89 646.896C1034.46 646.715 1033.97 646.624 1033.43 646.624C1032.89 646.624 1032.39 646.715 1031.96 646.896C1031.53 647.077 1031.19 647.339 1030.95 647.68C1030.7 648.021 1030.58 648.421 1030.58 648.88ZM1031.06 643.616C1031.06 643.979 1031.16 644.315 1031.37 644.624C1031.57 644.923 1031.85 645.168 1032.2 645.36C1032.56 645.541 1032.97 645.632 1033.43 645.632C1033.89 645.632 1034.29 645.541 1034.65 645.36C1035.01 645.168 1035.29 644.923 1035.49 644.624C1035.7 644.315 1035.8 643.979 1035.8 643.616C1035.8 643.189 1035.7 642.821 1035.49 642.512C1035.3 642.203 1035.02 641.968 1034.66 641.808C1034.31 641.637 1033.9 641.552 1033.43 641.552C1032.96 641.552 1032.54 641.637 1032.18 641.808C1031.83 641.968 1031.55 642.203 1031.35 642.512C1031.16 642.821 1031.06 643.189 1031.06 643.616ZM1045.08 641.792H1039.16V640.8H1046.38V641.648L1041.03 652H1039.77L1045.08 641.792ZM1053.74 641.792H1047.82V640.8H1055.03V641.648L1049.69 652H1048.42L1053.74 641.792ZM1065.44 652.224C1064.39 652.224 1063.45 651.952 1062.64 651.408C1061.84 650.864 1061.22 650.144 1060.79 649.248C1060.36 648.352 1060.15 647.403 1060.15 646.4C1060.15 645.397 1060.36 644.448 1060.79 643.552C1061.22 642.656 1061.84 641.936 1062.64 641.392C1063.45 640.848 1064.39 640.576 1065.44 640.576C1066.23 640.576 1066.94 640.72 1067.57 641.008C1068.21 641.285 1068.74 641.675 1069.17 642.176C1069.6 642.677 1069.91 643.264 1070.11 643.936H1068.83C1068.55 643.232 1068.12 642.683 1067.57 642.288C1067.01 641.893 1066.31 641.696 1065.44 641.696C1064.61 641.696 1063.88 641.92 1063.27 642.368C1062.66 642.816 1062.19 643.403 1061.87 644.128C1061.55 644.843 1061.39 645.6 1061.39 646.4C1061.39 647.2 1061.55 647.963 1061.87 648.688C1062.19 649.403 1062.66 649.984 1063.27 650.432C1063.88 650.88 1064.61 651.104 1065.44 651.104C1066.31 651.104 1067.01 650.907 1067.57 650.512C1068.12 650.117 1068.55 649.568 1068.83 648.864H1070.11C1069.91 649.536 1069.6 650.123 1069.17 650.624C1068.74 651.125 1068.21 651.52 1067.57 651.808C1066.94 652.085 1066.23 652.224 1065.44 652.224Z" fill="white"/>
<path d="M641 589.5H1103" stroke="white" stroke-width="0.5"/>
</svg>
