<svg width="32" height="730" viewBox="0 0 32 730" fill="none" xmlns="http://www.w3.org/2000/svg">
<circle cx="16" cy="16" r="16" fill="#FFAB00"/>
<path d="M11.34 21.696C10.6307 21.696 10.0007 21.5467 9.45 21.248C8.89933 20.94 8.47 20.5247 8.162 20.002C7.854 19.4793 7.7 18.896 7.7 18.252C7.7 17.7107 7.80267 17.202 8.008 16.726C8.21333 16.25 8.50267 15.732 8.876 15.172L11.116 11.7H12.796L10.374 15.326C10.514 15.2047 10.7053 15.1113 10.948 15.046C11.1907 14.9713 11.4753 14.934 11.802 14.934C12.3713 14.934 12.894 15.0833 13.37 15.382C13.8553 15.6713 14.238 16.068 14.518 16.572C14.8073 17.076 14.952 17.6313 14.952 18.238C14.952 18.8913 14.7933 19.4793 14.476 20.002C14.168 20.5247 13.7387 20.94 13.188 21.248C12.6467 21.5467 12.0307 21.696 11.34 21.696ZM11.326 20.45C11.746 20.45 12.1193 20.3567 12.446 20.17C12.7727 19.974 13.0247 19.7127 13.202 19.386C13.3793 19.05 13.468 18.6767 13.468 18.266C13.468 17.8553 13.3747 17.4867 13.188 17.16C13.0107 16.8333 12.7633 16.5813 12.446 16.404C12.1287 16.2173 11.7647 16.124 11.354 16.124C10.934 16.124 10.5607 16.2173 10.234 16.404C9.90733 16.5907 9.65067 16.8473 9.464 17.174C9.27733 17.5007 9.184 17.874 9.184 18.294C9.184 18.714 9.27267 19.0873 9.45 19.414C9.62733 19.7407 9.87933 19.9973 10.206 20.184C10.5327 20.3613 10.906 20.45 11.326 20.45ZM20.358 21.696C19.518 21.696 18.804 21.472 18.216 21.024C17.628 20.576 17.1846 19.9693 16.886 19.204C16.5873 18.4293 16.438 17.5613 16.438 16.6C16.438 15.6387 16.5873 14.7753 16.886 14.01C17.1846 13.2353 17.628 12.624 18.216 12.176C18.804 11.728 19.518 11.504 20.358 11.504C21.1886 11.504 21.898 11.728 22.486 12.176C23.0833 12.624 23.5313 13.2353 23.83 14.01C24.1286 14.7753 24.278 15.6387 24.278 16.6C24.278 17.5613 24.1286 18.4293 23.83 19.204C23.5313 19.9693 23.0833 20.576 22.486 21.024C21.898 21.472 21.1886 21.696 20.358 21.696ZM20.358 20.38C20.9086 20.38 21.3613 20.2027 21.716 19.848C22.08 19.4933 22.3413 19.036 22.5 18.476C22.668 17.9067 22.752 17.2813 22.752 16.6C22.752 15.9187 22.668 15.298 22.5 14.738C22.3413 14.1687 22.08 13.7067 21.716 13.352C21.3613 12.9973 20.9086 12.82 20.358 12.82C19.8073 12.82 19.35 12.9973 18.986 13.352C18.6313 13.7067 18.37 14.1687 18.202 14.738C18.0433 15.298 17.964 15.9187 17.964 16.6C17.964 17.2813 18.0433 17.9067 18.202 18.476C18.37 19.036 18.6313 19.4933 18.986 19.848C19.35 20.2027 19.8073 20.38 20.358 20.38Z" fill="white"/>
<line x1="16" y1="35" x2="16" y2="735" stroke="#FFAB00" stroke-width="2"/>
</svg>
