<svg width="32" height="730" viewBox="0 0 32 730" fill="none" xmlns="http://www.w3.org/2000/svg">
<circle cx="16" cy="16" r="16" fill="#FF5230"/>
<path d="M8.384 13.436L6.032 14.892V13.394L8.65 11.7H9.91V21.5H8.384V13.436ZM14.0031 13.436L11.6511 14.892V13.394L14.2691 11.7H15.5291V21.5H14.0031V13.436ZM21.4283 21.696C20.5883 21.696 19.8743 21.472 19.2863 21.024C18.6983 20.576 18.2549 19.9693 17.9563 19.204C17.6576 18.4293 17.5083 17.5613 17.5083 16.6C17.5083 15.6387 17.6576 14.7753 17.9563 14.01C18.2549 13.2353 18.6983 12.624 19.2863 12.176C19.8743 11.728 20.5883 11.504 21.4283 11.504C22.2589 11.504 22.9683 11.728 23.5563 12.176C24.1536 12.624 24.6016 13.2353 24.9003 14.01C25.1989 14.7753 25.3483 15.6387 25.3483 16.6C25.3483 17.5613 25.1989 18.4293 24.9003 19.204C24.6016 19.9693 24.1536 20.576 23.5563 21.024C22.9683 21.472 22.2589 21.696 21.4283 21.696ZM21.4283 20.38C21.9789 20.38 22.4316 20.2027 22.7863 19.848C23.1503 19.4933 23.4116 19.036 23.5703 18.476C23.7383 17.9067 23.8223 17.2813 23.8223 16.6C23.8223 15.9187 23.7383 15.298 23.5703 14.738C23.4116 14.1687 23.1503 13.7067 22.7863 13.352C22.4316 12.9973 21.9789 12.82 21.4283 12.82C20.8776 12.82 20.4203 12.9973 20.0563 13.352C19.7016 13.7067 19.4403 14.1687 19.2723 14.738C19.1136 15.298 19.0343 15.9187 19.0343 16.6C19.0343 17.2813 19.1136 17.9067 19.2723 18.476C19.4403 19.036 19.7016 19.4933 20.0563 19.848C20.4203 20.2027 20.8776 20.38 21.4283 20.38Z" fill="white"/>
<line x1="16" y1="35" x2="16" y2="735" stroke="#FF5230" stroke-width="2"/>
</svg>
