<svg width="32" height="730" viewBox="0 0 32 730" fill="none" xmlns="http://www.w3.org/2000/svg">
<circle cx="16" cy="16" r="16" fill="#2DB07C"/>
<path d="M7.77 18.798C7.77 18.1633 7.938 17.636 8.274 17.216C8.61933 16.796 9.058 16.502 9.59 16.334C9.15133 16.1287 8.806 15.8347 8.554 15.452C8.31133 15.06 8.19 14.6307 8.19 14.164C8.19 13.6413 8.33 13.1793 8.61 12.778C8.89 12.3673 9.268 12.0547 9.744 11.84C10.2293 11.616 10.7707 11.504 11.368 11.504C11.9747 11.504 12.516 11.616 12.992 11.84C13.4773 12.0547 13.86 12.3673 14.14 12.778C14.42 13.1793 14.56 13.6413 14.56 14.164C14.56 14.6307 14.434 15.06 14.182 15.452C13.93 15.8347 13.5847 16.1287 13.146 16.334C13.6873 16.502 14.126 16.796 14.462 17.216C14.8073 17.636 14.98 18.1633 14.98 18.798C14.98 19.3487 14.826 19.8433 14.518 20.282C14.21 20.7207 13.7807 21.066 13.23 21.318C12.6887 21.57 12.068 21.696 11.368 21.696C10.6773 21.696 10.0567 21.57 9.506 21.318C8.96467 21.066 8.54 20.7207 8.232 20.282C7.924 19.8433 7.77 19.3487 7.77 18.798ZM9.226 18.728C9.226 19.0827 9.31467 19.3953 9.492 19.666C9.67867 19.9367 9.93067 20.1467 10.248 20.296C10.5747 20.4453 10.948 20.52 11.368 20.52C11.7973 20.52 12.1707 20.4453 12.488 20.296C12.8147 20.1467 13.0667 19.9367 13.244 19.666C13.4307 19.3953 13.524 19.0827 13.524 18.728C13.524 18.3733 13.4307 18.0653 13.244 17.804C13.0573 17.5427 12.8007 17.342 12.474 17.202C12.1473 17.062 11.7787 16.992 11.368 16.992C10.9667 16.992 10.6027 17.062 10.276 17.202C9.94933 17.342 9.69267 17.5427 9.506 17.804C9.31933 18.0653 9.226 18.3733 9.226 18.728ZM9.59 14.248C9.59 14.528 9.66467 14.7847 9.814 15.018C9.97267 15.2513 10.1827 15.438 10.444 15.578C10.7147 15.718 11.0227 15.788 11.368 15.788C11.7133 15.788 12.0213 15.718 12.292 15.578C12.5627 15.438 12.7727 15.2513 12.922 15.018C13.0713 14.7847 13.146 14.528 13.146 14.248C13.146 13.9307 13.0713 13.6553 12.922 13.422C12.782 13.1793 12.5767 12.9973 12.306 12.876C12.0353 12.7453 11.7227 12.68 11.368 12.68C11.0133 12.68 10.7007 12.7453 10.43 12.876C10.1687 12.9973 9.96333 13.1793 9.814 13.422C9.66467 13.6553 9.59 13.9307 9.59 14.248ZM20.44 21.696C19.6 21.696 18.886 21.472 18.298 21.024C17.71 20.576 17.2667 19.9693 16.968 19.204C16.6693 18.4293 16.52 17.5613 16.52 16.6C16.52 15.6387 16.6693 14.7753 16.968 14.01C17.2667 13.2353 17.71 12.624 18.298 12.176C18.886 11.728 19.6 11.504 20.44 11.504C21.2707 11.504 21.98 11.728 22.568 12.176C23.1653 12.624 23.6133 13.2353 23.912 14.01C24.2107 14.7753 24.36 15.6387 24.36 16.6C24.36 17.5613 24.2107 18.4293 23.912 19.204C23.6133 19.9693 23.1653 20.576 22.568 21.024C21.98 21.472 21.2707 21.696 20.44 21.696ZM20.44 20.38C20.9907 20.38 21.4433 20.2027 21.798 19.848C22.162 19.4933 22.4233 19.036 22.582 18.476C22.75 17.9067 22.834 17.2813 22.834 16.6C22.834 15.9187 22.75 15.298 22.582 14.738C22.4233 14.1687 22.162 13.7067 21.798 13.352C21.4433 12.9973 20.9907 12.82 20.44 12.82C19.8893 12.82 19.432 12.9973 19.068 13.352C18.7133 13.7067 18.452 14.1687 18.284 14.738C18.1253 15.298 18.046 15.9187 18.046 16.6C18.046 17.2813 18.1253 17.9067 18.284 18.476C18.452 19.036 18.7133 19.4933 19.068 19.848C19.432 20.2027 19.8893 20.38 20.44 20.38Z" fill="white"/>
<line x1="16" y1="35" x2="16" y2="735" stroke="#2DB07C" stroke-width="2"/>
</svg>
