<svg width="32" height="730" viewBox="0 0 32 730" fill="none" xmlns="http://www.w3.org/2000/svg">
<circle cx="16" cy="16" r="16" fill="#2DB07C"/>
<path d="M6.384 13.436L4.032 14.892V13.394L6.65 11.7H7.91V21.5H6.384V13.436ZM13.8091 21.696C12.9691 21.696 12.2551 21.472 11.6671 21.024C11.0791 20.576 10.6358 19.9693 10.3371 19.204C10.0385 18.4293 9.88914 17.5613 9.88914 16.6C9.88914 15.6387 10.0385 14.7753 10.3371 14.01C10.6358 13.2353 11.0791 12.624 11.6671 12.176C12.2551 11.728 12.9691 11.504 13.8091 11.504C14.6398 11.504 15.3491 11.728 15.9371 12.176C16.5345 12.624 16.9825 13.2353 17.2811 14.01C17.5798 14.7753 17.7291 15.6387 17.7291 16.6C17.7291 17.5613 17.5798 18.4293 17.2811 19.204C16.9825 19.9693 16.5345 20.576 15.9371 21.024C15.3491 21.472 14.6398 21.696 13.8091 21.696ZM13.8091 20.38C14.3598 20.38 14.8125 20.2027 15.1671 19.848C15.5311 19.4933 15.7925 19.036 15.9511 18.476C16.1191 17.9067 16.2031 17.2813 16.2031 16.6C16.2031 15.9187 16.1191 15.298 15.9511 14.738C15.7925 14.1687 15.5311 13.7067 15.1671 13.352C14.8125 12.9973 14.3598 12.82 13.8091 12.82C13.2585 12.82 12.8011 12.9973 12.4371 13.352C12.0825 13.7067 11.8211 14.1687 11.6531 14.738C11.4945 15.298 11.4151 15.9187 11.4151 16.6C11.4151 17.2813 11.4945 17.9067 11.6531 18.476C11.8211 19.036 12.0825 19.4933 12.4371 19.848C12.8011 20.2027 13.2585 20.38 13.8091 20.38ZM23.188 21.696C22.348 21.696 21.634 21.472 21.046 21.024C20.458 20.576 20.0147 19.9693 19.716 19.204C19.4174 18.4293 19.268 17.5613 19.268 16.6C19.268 15.6387 19.4174 14.7753 19.716 14.01C20.0147 13.2353 20.458 12.624 21.046 12.176C21.634 11.728 22.348 11.504 23.188 11.504C24.0187 11.504 24.728 11.728 25.316 12.176C25.9134 12.624 26.3614 13.2353 26.66 14.01C26.9587 14.7753 27.108 15.6387 27.108 16.6C27.108 17.5613 26.9587 18.4293 26.66 19.204C26.3614 19.9693 25.9134 20.576 25.316 21.024C24.728 21.472 24.0187 21.696 23.188 21.696ZM23.188 20.38C23.7387 20.38 24.1914 20.2027 24.546 19.848C24.91 19.4933 25.1714 19.036 25.33 18.476C25.498 17.9067 25.582 17.2813 25.582 16.6C25.582 15.9187 25.498 15.298 25.33 14.738C25.1714 14.1687 24.91 13.7067 24.546 13.352C24.1914 12.9973 23.7387 12.82 23.188 12.82C22.6374 12.82 22.18 12.9973 21.816 13.352C21.4614 13.7067 21.2 14.1687 21.032 14.738C20.8734 15.298 20.794 15.9187 20.794 16.6C20.794 17.2813 20.8734 17.9067 21.032 18.476C21.2 19.036 21.4614 19.4933 21.816 19.848C22.18 20.2027 22.6374 20.38 23.188 20.38Z" fill="white"/>
<line x1="16" y1="35" x2="16" y2="735" stroke="#2DB07C" stroke-width="2"/>
</svg>
