<svg width="32" height="730" viewBox="0 0 32 730" fill="none" xmlns="http://www.w3.org/2000/svg">
<circle cx="16" cy="16" r="16" fill="#A5ADBA"/>
<path d="M15.69 21.696C14.85 21.696 14.136 21.472 13.548 21.024C12.96 20.576 12.5167 19.9693 12.218 19.204C11.9193 18.4293 11.77 17.5613 11.77 16.6C11.77 15.6387 11.9193 14.7753 12.218 14.01C12.5167 13.2353 12.96 12.624 13.548 12.176C14.136 11.728 14.85 11.504 15.69 11.504C16.5207 11.504 17.23 11.728 17.818 12.176C18.4153 12.624 18.8633 13.2353 19.162 14.01C19.4607 14.7753 19.61 15.6387 19.61 16.6C19.61 17.5613 19.4607 18.4293 19.162 19.204C18.8633 19.9693 18.4153 20.576 17.818 21.024C17.23 21.472 16.5207 21.696 15.69 21.696ZM15.69 20.38C16.2407 20.38 16.6933 20.2027 17.048 19.848C17.412 19.4933 17.6733 19.036 17.832 18.476C18 17.9067 18.084 17.2813 18.084 16.6C18.084 15.9187 18 15.298 17.832 14.738C17.6733 14.1687 17.412 13.7067 17.048 13.352C16.6933 12.9973 16.2407 12.82 15.69 12.82C15.1393 12.82 14.682 12.9973 14.318 13.352C13.9633 13.7067 13.702 14.1687 13.534 14.738C13.3753 15.298 13.296 15.9187 13.296 16.6C13.296 17.2813 13.3753 17.9067 13.534 18.476C13.702 19.036 13.9633 19.4933 14.318 19.848C14.682 20.2027 15.1393 20.38 15.69 20.38Z" fill="white"/>
<line x1="16" y1="35" x2="16" y2="735" stroke="#A5ADBA" stroke-width="2"/>
</svg>
