<svg width="1156" height="699" viewBox="0 0 1156 699" fill="none" xmlns="http://www.w3.org/2000/svg">
<rect width="1156" height="698" transform="translate(0 0.5)" fill="#F9F9FB"/>
<path d="M125.682 66.5219V636.406" stroke="black" stroke-opacity="0.5" stroke-width="0.5" stroke-dasharray="2 2"/>
<path d="M416.8 66.522L416.433 636.407" stroke="black" stroke-opacity="0.5" stroke-width="0.5" stroke-dasharray="2 2"/>
<path d="M494.789 66.522V636.406" stroke="black" stroke-opacity="0.5" stroke-width="0.5" stroke-dasharray="2 2"/>
<path d="M556.543 66.522V636.406" stroke="black" stroke-opacity="0.5" stroke-width="0.5" stroke-dasharray="2 2"/>
<path d="M636.562 66.522V636.406" stroke="black" stroke-opacity="0.5" stroke-width="0.5" stroke-dasharray="2 2"/>
<path d="M602.579 64.5577V634.442" stroke="black" stroke-opacity="0.5" stroke-width="0.5" stroke-dasharray="2 2"/>
<path d="M1019.72 107.149V636.406" stroke="black" stroke-opacity="0.5" stroke-width="0.5" stroke-dasharray="2 2"/>
<path d="M771.332 108.465V637.723" stroke="black" stroke-opacity="0.5" stroke-width="0.5" stroke-dasharray="2 2"/>
<path d="M659.186 507.525L1062.76 507.525" stroke="black" stroke-opacity="0.5" stroke-width="0.5" stroke-dasharray="2 2"/>
<path d="M523.597 281.755L1093.48 281.755" stroke="black" stroke-opacity="0.5" stroke-width="0.5" stroke-dasharray="2 2"/>
<path d="M363.986 248.969L1095.55 248.969" stroke="black" stroke-opacity="0.5" stroke-width="0.5" stroke-dasharray="2 2"/>
<path d="M374.78 66.522L374.682 636.406" stroke="black" stroke-opacity="0.5" stroke-width="0.5" stroke-dasharray="2 2"/>
<path d="M277.682 66.5219V636.406" stroke="black" stroke-opacity="0.5" stroke-width="0.5" stroke-dasharray="2 2"/>
<path d="M291.682 66.5219V636.406" stroke="black" stroke-opacity="0.5" stroke-width="0.5" stroke-dasharray="2 2"/>
<path d="M1093.48 186.219L67.8184 186.219" stroke="black" stroke-opacity="0.5" stroke-width="0.5" stroke-dasharray="2 2"/>
<path d="M1093.48 363.219L67.8184 363.219" stroke="black" stroke-opacity="0.5" stroke-width="0.5" stroke-dasharray="2 2"/>
<path d="M1093.48 383.219L67.8184 383.219" stroke="black" stroke-opacity="0.5" stroke-width="0.5" stroke-dasharray="2 2"/>
<path d="M1093.48 392.219L67.8184 392.219" stroke="black" stroke-opacity="0.5" stroke-width="0.5" stroke-dasharray="2 2"/>
<path d="M1093.48 470.219L67.8184 470.219" stroke="black" stroke-opacity="0.5" stroke-width="0.5" stroke-dasharray="2 2"/>
<path d="M1093.48 536.219L67.8184 536.219" stroke="black" stroke-opacity="0.5" stroke-width="0.5" stroke-dasharray="2 2"/>
<path d="M1093.48 204.719L67.8184 204.719" stroke="black" stroke-opacity="0.5" stroke-width="0.5" stroke-dasharray="2 2"/>
<path d="M1093.48 213.719L125.682 213.719" stroke="black" stroke-opacity="0.5" stroke-width="0.5" stroke-dasharray="2 2"/>
<path d="M183.948 78.4188H168.655L125.682 186.219H140.669L150.915 159.115H201.688V122.92L183.948 78.4188Z" fill="black"/>
<path d="M176.301 91.8175L196.793 145.718H155.655L176.301 91.8175Z" fill="white"/>
<path d="M201.682 66.5219V636.406" stroke="black" stroke-opacity="0.5" stroke-width="0.5" stroke-dasharray="2 2"/>
<path d="M379.378 223.225C377.736 227.639 376.093 231.181 374.45 233.851V241.849C375.838 240.531 377.07 238.994 378.146 237.239C380.2 234.056 382.15 229.949 383.998 224.919L387.078 217.219L416.8 139.295H411.41L384.768 210.443L374.743 184.423V198.165L381.996 216.911L379.378 223.225Z" fill="black"/>
<path d="M277.59 304.063H291.758V383.219H277.59V304.063ZM277.282 273.263H291.912V290.203H277.282V273.263Z" fill="black"/>
<path d="M595.167 78.4187V175.747L556.762 122.982V133.991L594.859 186.219H602.559V78.4187H595.167Z" fill="black"/>
<path d="M1003.85 94.1467L977.513 111.241V96.9187L1006.16 77.6687H1018.02V185.469H1003.85V94.1467Z" fill="black"/>
<path d="M603.339 346.621C603.339 343.475 604.045 340.555 605.459 337.861C606.899 335.168 608.925 333.035 611.539 331.461C614.152 329.861 617.165 329.061 620.579 329.061C623.699 329.061 626.419 329.701 628.739 330.981C631.059 332.235 632.832 333.928 634.059 336.061C635.285 338.195 635.899 340.541 635.899 343.101C635.899 344.941 635.632 346.661 635.099 348.261C634.592 349.835 633.779 351.115 632.659 352.101C631.565 353.088 630.165 353.581 628.459 353.581C626.939 353.581 625.712 353.168 624.779 352.341C623.872 351.515 623.325 350.435 623.139 349.101C622.685 350.168 621.952 351.035 620.939 351.701C619.925 352.341 618.805 352.661 617.579 352.661C615.792 352.661 614.419 352.088 613.459 350.941C612.525 349.768 612.059 348.288 612.059 346.501C612.059 344.901 612.365 343.435 612.979 342.101C613.592 340.768 614.432 339.715 615.499 338.941C616.592 338.141 617.805 337.741 619.139 337.741C620.312 337.741 621.285 338.048 622.059 338.661C622.859 339.275 623.405 340.088 623.699 341.101L624.219 338.061H626.819L625.499 345.501C625.285 346.728 625.245 347.821 625.379 348.781C625.512 349.715 625.859 350.448 626.419 350.981C626.979 351.488 627.725 351.741 628.659 351.741C629.779 351.741 630.712 351.341 631.459 350.541C632.232 349.741 632.805 348.688 633.179 347.381C633.552 346.048 633.739 344.621 633.739 343.101C633.739 340.888 633.205 338.861 632.139 337.021C631.072 335.181 629.539 333.715 627.539 332.621C625.539 331.501 623.192 330.941 620.499 330.941C617.592 330.941 615.005 331.635 612.739 333.021C610.472 334.408 608.712 336.301 607.459 338.701C606.205 341.101 605.579 343.741 605.579 346.621C605.579 349.181 606.099 351.488 607.139 353.541C608.205 355.595 609.765 357.208 611.819 358.381C613.872 359.555 616.352 360.141 619.259 360.141C620.939 360.141 622.445 359.995 623.779 359.701C625.139 359.435 626.392 359.035 627.539 358.501L628.099 360.261C627.005 360.795 625.632 361.221 623.979 361.541C622.325 361.861 620.685 362.021 619.059 362.021C615.832 362.021 613.032 361.341 610.659 359.981C608.285 358.648 606.472 356.821 605.219 354.501C603.965 352.155 603.339 349.528 603.339 346.621ZM614.659 346.381C614.659 347.608 614.939 348.608 615.499 349.381C616.059 350.128 616.885 350.501 617.979 350.501C618.965 350.501 619.819 350.221 620.539 349.661C621.285 349.075 621.859 348.301 622.259 347.341C622.659 346.381 622.859 345.381 622.859 344.341C622.859 343.115 622.539 342.075 621.899 341.221C621.259 340.368 620.352 339.941 619.179 339.941C618.299 339.941 617.512 340.261 616.819 340.901C616.125 341.541 615.592 342.368 615.219 343.381C614.845 344.368 614.659 345.368 614.659 346.381Z" fill="black"/>
<path d="M702.186 225.182C699.003 231.445 697.412 238.477 697.412 246.28C697.412 253.98 698.952 260.961 702.032 267.224C704.987 273.233 709.171 278.061 714.584 281.707H756.548C758.974 280.093 761.13 278.192 763.016 276.002C766.301 272.203 768.611 267.84 769.946 262.912H756.548C754.905 267.019 752.338 270.304 748.848 272.768C745.46 275.232 741.096 276.464 735.758 276.464C730.83 276.464 726.518 275.283 722.822 272.922C719.228 270.458 716.456 267.224 714.506 263.22C712.555 259.113 711.426 254.545 711.118 249.514H771.332V244.124C771.332 236.732 769.946 230.11 767.174 224.258C765.247 220.12 762.652 216.577 759.387 213.629H711.072C707.503 216.768 704.541 220.619 702.186 225.182Z" fill="black"/>
<path d="M758.088 238.734C757.677 234.217 756.497 230.213 754.546 226.722C752.595 223.231 749.926 220.511 746.538 218.56C743.253 216.507 739.351 215.48 734.834 215.48C730.522 215.48 726.723 216.507 723.438 218.56C720.153 220.613 717.483 223.385 715.43 226.876C713.479 230.367 712.196 234.319 711.58 238.734H758.088Z" fill="white"/>
<path d="M502.181 470.8H494.789V535.862H502.204C502.365 530.737 503.384 526.297 505.261 522.544C507.417 518.334 510.343 515.152 514.039 512.996C517.838 510.84 522.098 509.762 526.821 509.762C534.11 509.762 539.603 512.072 543.299 516.692C547.098 521.312 548.997 527.729 548.997 535.942H556.543V534.71C556.543 525.059 554.028 517.411 548.997 511.764C544.069 506.014 537.088 503.14 528.053 503.14C521.585 503.14 516.041 504.782 511.421 508.068C506.904 511.353 503.824 515.716 502.181 521.158V470.8Z" fill="black"/>
<path d="M1019.72 338.735C1019.72 331.856 1022.08 326.517 1026.81 322.719C1031.63 318.92 1038.31 316.713 1046.83 316.097L1076.86 313.941V309.321C1076.86 300.799 1074.65 294.485 1070.24 290.379C1065.92 286.169 1059.81 284.065 1051.91 284.065C1044.93 284.065 1039.18 285.81 1034.66 289.301C1030.14 292.689 1027.17 297.36 1025.73 303.315H1022.96C1024.29 296.744 1027.53 291.508 1032.66 287.607C1037.9 283.705 1044.31 281.755 1051.91 281.755C1060.64 281.755 1067.41 284.116 1072.24 288.839C1077.17 293.459 1079.63 300.132 1079.63 308.859V361.219H1077.01V341.815C1075.37 347.975 1071.93 353.057 1066.69 357.061C1061.46 361.065 1054.99 363.067 1047.29 363.067C1038.77 363.067 1032.04 360.808 1027.12 356.291C1022.19 351.671 1019.72 345.819 1019.72 338.735ZM1022.34 338.581C1022.34 345.151 1024.55 350.541 1028.96 354.751C1033.48 358.857 1039.64 360.911 1047.44 360.911C1052.78 360.911 1057.66 359.73 1062.07 357.369C1066.49 355.007 1070.03 351.414 1072.7 346.589C1075.47 341.763 1076.86 335.809 1076.86 328.725V316.097L1047.29 318.253C1039.28 318.869 1033.12 320.922 1028.81 324.413C1024.5 327.801 1022.34 332.523 1022.34 338.581Z" fill="black"/>
<path d="M674.106 392.091L636.562 431.611V448.939L651.61 433.131L675.322 470.219H690.674L661.034 423.707L690.218 392.091H674.106Z" fill="black"/>
<path d="M837.838 525.993C843.454 530.985 851.722 534.417 862.642 536.289H921.517C920.823 535.469 920.074 534.689 919.27 533.949C913.498 528.333 904.684 524.511 892.828 522.483L868.024 518.271C861.16 517.179 856.324 515.541 853.516 513.357C850.864 511.173 849.538 507.975 849.538 503.763C849.538 498.303 851.956 494.013 856.792 490.893C861.628 487.773 868.102 486.213 876.214 486.213C884.17 486.213 890.488 488.163 895.168 492.063C899.848 495.963 902.734 501.033 903.826 507.273H924.184C923.092 495.729 918.334 486.681 909.91 480.129C901.486 473.421 890.254 470.067 876.214 470.067C867.166 470.067 859.132 471.549 852.112 474.513C845.092 477.321 839.554 481.455 835.498 486.915C831.598 492.219 829.648 498.459 829.648 505.635C829.648 514.215 832.378 521.001 837.838 525.993Z" fill="black"/>
<path d="M390.881 331.121C387.391 329.683 383.541 328.965 379.331 328.965C377.775 328.965 376.258 329.051 374.78 329.225V341.404C376.996 340.708 379.386 340.361 381.949 340.361C386.261 340.361 390.163 341.541 393.653 343.903C397.144 346.161 399.916 349.395 401.969 353.605C404.023 357.814 405.049 362.588 405.049 367.927C405.049 373.368 404.074 378.193 402.123 382.403C400.173 386.509 397.452 389.692 393.961 391.951C390.471 394.209 386.467 395.339 381.949 395.339C379.411 395.339 377.022 394.998 374.78 394.316V406.475C376.258 406.648 377.775 406.735 379.331 406.735C383.541 406.735 387.391 406.016 390.881 404.579C394.475 403.141 397.452 401.242 399.813 398.881C402.175 396.417 403.92 393.696 405.049 390.719V403.501C405.049 412.022 403.304 418.387 399.813 422.597C396.323 426.806 390.676 428.911 382.873 428.911C379.956 428.911 377.259 428.541 374.78 427.801V439.53C377.303 439.945 379.949 440.153 382.719 440.153C390.111 440.153 396.528 438.818 401.969 436.149C407.513 433.479 411.774 429.578 414.751 424.445C415.377 423.365 415.938 422.245 416.432 421.083V330.813H405.357V344.673C404.125 341.695 402.277 339.026 399.813 336.665C397.452 334.303 394.475 332.455 390.881 331.121Z" fill="black"/>
<path d="M192.634 536.219V487.863C192.634 481.116 191.48 475.315 189.171 470.461H170.626C171.844 471.298 172.917 472.324 173.846 473.541C176.926 477.442 178.466 482.883 178.466 489.865V536.219H192.634Z" fill="black"/>
<path d="M142.43 478.161C144.175 474.773 146.588 472.206 149.668 470.461H125.798V536.219H139.966V490.173C139.966 485.553 140.787 481.549 142.43 478.161Z" fill="black"/>
<path d="M210.688 78.4188V185.469" stroke="black" stroke-opacity="0.9" stroke-width="0.5"/>
<line x1="215.812" y1="78.6688" x2="205.562" y2="78.6688" stroke="black" stroke-opacity="0.9" stroke-width="0.5"/>
<line x1="215.812" y1="185.719" x2="205.562" y2="185.719" stroke="black" stroke-opacity="0.9" stroke-width="0.5"/>
<path d="M201.682 267.094L277.682 267.094" stroke="black" stroke-opacity="0.9" stroke-width="0.5"/>
<line x1="201.932" y1="261.969" x2="201.932" y2="272.219" stroke="black" stroke-opacity="0.9" stroke-width="0.5"/>
<line x1="277.932" y1="261.969" x2="277.932" y2="272.219" stroke="black" stroke-opacity="0.9" stroke-width="0.5"/>
<path d="M292.24 267.094L374.78 267.094" stroke="black" stroke-opacity="0.9" stroke-width="0.5"/>
<line x1="292.49" y1="261.969" x2="292.49" y2="272.219" stroke="black" stroke-opacity="0.9" stroke-width="0.5"/>
<line x1="375.03" y1="261.969" x2="375.03" y2="272.219" stroke="black" stroke-opacity="0.9" stroke-width="0.5"/>
<path d="M788.167 213.629L788.167 248.353" stroke="black" stroke-opacity="0.9" stroke-width="0.5"/>
<line x1="793.292" y1="213.879" x2="783.042" y2="213.879" stroke="black" stroke-opacity="0.9" stroke-width="0.5"/>
<line x1="793.292" y1="248.603" x2="783.042" y2="248.603" stroke="black" stroke-opacity="0.9" stroke-width="0.5"/>
<path d="M702.537 392.091L702.537 470.067" stroke="black" stroke-opacity="0.9" stroke-width="0.5"/>
<line x1="707.662" y1="392.341" x2="697.412" y2="392.341" stroke="black" stroke-opacity="0.9" stroke-width="0.5"/>
<line x1="707.662" y1="470.317" x2="697.412" y2="470.317" stroke="black" stroke-opacity="0.9" stroke-width="0.5"/>
<path d="M1009.8 281.755L1009.8 363.067" stroke="black" stroke-opacity="0.9" stroke-width="0.5"/>
<line x1="1014.92" y1="282.005" x2="1004.67" y2="282.005" stroke="black" stroke-opacity="0.9" stroke-width="0.5"/>
<line x1="1014.92" y1="363.317" x2="1004.67" y2="363.317" stroke="black" stroke-opacity="0.9" stroke-width="0.5"/>
<path d="M1027.91 104.157L1027.91 185.469" stroke="black" stroke-opacity="0.9" stroke-width="0.5"/>
<line x1="1033.03" y1="104.407" x2="1022.78" y2="104.407" stroke="black" stroke-opacity="0.9" stroke-width="0.5"/>
<line x1="1033.03" y1="185.719" x2="1022.78" y2="185.719" stroke="black" stroke-opacity="0.9" stroke-width="0.5"/>
<path d="M111.735 204.719V363.219" stroke="black" stroke-opacity="0.9" stroke-width="0.5"/>
<line x1="116.86" y1="204.969" x2="106.61" y2="204.969" stroke="black" stroke-opacity="0.9" stroke-width="0.5"/>
<line x1="116.86" y1="363.469" x2="106.61" y2="363.469" stroke="black" stroke-opacity="0.9" stroke-width="0.5"/>
<path d="M433.738 363.219V382.969" stroke="black" stroke-opacity="0.9" stroke-width="0.5"/>
<line x1="438.863" y1="363.469" x2="428.613" y2="363.469" stroke="black" stroke-opacity="0.9" stroke-width="0.5"/>
<line x1="438.863" y1="383.219" x2="428.613" y2="383.219" stroke="black" stroke-opacity="0.9" stroke-width="0.5"/>
<path d="M938.357 470.219V506.871" stroke="black" stroke-opacity="0.9" stroke-width="0.5"/>
<line x1="943.482" y1="470.469" x2="933.232" y2="470.469" stroke="black" stroke-opacity="0.9" stroke-width="0.5"/>
<line x1="943.482" y1="507.121" x2="933.232" y2="507.121" stroke="black" stroke-opacity="0.9" stroke-width="0.5"/>
<path d="M444.087 186.219V213.719" stroke="black" stroke-opacity="0.9" stroke-width="0.5"/>
<line x1="449.212" y1="186.469" x2="438.962" y2="186.469" stroke="black" stroke-opacity="0.9" stroke-width="0.5"/>
<line x1="449.212" y1="213.969" x2="438.962" y2="213.969" stroke="black" stroke-opacity="0.9" stroke-width="0.5"/>
<path d="M220.08 131.819L217.38 128.039H218.61L220.68 130.949L222.72 128.039H223.95L221.28 131.819L224.085 135.719H222.84L220.68 132.689L218.52 135.719H217.275L220.08 131.819Z" fill="black"/>
<path d="M239.012 258.069L236.312 254.289H237.542L239.612 257.199L241.652 254.289H242.882L240.212 258.069L243.017 261.969H241.772L239.612 258.939L237.452 261.969H236.207L239.012 258.069Z" fill="black"/>
<path d="M332.84 258.069L330.14 254.289H331.37L333.44 257.199L335.48 254.289H336.71L334.04 258.069L336.845 261.969H335.6L333.44 258.939L331.28 261.969H330.035L332.84 258.069Z" fill="black"/>
<path d="M794.846 231.671L793.586 229.907H794.16L795.126 231.265L796.078 229.907H796.652L795.406 231.671L796.715 233.491H796.134L795.126 232.077L794.118 233.491H793.537L794.846 231.671ZM799.847 228.101L797.705 234.611H797.208L799.35 228.101H799.847ZM800.549 233.092L802.607 230.936C802.779 230.749 802.908 230.579 802.992 230.425C803.076 230.266 803.118 230.087 803.118 229.886C803.118 229.709 803.076 229.55 802.992 229.41C802.912 229.27 802.798 229.16 802.649 229.081C802.499 229.002 802.327 228.962 802.131 228.962C801.799 228.962 801.538 229.062 801.347 229.263C801.16 229.459 801.057 229.73 801.039 230.075H800.514C800.523 229.758 800.598 229.48 800.738 229.242C800.878 229.004 801.067 228.82 801.305 228.689C801.547 228.558 801.825 228.493 802.138 228.493C802.436 228.493 802.7 228.554 802.929 228.675C803.162 228.792 803.342 228.957 803.468 229.172C803.594 229.382 803.657 229.62 803.657 229.886C803.657 230.353 803.449 230.794 803.034 231.209L801.242 233.022H803.685V233.491H800.549V233.092Z" fill="black"/>
<path d="M710.992 427.255L708.292 423.475H709.522L711.592 426.385L713.632 423.475H714.862L712.192 427.255L714.997 431.155H713.752L711.592 428.125L709.432 431.155H708.187L710.992 427.255Z" fill="black"/>
<path d="M1000 321.641L997.301 317.861H998.531L1000.6 320.771L1002.64 317.861H1003.87L1001.2 321.641L1004.01 325.541H1002.76L1000.6 322.511L998.441 325.541H997.196L1000 321.641Z" fill="black"/>
<path d="M1036.38 142.62L1033.68 138.84H1034.91L1036.98 141.75L1039.02 138.84H1040.25L1037.58 142.62L1040.38 146.52H1039.14L1036.98 143.49L1034.82 146.52H1033.57L1036.38 142.62Z" fill="black"/>
<path d="M91.1205 282.364L95.5305 277.744C95.9005 277.344 96.1755 276.979 96.3555 276.649C96.5355 276.309 96.6255 275.924 96.6255 275.494C96.6255 275.114 96.5355 274.774 96.3555 274.474C96.1855 274.174 95.9405 273.939 95.6205 273.769C95.3005 273.599 94.9305 273.514 94.5105 273.514C93.8005 273.514 93.2405 273.729 92.8305 274.159C92.4305 274.579 92.2105 275.159 92.1705 275.899H91.0455C91.0655 275.219 91.2255 274.624 91.5255 274.114C91.8255 273.604 92.2305 273.209 92.7405 272.929C93.2605 272.649 93.8555 272.509 94.5255 272.509C95.1655 272.509 95.7305 272.639 96.2205 272.899C96.7205 273.149 97.1055 273.504 97.3755 273.964C97.6455 274.414 97.7805 274.924 97.7805 275.494C97.7805 276.494 97.3355 277.439 96.4455 278.329L92.6055 282.214H97.8405V283.219H91.1205V282.364ZM102.074 279.319L99.3741 275.539H100.604L102.674 278.449L104.714 275.539H105.944L103.274 279.319L106.079 283.219H104.834L102.674 280.189L100.514 283.219H99.2691L102.074 279.319Z" fill="black"/>
<path d="M440.072 372.794L439.172 371.534H439.582L440.272 372.504L440.952 371.534H441.362L440.472 372.794L441.407 374.094H440.992L440.272 373.084L439.552 374.094H439.137L440.072 372.794ZM443.644 370.244L442.114 374.894H441.759L443.289 370.244H443.644ZM445.306 374.164C445.07 374.164 444.861 374.117 444.681 374.024C444.505 373.93 444.365 373.802 444.261 373.639C444.158 373.475 444.091 373.29 444.061 373.084H444.441C444.475 373.314 444.565 373.499 444.711 373.639C444.861 373.775 445.061 373.844 445.311 373.844C445.468 373.844 445.606 373.815 445.726 373.759C445.846 373.699 445.938 373.615 446.001 373.509C446.068 373.402 446.101 373.279 446.101 373.139C446.101 373.002 446.071 372.88 446.011 372.774C445.951 372.667 445.865 372.585 445.751 372.529C445.638 372.469 445.505 372.439 445.351 372.439H444.766V372.099H445.321C445.471 372.099 445.596 372.074 445.696 372.024C445.8 371.97 445.876 371.897 445.926 371.804C445.976 371.707 446.001 371.595 446.001 371.469C446.001 371.349 445.97 371.242 445.906 371.149C445.843 371.052 445.755 370.977 445.641 370.924C445.528 370.87 445.396 370.844 445.246 370.844C445.016 370.844 444.836 370.905 444.706 371.029C444.58 371.152 444.508 371.325 444.491 371.549H444.111C444.121 371.339 444.176 371.157 444.276 371.004C444.38 370.847 444.515 370.729 444.681 370.649C444.851 370.565 445.04 370.524 445.246 370.524C445.466 370.524 445.663 370.564 445.836 370.644C446.01 370.724 446.145 370.837 446.241 370.984C446.338 371.127 446.386 371.292 446.386 371.479C446.386 371.665 446.333 371.83 446.226 371.974C446.123 372.117 445.996 372.215 445.846 372.269C446.04 372.319 446.195 372.422 446.311 372.579C446.428 372.735 446.486 372.922 446.486 373.139C446.486 373.329 446.438 373.502 446.341 373.659C446.245 373.812 446.106 373.935 445.926 374.029C445.746 374.119 445.54 374.164 445.306 374.164Z" fill="black"/>
<path d="M944.691 488.794L943.791 487.534H944.201L944.891 488.504L945.571 487.534H945.981L945.091 488.794L946.026 490.094H945.611L944.891 489.084L944.171 490.094H943.756L944.691 488.794ZM948.263 486.244L946.733 490.894H946.378L947.908 486.244H948.263ZM949.926 490.164C949.689 490.164 949.481 490.117 949.301 490.024C949.124 489.93 948.984 489.802 948.881 489.639C948.777 489.475 948.711 489.29 948.681 489.084H949.061C949.094 489.314 949.184 489.499 949.331 489.639C949.481 489.775 949.681 489.844 949.931 489.844C950.087 489.844 950.226 489.815 950.346 489.759C950.466 489.699 950.557 489.615 950.621 489.509C950.687 489.402 950.721 489.279 950.721 489.139C950.721 489.002 950.691 488.88 950.631 488.774C950.571 488.667 950.484 488.585 950.371 488.529C950.257 488.469 950.124 488.439 949.971 488.439H949.386V488.099H949.941C950.091 488.099 950.216 488.074 950.316 488.024C950.419 487.97 950.496 487.897 950.546 487.804C950.596 487.707 950.621 487.595 950.621 487.469C950.621 487.349 950.589 487.242 950.526 487.149C950.462 487.052 950.374 486.977 950.261 486.924C950.147 486.87 950.016 486.844 949.866 486.844C949.636 486.844 949.456 486.905 949.326 487.029C949.199 487.152 949.127 487.325 949.111 487.549H948.731C948.741 487.339 948.796 487.157 948.896 487.004C948.999 486.847 949.134 486.729 949.301 486.649C949.471 486.565 949.659 486.524 949.866 486.524C950.086 486.524 950.282 486.564 950.456 486.644C950.629 486.724 950.764 486.837 950.861 486.984C950.957 487.127 951.006 487.292 951.006 487.479C951.006 487.665 950.952 487.83 950.846 487.974C950.742 488.117 950.616 488.215 950.466 488.269C950.659 488.319 950.814 488.422 950.931 488.579C951.047 488.735 951.106 488.922 951.106 489.139C951.106 489.329 951.057 489.502 950.961 489.659C950.864 489.812 950.726 489.935 950.546 490.029C950.366 490.119 950.159 490.164 949.926 490.164Z" fill="black"/>
<path d="M450.322 198.669L449.422 197.409H449.832L450.522 198.379L451.202 197.409H451.612L450.722 198.669L451.657 199.969H451.242L450.522 198.959L449.802 199.969H449.387L450.322 198.669ZM453.894 196.119L452.364 200.769H452.009L453.539 196.119H453.894ZM454.071 198.759L455.751 196.469H456.171V198.754H456.686V199.069H456.171V199.969H455.816V199.069H454.071V198.759ZM455.816 198.754V196.884L454.471 198.754H455.816Z" fill="black"/>
<path d="M278 550.75L292 536.75V550.75H278Z" fill="black"/>
<path d="M650.562 186.219L636.562 200.219L636.562 186.219L650.562 186.219Z" fill="black"/>
</svg>
