<svg width="1161" height="119" viewBox="0 0 1161 119" fill="none" xmlns="http://www.w3.org/2000/svg">
<path d="M6.85212 2.8H21.8281V29.68H51.4921V2.8H66.4681V70H51.4921V42.832H21.8281V70H6.85212V2.8ZM85.5976 88.816C82.5256 88.816 79.7416 88.4 77.2456 87.568V75.472C78.7816 75.984 80.6056 76.24 82.7176 76.24C84.2536 76.24 85.5016 76.016 86.4616 75.568C87.4856 75.12 88.3176 74.48 88.9576 73.648C89.5976 72.816 90.1416 71.728 90.5896 70.384L90.6856 69.904L72.8296 19.888H87.8056L98.3656 53.68L108.734 19.888H123.806L106.142 70L105.566 71.44C104.03 75.6 102.462 78.896 100.862 81.328C99.3256 83.824 97.3416 85.68 94.9096 86.896C92.4776 88.176 89.3736 88.816 85.5976 88.816ZM143.327 19.888V27.184C144.671 24.624 146.623 22.576 149.183 21.04C151.743 19.504 154.847 18.736 158.495 18.736C162.847 18.736 166.783 19.888 170.303 22.192C173.823 24.496 176.543 27.664 178.463 31.696C180.447 35.728 181.439 40.144 181.439 44.944C181.439 49.808 180.447 54.256 178.463 58.288C176.543 62.256 173.823 65.392 170.303 67.696C166.847 70 162.943 71.152 158.591 71.152C155.007 71.152 151.935 70.384 149.375 68.848C146.879 67.312 144.991 65.264 143.711 62.704V87.664H129.119V19.888H143.327ZM143.711 44.944C143.711 47.632 144.191 50.064 145.151 52.24C146.111 54.352 147.455 56.016 149.183 57.232C150.975 58.384 152.991 58.96 155.231 58.96C157.599 58.96 159.647 58.32 161.375 57.04C163.103 55.76 164.415 54.032 165.311 51.856C166.271 49.68 166.751 47.376 166.751 44.944C166.751 42.512 166.271 40.24 165.311 38.128C164.415 35.952 163.103 34.224 161.375 32.944C159.647 31.6 157.599 30.928 155.231 30.928C152.991 30.928 150.975 31.536 149.183 32.752C147.455 33.904 146.111 35.568 145.151 37.744C144.191 39.856 143.711 42.256 143.711 44.944ZM186.167 44.944C186.167 40.08 187.223 35.664 189.335 31.696C191.511 27.664 194.519 24.496 198.359 22.192C202.199 19.888 206.583 18.736 211.511 18.736C216.695 18.736 221.111 19.888 224.759 22.192C228.471 24.432 231.255 27.536 233.111 31.504C235.031 35.472 235.991 39.952 235.991 44.944V48.112H200.183C200.375 50.352 200.951 52.4 201.911 54.256C202.871 56.048 204.215 57.456 205.943 58.48C207.671 59.504 209.687 60.016 211.991 60.016C214.679 60.016 216.855 59.472 218.519 58.384C220.247 57.296 221.495 55.824 222.263 53.968H235.511C234.743 57.296 233.271 60.272 231.095 62.896C228.919 65.456 226.199 67.472 222.935 68.944C219.671 70.416 216.055 71.152 212.087 71.152C206.775 71.152 202.167 70.032 198.263 67.792C194.359 65.488 191.351 62.352 189.239 58.384C187.191 54.416 186.167 49.936 186.167 44.944ZM222.071 38.512C221.815 36.592 221.207 34.928 220.247 33.52C219.351 32.048 218.135 30.928 216.599 30.16C215.127 29.328 213.431 28.912 211.511 28.912C209.591 28.912 207.863 29.328 206.327 30.16C204.855 30.992 203.607 32.144 202.583 33.616C201.623 35.024 200.951 36.656 200.567 38.512H222.071ZM243.719 19.888H257.735V31.024C258.439 27.44 259.911 24.592 262.151 22.48C264.391 20.368 267.367 19.312 271.079 19.312C272.807 19.312 274.087 19.44 274.919 19.696V33.808C274.215 33.744 273.159 33.712 271.751 33.712C268.871 33.712 266.407 34.288 264.359 35.44C262.375 36.528 260.871 38.16 259.847 40.336C258.823 42.448 258.311 45.104 258.311 48.304V70H243.719V19.888ZM301.586 71.152C295.058 71.152 289.714 69.616 285.554 66.544C281.394 63.472 278.962 59.216 278.258 53.776H291.698C292.082 56.016 293.106 57.808 294.77 59.152C296.498 60.432 298.77 61.072 301.586 61.072C304.21 61.072 306.258 60.56 307.73 59.536C309.266 58.512 310.034 57.168 310.034 55.504C310.034 54.224 309.586 53.2 308.69 52.432C307.794 51.6 306.322 51.056 304.274 50.8L293.234 48.88C288.434 48.048 284.882 46.512 282.578 44.272C280.274 42.032 279.122 38.864 279.122 34.768C279.122 31.632 279.986 28.88 281.714 26.512C283.506 24.08 286.002 22.192 289.202 20.848C292.402 19.44 296.082 18.736 300.242 18.736C306.514 18.736 311.538 20.176 315.314 23.056C319.154 25.936 321.298 29.904 321.746 34.96H308.594C308.21 33.104 307.346 31.632 306.002 30.544C304.658 29.392 302.738 28.816 300.242 28.816C297.874 28.816 295.954 29.232 294.482 30.064C293.074 30.896 292.37 32.08 292.37 33.616C292.37 34.768 292.754 35.632 293.522 36.208C294.354 36.72 295.666 37.136 297.458 37.456L308.594 39.184C313.586 39.952 317.298 41.552 319.73 43.984C322.226 46.416 323.474 49.712 323.474 53.872C323.474 57.392 322.514 60.464 320.594 63.088C318.674 65.712 316.05 67.728 312.722 69.136C309.394 70.48 305.682 71.152 301.586 71.152ZM353.897 71.152C348.841 71.152 344.329 70 340.361 67.696C336.393 65.392 333.289 62.256 331.049 58.288C328.873 54.256 327.785 49.808 327.785 44.944C327.785 40.08 328.873 35.664 331.049 31.696C333.289 27.664 336.393 24.496 340.361 22.192C344.329 19.888 348.841 18.736 353.897 18.736C358.953 18.736 363.465 19.888 367.433 22.192C371.465 24.496 374.569 27.664 376.745 31.696C378.985 35.664 380.105 40.08 380.105 44.944C380.105 49.808 378.985 54.256 376.745 58.288C374.569 62.256 371.465 65.392 367.433 67.696C363.465 70 358.953 71.152 353.897 71.152ZM353.897 59.056C356.329 59.056 358.441 58.384 360.233 57.04C362.025 55.696 363.369 53.968 364.265 51.856C365.161 49.68 365.609 47.376 365.609 44.944C365.609 42.512 365.161 40.24 364.265 38.128C363.369 35.952 362.025 34.192 360.233 32.848C358.441 31.504 356.329 30.832 353.897 30.832C351.529 30.832 349.449 31.504 347.657 32.848C345.865 34.192 344.521 35.952 343.625 38.128C342.729 40.24 342.281 42.512 342.281 44.944C342.281 47.376 342.729 49.68 343.625 51.856C344.521 53.968 345.865 55.696 347.657 57.04C349.449 58.384 351.529 59.056 353.897 59.056ZM387.588 19.888H401.796V27.28C402.948 24.592 404.676 22.512 406.98 21.04C409.284 19.504 412.228 18.736 415.812 18.736C421.636 18.736 426.052 20.592 429.06 24.304C432.068 28.016 433.572 33.04 433.572 39.376V70H418.98V41.2C418.98 38.256 418.308 35.888 416.964 34.096C415.62 32.24 413.604 31.312 410.916 31.312C409.06 31.312 407.492 31.728 406.212 32.56C404.932 33.328 403.94 34.448 403.236 35.92C402.532 37.392 402.18 39.152 402.18 41.2V70H387.588V19.888ZM443.962 19.888H458.554V70H443.962V19.888ZM443.866 0.207994H458.746V13.648H443.866V0.207994ZM466.592 44.944C466.592 40.144 467.648 35.76 469.76 31.792C471.936 27.76 474.976 24.592 478.88 22.288C482.848 19.92 487.392 18.736 492.512 18.736C497.056 18.736 501.088 19.632 504.608 21.424C508.128 23.152 510.912 25.584 512.96 28.72C515.072 31.856 516.352 35.408 516.8 39.376H502.88C502.176 36.88 500.96 34.864 499.232 33.328C497.504 31.792 495.296 31.024 492.608 31.024C490.176 31.024 488.096 31.696 486.368 33.04C484.64 34.32 483.328 36.016 482.432 38.128C481.6 40.176 481.184 42.448 481.184 44.944C481.184 47.44 481.6 49.744 482.432 51.856C483.328 53.968 484.64 55.664 486.368 56.944C488.096 58.224 490.176 58.864 492.608 58.864C495.296 58.864 497.504 58.096 499.232 56.56C500.96 55.024 502.176 53.008 502.88 50.512H516.8C516.352 54.48 515.072 58.032 512.96 61.168C510.912 64.304 508.128 66.768 504.608 68.56C501.088 70.288 497.056 71.152 492.512 71.152C487.392 71.152 482.848 70 478.88 67.696C474.976 65.328 471.936 62.16 469.76 58.192C467.648 54.16 466.592 49.744 466.592 44.944Z" fill="#0E131F"/>
<path d="M5 118H583H875.515C893.756 118 909.688 105.661 914.25 88L920.831 62.5245C921.519 59.8609 923.922 58 926.673 58V58C929.495 58 931.94 59.956 932.56 62.7092L938.25 88C942.196 105.539 957.772 118 975.75 118H1161" stroke="#EBEBEB" stroke-width="2"/>
<g filter="url(#filter0_d_1570_2206)">
<circle cx="928" cy="37" r="30" fill="#0E131F"/>
<circle cx="928" cy="37" r="30" stroke="white" stroke-width="2"/>
</g>
<path d="M918.149 43.224C917.306 43.224 916.554 43.0533 915.893 42.712C915.242 42.3707 914.736 41.896 914.373 41.288C914.021 40.68 913.845 39.992 913.845 39.224C913.845 38.5947 913.968 38.0027 914.213 37.448C914.469 36.8933 914.81 36.2747 915.237 35.592L917.717 31.8H920.165L917.509 35.816C917.648 35.6987 917.824 35.6133 918.037 35.56C918.25 35.496 918.49 35.464 918.757 35.464C919.429 35.464 920.037 35.6293 920.581 35.96C921.136 36.28 921.573 36.7333 921.893 37.32C922.213 37.896 922.373 38.5467 922.373 39.272C922.373 40.008 922.186 40.68 921.813 41.288C921.44 41.896 920.928 42.3707 920.277 42.712C919.637 43.0533 918.928 43.224 918.149 43.224ZM918.133 41.432C918.528 41.432 918.885 41.3413 919.205 41.16C919.525 40.968 919.77 40.7067 919.941 40.376C920.122 40.0453 920.213 39.6827 920.213 39.288C920.213 38.8933 920.128 38.536 919.957 38.216C919.786 37.896 919.541 37.6453 919.221 37.464C918.901 37.272 918.538 37.176 918.133 37.176C917.728 37.176 917.36 37.2667 917.029 37.448C916.709 37.6293 916.458 37.8853 916.277 38.216C916.096 38.5467 916.005 38.9093 916.005 39.304C916.005 39.72 916.096 40.0933 916.277 40.424C916.458 40.744 916.709 40.9947 917.029 41.176C917.36 41.3467 917.728 41.432 918.133 41.432ZM928.005 43.224C927.333 43.224 926.709 43.1013 926.133 42.856C925.557 42.6 925.077 42.232 924.693 41.752C924.309 41.2613 924.058 40.68 923.941 40.008H926.101C926.218 40.424 926.447 40.76 926.789 41.016C927.141 41.272 927.562 41.4 928.053 41.4C928.447 41.4 928.805 41.3093 929.125 41.128C929.445 40.9467 929.695 40.696 929.877 40.376C930.058 40.056 930.149 39.6933 930.149 39.288C930.149 38.904 930.058 38.552 929.877 38.232C929.706 37.9013 929.461 37.6453 929.141 37.464C928.821 37.272 928.458 37.176 928.053 37.176C927.626 37.176 927.253 37.2667 926.933 37.448C926.623 37.6293 926.378 37.88 926.197 38.2H924.085L924.949 31.8H931.413V33.656H926.805L926.501 36.12C926.703 35.8747 926.981 35.6827 927.333 35.544C927.685 35.4053 928.079 35.336 928.517 35.336C929.199 35.336 929.834 35.5013 930.421 35.832C931.007 36.1627 931.471 36.6267 931.813 37.224C932.154 37.8213 932.325 38.4987 932.325 39.256C932.325 40.024 932.138 40.712 931.765 41.32C931.391 41.9173 930.874 42.3867 930.213 42.728C929.551 43.0587 928.815 43.224 928.005 43.224ZM938.455 43.224C937.463 43.224 936.62 42.968 935.927 42.456C935.234 41.944 934.711 41.2507 934.359 40.376C934.018 39.4907 933.847 38.4987 933.847 37.4C933.847 36.3013 934.018 35.3147 934.359 34.44C934.711 33.5547 935.234 32.856 935.927 32.344C936.62 31.832 937.463 31.576 938.455 31.576C939.458 31.576 940.3 31.832 940.983 32.344C941.676 32.856 942.194 33.5547 942.535 34.44C942.887 35.3147 943.063 36.3013 943.063 37.4C943.063 38.4987 942.887 39.4907 942.535 40.376C942.194 41.2507 941.676 41.944 940.983 42.456C940.3 42.968 939.458 43.224 938.455 43.224ZM938.455 41.32C939.01 41.32 939.463 41.144 939.815 40.792C940.178 40.4293 940.439 39.9547 940.599 39.368C940.77 38.7707 940.855 38.1147 940.855 37.4C940.855 36.6853 940.77 36.0347 940.599 35.448C940.439 34.8507 940.178 34.376 939.815 34.024C939.463 33.6613 939.01 33.48 938.455 33.48C937.9 33.48 937.442 33.6613 937.079 34.024C936.727 34.376 936.466 34.8507 936.295 35.448C936.135 36.0347 936.055 36.6853 936.055 37.4C936.055 38.1147 936.135 38.7707 936.295 39.368C936.466 39.9547 936.727 40.4293 937.079 40.792C937.442 41.144 937.9 41.32 938.455 41.32Z" fill="white"/>
<defs>
<filter id="filter0_d_1570_2206" x="886" y="1" width="84" height="84" filterUnits="userSpaceOnUse" color-interpolation-filters="sRGB">
<feFlood flood-opacity="0" result="BackgroundImageFix"/>
<feColorMatrix in="SourceAlpha" type="matrix" values="0 0 0 0 0 0 0 0 0 0 0 0 0 0 0 0 0 0 127 0" result="hardAlpha"/>
<feOffset dy="6"/>
<feGaussianBlur stdDeviation="5.5"/>
<feComposite in2="hardAlpha" operator="out"/>
<feColorMatrix type="matrix" values="0 0 0 0 0 0 0 0 0 0 0 0 0 0 0 0 0 0 0.08 0"/>
<feBlend mode="normal" in2="BackgroundImageFix" result="effect1_dropShadow_1570_2206"/>
<feBlend mode="normal" in="SourceGraphic" in2="effect1_dropShadow_1570_2206" result="shape"/>
</filter>
</defs>
</svg>
