<svg width="1158" height="115" viewBox="0 0 1158 115" fill="none" xmlns="http://www.w3.org/2000/svg">
<path d="M13.36 48.56C11.3333 48.56 9.54667 48.2133 8 47.52C6.45333 46.8 5.2 45.7867 4.24 44.48C3.28 43.1733 2.61333 41.6533 2.24 39.92H4.96C5.44 41.8667 6.38667 43.4133 7.8 44.56C9.24 45.7067 11.1067 46.28 13.4 46.28C14.9467 46.28 16.28 46.0133 17.4 45.48C18.52 44.9467 19.3733 44.2133 19.96 43.28C20.5467 42.32 20.84 41.2533 20.84 40.08C20.84 38.6933 20.3867 37.56 19.48 36.68C18.6 35.8 17.2933 35.1733 15.56 34.8L9.32 33.52C7.21333 33.0667 5.64 32.3067 4.6 31.24C3.58667 30.1467 3.08 28.7067 3.08 26.92C3.08 25.4533 3.49333 24.16 4.32 23.04C5.14667 21.92 6.30667 21.04 7.8 20.4C9.32 19.76 11.0533 19.44 13 19.44C15.7733 19.44 18.0133 20.1467 19.72 21.56C21.4533 22.9733 22.5067 24.9067 22.88 27.36H20.16C19.8133 25.6267 19.0133 24.2533 17.76 23.24C16.5067 22.2267 14.8933 21.72 12.92 21.72C11.5333 21.72 10.2933 21.9333 9.2 22.36C8.13333 22.76 7.29333 23.3467 6.68 24.12C6.09333 24.8933 5.8 25.8 5.8 26.84C5.8 28.0667 6.12 29.0267 6.76 29.72C7.42667 30.3867 8.56 30.8933 10.16 31.24L16.48 32.52C18.7733 32.9733 20.52 33.84 21.72 35.12C22.9467 36.3733 23.56 37.9867 23.56 39.96C23.56 41.6133 23.12 43.0933 22.24 44.4C21.36 45.7067 20.1467 46.7333 18.6 47.48C17.0533 48.2 15.3067 48.56 13.36 48.56ZM37.5366 48.48C35.7232 48.48 34.0699 48 32.5766 47.04C31.0832 46.0533 29.9099 44.7467 29.0566 43.12C28.2299 41.4933 27.8166 39.72 27.8166 37.8C27.8166 35.88 28.2299 34.1067 29.0566 32.48C29.9099 30.8267 31.0832 29.52 32.5766 28.56C34.0699 27.5733 35.7232 27.08 37.5366 27.08C39.3766 27.08 41.0299 27.5733 42.4966 28.56C43.9899 29.52 45.1499 30.8267 45.9766 32.48C46.8299 34.1067 47.2566 35.88 47.2566 37.8C47.2566 39.72 46.8299 41.4933 45.9766 43.12C45.1499 44.7467 43.9899 46.0533 42.4966 47.04C41.0299 48 39.3766 48.48 37.5366 48.48ZM37.5366 46.12C38.9232 46.12 40.1499 45.7333 41.2166 44.96C42.2832 44.1867 43.1099 43.16 43.6966 41.88C44.2832 40.6 44.5766 39.24 44.5766 37.8C44.5766 36.36 44.2832 35 43.6966 33.72C43.1099 32.44 42.2832 31.4133 41.2166 30.64C40.1499 29.84 38.9232 29.44 37.5366 29.44C36.1766 29.44 34.9499 29.84 33.8566 30.64C32.7899 31.4133 31.9632 32.44 31.3766 33.72C30.8166 35 30.5366 36.36 30.5366 37.8C30.5366 39.24 30.8166 40.6 31.3766 41.88C31.9632 43.16 32.7899 44.1867 33.8566 44.96C34.9499 45.7333 36.1766 46.12 37.5366 46.12ZM52.5416 27.56H55.1416V31.28C55.5949 30 56.3949 28.9867 57.5416 28.24C58.6882 27.4667 60.0749 27.08 61.7016 27.08C64.0749 27.08 65.9149 27.84 67.2216 29.36C68.5282 30.88 69.1816 32.92 69.1816 35.48V48H66.4616V35.88C66.4616 33.8533 66.0216 32.2933 65.1416 31.2C64.2616 30.08 62.9682 29.52 61.2616 29.52C60.0882 29.52 59.0482 29.7867 58.1416 30.32C57.2349 30.8267 56.5282 31.5733 56.0216 32.56C55.5149 33.5467 55.2616 34.7067 55.2616 36.04V48H52.5416V27.56ZM76.1009 27.56H78.8209V48H76.1009V27.56ZM76.0609 19.64H78.9009V23.48H76.0609V19.64ZM84.34 37.8C84.34 35.9333 84.74 34.1733 85.54 32.52C86.3667 30.8667 87.5133 29.5467 88.98 28.56C90.4733 27.5733 92.1667 27.08 94.06 27.08C95.6333 27.08 97.02 27.3867 98.22 28C99.4467 28.5867 100.447 29.3867 101.22 30.4C101.993 31.4133 102.54 32.56 102.86 33.84H100.18C99.7 32.48 98.9533 31.4133 97.94 30.64C96.9267 29.84 95.6333 29.44 94.06 29.44C92.7 29.44 91.4867 29.8267 90.42 30.6C89.38 31.3467 88.5533 32.36 87.94 33.64C87.3533 34.92 87.06 36.3067 87.06 37.8C87.06 39.2667 87.3533 40.64 87.94 41.92C88.5533 43.2 89.38 44.2267 90.42 45C91.4867 45.7467 92.7 46.12 94.06 46.12C95.6333 46.12 96.9267 45.7333 97.94 44.96C98.9533 44.16 99.7 43.08 100.18 41.72H102.86C102.54 43 101.993 44.16 101.22 45.2C100.447 46.2133 99.4467 47.0133 98.22 47.6C97.02 48.1867 95.6333 48.48 94.06 48.48C92.1667 48.48 90.4733 47.9867 88.98 47C87.5133 46.0133 86.3667 44.6933 85.54 43.04C84.74 41.3867 84.34 39.64 84.34 37.8Z" fill="black"/>
<path d="M2 114H266H283.515C301.756 114 317.688 101.661 322.25 84L328.831 58.5245C329.519 55.8609 331.922 54 334.673 54V54C337.495 54 339.94 55.956 340.56 58.7092L346.25 84C350.196 101.539 365.772 114 383.75 114H1158" stroke="#EBEBEB" stroke-width="2"/>
<g filter="url(#filter0_d_1570_2225)">
<circle cx="335" cy="36" r="30" fill="#0E131F"/>
<circle cx="335" cy="36" r="30" stroke="white" stroke-width="2"/>
</g>
<path d="M325.304 42.224C324.504 42.224 323.794 42.0747 323.176 41.776C322.568 41.4667 322.088 41.04 321.736 40.496C321.384 39.952 321.176 39.3227 321.112 38.608H323.24C323.314 39.1413 323.528 39.5733 323.88 39.904C324.242 40.224 324.717 40.384 325.304 40.384C325.677 40.384 326.002 40.3147 326.28 40.176C326.557 40.0373 326.77 39.8507 326.92 39.616C327.069 39.3813 327.144 39.1093 327.144 38.8C327.144 38.4907 327.069 38.2187 326.92 37.984C326.781 37.7493 326.573 37.568 326.296 37.44C326.029 37.312 325.714 37.248 325.352 37.248H323.592V35.328H325.064C325.448 35.328 325.773 35.2693 326.04 35.152C326.306 35.0347 326.509 34.8693 326.648 34.656C326.786 34.432 326.856 34.1653 326.856 33.856C326.856 33.5787 326.786 33.3333 326.648 33.12C326.509 32.9067 326.306 32.736 326.04 32.608C325.784 32.48 325.485 32.416 325.144 32.416C324.61 32.416 324.189 32.5653 323.88 32.864C323.581 33.152 323.416 33.5413 323.384 34.032H321.288C321.32 33.3387 321.501 32.7307 321.832 32.208C322.162 31.6853 322.61 31.2853 323.176 31.008C323.752 30.72 324.408 30.576 325.144 30.576C325.912 30.576 326.589 30.7093 327.176 30.976C327.762 31.2427 328.221 31.6213 328.552 32.112C328.882 32.592 329.048 33.152 329.048 33.792C329.048 34.3573 328.898 34.8533 328.6 35.28C328.301 35.7067 327.896 36.016 327.384 36.208C328.013 36.3893 328.493 36.7093 328.824 37.168C329.165 37.6267 329.336 38.1867 329.336 38.848C329.336 39.5093 329.165 40.096 328.824 40.608C328.482 41.12 328.002 41.52 327.384 41.808C326.776 42.0853 326.082 42.224 325.304 42.224ZM336.189 32.672H330.781V30.8H338.525V32.432L333.629 42H331.293L336.189 32.672ZM344.236 42.224C343.244 42.224 342.401 41.968 341.708 41.456C341.015 40.944 340.492 40.2507 340.14 39.376C339.799 38.4907 339.628 37.4987 339.628 36.4C339.628 35.3013 339.799 34.3147 340.14 33.44C340.492 32.5547 341.015 31.856 341.708 31.344C342.401 30.832 343.244 30.576 344.236 30.576C345.239 30.576 346.081 30.832 346.764 31.344C347.457 31.856 347.975 32.5547 348.316 33.44C348.668 34.3147 348.844 35.3013 348.844 36.4C348.844 37.4987 348.668 38.4907 348.316 39.376C347.975 40.2507 347.457 40.944 346.764 41.456C346.081 41.968 345.239 42.224 344.236 42.224ZM344.236 40.32C344.791 40.32 345.244 40.144 345.596 39.792C345.959 39.4293 346.22 38.9547 346.38 38.368C346.551 37.7707 346.636 37.1147 346.636 36.4C346.636 35.6853 346.551 35.0347 346.38 34.448C346.22 33.8507 345.959 33.376 345.596 33.024C345.244 32.6613 344.791 32.48 344.236 32.48C343.681 32.48 343.223 32.6613 342.86 33.024C342.508 33.376 342.247 33.8507 342.076 34.448C341.916 35.0347 341.836 35.6853 341.836 36.4C341.836 37.1147 341.916 37.7707 342.076 38.368C342.247 38.9547 342.508 39.4293 342.86 39.792C343.223 40.144 343.681 40.32 344.236 40.32Z" fill="white"/>
<defs>
<filter id="filter0_d_1570_2225" x="293" y="0" width="84" height="84" filterUnits="userSpaceOnUse" color-interpolation-filters="sRGB">
<feFlood flood-opacity="0" result="BackgroundImageFix"/>
<feColorMatrix in="SourceAlpha" type="matrix" values="0 0 0 0 0 0 0 0 0 0 0 0 0 0 0 0 0 0 127 0" result="hardAlpha"/>
<feOffset dy="6"/>
<feGaussianBlur stdDeviation="5.5"/>
<feComposite in2="hardAlpha" operator="out"/>
<feColorMatrix type="matrix" values="0 0 0 0 0 0 0 0 0 0 0 0 0 0 0 0 0 0 0.08 0"/>
<feBlend mode="normal" in2="BackgroundImageFix" result="effect1_dropShadow_1570_2225"/>
<feBlend mode="normal" in="SourceGraphic" in2="effect1_dropShadow_1570_2225" result="shape"/>
</filter>
</defs>
</svg>
