<svg width="1159" height="115" viewBox="0 0 1159 115" fill="none" xmlns="http://www.w3.org/2000/svg">
<path d="M16.165 50.672C13.701 50.672 11.525 50.24 9.63696 49.376C7.78096 48.512 6.26096 47.296 5.07696 45.728C3.92496 44.128 3.14096 42.272 2.72496 40.16H6.37296C6.91696 42.432 8.02096 44.24 9.68496 45.584C11.349 46.928 13.525 47.6 16.213 47.6C18.037 47.6 19.589 47.296 20.869 46.688C22.181 46.08 23.173 45.232 23.845 44.144C24.517 43.056 24.853 41.824 24.853 40.448C24.853 38.848 24.325 37.536 23.269 36.512C22.245 35.488 20.725 34.768 18.709 34.352L11.317 32.816C8.78896 32.272 6.90096 31.344 5.65296 30.032C4.40496 28.688 3.78096 26.928 3.78096 24.752C3.78096 22.992 4.27696 21.44 5.26896 20.096C6.26096 18.72 7.65296 17.648 9.44496 16.88C11.269 16.112 13.365 15.728 15.733 15.728C19.125 15.728 21.845 16.592 23.893 18.32C25.973 20.016 27.237 22.368 27.685 25.376H24.037C23.621 23.36 22.693 21.76 21.253 20.576C19.813 19.392 17.941 18.8 15.637 18.8C14.005 18.8 12.565 19.04 11.317 19.52C10.101 19.968 9.14096 20.64 8.43696 21.536C7.76496 22.4 7.42896 23.44 7.42896 24.656C7.42896 26.096 7.79696 27.216 8.53296 28.016C9.30096 28.784 10.613 29.36 12.469 29.744L19.861 31.232C22.645 31.776 24.773 32.832 26.245 34.4C27.749 35.936 28.501 37.904 28.501 40.304C28.501 42.32 27.957 44.112 26.869 45.68C25.813 47.248 24.341 48.48 22.453 49.376C20.597 50.24 18.501 50.672 16.165 50.672ZM35.2375 25.424H38.8855V40.016C38.8855 42.352 39.3815 44.176 40.3735 45.488C41.3655 46.768 42.8535 47.408 44.8375 47.408C46.1815 47.408 47.3655 47.104 48.3895 46.496C49.4135 45.888 50.2135 45.024 50.7895 43.904C51.3655 42.752 51.6535 41.408 51.6535 39.872V25.424H55.3015V50H51.8455V45.872C51.3015 47.28 50.3575 48.416 49.0135 49.28C47.7015 50.144 46.1015 50.576 44.2135 50.576C41.3975 50.576 39.1895 49.664 37.5895 47.84C36.0215 46.016 35.2375 43.552 35.2375 40.448V25.424ZM67.0138 25.424V30.32C67.6218 28.752 68.7258 27.456 70.3258 26.432C71.9258 25.376 73.7178 24.848 75.7018 24.848C77.8138 24.848 79.7178 25.424 81.4138 26.576C83.1418 27.728 84.4858 29.296 85.4458 31.28C86.4378 33.232 86.9338 35.376 86.9338 37.712C86.9338 40.048 86.4378 42.208 85.4458 44.192C84.4858 46.144 83.1418 47.696 81.4138 48.848C79.7178 50 77.8138 50.576 75.7018 50.576C73.7498 50.576 71.9738 50.064 70.3738 49.04C68.8058 47.984 67.7178 46.672 67.1098 45.104V58.832H63.4618V25.424H67.0138ZM67.1098 37.712C67.1098 39.44 67.4618 41.056 68.1658 42.56C68.9018 44.032 69.8938 45.216 71.1418 46.112C72.4218 46.976 73.8298 47.408 75.3658 47.408C76.9018 47.408 78.2618 46.976 79.4458 46.112C80.6618 45.216 81.6058 44.032 82.2778 42.56C82.9498 41.056 83.2858 39.44 83.2858 37.712C83.2858 35.984 82.9498 34.384 82.2778 32.912C81.6058 31.408 80.6618 30.224 79.4458 29.36C78.2618 28.464 76.9018 28.016 75.3658 28.016C73.8298 28.016 72.4218 28.464 71.1418 29.36C69.8938 30.224 68.9018 31.408 68.1658 32.912C67.4618 34.384 67.1098 35.984 67.1098 37.712ZM91.2606 37.712C91.2606 35.28 91.7566 33.088 92.7486 31.136C93.7406 29.184 95.1006 27.648 96.8286 26.528C98.5566 25.408 100.509 24.848 102.685 24.848C105.053 24.848 107.069 25.392 108.733 26.48C110.429 27.536 111.693 28.976 112.525 30.8C113.389 32.624 113.821 34.656 113.821 36.896V38.576H94.8126C94.9086 40.272 95.2766 41.808 95.9166 43.184C96.5566 44.528 97.4686 45.6 98.6526 46.4C99.8686 47.2 101.293 47.6 102.925 47.6C104.685 47.6 106.125 47.2 107.245 46.4C108.365 45.568 109.213 44.464 109.789 43.088H113.341C112.893 44.592 112.173 45.904 111.181 47.024C110.221 48.144 109.021 49.024 107.581 49.664C106.173 50.272 104.621 50.576 102.925 50.576C100.525 50.576 98.4446 50 96.6846 48.848C94.9246 47.696 93.5806 46.144 92.6526 44.192C91.7246 42.24 91.2606 40.08 91.2606 37.712ZM110.413 35.648C110.285 34.112 109.901 32.752 109.261 31.568C108.621 30.384 107.741 29.456 106.621 28.784C105.501 28.08 104.173 27.728 102.637 27.728C101.197 27.728 99.9166 28.08 98.7966 28.784C97.7086 29.488 96.8286 30.432 96.1566 31.616C95.5166 32.8 95.1006 34.144 94.9086 35.648H110.413ZM120.134 25.424H123.59V31.328C124.07 29.376 124.95 27.856 126.23 26.768C127.542 25.68 129.286 25.136 131.462 25.136C132.39 25.136 133.062 25.2 133.478 25.328V28.448C133.126 28.384 132.582 28.352 131.846 28.352C130.31 28.352 128.918 28.752 127.67 29.552C126.454 30.32 125.494 31.44 124.79 32.912C124.118 34.384 123.782 36.128 123.782 38.144V50H120.134V25.424ZM147.431 50.576C144.487 50.576 142.087 49.84 140.231 48.368C138.375 46.864 137.207 44.816 136.727 42.224H140.231C140.615 43.92 141.399 45.264 142.583 46.256C143.799 47.216 145.415 47.696 147.431 47.696C149.319 47.696 150.823 47.264 151.943 46.4C153.063 45.504 153.623 44.336 153.623 42.896C153.623 41.808 153.223 40.944 152.423 40.304C151.655 39.632 150.439 39.152 148.775 38.864L144.023 38.048C141.847 37.696 140.183 37.024 139.031 36.032C137.911 35.008 137.351 33.648 137.351 31.952C137.351 30.512 137.751 29.264 138.551 28.208C139.351 27.12 140.455 26.288 141.863 25.712C143.271 25.136 144.871 24.848 146.663 24.848C149.447 24.848 151.671 25.52 153.335 26.864C155.031 28.208 155.991 30.048 156.215 32.384H152.711C152.455 31.008 151.815 29.888 150.791 29.024C149.767 28.16 148.375 27.728 146.615 27.728C144.855 27.728 143.431 28.08 142.343 28.784C141.287 29.488 140.759 30.432 140.759 31.616C140.759 32.576 141.063 33.312 141.671 33.824C142.279 34.304 143.351 34.672 144.887 34.928L149.831 35.792C152.231 36.208 154.023 36.976 155.207 38.096C156.423 39.216 157.031 40.752 157.031 42.704C157.031 44.272 156.599 45.648 155.735 46.832C154.903 48.016 153.751 48.944 152.279 49.616C150.839 50.256 149.223 50.576 147.431 50.576ZM173.053 50.576C170.845 50.576 168.829 50 167.005 48.848C165.213 47.664 163.805 46.096 162.781 44.144C161.757 42.16 161.245 40.016 161.245 37.712C161.245 35.408 161.757 33.28 162.781 31.328C163.805 29.344 165.213 27.776 167.005 26.624C168.829 25.44 170.845 24.848 173.053 24.848C175.261 24.848 177.261 25.44 179.053 26.624C180.877 27.776 182.301 29.344 183.325 31.328C184.349 33.28 184.861 35.408 184.861 37.712C184.861 40.016 184.349 42.16 183.325 44.144C182.301 46.096 180.877 47.664 179.053 48.848C177.261 50 175.261 50.576 173.053 50.576ZM173.053 47.408C174.653 47.408 176.077 46.96 177.325 46.064C178.573 45.136 179.533 43.936 180.205 42.464C180.877 40.96 181.213 39.376 181.213 37.712C181.213 36.048 180.877 34.48 180.205 33.008C179.533 31.504 178.573 30.304 177.325 29.408C176.077 28.48 174.653 28.016 173.053 28.016C171.453 28.016 170.029 28.48 168.781 29.408C167.533 30.304 166.573 31.504 165.901 33.008C165.229 34.48 164.893 36.048 164.893 37.712C164.893 39.376 165.229 40.96 165.901 42.464C166.573 43.936 167.533 45.136 168.781 46.064C170.029 46.96 171.453 47.408 173.053 47.408ZM191.102 25.424H194.558V29.648C195.134 28.144 196.094 26.976 197.438 26.144C198.782 25.28 200.414 24.848 202.334 24.848C205.182 24.848 207.39 25.76 208.958 27.584C210.558 29.408 211.358 31.872 211.358 34.976V50H207.71V35.504C207.71 33.168 207.198 31.36 206.174 30.08C205.182 28.768 203.694 28.112 201.71 28.112C200.366 28.112 199.166 28.416 198.11 29.024C197.054 29.632 196.222 30.512 195.614 31.664C195.038 32.784 194.75 34.112 194.75 35.648V50H191.102V25.424ZM219.514 25.424H223.162V50H219.514V25.424ZM219.418 15.872H223.258V20.816H219.418V15.872ZM229.636 37.712C229.636 35.472 230.132 33.36 231.124 31.376C232.116 29.392 233.508 27.808 235.3 26.624C237.092 25.44 239.14 24.848 241.444 24.848C243.364 24.848 245.06 25.216 246.532 25.952C248.004 26.656 249.204 27.632 250.132 28.88C251.06 30.096 251.716 31.488 252.1 33.056H248.5C247.924 31.488 247.06 30.256 245.908 29.36C244.756 28.464 243.268 28.016 241.444 28.016C239.844 28.016 238.42 28.464 237.172 29.36C235.956 30.256 234.996 31.456 234.292 32.96C233.62 34.432 233.284 36.016 233.284 37.712C233.284 39.408 233.62 41.008 234.292 42.512C234.996 43.984 235.956 45.168 237.172 46.064C238.42 46.96 239.844 47.408 241.444 47.408C243.268 47.408 244.756 46.96 245.908 46.064C247.06 45.168 247.924 43.936 248.5 42.368H252.1C251.716 43.936 251.06 45.344 250.132 46.592C249.204 47.808 248.004 48.784 246.532 49.52C245.06 50.224 243.364 50.576 241.444 50.576C239.14 50.576 237.092 49.984 235.3 48.8C233.508 47.616 232.116 46.032 231.124 44.048C230.132 42.064 229.636 39.952 229.636 37.712ZM269.108 16.4H274.292L285.956 45.92L297.524 16.4H302.804V50H299.444V20.144L287.54 50H284.372L272.468 20.144V50H269.108V16.4ZM317.628 20.72L309.276 26.336V22.64L318.252 16.4H321.324V50H317.628V20.72Z" fill="black"/>
<path d="M2.08496 113.958H413.085H430.6C448.841 113.958 464.772 101.62 469.335 83.9585L475.916 58.483C476.604 55.8194 479.007 53.9585 481.758 53.9585V53.9585C484.58 53.9585 487.025 55.9145 487.645 58.6677L493.335 83.9585C497.281 101.498 512.857 113.958 530.835 113.958H1158.08" stroke="#EBEBEB" stroke-width="2"/>
<g filter="url(#filter0_d_1570_2213)">
<circle cx="483.085" cy="36" r="30" fill="#0E131F"/>
<circle cx="483.085" cy="36" r="30" stroke="white" stroke-width="2"/>
</g>
<path d="M467.819 37.776L472.747 30.8H475.211V37.728H476.715V39.52H475.211V42H473.131V39.52H467.819V37.776ZM473.131 37.728V33.104L469.979 37.728H473.131ZM482.743 42.224C481.751 42.224 480.908 41.968 480.215 41.456C479.522 40.944 478.999 40.2507 478.647 39.376C478.306 38.4907 478.135 37.4987 478.135 36.4C478.135 35.3013 478.306 34.3147 478.647 33.44C478.999 32.5547 479.522 31.856 480.215 31.344C480.908 30.832 481.751 30.576 482.743 30.576C483.746 30.576 484.588 30.832 485.271 31.344C485.964 31.856 486.482 32.5547 486.823 33.44C487.175 34.3147 487.351 35.3013 487.351 36.4C487.351 37.4987 487.175 38.4907 486.823 39.376C486.482 40.2507 485.964 40.944 485.271 41.456C484.588 41.968 483.746 42.224 482.743 42.224ZM482.743 40.32C483.298 40.32 483.751 40.144 484.103 39.792C484.466 39.4293 484.727 38.9547 484.887 38.368C485.058 37.7707 485.143 37.1147 485.143 36.4C485.143 35.6853 485.058 35.0347 484.887 34.448C484.727 33.8507 484.466 33.376 484.103 33.024C483.751 32.6613 483.298 32.48 482.743 32.48C482.188 32.48 481.73 32.6613 481.367 33.024C481.015 33.376 480.754 33.8507 480.583 34.448C480.423 35.0347 480.343 35.6853 480.343 36.4C480.343 37.1147 480.423 37.7707 480.583 38.368C480.754 38.9547 481.015 39.4293 481.367 39.792C481.73 40.144 482.188 40.32 482.743 40.32ZM493.571 42.224C492.579 42.224 491.736 41.968 491.043 41.456C490.35 40.944 489.827 40.2507 489.475 39.376C489.134 38.4907 488.963 37.4987 488.963 36.4C488.963 35.3013 489.134 34.3147 489.475 33.44C489.827 32.5547 490.35 31.856 491.043 31.344C491.736 30.832 492.579 30.576 493.571 30.576C494.574 30.576 495.416 30.832 496.099 31.344C496.792 31.856 497.31 32.5547 497.651 33.44C498.003 34.3147 498.179 35.3013 498.179 36.4C498.179 37.4987 498.003 38.4907 497.651 39.376C497.31 40.2507 496.792 40.944 496.099 41.456C495.416 41.968 494.574 42.224 493.571 42.224ZM493.571 40.32C494.126 40.32 494.579 40.144 494.931 39.792C495.294 39.4293 495.555 38.9547 495.715 38.368C495.886 37.7707 495.971 37.1147 495.971 36.4C495.971 35.6853 495.886 35.0347 495.715 34.448C495.555 33.8507 495.294 33.376 494.931 33.024C494.579 32.6613 494.126 32.48 493.571 32.48C493.016 32.48 492.558 32.6613 492.195 33.024C491.843 33.376 491.582 33.8507 491.411 34.448C491.251 35.0347 491.171 35.6853 491.171 36.4C491.171 37.1147 491.251 37.7707 491.411 38.368C491.582 38.9547 491.843 39.4293 492.195 39.792C492.558 40.144 493.016 40.32 493.571 40.32Z" fill="white"/>
<defs>
<filter id="filter0_d_1570_2213" x="441.085" y="0" width="84" height="84" filterUnits="userSpaceOnUse" color-interpolation-filters="sRGB">
<feFlood flood-opacity="0" result="BackgroundImageFix"/>
<feColorMatrix in="SourceAlpha" type="matrix" values="0 0 0 0 0 0 0 0 0 0 0 0 0 0 0 0 0 0 127 0" result="hardAlpha"/>
<feOffset dy="6"/>
<feGaussianBlur stdDeviation="5.5"/>
<feComposite in2="hardAlpha" operator="out"/>
<feColorMatrix type="matrix" values="0 0 0 0 0 0 0 0 0 0 0 0 0 0 0 0 0 0 0.08 0"/>
<feBlend mode="normal" in2="BackgroundImageFix" result="effect1_dropShadow_1570_2213"/>
<feBlend mode="normal" in="SourceGraphic" in2="effect1_dropShadow_1570_2213" result="shape"/>
</filter>
</defs>
</svg>
