<svg width="1158" height="126" viewBox="0 0 1158 126" fill="none" xmlns="http://www.w3.org/2000/svg">
<path d="M21.568 58.896C18.0693 58.896 14.976 58.2987 12.288 57.104C9.6 55.8667 7.44533 54.1387 5.824 51.92C4.20267 49.6587 3.2 47.0347 2.816 44.048H11.52C12.032 46.4373 13.1413 48.336 14.848 49.744C16.5547 51.1093 18.8373 51.792 21.696 51.792C23.488 51.792 25.0453 51.5147 26.368 50.96C27.6907 50.4053 28.6933 49.6373 29.376 48.656C30.1013 47.632 30.464 46.4587 30.464 45.136C30.464 43.6427 29.9733 42.4267 28.992 41.488C28.0107 40.5067 26.5173 39.824 24.512 39.44L14.976 37.52C11.3067 36.7947 8.53333 35.472 6.656 33.552C4.82133 31.632 3.904 28.9867 3.904 25.616C3.904 23.056 4.608 20.7733 6.016 18.768C7.46667 16.72 9.472 15.1413 12.032 14.032C14.6347 12.88 17.5787 12.304 20.864 12.304C25.856 12.304 29.8667 13.5413 32.896 16.016C35.9253 18.4907 37.6107 21.8827 37.952 26.192H29.312C28.928 24.1013 28.0107 22.4587 26.56 21.264C25.1093 20.0267 23.1893 19.408 20.8 19.408C19.136 19.408 17.6853 19.6213 16.448 20.048C15.2533 20.4747 14.3147 21.1147 13.632 21.968C12.9493 22.7787 12.608 23.8027 12.608 25.04C12.608 26.3627 12.992 27.3867 13.76 28.112C14.528 28.8373 15.7867 29.3707 17.536 29.712L27.584 31.632C31.3387 32.3573 34.1973 33.7867 36.16 35.92C38.1653 38.0107 39.168 40.7413 39.168 44.112C39.168 46.9707 38.4 49.5307 36.864 51.792C35.3707 54.0533 33.28 55.8027 30.592 57.04C27.9467 58.2773 24.9387 58.896 21.568 58.896ZM45.84 24.72H54.608V43.984C54.608 46.2453 55.0773 48.0373 56.016 49.36C56.9973 50.64 58.4693 51.28 60.432 51.28C61.7547 51.28 62.8853 51.0027 63.824 50.448C64.8053 49.8507 65.552 49.0187 66.064 47.952C66.576 46.8427 66.832 45.52 66.832 43.984V24.72H75.536V58H67.216V52.944C66.448 54.736 65.2533 56.1653 63.632 57.232C62.0533 58.256 60.0693 58.768 57.68 58.768C53.84 58.768 50.896 57.552 48.848 55.12C46.8427 52.6453 45.84 49.296 45.84 45.072V24.72ZM92.422 24.72V29.968C93.2753 28.1333 94.598 26.6827 96.39 25.616C98.182 24.5067 100.315 23.952 102.79 23.952C105.691 23.952 108.294 24.72 110.598 26.256C112.945 27.792 114.758 29.904 116.038 32.592C117.361 35.2373 118.022 38.16 118.022 41.36C118.022 44.56 117.361 47.504 116.038 50.192C114.758 52.8373 112.966 54.928 110.662 56.464C108.358 58 105.755 58.768 102.854 58.768C100.422 58.768 98.3313 58.2347 96.582 57.168C94.8327 56.0587 93.5313 54.5867 92.678 52.752V69.776H83.91V24.72H92.422ZM92.678 41.36C92.678 43.28 93.0193 45.008 93.702 46.544C94.3847 48.08 95.366 49.296 96.646 50.192C97.926 51.0453 99.3767 51.472 100.998 51.472C102.662 51.472 104.113 51.0027 105.35 50.064C106.63 49.1253 107.611 47.888 108.294 46.352C108.977 44.816 109.318 43.152 109.318 41.36C109.318 39.6107 108.977 37.968 108.294 36.432C107.611 34.8533 106.63 33.5947 105.35 32.656C104.113 31.7173 102.662 31.248 100.998 31.248C99.3767 31.248 97.926 31.696 96.646 32.592C95.366 33.4453 94.3847 34.64 93.702 36.176C93.0193 37.712 92.678 39.44 92.678 41.36ZM122.364 41.36C122.364 38.1173 123.068 35.1733 124.476 32.528C125.884 29.8827 127.846 27.792 130.364 26.256C132.881 24.72 135.718 23.952 138.876 23.952C142.289 23.952 145.19 24.6987 147.58 26.192C150.012 27.6853 151.846 29.7333 153.083 32.336C154.321 34.9387 154.94 37.8827 154.94 41.168V43.28H130.748C130.876 44.944 131.281 46.4587 131.964 47.824C132.646 49.1467 133.606 50.192 134.844 50.96C136.081 51.6853 137.532 52.048 139.196 52.048C141.116 52.048 142.673 51.664 143.868 50.896C145.062 50.0853 145.958 48.9973 146.556 47.632H154.492C153.98 49.808 152.998 51.7493 151.548 53.456C150.14 55.12 148.369 56.4213 146.236 57.36C144.145 58.2987 141.82 58.768 139.26 58.768C135.804 58.768 132.796 58.0213 130.236 56.528C127.676 54.992 125.713 52.9013 124.348 50.256C123.025 47.6107 122.364 44.6453 122.364 41.36ZM146.556 37.2C146.342 35.792 145.894 34.576 145.212 33.552C144.572 32.4853 143.697 31.6533 142.588 31.056C141.521 30.4587 140.284 30.16 138.876 30.16C137.468 30.16 136.209 30.4587 135.1 31.056C134.033 31.6533 133.137 32.4853 132.412 33.552C131.729 34.6187 131.26 35.8347 131.004 37.2H146.556ZM161.41 24.72H169.794V32.208C170.306 29.776 171.33 27.856 172.866 26.448C174.402 25.04 176.45 24.336 179.01 24.336C180.162 24.336 181.015 24.4213 181.57 24.592V32.912C181.143 32.8693 180.439 32.848 179.458 32.848C177.495 32.848 175.81 33.2533 174.402 34.064C173.037 34.8747 171.991 36.048 171.266 37.584C170.541 39.12 170.178 40.9973 170.178 43.216V58H161.41V24.72ZM200.154 58.768C195.887 58.768 192.41 57.7653 189.722 55.76C187.034 53.712 185.434 50.8747 184.922 47.248H192.922C193.263 48.912 194.031 50.2347 195.226 51.216C196.463 52.1973 198.106 52.688 200.154 52.688C202.074 52.688 203.588 52.304 204.698 51.536C205.807 50.7253 206.362 49.68 206.362 48.4C206.362 47.4187 206.02 46.6293 205.338 46.032C204.655 45.4347 203.524 45.008 201.946 44.752L194.778 43.536C191.663 43.024 189.338 42.0427 187.802 40.592C186.266 39.0987 185.498 37.0293 185.498 34.384C185.498 32.336 186.074 30.544 187.226 29.008C188.378 27.4293 189.999 26.192 192.09 25.296C194.18 24.4 196.57 23.952 199.258 23.952C203.354 23.952 206.639 24.912 209.114 26.832C211.588 28.7093 212.975 31.312 213.274 34.64H205.274C205.06 33.232 204.442 32.1227 203.418 31.312C202.436 30.5013 201.05 30.096 199.258 30.096C197.466 30.096 196.036 30.416 194.97 31.056C193.946 31.6533 193.434 32.528 193.434 33.68C193.434 34.576 193.732 35.2373 194.33 35.664C194.927 36.048 195.908 36.368 197.274 36.624L204.506 37.776C207.834 38.288 210.308 39.3547 211.93 40.976C213.551 42.5547 214.362 44.7307 214.362 47.504C214.362 49.7653 213.743 51.7493 212.506 53.456C211.268 55.1627 209.562 56.4853 207.386 57.424C205.252 58.32 202.842 58.768 200.154 58.768ZM235.577 58.768C232.291 58.768 229.347 58 226.745 56.464C224.142 54.928 222.115 52.8373 220.665 50.192C219.214 47.504 218.489 44.56 218.489 41.36C218.489 38.16 219.214 35.2373 220.665 32.592C222.115 29.904 224.142 27.792 226.745 26.256C229.347 24.72 232.291 23.952 235.577 23.952C238.862 23.952 241.806 24.72 244.409 26.256C247.011 27.792 249.038 29.904 250.489 32.592C251.939 35.2373 252.665 38.16 252.665 41.36C252.665 44.56 251.939 47.504 250.489 50.192C249.038 52.8373 247.011 54.928 244.409 56.464C241.806 58 238.862 58.768 235.577 58.768ZM235.577 51.536C237.283 51.536 238.777 51.0453 240.057 50.064C241.337 49.0827 242.318 47.824 243.001 46.288C243.683 44.752 244.025 43.1093 244.025 41.36C244.025 39.6107 243.683 37.968 243.001 36.432C242.318 34.896 241.337 33.6587 240.057 32.72C238.777 31.7387 237.283 31.248 235.577 31.248C233.87 31.248 232.377 31.7387 231.097 32.72C229.817 33.6587 228.835 34.896 228.153 36.432C227.47 37.968 227.129 39.6107 227.129 41.36C227.129 43.1093 227.47 44.752 228.153 46.288C228.835 47.824 229.817 49.0827 231.097 50.064C232.377 51.0453 233.87 51.536 235.577 51.536ZM258.973 24.72H267.421V29.84C268.189 27.9627 269.362 26.512 270.941 25.488C272.562 24.464 274.589 23.952 277.021 23.952C280.861 23.952 283.805 25.1893 285.853 27.664C287.901 30.096 288.925 33.424 288.925 37.648V58H280.157V38.8C280.157 36.5813 279.666 34.8107 278.685 33.488C277.703 32.1653 276.21 31.504 274.205 31.504C272.882 31.504 271.73 31.8027 270.749 32.4C269.767 32.9973 269.021 33.8507 268.509 34.96C267.997 36.0267 267.741 37.3067 267.741 38.8V58H258.973V24.72ZM297.23 24.72H305.998V58H297.23V24.72ZM297.166 11.664H306.062V20.112H297.166V11.664ZM312.676 41.36C312.676 38.2027 313.38 35.3013 314.788 32.656C316.196 29.968 318.18 27.856 320.74 26.32C323.3 24.7413 326.265 23.952 329.636 23.952C332.537 23.952 335.119 24.528 337.38 25.68C339.684 26.7893 341.519 28.3467 342.884 30.352C344.249 32.3147 345.103 34.576 345.444 37.136H337.06C336.548 35.3867 335.673 34 334.436 32.976C333.199 31.9093 331.62 31.376 329.7 31.376C327.951 31.376 326.457 31.8453 325.22 32.784C323.983 33.68 323.023 34.896 322.34 36.432C321.7 37.9253 321.38 39.568 321.38 41.36C321.38 43.152 321.7 44.816 322.34 46.352C323.023 47.8453 323.983 49.0613 325.22 50C326.457 50.9387 327.951 51.408 329.7 51.408C331.62 51.408 333.199 50.8747 334.436 49.808C335.673 48.7413 336.548 47.3333 337.06 45.584H345.444C345.103 48.144 344.249 50.4267 342.884 52.432C341.519 54.3947 339.684 55.952 337.38 57.104C335.119 58.2133 332.537 58.768 329.636 58.768C326.265 58.768 323.3 58 320.74 56.464C318.18 54.8853 316.196 52.7733 314.788 50.128C313.38 47.44 312.676 44.5173 312.676 41.36ZM365.922 13.2H377.378L390.178 46.672L402.978 13.2H414.434V58H406.114V24.848L393.57 58H386.85L374.242 24.848V58H365.922V13.2ZM422.581 50.96L440.437 33.488C441.76 32.1653 442.741 30.9493 443.381 29.84C444.021 28.7307 444.341 27.4507 444.341 26C444.341 24.848 444.064 23.824 443.509 22.928C442.997 21.9893 442.25 21.264 441.269 20.752C440.33 20.24 439.221 19.984 437.941 19.984C435.722 19.984 434.037 20.6453 432.885 21.968C431.733 23.248 431.093 25.0187 430.965 27.28H422.325C422.496 24.2507 423.264 21.6053 424.629 19.344C425.994 17.0827 427.829 15.3547 430.133 14.16C432.437 12.9227 435.061 12.304 438.005 12.304C441.034 12.304 443.68 12.88 445.941 14.032C448.245 15.1413 450.016 16.72 451.253 18.768C452.533 20.816 453.173 23.184 453.173 25.872C453.173 30.3947 451.104 34.5333 446.965 38.288L434.037 50.32H453.173V58H422.581V50.96Z" fill="black"/>
<path d="M2 124.667H580H677.515C695.756 124.667 711.688 112.328 716.25 94.6665L722.831 69.191C723.519 66.5274 725.922 64.6665 728.673 64.6665V64.6665C731.495 64.6665 733.94 66.6225 734.56 69.3757L740.25 94.6665C744.196 112.206 759.772 124.667 777.75 124.667H1158" stroke="#EBEBEB" stroke-width="2"/>
<g filter="url(#filter0_d_1570_2207)">
<circle cx="729" cy="38" r="30" fill="#0E131F"/>
<circle cx="729" cy="38" r="30" stroke="white" stroke-width="2"/>
</g>
<path d="M718.188 44.224C717.345 44.224 716.593 44.0533 715.932 43.712C715.281 43.3707 714.775 42.896 714.412 42.288C714.06 41.68 713.884 40.992 713.884 40.224C713.884 39.5947 714.007 39.0027 714.252 38.448C714.508 37.8933 714.849 37.2747 715.276 36.592L717.756 32.8H720.204L717.548 36.816C717.687 36.6987 717.863 36.6133 718.076 36.56C718.289 36.496 718.529 36.464 718.796 36.464C719.468 36.464 720.076 36.6293 720.62 36.96C721.175 37.28 721.612 37.7333 721.932 38.32C722.252 38.896 722.412 39.5467 722.412 40.272C722.412 41.008 722.225 41.68 721.852 42.288C721.479 42.896 720.967 43.3707 720.316 43.712C719.676 44.0533 718.967 44.224 718.188 44.224ZM718.172 42.432C718.567 42.432 718.924 42.3413 719.244 42.16C719.564 41.968 719.809 41.7067 719.98 41.376C720.161 41.0453 720.252 40.6827 720.252 40.288C720.252 39.8933 720.167 39.536 719.996 39.216C719.825 38.896 719.58 38.6453 719.26 38.464C718.94 38.272 718.577 38.176 718.172 38.176C717.767 38.176 717.399 38.2667 717.068 38.448C716.748 38.6293 716.497 38.8853 716.316 39.216C716.135 39.5467 716.044 39.9093 716.044 40.304C716.044 40.72 716.135 41.0933 716.316 41.424C716.497 41.744 716.748 41.9947 717.068 42.176C717.399 42.3467 717.767 42.432 718.172 42.432ZM728.588 44.224C727.596 44.224 726.753 43.968 726.06 43.456C725.366 42.944 724.844 42.2507 724.492 41.376C724.15 40.4907 723.98 39.4987 723.98 38.4C723.98 37.3013 724.15 36.3147 724.492 35.44C724.844 34.5547 725.366 33.856 726.06 33.344C726.753 32.832 727.596 32.576 728.588 32.576C729.59 32.576 730.433 32.832 731.116 33.344C731.809 33.856 732.326 34.5547 732.668 35.44C733.02 36.3147 733.196 37.3013 733.196 38.4C733.196 39.4987 733.02 40.4907 732.668 41.376C732.326 42.2507 731.809 42.944 731.116 43.456C730.433 43.968 729.59 44.224 728.588 44.224ZM728.588 42.32C729.142 42.32 729.596 42.144 729.948 41.792C730.31 41.4293 730.572 40.9547 730.732 40.368C730.902 39.7707 730.988 39.1147 730.988 38.4C730.988 37.6853 730.902 37.0347 730.732 36.448C730.572 35.8507 730.31 35.376 729.948 35.024C729.596 34.6613 729.142 34.48 728.588 34.48C728.033 34.48 727.574 34.6613 727.212 35.024C726.86 35.376 726.598 35.8507 726.428 36.448C726.268 37.0347 726.188 37.6853 726.188 38.4C726.188 39.1147 726.268 39.7707 726.428 40.368C726.598 40.9547 726.86 41.4293 727.212 41.792C727.574 42.144 728.033 42.32 728.588 42.32ZM739.416 44.224C738.424 44.224 737.581 43.968 736.888 43.456C736.194 42.944 735.672 42.2507 735.32 41.376C734.978 40.4907 734.808 39.4987 734.808 38.4C734.808 37.3013 734.978 36.3147 735.32 35.44C735.672 34.5547 736.194 33.856 736.888 33.344C737.581 32.832 738.424 32.576 739.416 32.576C740.418 32.576 741.261 32.832 741.944 33.344C742.637 33.856 743.154 34.5547 743.496 35.44C743.848 36.3147 744.024 37.3013 744.024 38.4C744.024 39.4987 743.848 40.4907 743.496 41.376C743.154 42.2507 742.637 42.944 741.944 43.456C741.261 43.968 740.418 44.224 739.416 44.224ZM739.416 42.32C739.97 42.32 740.424 42.144 740.776 41.792C741.138 41.4293 741.4 40.9547 741.56 40.368C741.73 39.7707 741.816 39.1147 741.816 38.4C741.816 37.6853 741.73 37.0347 741.56 36.448C741.4 35.8507 741.138 35.376 740.776 35.024C740.424 34.6613 739.97 34.48 739.416 34.48C738.861 34.48 738.402 34.6613 738.04 35.024C737.688 35.376 737.426 35.8507 737.256 36.448C737.096 37.0347 737.016 37.6853 737.016 38.4C737.016 39.1147 737.096 39.7707 737.256 40.368C737.426 40.9547 737.688 41.4293 738.04 41.792C738.402 42.144 738.861 42.32 739.416 42.32Z" fill="white"/>
<defs>
<filter id="filter0_d_1570_2207" x="687" y="2" width="84" height="84" filterUnits="userSpaceOnUse" color-interpolation-filters="sRGB">
<feFlood flood-opacity="0" result="BackgroundImageFix"/>
<feColorMatrix in="SourceAlpha" type="matrix" values="0 0 0 0 0 0 0 0 0 0 0 0 0 0 0 0 0 0 127 0" result="hardAlpha"/>
<feOffset dy="6"/>
<feGaussianBlur stdDeviation="5.5"/>
<feComposite in2="hardAlpha" operator="out"/>
<feColorMatrix type="matrix" values="0 0 0 0 0 0 0 0 0 0 0 0 0 0 0 0 0 0 0.08 0"/>
<feBlend mode="normal" in2="BackgroundImageFix" result="effect1_dropShadow_1570_2207"/>
<feBlend mode="normal" in="SourceGraphic" in2="effect1_dropShadow_1570_2207" result="shape"/>
</filter>
</defs>
</svg>
